<svg width="240" height="40" viewBox="0 0 240 40" fill="none" xmlns="http://www.w3.org/2000/svg">
<g clip-path="url(#clip0_226_10411)">
<mask id="mask0_226_10411" style="mask-type:luminance" maskUnits="userSpaceOnUse" x="0" y="0" width="240" height="40">
<path d="M239.97 0H0V39.995H239.97V0Z" fill="white"/>
</mask>
<g mask="url(#mask0_226_10411)">
<path d="M239.769 0.120239H0.200378V39.7152H239.769V0.120239Z" fill="white"/>
<path d="M0 0.000366211V39.9946H239.97V0.000366211H0ZM119.984 39.1961H0.799999V0.800365H119.984V39.1961ZM199.975 39.1961H120.784V0.800365H199.975V39.1961ZM239.17 39.1961H200.776V0.800365H239.171L239.17 39.1961Z" fill="black"/>
<path d="M188.492 13.5453V22.3551C188.492 22.4694 188.416 22.5075 188.36 22.3932L183.332 13.4691C183.302 13.4224 183.259 13.3841 183.211 13.3575C183.161 13.331 183.106 13.3169 183.05 13.3167H180.898C180.868 13.3157 180.838 13.3209 180.81 13.3321C180.782 13.3433 180.757 13.3601 180.734 13.3815C180.713 13.4029 180.696 13.4284 180.686 13.4567C180.674 13.4848 180.669 13.515 180.67 13.5453V26.4074C180.669 26.4377 180.674 26.4678 180.686 26.496C180.696 26.5241 180.713 26.5497 180.734 26.5712C180.757 26.5926 180.782 26.6094 180.81 26.6205C180.838 26.6316 180.868 26.6369 180.898 26.636H182.765C182.796 26.6369 182.825 26.6316 182.854 26.6205C182.881 26.6094 182.908 26.5926 182.929 26.5712C182.95 26.5497 182.967 26.5241 182.979 26.496C182.989 26.4678 182.995 26.4377 182.994 26.4074V17.6172C182.994 17.5029 183.07 17.4648 183.126 17.5791L188.153 26.4836C188.184 26.5301 188.226 26.5686 188.275 26.5951C188.325 26.6217 188.38 26.6356 188.436 26.636H190.587C190.618 26.6371 190.648 26.632 190.676 26.6209C190.705 26.6099 190.73 26.5931 190.751 26.5716C190.774 26.5501 190.789 26.5244 190.801 26.4962C190.812 26.4679 190.817 26.4377 190.816 26.4074V13.5453C190.817 13.5149 190.812 13.4847 190.801 13.4564C190.789 13.4281 190.774 13.4025 190.751 13.381C190.73 13.3596 190.705 13.3427 190.676 13.3317C190.648 13.3206 190.618 13.3155 190.587 13.3167H188.721C188.69 13.3157 188.66 13.3209 188.632 13.3321C188.604 13.3433 188.579 13.3601 188.557 13.3815C188.535 13.4029 188.518 13.4284 188.508 13.4567C188.496 13.4848 188.491 13.515 188.492 13.5453ZM175.037 26.636H176.931C176.961 26.6369 176.992 26.6316 177.019 26.6205C177.048 26.6094 177.073 26.5926 177.095 26.5712C177.116 26.5497 177.133 26.5241 177.144 26.496C177.156 26.4678 177.161 26.4377 177.16 26.4074V13.5453C177.161 13.515 177.156 13.4848 177.144 13.4567C177.133 13.4284 177.116 13.4029 177.095 13.3815C177.073 13.3601 177.048 13.3433 177.019 13.3321C176.992 13.3209 176.961 13.3157 176.931 13.3167H175.044C175.014 13.3153 174.984 13.3203 174.956 13.3312C174.927 13.3422 174.901 13.359 174.879 13.3805C174.858 13.402 174.841 13.4277 174.83 13.4561C174.818 13.4844 174.814 13.5148 174.815 13.5453V26.4074C174.814 26.4375 174.818 26.4677 174.83 26.4959C174.84 26.524 174.857 26.5496 174.878 26.5711C174.899 26.5926 174.925 26.6094 174.953 26.6205C174.981 26.6316 175.012 26.6369 175.041 26.636M167.524 24.3149V13.5453C167.526 13.5149 167.521 13.4847 167.509 13.4564C167.498 13.4281 167.481 13.4025 167.46 13.381C167.438 13.3596 167.413 13.3427 167.384 13.3317C167.357 13.3206 167.326 13.3155 167.295 13.3167H165.411C165.38 13.3151 165.349 13.32 165.321 13.3308C165.292 13.3417 165.266 13.3584 165.244 13.3799C165.222 13.4014 165.205 13.4272 165.194 13.4556C165.182 13.4841 165.177 13.5146 165.178 13.5453V26.4074C165.177 26.4377 165.182 26.4678 165.194 26.496C165.204 26.5241 165.221 26.5497 165.242 26.5712C165.265 26.5926 165.29 26.6094 165.317 26.6205C165.346 26.6316 165.376 26.6369 165.406 26.636H171.896C171.927 26.6371 171.958 26.632 171.985 26.6209C172.014 26.6099 172.039 26.5931 172.061 26.5716C172.083 26.5501 172.099 26.5244 172.11 26.4962C172.122 26.4679 172.127 26.4377 172.125 26.4074V24.6578C172.127 24.6275 172.122 24.5972 172.11 24.569C172.099 24.5406 172.083 24.515 172.061 24.4935C172.039 24.472 172.014 24.4552 171.985 24.4442C171.958 24.4331 171.927 24.428 171.896 24.4292H167.632C167.616 24.43 167.601 24.4276 167.587 24.4223C167.572 24.4169 167.56 24.4087 167.549 24.3981C167.539 24.3874 167.53 24.3747 167.525 24.3606C167.52 24.3465 167.516 24.3314 167.517 24.3164M155.202 15.5206H156.935C158.477 15.5206 159.716 16.3389 159.716 18.032C159.716 19.7252 158.477 20.5435 156.916 20.5435H155.202C155.187 20.5441 155.172 20.5416 155.158 20.5361C155.144 20.5305 155.131 20.5221 155.121 20.5114C155.11 20.5006 155.102 20.4878 155.096 20.4736C155.09 20.4596 155.088 20.4444 155.088 20.4292V15.632C155.086 15.6166 155.088 15.6008 155.093 15.5861C155.097 15.5713 155.106 15.5579 155.117 15.547C155.128 15.536 155.142 15.5278 155.157 15.5229C155.171 15.5181 155.187 15.5168 155.202 15.5191M159.62 26.6302H162.019C162.209 26.6302 162.266 26.4963 162.151 26.3481L159.294 22.4892C159.284 22.4764 159.275 22.461 159.271 22.4445C159.267 22.428 159.267 22.4108 159.27 22.3942C159.274 22.3775 159.281 22.3621 159.292 22.349C159.303 22.3357 159.316 22.3254 159.332 22.3185C161.025 21.6328 162.154 20.1301 162.154 18.0377C162.154 15.0747 159.907 13.3181 157.051 13.3181H152.976C152.946 13.3169 152.915 13.322 152.888 13.333C152.859 13.344 152.834 13.3606 152.813 13.382C152.79 13.4033 152.775 13.4288 152.763 13.4569C152.751 13.485 152.747 13.5151 152.747 13.5453V26.4074C152.746 26.4377 152.751 26.4679 152.763 26.4962C152.774 26.5244 152.79 26.5501 152.812 26.5716C152.833 26.5931 152.859 26.6099 152.887 26.6209C152.915 26.632 152.946 26.6371 152.976 26.636H154.861C154.891 26.6369 154.922 26.6316 154.95 26.6205C154.978 26.6094 155.003 26.5926 155.025 26.5712C155.047 26.5497 155.063 26.5241 155.074 26.496C155.086 26.4678 155.091 26.4377 155.09 26.4074V22.8701C155.089 22.855 155.092 22.8399 155.097 22.8257C155.103 22.8116 155.111 22.7987 155.122 22.788C155.132 22.7772 155.145 22.7689 155.16 22.7634C155.174 22.7578 155.188 22.7552 155.204 22.7559H156.652C156.71 22.7615 156.764 22.7887 156.804 22.832L159.354 26.485C159.382 26.5316 159.421 26.5702 159.468 26.597C159.514 26.6238 159.567 26.6377 159.621 26.6373M149.285 15.2977V13.5453C149.287 13.5149 149.281 13.4847 149.27 13.4564C149.259 13.4281 149.242 13.4025 149.221 13.381C149.199 13.3596 149.174 13.3427 149.145 13.3317C149.117 13.3206 149.087 13.3155 149.056 13.3167H142.126C142.095 13.3155 142.066 13.3206 142.037 13.3317C142.008 13.3427 141.983 13.3596 141.962 13.381C141.941 13.4025 141.924 13.4281 141.912 13.4564C141.902 13.4847 141.896 13.5149 141.897 13.5453V26.4074C141.896 26.4377 141.902 26.4679 141.912 26.4962C141.924 26.5244 141.941 26.5501 141.962 26.5716C141.983 26.5931 142.008 26.6099 142.037 26.6209C142.066 26.632 142.095 26.6371 142.126 26.636H149.056C149.087 26.6371 149.117 26.632 149.145 26.6209C149.174 26.6099 149.199 26.5931 149.221 26.5716C149.242 26.5501 149.259 26.5244 149.27 26.4962C149.281 26.4679 149.287 26.4377 149.285 26.4074V24.6578C149.287 24.6275 149.281 24.5972 149.27 24.569C149.259 24.5406 149.242 24.515 149.221 24.4935C149.199 24.472 149.174 24.4552 149.145 24.4442C149.117 24.4331 149.087 24.428 149.056 24.4292H144.339C144.324 24.43 144.308 24.4276 144.294 24.4223C144.28 24.4169 144.267 24.4087 144.256 24.3981C144.245 24.3874 144.237 24.3747 144.232 24.3606C144.226 24.3465 144.223 24.3314 144.224 24.3164V21.1191C144.223 21.104 144.226 21.0889 144.232 21.0747C144.237 21.0606 144.245 21.0478 144.256 21.037C144.267 21.0263 144.279 21.0179 144.294 21.0124C144.308 21.0069 144.323 21.0043 144.339 21.0048H149.06C149.091 21.0063 149.122 21.0014 149.15 20.9903C149.178 20.9793 149.204 20.9626 149.225 20.941C149.247 20.9196 149.263 20.8937 149.275 20.8654C149.286 20.837 149.291 20.8068 149.289 20.7763V19.0479C149.291 19.0175 149.286 18.9873 149.274 18.959C149.263 18.9308 149.247 18.9052 149.225 18.8837C149.203 18.8622 149.178 18.8454 149.149 18.8344C149.122 18.8233 149.091 18.8182 149.06 18.8193H144.339C144.323 18.8217 144.307 18.8204 144.292 18.8155C144.277 18.8108 144.265 18.8025 144.253 18.7916C144.242 18.7806 144.234 18.7672 144.229 18.7525C144.223 18.7377 144.222 18.7219 144.224 18.7064V15.6391C144.223 15.6241 144.226 15.6091 144.232 15.5951C144.238 15.5811 144.247 15.5684 144.257 15.5579C144.268 15.5473 144.28 15.539 144.294 15.5336C144.308 15.5281 144.324 15.5257 144.339 15.5262H149.06C149.091 15.5274 149.122 15.5223 149.149 15.5113C149.178 15.5002 149.203 15.4834 149.225 15.4619C149.247 15.4405 149.263 15.4148 149.274 15.3865C149.286 15.3583 149.291 15.328 149.289 15.2977M134.439 24.4292H132.42C132.405 24.4298 132.39 24.4273 132.377 24.4219C132.362 24.4164 132.349 24.4081 132.339 24.3974C132.328 24.3869 132.321 24.3742 132.314 24.3602C132.309 24.3462 132.307 24.3313 132.307 24.3164V21.1191C132.305 21.1038 132.306 21.088 132.311 21.0731C132.316 21.0583 132.324 21.0448 132.335 21.0337C132.346 21.0226 132.36 21.0143 132.375 21.0092C132.389 21.0042 132.405 21.0027 132.42 21.0048H134.439C135.676 21.0048 136.362 21.7104 136.362 22.7178C136.362 23.7252 135.676 24.4292 134.439 24.4292ZM134.249 15.5206C135.448 15.5206 136.115 16.1668 136.115 17.1559C136.115 18.145 135.448 18.8109 134.249 18.8109H132.415C132.399 18.813 132.384 18.8115 132.369 18.8065C132.354 18.8017 132.341 18.7934 132.33 18.7825C132.32 18.7715 132.311 18.7582 132.306 18.7436C132.302 18.7289 132.299 18.7133 132.302 18.698V15.6391C132.299 15.6238 132.302 15.6082 132.306 15.5935C132.311 15.5789 132.32 15.5656 132.33 15.5547C132.341 15.5437 132.354 15.5354 132.369 15.5306C132.384 15.5256 132.399 15.5241 132.415 15.5262L134.249 15.5206ZM137.03 19.7111C137.507 19.4196 137.898 19.0077 138.166 18.5169C138.434 18.026 138.567 17.4734 138.553 16.9146C138.553 14.8786 137.143 13.3181 134.554 13.3181H130.212C130.182 13.3169 130.151 13.322 130.124 13.333C130.095 13.344 130.07 13.3606 130.049 13.382C130.026 13.4033 130.011 13.4288 129.999 13.4569C129.987 13.485 129.983 13.5151 129.983 13.5453V26.4074C129.982 26.4377 129.987 26.4679 129.999 26.4962C130.009 26.5244 130.026 26.5501 130.048 26.5716C130.07 26.5931 130.095 26.6099 130.123 26.6209C130.151 26.632 130.182 26.6371 130.212 26.636H134.727C137.393 26.636 138.802 25.0175 138.802 22.8871C138.802 21.4987 138.134 20.4518 137.031 19.862C136.954 19.8056 136.954 19.7477 137.031 19.7096" fill="#09090B"/>
<path d="M225.848 31.3457C225.848 31.3457 225.143 26.708 224.819 24.7524L224.961 24.7228C225.028 24.7087 225.09 24.6789 225.143 24.6359C225.196 24.593 225.238 24.5379 225.266 24.4755C225.293 24.4131 225.305 24.3449 225.302 24.2768C225.297 24.2087 225.277 24.1425 225.242 24.0836C224.451 22.7207 224.169 21.0233 224.169 19.3358C224.168 18.3277 224.335 17.3264 224.662 16.3728C224.682 16.3192 224.701 16.267 224.721 16.2134L224.759 16.0991C225.127 15.2742 225.365 14.397 225.465 13.4988C225.569 12.2803 225.37 11.0548 224.886 9.93195L224.822 9.81908C224.964 9.67075 225.053 9.47957 225.075 9.27538C225.097 9.07118 225.051 8.86546 224.944 8.69033C224.684 8.24448 224.153 8.0667 223.759 8.29527C223.716 8.31926 223.617 8.38839 223.575 8.42085C223.502 8.36723 223.459 8.34042 223.459 8.34042C223.459 8.34042 223.348 8.26705 223.252 8.21767L223.215 8.19792C222.799 8.01391 222.348 7.92014 221.893 7.92278C221.666 7.92286 221.439 7.94602 221.216 7.99192C220.751 8.08876 220.313 8.28516 219.932 8.56758C219.8 8.60804 219.664 8.63406 219.526 8.64519L218.989 8.67058C218.737 8.68046 218.449 8.67058 218.449 8.67058C218.419 8.67057 218.389 8.6765 218.362 8.688C218.334 8.6995 218.309 8.71637 218.288 8.73761C218.267 8.75886 218.25 8.78406 218.239 8.81179C218.228 8.8395 218.222 8.8692 218.222 8.89914C218.222 8.91043 218.304 9.64694 218.304 9.64977C218.309 9.74014 218.334 9.82816 218.379 9.90746C218.422 9.98677 218.483 10.0554 218.557 10.1083L218.575 10.121C218.612 10.1402 218.641 10.1709 218.659 10.2085C218.71 10.3534 218.8 10.4814 218.919 10.5782C218.928 10.5841 218.938 10.588 218.948 10.5897C218.958 10.5913 218.968 10.5907 218.979 10.5879C218.988 10.5851 218.998 10.5801 219.006 10.5733C219.014 10.5665 219.02 10.558 219.024 10.5485C219.126 10.1464 219.366 10.5796 219.822 10.3327C219.939 10.2692 220.002 10.5542 219.953 10.6784L219.911 10.7855C219.865 10.9031 219.787 11.0065 219.689 11.0852C219.589 11.1639 219.472 11.2153 219.346 11.2342C219.143 11.2639 219.028 11.2836 219.031 11.3119C219.054 11.539 219.031 11.7352 219.259 11.8762C219.291 11.8942 219.325 11.9089 219.361 11.9199C219.714 12.0131 220.747 12.4096 219.434 13.9601C219.355 14.0501 219.282 14.1444 219.213 14.2424C219.185 14.2824 219.161 14.3244 219.141 14.3679L219.112 14.4229L215.162 12.9457C215.024 12.8819 214.906 12.785 214.816 12.6635L214.428 11.9948C214.337 11.8445 214.208 11.72 214.056 11.6333C213.903 11.5466 213.73 11.5006 213.555 11.4995C213.371 11.4851 213.188 11.4851 213.005 11.4995C212.887 11.4995 212.819 11.5334 212.796 11.6025C212.762 11.7723 212.793 11.9486 212.88 12.0977L213.22 12.7199C213.25 12.7636 213.677 13.7203 213.677 13.7203C213.72 13.8379 213.793 13.9422 213.889 14.0223L217.953 17.0726L213.68 19.2046C213.619 19.2376 213.552 19.2582 213.484 19.2652C213.415 19.2723 213.346 19.2655 213.279 19.2455L212.895 19.1298C212.19 18.818 211.67 19.0353 211.362 19.2935L211.24 19.4078C211.215 19.4308 211.196 19.4599 211.185 19.4924C211.174 19.5248 211.17 19.5596 211.177 19.5935C211.183 19.6272 211.197 19.659 211.219 19.6858C211.24 19.7125 211.268 19.7334 211.299 19.7464C211.299 19.7464 211.975 20.1429 212.123 20.2445L213.174 20.8667C213.337 20.9613 213.528 20.9924 213.712 20.9541L217.862 20.1175C217.928 21.1019 218.096 22.0769 218.363 23.0268C217.265 24.103 216.526 25.4921 216.247 27.0043C216.044 28.1245 216.106 29.139 216.416 30.3326C215.837 30.3651 215.277 30.4498 214.813 30.7728C214.371 31.0805 214.282 31.6279 214.278 31.9016L217.524 31.9086H217.797C217.896 31.9041 217.992 31.8683 218.069 31.8065C218.146 31.7446 218.201 31.6598 218.228 31.5644C218.255 31.454 218.275 31.3417 218.287 31.2286C218.389 30.3617 218.648 29.5205 219.049 28.7453C219.397 28.0953 219.831 27.495 220.339 26.9605C221.327 28.3231 222.574 29.4783 224.006 30.3609C223.538 30.3925 223.078 30.5157 222.656 30.7234C222.451 30.8472 222.28 31.0224 222.163 31.2316C222.046 31.4408 221.984 31.6771 221.985 31.9171H225.326C225.435 31.9173 225.541 31.8835 225.629 31.8206C225.716 31.7575 225.783 31.6684 225.818 31.5658C225.818 31.5446 225.831 31.5221 225.837 31.5009C225.842 31.4797 225.837 31.4684 225.837 31.453C225.844 31.4176 225.848 31.3817 225.848 31.3457Z" fill="black"/>
<path d="M13.0864 8.39265C13.4466 8.59203 13.7407 8.8921 13.9329 9.25615C14.1414 9.65752 14.2457 10.1048 14.2363 10.557C14.246 11.0097 14.1418 11.4575 13.9329 11.8593C13.7407 12.2234 13.4466 12.5235 13.0864 12.7228C12.7081 12.9294 12.2828 13.0344 11.8519 13.0276H10.3704C10.3608 13.029 10.351 13.0281 10.3418 13.0251C10.3325 13.0221 10.3242 13.0169 10.3173 13.01C10.3105 13.0032 10.3053 12.9948 10.3023 12.9856C10.2992 12.9764 10.2984 12.9666 10.2998 12.957V8.15985C10.2984 8.15025 10.2992 8.14046 10.3023 8.13125C10.3053 8.12204 10.3105 8.11367 10.3173 8.10681C10.3242 8.09994 10.3325 8.09479 10.3418 8.09175C10.351 8.08872 10.3608 8.08787 10.3704 8.0893H11.8519C12.2826 8.0821 12.7079 8.18661 13.0864 8.39265ZM10.8642 12.5266H11.8236C12.1597 12.5327 12.492 12.4546 12.7901 12.2995C13.0738 12.1496 13.3039 11.9154 13.449 11.6294C13.6156 11.297 13.6969 10.9285 13.686 10.557C13.6965 10.1855 13.6151 9.81719 13.449 9.48472C13.3023 9.19971 13.0726 8.966 12.7901 8.81452C12.4914 8.66096 12.1594 8.58388 11.8236 8.59019H10.8642C10.8402 8.59019 10.8289 8.60147 10.8289 8.62404V12.49C10.8219 12.5139 10.8331 12.5266 10.8642 12.5266Z" fill="black"/>
<path d="M15.7065 12.8921C15.4563 12.7523 15.252 12.543 15.1181 12.2897C14.9803 12.0105 14.9086 11.7035 14.9086 11.3923C14.9086 11.081 14.9803 10.774 15.1181 10.4949C15.2455 10.2455 15.4413 10.0375 15.6825 9.89527C15.9304 9.75268 16.2121 9.67957 16.498 9.68363C16.7812 9.68032 17.06 9.75344 17.3051 9.89527C17.5433 10.0332 17.7386 10.2344 17.8694 10.4766C18.0078 10.7335 18.0782 11.0215 18.0741 11.3133C18.0746 11.3675 18.0722 11.4216 18.067 11.4755C18.0639 11.4918 18.0551 11.5065 18.0422 11.5169C18.0292 11.5272 18.013 11.5325 17.9964 11.532H15.5202C15.4638 11.532 15.4426 11.5616 15.4567 11.6236C15.4781 11.9044 15.6011 12.1677 15.8024 12.3644C16.0116 12.5541 16.2862 12.6553 16.5686 12.6466C16.7426 12.6466 16.9148 12.6103 17.074 12.5398C17.2331 12.4694 17.3758 12.3663 17.4927 12.2374C17.545 12.1852 17.5844 12.1754 17.6127 12.2078L17.8455 12.4632C17.8779 12.4914 17.8779 12.521 17.8455 12.5549C17.6807 12.7298 17.4825 12.8698 17.2627 12.9669C17.0438 13.0618 16.8073 13.11 16.5686 13.108C16.2674 13.1118 15.9704 13.0374 15.7065 12.8921ZM17.5308 11.0381C17.4938 10.7886 17.3705 10.56 17.1823 10.3919C16.9895 10.2329 16.7473 10.1459 16.4974 10.1459C16.2473 10.1459 16.0052 10.2329 15.8123 10.3919C15.6224 10.5586 15.4987 10.7879 15.4638 11.0381V11.072C15.4638 11.1003 15.4863 11.1157 15.5344 11.1157H17.4673C17.5238 11.1205 17.545 11.0945 17.5308 11.0381Z" fill="black"/>
<path d="M20.4162 9.6907C20.4585 9.6907 20.4797 9.71327 20.4797 9.76125V10.1351C20.4797 10.1761 20.4628 10.1972 20.4303 10.1972C20.3962 10.1974 20.3621 10.1941 20.3287 10.1873C20.2971 10.1806 20.2651 10.1768 20.2328 10.1761C20.0778 10.1728 19.9246 10.2102 19.7885 10.2844C19.6523 10.3587 19.538 10.4672 19.4567 10.5993C19.4215 10.6507 19.4041 10.7121 19.4074 10.7742V12.957C19.4088 12.9666 19.4079 12.9764 19.405 12.9856C19.4019 12.9948 19.3967 13.0032 19.3898 13.01C19.383 13.0169 19.3746 13.0221 19.3654 13.0251C19.3562 13.0281 19.3465 13.029 19.3368 13.0276H18.963C18.9533 13.029 18.9435 13.0281 18.9343 13.0251C18.9251 13.0221 18.9167 13.0169 18.9098 13.01C18.9031 13.0032 18.8979 12.9948 18.8948 12.9856C18.8918 12.9764 18.891 12.9666 18.8924 12.957V9.82475C18.891 9.81515 18.8918 9.80535 18.8948 9.79614C18.8979 9.78693 18.9031 9.77856 18.9098 9.7717C18.9167 9.76484 18.9251 9.75969 18.9343 9.75665C18.9435 9.7536 18.9533 9.75277 18.963 9.75419H19.3016C19.3111 9.75277 19.321 9.7536 19.3302 9.75665C19.3394 9.75969 19.3477 9.76484 19.3546 9.7717C19.3615 9.77856 19.3666 9.78693 19.3696 9.79614C19.3727 9.80535 19.3736 9.81515 19.3721 9.82475V10.0773C19.3721 10.0971 19.3721 10.1083 19.3862 10.114C19.4003 10.1196 19.4074 10.114 19.4215 10.0999C19.5266 9.96515 19.6617 9.85677 19.816 9.7833C19.9703 9.70982 20.1395 9.6733 20.3104 9.6766C20.346 9.6776 20.3815 9.68233 20.4162 9.6907Z" fill="black"/>
<path d="M23.3721 13.0276H22.9982C22.9886 13.029 22.9789 13.0281 22.9697 13.0251C22.9604 13.0221 22.9521 13.0169 22.9452 13.01C22.9383 13.0032 22.9331 12.9948 22.9301 12.9856C22.9271 12.9764 22.9263 12.9666 22.9276 12.957V8.15985C22.9263 8.15025 22.9271 8.14046 22.9301 8.13125C22.9331 8.12204 22.9383 8.11367 22.9452 8.10681C22.9521 8.09994 22.9604 8.09479 22.9697 8.09175C22.9789 8.08872 22.9886 8.08787 22.9982 8.0893H24.3739C24.6887 8.08374 25.0006 8.15238 25.2839 8.28966C25.5454 8.41788 25.7644 8.61872 25.9146 8.86813C26.0733 9.13848 26.1529 9.4479 26.1446 9.76126C26.1579 10.1278 26.042 10.4873 25.8173 10.7771C25.5873 11.0523 25.2778 11.2495 24.9312 11.3416C24.879 11.357 24.8705 11.3824 24.903 11.4191L26.1305 12.9429C26.1403 12.9553 26.1454 12.9709 26.1446 12.9866C26.1446 13.0134 26.1249 13.029 26.0882 13.029H25.5943C25.5712 13.0297 25.5483 13.0258 25.5266 13.0176C25.5057 13.0072 25.4879 12.9917 25.4744 12.9726L24.3033 11.477C24.29 11.4584 24.2733 11.4426 24.254 11.4304C24.234 11.4218 24.2122 11.418 24.1905 11.4191H23.485C23.461 11.4191 23.4498 11.4318 23.4498 11.4558V12.957C23.4516 12.9674 23.4507 12.978 23.4473 12.9878C23.4439 12.9977 23.4381 13.0066 23.4303 13.0136C23.4226 13.0207 23.4131 13.0257 23.403 13.0281C23.3928 13.0305 23.3822 13.0303 23.3721 13.0276ZM23.4427 8.62404V10.8816C23.4427 10.9041 23.454 10.9154 23.4779 10.9154H24.3175C24.6475 10.9294 24.9722 10.8269 25.2345 10.6262C25.4744 10.4343 25.5943 10.1422 25.5943 9.75279C25.5943 9.36337 25.4744 9.0699 25.2345 8.87801C24.9712 8.6797 24.6467 8.57986 24.3175 8.59583H23.4779C23.454 8.59018 23.4427 8.60711 23.4427 8.62404Z" fill="black"/>
<path d="M27.5019 12.8921C27.2518 12.7523 27.0474 12.543 26.9136 12.2897C26.7757 12.0105 26.704 11.7035 26.704 11.3923C26.704 11.081 26.7757 10.774 26.9136 10.4949C27.0428 10.2445 27.2411 10.0364 27.485 9.89527C27.7328 9.75268 28.0146 9.67957 28.3005 9.68363C28.5836 9.68032 28.8625 9.75344 29.1075 9.89527C29.3457 10.0332 29.5411 10.2344 29.672 10.4766C29.8103 10.7335 29.8807 11.0215 29.8765 11.3133C29.8771 11.3675 29.8747 11.4216 29.8694 11.4755C29.8665 11.4918 29.8576 11.5065 29.8447 11.5169C29.8318 11.5272 29.8155 11.5325 29.799 11.532H27.3086C27.2508 11.532 27.231 11.5616 27.2451 11.6236C27.2691 11.9058 27.3957 12.1693 27.6007 12.3644C27.8099 12.5541 28.0846 12.6553 28.3668 12.6466C28.5409 12.6466 28.713 12.6103 28.8722 12.5398C29.0313 12.4694 29.174 12.3663 29.291 12.2374C29.3432 12.1852 29.3827 12.1754 29.4109 12.2078L29.6437 12.4632C29.6762 12.4914 29.6762 12.521 29.6437 12.5549C29.4795 12.7267 29.2829 12.8644 29.0652 12.9598C28.8463 13.0549 28.6098 13.1029 28.371 13.1009C28.0681 13.1081 27.7685 13.0361 27.5019 12.8921ZM29.3249 11.0381C29.2889 10.7882 29.1654 10.5592 28.9763 10.3919C28.788 10.2289 28.5453 10.1424 28.2963 10.1492C28.0436 10.1436 27.798 10.2326 27.6077 10.399C27.4179 10.5656 27.2942 10.795 27.2593 11.0452L27.2508 11.0791C27.2508 11.1072 27.2747 11.1228 27.3213 11.1228H29.2628C29.3192 11.1228 29.3474 11.0945 29.3249 11.0381Z" fill="black"/>
<path d="M31.3228 14.3354C31.1138 14.2447 30.9263 14.1111 30.7725 13.9431C30.7657 13.9368 30.7603 13.9292 30.7566 13.9207C30.7529 13.9121 30.7511 13.903 30.7511 13.8937C30.7511 13.8845 30.7529 13.8753 30.7566 13.8669C30.7603 13.8584 30.7657 13.8508 30.7725 13.8444L31.0123 13.5834C31.0247 13.5683 31.0423 13.5587 31.0617 13.5566C31.0805 13.5589 31.0978 13.5685 31.1096 13.5834C31.3276 13.8164 31.6216 13.964 31.9386 13.9998C32.2558 14.0354 32.5751 13.9568 32.8395 13.7781C32.9352 13.6909 33.0098 13.5827 33.0572 13.4621C33.1047 13.3416 33.1238 13.2116 33.1132 13.0825V12.5971C33.1142 12.5897 33.1128 12.5822 33.1093 12.5755C33.1057 12.569 33.1002 12.5637 33.0934 12.5604C33.0839 12.5597 33.0743 12.5611 33.0654 12.5647C33.0566 12.5684 33.0488 12.5743 33.0426 12.5816C32.907 12.7084 32.7473 12.8069 32.5731 12.8713C32.3989 12.9357 32.2138 12.9648 32.0281 12.9569C31.7484 12.9606 31.4727 12.8895 31.2296 12.7509C30.9906 12.616 30.7949 12.4157 30.6652 12.1738C30.5249 11.9091 30.4545 11.6128 30.4606 11.3132C30.4556 11.0173 30.5286 10.7254 30.6723 10.4666C30.8071 10.2256 31.0058 10.0264 31.2466 9.89097C31.4939 9.75435 31.7725 9.68434 32.055 9.68779C32.2436 9.6778 32.4322 9.7077 32.6085 9.77553C32.7847 9.84336 32.9447 9.94759 33.0779 10.0814C33.0963 10.1012 33.1117 10.1082 33.1231 10.104C33.1343 10.0998 33.1414 10.0843 33.1414 10.0603V9.82465C33.1418 9.80605 33.1493 9.78832 33.1624 9.77517C33.1757 9.76202 33.1933 9.75446 33.212 9.7541H33.5576C33.5672 9.75267 33.577 9.75352 33.5862 9.75656C33.5955 9.75959 33.6038 9.76475 33.6107 9.77161C33.6176 9.77847 33.6226 9.78684 33.6257 9.79605C33.6288 9.80526 33.6296 9.81505 33.6282 9.82465V13.122C33.6379 13.3106 33.6038 13.4988 33.5284 13.6719C33.4529 13.8451 33.3383 13.9983 33.1935 14.1195C32.8711 14.3677 32.4714 14.494 32.0649 14.4765C31.8103 14.4823 31.5574 14.4342 31.3228 14.3354ZM32.6984 12.3502C32.8562 12.2665 32.9898 12.1436 33.0863 11.9932C33.1103 11.9558 33.1225 11.9121 33.1217 11.8677V10.7685C33.1238 10.724 33.1114 10.68 33.0863 10.643C32.9907 10.4912 32.8569 10.3671 32.6984 10.2832C32.5221 10.1914 32.3256 10.1453 32.127 10.1492C31.9748 10.1429 31.823 10.1686 31.6814 10.2244C31.5397 10.2803 31.4112 10.3652 31.3043 10.4737C31.198 10.5865 31.1154 10.7197 31.0617 10.8652C31.0078 11.0106 30.9839 11.1654 30.9911 11.3203C30.9848 11.475 31.0091 11.6296 31.0629 11.7749C31.1167 11.9202 31.1987 12.0534 31.3043 12.1667C31.4114 12.275 31.5399 12.3598 31.6815 12.4156C31.8231 12.4715 31.9748 12.4973 32.127 12.4913C32.3262 12.493 32.5228 12.4445 32.6984 12.3502Z" fill="black"/>
<path d="M34.6906 8.87519C34.6536 8.84017 34.6243 8.79791 34.6044 8.75107C34.5845 8.70422 34.5745 8.65377 34.5749 8.60289C34.5744 8.5528 34.5844 8.50318 34.6043 8.45723C34.6243 8.4113 34.6536 8.37006 34.6906 8.33622C34.7259 8.29974 34.7682 8.2708 34.815 8.25116C34.8618 8.23152 34.9122 8.22157 34.9628 8.22193C35.0119 8.22211 35.0603 8.23236 35.1053 8.25202C35.1501 8.27167 35.1906 8.30032 35.2239 8.33622C35.2599 8.37063 35.2885 8.41203 35.3079 8.45789C35.3273 8.50374 35.3371 8.55309 35.3368 8.60289C35.3371 8.6535 35.3273 8.70368 35.3079 8.75044C35.2885 8.7972 35.26 8.83963 35.2239 8.87519C35.1909 8.91172 35.1507 8.94099 35.1057 8.96116C35.0607 8.98132 35.0122 8.99192 34.9628 8.99229C34.9119 8.99245 34.8615 8.98214 34.8146 8.962C34.7677 8.94186 34.7256 8.91231 34.6906 8.87519ZM34.6906 12.957V9.82475C34.6892 9.81515 34.69 9.80536 34.693 9.79614C34.6961 9.78694 34.7013 9.77857 34.7081 9.77171C34.7149 9.76485 34.7234 9.75969 34.7326 9.75665C34.7418 9.75362 34.7515 9.75277 34.7612 9.7542H35.135C35.1446 9.75277 35.1544 9.75362 35.1636 9.75665C35.1728 9.75969 35.1813 9.76485 35.188 9.77171C35.1949 9.77857 35.2001 9.78694 35.2032 9.79614C35.2061 9.80536 35.207 9.81515 35.2056 9.82475V12.957C35.207 12.9666 35.2061 12.9764 35.2032 12.9856C35.2001 12.9948 35.1949 13.0032 35.188 13.01C35.1813 13.0169 35.1728 13.0221 35.1636 13.0251C35.1544 13.0281 35.1446 13.029 35.135 13.0276H34.7654C34.7558 13.029 34.746 13.0281 34.7368 13.0251C34.7276 13.0221 34.7191 13.0169 34.7124 13.01C34.7055 13.0032 34.7003 12.9948 34.6972 12.9856C34.6943 12.9764 34.6934 12.9666 34.6948 12.957H34.6906Z" fill="black"/>
<path d="M36.8493 12.8921C36.5992 12.7523 36.3948 12.543 36.261 12.2897C36.1231 12.0105 36.0515 11.7035 36.0515 11.3923C36.0515 11.081 36.1231 10.774 36.261 10.4949C36.3884 10.2455 36.5841 10.0375 36.8253 9.89527C37.0733 9.75268 37.3549 9.67957 37.6409 9.68363C37.924 9.68032 38.2029 9.75344 38.448 9.89527C38.6861 10.0332 38.8814 10.2344 39.0123 10.4766C39.1531 10.7328 39.2259 11.0209 39.2239 11.3133C39.2245 11.3675 39.2221 11.4216 39.2168 11.4755C39.2141 11.492 39.2054 11.5068 39.1924 11.5172C39.1794 11.5277 39.163 11.5328 39.1464 11.532H36.656C36.5996 11.532 36.5784 11.5616 36.5925 11.6236C36.6165 11.9058 36.7431 12.1693 36.9481 12.3644C37.1573 12.5541 37.432 12.6553 37.7142 12.6466C37.8883 12.6466 38.0604 12.6103 38.2196 12.5398C38.3788 12.4694 38.5214 12.3663 38.6384 12.2374C38.6906 12.1852 38.7301 12.1754 38.7583 12.2078L38.9911 12.4632C39.0236 12.4914 39.0236 12.521 38.9911 12.5549C38.8264 12.7298 38.6283 12.8698 38.4084 12.9669C38.1894 13.0618 37.9529 13.11 37.7142 13.108C37.4121 13.1123 37.114 13.0379 36.8493 12.8921ZM38.6737 11.0381C38.6366 10.7886 38.5133 10.56 38.3252 10.3919C38.1323 10.2329 37.8902 10.1459 37.6401 10.1459C37.3902 10.1459 37.148 10.2329 36.9552 10.3919C36.7653 10.5586 36.6416 10.7879 36.6067 11.0381L36.5996 11.072C36.5996 11.1003 36.6221 11.1157 36.6702 11.1157H38.6102C38.6666 11.1205 38.6877 11.0945 38.6737 11.0381Z" fill="black"/>
<path d="M41.5591 9.6907C41.6014 9.6907 41.6226 9.71327 41.6226 9.76125V10.1351C41.6226 10.1761 41.6056 10.1972 41.5731 10.1972C41.5391 10.1974 41.505 10.1941 41.4716 10.1873C41.44 10.1806 41.4078 10.1768 41.3756 10.1761C41.2205 10.1728 41.0674 10.2102 40.9312 10.2844C40.7951 10.3587 40.6808 10.4672 40.5996 10.5993C40.5653 10.6511 40.5481 10.7122 40.5502 10.7742V12.957C40.5517 12.9666 40.5508 12.9764 40.5477 12.9856C40.5447 12.9948 40.5396 13.0032 40.5327 13.01C40.5258 13.0169 40.5175 13.0221 40.5083 13.0251C40.4991 13.0281 40.4892 13.029 40.4797 13.0276H40.1057C40.0962 13.029 40.0864 13.0281 40.0772 13.0251C40.068 13.0221 40.0596 13.0169 40.0527 13.01C40.0458 13.0032 40.0408 12.9948 40.0377 12.9856C40.0346 12.9764 40.0338 12.9666 40.0353 12.957V9.82475C40.0338 9.81515 40.0346 9.80535 40.0377 9.79614C40.0408 9.78693 40.0458 9.77856 40.0527 9.7717C40.0596 9.76484 40.068 9.75969 40.0772 9.75665C40.0864 9.7536 40.0962 9.75277 40.1057 9.75419H40.4444C40.454 9.75277 40.4638 9.7536 40.473 9.75665C40.4822 9.75969 40.4906 9.76484 40.4975 9.7717C40.5042 9.77856 40.5094 9.78693 40.5125 9.79614C40.5156 9.80535 40.5164 9.81515 40.5149 9.82475V10.0773C40.5149 10.0971 40.5149 10.1083 40.529 10.114C40.5432 10.1196 40.5502 10.114 40.5644 10.0999C40.6694 9.96515 40.8045 9.85677 40.9587 9.7833C41.113 9.70982 41.2823 9.6733 41.4532 9.6766C41.4889 9.6776 41.5244 9.68233 41.5591 9.6907Z" fill="black"/>
<path d="M42.7258 12.8921C42.4757 12.7523 42.2713 12.543 42.1375 12.2895C41.9993 12.0107 41.9273 11.7035 41.9273 11.3922C41.9273 11.081 41.9993 10.7738 42.1375 10.4949C42.2651 10.2456 42.4608 10.0377 42.7019 9.89523C42.9501 9.75646 43.2295 9.68359 43.5139 9.68359C43.7982 9.68359 44.0777 9.75646 44.3258 9.89523C44.5638 10.0334 44.7592 10.2346 44.8903 10.4765C45.0294 10.7331 45.0999 11.0214 45.0948 11.3132C45.0977 11.3673 45.0977 11.4214 45.0948 11.4755C45.0917 11.4918 45.083 11.5065 45.0701 11.5168C45.057 11.5272 45.0409 11.5325 45.0242 11.5319H42.5326C42.4761 11.5319 42.4549 11.5615 42.4691 11.6236C42.4934 11.9058 42.6204 12.1694 42.826 12.3644C43.0346 12.5542 43.3089 12.6555 43.5908 12.6466C43.7649 12.6466 43.9369 12.6103 44.0962 12.5398C44.2553 12.4693 44.398 12.3663 44.5149 12.2374C44.5657 12.1852 44.6067 12.1753 44.6348 12.2077L44.8676 12.4561C44.9001 12.4842 44.9001 12.5139 44.8676 12.5477C44.7031 12.7223 44.5055 12.8623 44.2864 12.9598C44.0669 13.0548 43.83 13.1029 43.5908 13.1009C43.2892 13.1073 42.9912 13.0354 42.7258 12.8921ZM44.5502 11.0381C44.5138 10.7881 44.3897 10.559 44.2003 10.3919C44.0124 10.2281 43.7694 10.1414 43.5202 10.1492C43.2675 10.1435 43.0219 10.2326 42.8316 10.3989C42.6418 10.5656 42.5181 10.7949 42.4832 11.0451L42.4761 11.079C42.4761 11.1072 42.5001 11.1228 42.5467 11.1228H44.4867C44.5432 11.1228 44.5643 11.0945 44.5502 11.0381Z" fill="black"/>
<path d="M46.3562 13.0275H45.9823C45.9727 13.0289 45.9628 13.0281 45.9536 13.0251C45.9444 13.022 45.9361 13.0168 45.9292 13.01C45.9224 13.0032 45.9172 12.9947 45.9142 12.9855C45.9111 12.9763 45.9104 12.9666 45.9117 12.9569V9.8247C45.9104 9.8151 45.9111 9.80531 45.9142 9.79609C45.9172 9.78689 45.9224 9.77852 45.9292 9.77166C45.9361 9.7648 45.9444 9.75964 45.9536 9.7566C45.9628 9.75356 45.9727 9.75272 45.9823 9.75414H46.3209C46.3305 9.75272 46.3403 9.75356 46.3495 9.7566C46.3587 9.75964 46.3671 9.7648 46.374 9.77166C46.3808 9.77852 46.3859 9.78689 46.389 9.79609C46.3921 9.80531 46.3929 9.8151 46.3914 9.8247V10.0561C46.3914 10.0758 46.3914 10.0871 46.4083 10.0928C46.4253 10.0984 46.4337 10.0928 46.4479 10.0716C46.5524 9.95347 46.6796 9.85751 46.8218 9.78943C46.9721 9.72042 47.1362 9.68663 47.3015 9.69065C47.4498 9.68065 47.5986 9.70171 47.7383 9.75249C47.878 9.80327 48.0055 9.88264 48.1128 9.98554C48.3082 10.1962 48.4123 10.4758 48.402 10.763V12.9569C48.4035 12.9666 48.4026 12.9763 48.3996 12.9855C48.3965 12.9947 48.3914 13.0032 48.3845 13.01C48.3777 13.0168 48.3693 13.022 48.3601 13.0251C48.3509 13.0281 48.341 13.0289 48.3315 13.0275H47.9576C47.948 13.0289 47.9382 13.0281 47.929 13.0251C47.9198 13.022 47.9114 13.0168 47.9045 13.01C47.8977 13.0032 47.8926 12.9947 47.8895 12.9855C47.8864 12.9763 47.8856 12.9666 47.8871 12.9569V10.8405C47.8937 10.7455 47.8817 10.6502 47.8514 10.5598C47.8212 10.4695 47.7733 10.386 47.7107 10.3143C47.6426 10.2515 47.5624 10.2033 47.4751 10.1725C47.3878 10.1417 47.2951 10.129 47.2027 10.1351C47.053 10.1333 46.906 10.175 46.7795 10.255C46.6466 10.3415 46.5375 10.4599 46.462 10.5993C46.4386 10.6456 46.4266 10.6969 46.4268 10.7489V12.9499C46.4295 12.96 46.4297 12.9706 46.4273 12.9808C46.4249 12.991 46.4199 13.0003 46.4128 13.0082C46.4058 13.0159 46.3969 13.0217 46.387 13.0251C46.3771 13.0285 46.3664 13.0293 46.3562 13.0275Z" fill="black"/>
<path d="M51.9646 7.91999H52.3456C52.3552 7.91856 52.365 7.9194 52.3742 7.92244C52.3834 7.92548 52.3917 7.93063 52.3986 7.93749C52.4055 7.94435 52.4107 7.95272 52.4136 7.96194C52.4167 7.97114 52.4175 7.98094 52.4162 7.99054V12.957C52.4175 12.9666 52.4167 12.9764 52.4136 12.9856C52.4107 12.9948 52.4055 13.0032 52.3986 13.01C52.3917 13.0169 52.3834 13.0221 52.3742 13.0252C52.365 13.0281 52.3552 13.029 52.3456 13.0276H51.9929C51.9833 13.029 51.9734 13.0281 51.9642 13.0252C51.955 13.0221 51.9466 13.0169 51.9398 13.01C51.9329 13.0032 51.9278 12.9948 51.9247 12.9856C51.9217 12.9764 51.9208 12.9666 51.9223 12.957V12.7101C51.9223 12.6861 51.9223 12.6734 51.904 12.6705C51.8856 12.6678 51.8771 12.6705 51.8588 12.6959C51.6189 12.9626 51.2705 13.0981 50.8147 13.0981C50.5274 13.1018 50.2445 13.0272 49.9964 12.8822C49.7518 12.7384 49.5517 12.5299 49.4179 12.2798C49.2789 12.0041 49.2065 11.6996 49.2065 11.3909C49.2065 11.0822 49.2789 10.7777 49.4179 10.502C49.5518 10.2516 49.7519 10.0427 49.9964 9.89812C50.2448 9.75431 50.5276 9.68021 50.8147 9.68365C51.0002 9.67584 51.1855 9.70473 51.3598 9.76865C51.5341 9.83257 51.6941 9.93026 51.8306 10.0561C51.849 10.0759 51.8644 10.083 51.8757 10.0773C51.8871 10.0717 51.8941 10.059 51.8941 10.035V7.99054C51.8927 7.98094 51.8935 7.97114 51.8965 7.96194C51.8996 7.95272 51.9047 7.94435 51.9116 7.93749C51.9184 7.93063 51.9269 7.92548 51.9361 7.92244C51.9453 7.9194 51.955 7.91856 51.9646 7.91999ZM51.4708 12.49C51.6349 12.4017 51.7716 12.2699 51.8659 12.1091C51.8838 12.0746 51.8934 12.0364 51.8941 11.9975V10.7842C51.8936 10.7448 51.8839 10.7062 51.8659 10.6713C51.7716 10.5105 51.6349 10.3787 51.4708 10.2904C51.2934 10.1941 51.0941 10.1455 50.8924 10.1493C50.735 10.142 50.5779 10.1688 50.4318 10.2277C50.2857 10.2866 50.1541 10.3763 50.0458 10.4907C49.8247 10.7365 49.7093 11.0593 49.7241 11.3895C49.7088 11.7202 49.8243 12.0436 50.0458 12.2896C50.1541 12.404 50.2857 12.4937 50.4318 12.5527C50.5779 12.6116 50.735 12.6384 50.8924 12.6311C51.0941 12.6349 51.2934 12.5863 51.4708 12.49Z" fill="black"/>
<path d="M53.9781 12.8921C53.7279 12.7523 53.5235 12.543 53.3897 12.2896C53.2514 12.0107 53.1794 11.7035 53.1794 11.3923C53.1794 11.081 53.2514 10.7738 53.3897 10.4949C53.5189 10.2445 53.7172 10.0364 53.9611 9.89526C54.209 9.75647 54.4883 9.68359 54.7724 9.68359C55.0565 9.68359 55.3358 9.75647 55.5837 9.89526C55.8217 10.0335 56.0169 10.2346 56.148 10.4766C56.2873 10.7331 56.3576 11.0214 56.3527 11.3133C56.3555 11.3673 56.3555 11.4214 56.3527 11.4755C56.3496 11.4918 56.3408 11.5065 56.3278 11.5169C56.3149 11.5272 56.2986 11.5325 56.2821 11.532H53.7847C53.7283 11.532 53.7072 11.5616 53.7212 11.6236C53.7457 11.906 53.8727 12.1694 54.0782 12.3644C54.2867 12.5543 54.561 12.6555 54.8429 12.6466C55.017 12.6466 55.1892 12.6103 55.3483 12.5398C55.5075 12.4693 55.6501 12.3663 55.7671 12.2374C55.8179 12.1852 55.8588 12.1753 55.8871 12.2078L56.1199 12.4632C56.1522 12.4914 56.1522 12.521 56.1199 12.5548C55.9553 12.7293 55.7576 12.8694 55.5385 12.9668C55.319 13.0618 55.0821 13.1099 54.8429 13.108C54.5408 13.1123 54.2427 13.0379 53.9781 12.8921ZM55.8024 11.0381C55.7652 10.7876 55.6402 10.5586 55.4496 10.3919C55.2617 10.2281 55.0187 10.1414 54.7696 10.1492C54.5169 10.1435 54.2713 10.2326 54.081 10.399C53.8912 10.5656 53.7675 10.7949 53.7326 11.0452L53.7255 11.0791C53.7255 11.1072 53.7495 11.1228 53.7961 11.1228H55.7361C55.7944 11.1228 55.8165 11.0945 55.8024 11.0381Z" fill="black"/>
<path d="M61.3756 8.25859C61.58 8.36205 61.7493 8.52354 61.8623 8.7228C61.9747 8.92859 62.0321 9.15993 62.0288 9.3944C62.0315 9.61361 61.974 9.82936 61.8623 10.018C61.7586 10.1999 61.6074 10.3501 61.425 10.4526C61.3784 10.4808 61.3784 10.5062 61.425 10.5302C61.6397 10.635 61.82 10.7989 61.945 11.0025C62.07 11.2062 62.1343 11.4412 62.1304 11.6802C62.1363 11.861 62.1042 12.0411 62.0362 12.2088C61.9682 12.3765 61.8656 12.528 61.7354 12.6537C61.471 12.9077 61.0995 13.0347 60.6208 13.0347H59.1957C59.186 13.036 59.1763 13.0352 59.1671 13.0321C59.1579 13.0292 59.1495 13.024 59.1427 13.0171C59.1358 13.0102 59.1306 13.0019 59.1276 12.9926C59.1246 12.9834 59.1237 12.9736 59.1251 12.9641V8.16689C59.1237 8.15729 59.1246 8.14749 59.1276 8.13829C59.1306 8.12908 59.1358 8.12071 59.1427 8.11384C59.1495 8.10699 59.1579 8.10183 59.1671 8.09879C59.1763 8.09575 59.186 8.09491 59.1957 8.09634H60.6066C60.8724 8.08642 61.1365 8.14215 61.3756 8.25859ZM59.6514 8.62403V10.2254C59.6514 10.2494 59.6627 10.2621 59.6867 10.2621H60.5473C60.7994 10.2795 61.0487 10.2014 61.2457 10.0434C61.3274 9.9643 61.3911 9.86854 61.4325 9.76265C61.4739 9.65675 61.492 9.54319 61.4856 9.42967C61.492 9.31553 61.4739 9.20135 61.4325 9.09476C61.3911 8.98819 61.3274 8.89167 61.2457 8.81168C61.05 8.65103 60.7999 8.57173 60.5473 8.59017H59.6824C59.6584 8.59017 59.6472 8.6071 59.6472 8.62403H59.6514ZM59.6514 10.7969V12.49C59.6514 12.514 59.6627 12.5267 59.6867 12.5267H60.5756C60.8484 12.5464 61.1186 12.4633 61.3332 12.2939C61.499 12.1184 61.5912 11.8862 61.5912 11.6448C61.5912 11.4034 61.499 11.1713 61.3332 10.9958C61.1186 10.8263 60.8484 10.7432 60.5756 10.763H59.6824C59.6584 10.763 59.6472 10.7743 59.6472 10.7969H59.6514Z" fill="black"/>
<path d="M65.051 9.7542H65.425C65.4345 9.75277 65.4443 9.75361 65.4535 9.75665C65.4628 9.75969 65.4711 9.76484 65.478 9.7717C65.4849 9.77857 65.4899 9.78694 65.493 9.79615C65.4961 9.80536 65.4969 9.81515 65.4954 9.82475V12.957C65.4969 12.9666 65.4961 12.9764 65.493 12.9856C65.4899 12.9948 65.4849 13.0032 65.478 13.01C65.4711 13.0169 65.4628 13.0221 65.4535 13.0252C65.4443 13.0281 65.4345 13.029 65.425 13.0276H65.0863C65.0767 13.029 65.0669 13.0281 65.0577 13.0252C65.0485 13.0221 65.0401 13.0169 65.0332 13.01C65.0265 13.0032 65.0213 12.9948 65.0182 12.9856C65.0151 12.9764 65.0143 12.9666 65.0158 12.957V12.7228C65.0158 12.7044 65.0158 12.6932 64.9975 12.689C64.979 12.6847 64.9706 12.689 64.9523 12.7101C64.8486 12.8351 64.7179 12.9349 64.5699 13.0021C64.4221 13.0693 64.2611 13.1021 64.0986 13.0981C63.9502 13.1073 63.8014 13.0849 63.6621 13.0327C63.5227 12.9804 63.3961 12.8993 63.2902 12.7948C63.0978 12.5832 62.9964 12.3044 63.008 12.0187V9.82475C63.0066 9.81515 63.0074 9.80536 63.0105 9.79615C63.0135 9.78694 63.0186 9.77857 63.0255 9.7717C63.0324 9.76484 63.0407 9.75969 63.0499 9.75665C63.0592 9.75361 63.069 9.75277 63.0785 9.7542H63.4525C63.462 9.75277 63.4718 9.75361 63.4811 9.75665C63.4903 9.75969 63.4986 9.76484 63.5055 9.7717C63.5124 9.77857 63.5175 9.78694 63.5205 9.79615C63.5236 9.80536 63.5244 9.81515 63.523 9.82475V11.9411C63.5161 12.0359 63.528 12.1312 63.5583 12.2213C63.5886 12.3115 63.6366 12.3947 63.6994 12.466C63.7672 12.5292 63.8473 12.5778 63.9346 12.609C64.022 12.64 64.1148 12.6528 64.2073 12.6466C64.3569 12.6478 64.5038 12.6061 64.6306 12.5266C64.7635 12.4396 64.8726 12.3208 64.948 12.181C64.9699 12.1371 64.982 12.089 64.9833 12.0399V9.82475C64.982 9.81542 64.9827 9.8059 64.9857 9.79694C64.9886 9.78797 64.9934 9.77976 65 9.77297C65.0066 9.76617 65.0145 9.76095 65.0234 9.75769C65.0322 9.75444 65.0417 9.75325 65.051 9.7542ZM63.2944 8.87519C63.2584 8.83962 63.2298 8.7972 63.2105 8.75044C63.1911 8.70367 63.1813 8.6535 63.1816 8.60288C63.1816 8.50185 63.2217 8.40495 63.2931 8.3335C63.3645 8.26206 63.4615 8.22192 63.5625 8.22192C63.6635 8.22192 63.7604 8.26206 63.8319 8.3335C63.9033 8.40495 63.9435 8.50185 63.9435 8.60288C63.9437 8.6535 63.934 8.70367 63.9145 8.75044C63.8951 8.7972 63.8666 8.83962 63.8306 8.87519C63.7964 8.91219 63.7549 8.9417 63.7088 8.96186C63.6626 8.98202 63.6129 8.99238 63.5625 8.99229C63.5121 8.99264 63.4622 8.98239 63.416 8.96222C63.3698 8.94204 63.3285 8.9124 63.2944 8.87519ZM64.6842 8.87519C64.6479 8.83982 64.6192 8.79744 64.5998 8.75062C64.5804 8.70382 64.5707 8.65355 64.5713 8.60288C64.5731 8.50241 64.6139 8.40656 64.6849 8.33551C64.756 8.26445 64.8519 8.22373 64.9523 8.22192C65.0527 8.22373 65.1486 8.26445 65.2197 8.33551C65.2907 8.40656 65.3314 8.50241 65.3332 8.60288C65.3335 8.6535 65.3237 8.70367 65.3043 8.75044C65.2849 8.7972 65.2564 8.83962 65.2203 8.87519C65.1861 8.91211 65.1447 8.94157 65.0985 8.96172C65.0524 8.98187 65.0026 8.99227 64.9523 8.99227C64.9019 8.99227 64.8522 8.98187 64.806 8.96172C64.7599 8.94157 64.7184 8.91211 64.6842 8.87519Z" fill="black"/>
<path d="M68.0917 9.6907C68.134 9.6907 68.1552 9.71327 68.1552 9.76125V10.1351C68.1552 10.1761 68.1382 10.1972 68.1057 10.1972C68.0711 10.1973 68.0366 10.194 68.0028 10.1873C67.9717 10.1805 67.94 10.1767 67.9082 10.1761C67.7531 10.1727 67.5999 10.21 67.4637 10.2842C67.3276 10.3585 67.2132 10.4671 67.1322 10.5993C67.0968 10.6507 67.0795 10.7121 67.0828 10.7742V12.957C67.0843 12.9666 67.0834 12.9764 67.0803 12.9856C67.0773 12.9948 67.0722 13.0032 67.0653 13.01C67.0584 13.0169 67.0501 13.0221 67.0409 13.0251C67.0317 13.0281 67.0218 13.029 67.0123 13.0276H66.6383C66.6288 13.029 66.619 13.0281 66.6098 13.0251C66.6005 13.0221 66.5922 13.0169 66.5853 13.01C66.5784 13.0032 66.5734 12.9948 66.5703 12.9856C66.5672 12.9764 66.5664 12.9666 66.5678 12.957V9.82475C66.5664 9.81515 66.5672 9.80535 66.5703 9.79614C66.5734 9.78693 66.5784 9.77856 66.5853 9.7717C66.5922 9.76484 66.6005 9.75969 66.6098 9.75665C66.619 9.7536 66.6288 9.75277 66.6383 9.75419H66.977C66.9866 9.75277 66.9964 9.7536 67.0056 9.75665C67.0148 9.75969 67.0232 9.76484 67.0301 9.7717C67.0368 9.77856 67.042 9.78693 67.0451 9.79614C67.0482 9.80535 67.049 9.81515 67.0475 9.82475V10.0773C67.0475 10.0971 67.0475 10.1083 67.0616 10.114C67.0758 10.1196 67.0828 10.114 67.0969 10.0999C67.202 9.96515 67.3371 9.85677 67.4913 9.7833C67.6456 9.70982 67.8149 9.6733 67.9858 9.6766C68.0215 9.6776 68.057 9.68233 68.0917 9.6907Z" fill="black"/>
<path d="M69.3403 14.3354C69.1313 14.2448 68.9439 14.1111 68.79 13.9432C68.7833 13.9368 68.7779 13.9292 68.7742 13.9207C68.7706 13.9122 68.7687 13.9031 68.7687 13.8937C68.7687 13.8845 68.7706 13.8753 68.7742 13.8669C68.7779 13.8584 68.7833 13.8508 68.79 13.8444L69.0298 13.5834C69.0422 13.5684 69.06 13.5587 69.0792 13.5566C69.0984 13.5591 69.116 13.5687 69.1287 13.5834C69.2439 13.7226 69.3899 13.8334 69.5551 13.9069C69.7204 13.9802 69.9004 14.0144 70.081 14.0067C70.3587 14.0236 70.6334 13.9421 70.857 13.7767C70.9527 13.6892 71.0272 13.5812 71.0748 13.4606C71.1225 13.3401 71.1421 13.2104 71.1321 13.081V12.5971C71.1337 12.5891 71.1325 12.5808 71.1287 12.5736C71.1247 12.5664 71.1185 12.5607 71.111 12.5577C71.1017 12.5568 71.0923 12.5583 71.0836 12.562C71.075 12.5657 71.0674 12.5714 71.0616 12.5788C70.9254 12.7052 70.7655 12.8034 70.5911 12.8678C70.4168 12.9323 70.2314 12.9616 70.0457 12.9541C69.7664 12.9579 69.4911 12.8868 69.2485 12.7481C69.0094 12.6133 68.8136 12.4131 68.6842 12.171C68.5439 11.9062 68.4734 11.61 68.4796 11.3104C68.4746 11.0145 68.5476 10.7225 68.6912 10.4638C68.826 10.2228 69.0247 10.0236 69.2655 9.88816C69.5128 9.75155 69.7914 9.68154 70.0739 9.68499C70.2625 9.675 70.4511 9.70489 70.6274 9.77272C70.8037 9.84055 70.9637 9.9448 71.0969 10.0786C71.1152 10.0984 71.1308 10.1054 71.142 10.1012C71.1533 10.097 71.1604 10.0815 71.1604 10.0575V9.82467C71.1607 9.80607 71.1682 9.78834 71.1815 9.77519C71.1946 9.76203 71.2124 9.75448 71.2309 9.75412H71.5766C71.5862 9.75269 71.596 9.75354 71.6052 9.75657C71.6144 9.75961 71.6227 9.76476 71.6296 9.77163C71.6365 9.77849 71.6417 9.78686 71.6447 9.79606C71.6477 9.80528 71.6485 9.81507 71.6472 9.82467V13.122C71.6569 13.3105 71.6228 13.4985 71.5477 13.6716C71.4725 13.8446 71.3583 13.998 71.2139 14.1196C70.8913 14.3673 70.4917 14.4936 70.0853 14.4765C69.8297 14.4826 69.5758 14.4346 69.3403 14.3354ZM70.716 12.3503C70.8763 12.2675 71.0125 12.1444 71.111 11.9932C71.1349 11.9559 71.1472 11.9122 71.1462 11.8677V10.7686C71.1484 10.724 71.1361 10.68 71.111 10.6431C71.0153 10.4912 70.8816 10.3672 70.7229 10.2832C70.5467 10.1914 70.3502 10.1453 70.1515 10.1492C69.9994 10.1429 69.8476 10.1686 69.7059 10.2245C69.5643 10.2803 69.4359 10.3652 69.329 10.4737C69.2226 10.5866 69.1401 10.7197 69.0863 10.8652C69.0325 11.0106 69.0084 11.1654 69.0157 11.3203C69.0094 11.475 69.0337 11.6296 69.0875 11.7749C69.1412 11.9202 69.2234 12.0534 69.329 12.1668C69.4361 12.275 69.5644 12.3598 69.7061 12.4157C69.8477 12.4715 69.9994 12.4973 70.1515 12.4913C70.3484 12.4918 70.5424 12.4434 70.716 12.3503Z" fill="black"/>
<path d="M73.2796 12.8921C73.0294 12.7523 72.8251 12.543 72.6912 12.2895C72.5534 12.0105 72.4817 11.7035 72.4817 11.3922C72.4817 11.081 72.5534 10.774 72.6912 10.4949C72.8214 10.2451 73.0195 10.0372 73.2626 9.89523C73.5108 9.75646 73.7904 9.68359 74.0747 9.68359C74.3589 9.68359 74.6385 9.75646 74.8867 9.89523C75.1247 10.0334 75.3199 10.2346 75.451 10.4765C75.5902 10.7331 75.6606 11.0214 75.6557 11.3132C75.6562 11.3674 75.6538 11.4216 75.6486 11.4755C75.6455 11.4918 75.6367 11.5065 75.6238 11.5168C75.6108 11.5272 75.5946 11.5325 75.578 11.5319H73.0863C73.0298 11.5319 73.0087 11.5615 73.0228 11.6236C73.0473 11.9055 73.1738 12.1689 73.3784 12.3644C73.5876 12.5541 73.8622 12.6553 74.1445 12.6466C74.3185 12.6466 74.4907 12.6103 74.6498 12.5398C74.809 12.4693 74.9517 12.3663 75.0687 12.2374C75.1195 12.1852 75.1604 12.1753 75.1886 12.2077L75.4214 12.4631C75.4539 12.4913 75.4539 12.521 75.4214 12.5548C75.2568 12.7293 75.0593 12.8694 74.8401 12.9668C74.6206 13.0618 74.3837 13.1099 74.1445 13.108C73.8423 13.1124 73.5442 13.038 73.2796 12.8921ZM75.1039 11.0381C75.0675 10.7881 74.9435 10.559 74.7541 10.3919C74.5661 10.2281 74.3232 10.1414 74.074 10.1492C73.8213 10.1435 73.5757 10.2326 73.3854 10.3989C73.1955 10.5656 73.0718 10.7949 73.0369 11.0451V11.079C73.0369 11.1072 73.0609 11.1228 73.1075 11.1228H75.0475C75.0993 11.1228 75.118 11.0945 75.1039 11.0381Z" fill="black"/>
<path d="M77.9893 9.6907C78.0316 9.6907 78.0528 9.71327 78.0528 9.76125V10.1351C78.0528 10.1761 78.0359 10.1972 78.0034 10.1972C77.9689 10.1972 77.9344 10.1939 77.9004 10.1873C77.8693 10.1805 77.8377 10.1767 77.8059 10.1761C77.6508 10.1727 77.4976 10.21 77.3614 10.2842C77.2253 10.3585 77.111 10.4671 77.0298 10.5993C76.9946 10.6507 76.9771 10.7121 76.9805 10.7742V12.957C76.9819 12.9666 76.9811 12.9764 76.978 12.9856C76.975 12.9948 76.9698 13.0032 76.963 13.01C76.9561 13.0169 76.9477 13.0221 76.9385 13.0251C76.9293 13.0281 76.9196 13.029 76.9099 13.0276H76.5361C76.5264 13.029 76.5166 13.0281 76.5074 13.0251C76.4982 13.0221 76.4898 13.0169 76.483 13.01C76.4762 13.0032 76.471 12.9948 76.4679 12.9856C76.4649 12.9764 76.464 12.9666 76.4655 12.957V9.82475C76.464 9.81515 76.4649 9.80535 76.4679 9.79614C76.471 9.78693 76.4762 9.77856 76.483 9.7717C76.4898 9.76484 76.4982 9.75969 76.5074 9.75665C76.5166 9.7536 76.5264 9.75277 76.5361 9.75419H76.8747C76.8842 9.75277 76.8941 9.7536 76.9033 9.75665C76.9125 9.75969 76.9208 9.76484 76.9277 9.7717C76.9346 9.77856 76.9397 9.78693 76.9427 9.79614C76.9458 9.80535 76.9467 9.81515 76.9452 9.82475V10.0773C76.9452 10.0971 76.9452 10.1083 76.9594 10.114C76.9734 10.1196 76.9805 10.114 76.9946 10.0999C77.0997 9.96515 77.2348 9.85677 77.3891 9.7833C77.5434 9.70982 77.7126 9.6733 77.8835 9.6766C77.9191 9.6776 77.9546 9.68233 77.9893 9.6907Z" fill="black"/>
<path d="M79.1533 13.0275H78.7794C78.7699 13.0289 78.76 13.028 78.7508 13.0251C78.7416 13.022 78.7332 13.0168 78.7264 13.01C78.7195 13.0032 78.7144 12.9947 78.7113 12.9855C78.7083 12.9763 78.7074 12.9666 78.7089 12.9569V9.82468C78.7074 9.81508 78.7083 9.80529 78.7113 9.79608C78.7144 9.78687 78.7195 9.7785 78.7264 9.77164C78.7332 9.76479 78.7416 9.75962 78.7508 9.75659C78.76 9.75355 78.7699 9.7527 78.7794 9.75413H79.118C79.1276 9.7527 79.1375 9.75355 79.1467 9.75659C79.1559 9.75962 79.1642 9.76479 79.1711 9.77164C79.1779 9.7785 79.1831 9.78687 79.1862 9.79608C79.1892 9.80529 79.1901 9.81508 79.1886 9.82468V10.0561C79.1886 10.0758 79.1886 10.0871 79.2055 10.0928C79.2224 10.0984 79.2309 10.0928 79.245 10.0716C79.3487 9.94649 79.4793 9.84656 79.6272 9.77935C79.775 9.71213 79.9363 9.67939 80.0986 9.68359C80.301 9.67798 80.5014 9.7236 80.6814 9.81621C80.8395 9.90303 80.9719 10.0301 81.0651 10.1845C81.0835 10.2169 81.1074 10.2169 81.1357 10.1845C81.2541 10.0371 81.3974 9.91151 81.559 9.81339C81.7203 9.72303 81.9032 9.67816 82.0881 9.68359C82.2365 9.67429 82.3852 9.69637 82.5245 9.74839C82.6638 9.80042 82.7906 9.88122 82.8965 9.98553C83.0886 10.1978 83.19 10.4769 83.1787 10.763V12.9569C83.1801 12.9666 83.1793 12.9763 83.1763 12.9855C83.1732 12.9947 83.1681 13.0032 83.1612 13.01C83.1543 13.0168 83.1459 13.022 83.1367 13.0251C83.1275 13.028 83.1178 13.0289 83.1082 13.0275H82.7343C82.7247 13.0289 82.7149 13.028 82.7056 13.0251C82.6964 13.022 82.6881 13.0168 82.6813 13.01C82.6744 13.0032 82.6692 12.9947 82.6661 12.9855C82.6632 12.9763 82.6623 12.9666 82.6637 12.9569V10.8405C82.6705 10.7452 82.6579 10.6494 82.6269 10.5591C82.5959 10.4686 82.547 10.3854 82.4831 10.3143C82.4143 10.2531 82.3339 10.2063 82.2466 10.1767C82.1594 10.1472 82.0671 10.1354 81.9751 10.1421C81.8239 10.1416 81.6755 10.1836 81.547 10.2635C81.4185 10.3433 81.315 10.4577 81.2486 10.5937C81.2191 10.6451 81.2043 10.7037 81.2063 10.763V12.9569C81.2076 12.9666 81.2068 12.9763 81.2038 12.9855C81.2007 12.9947 81.1956 13.0032 81.1887 13.01C81.1818 13.0168 81.1735 13.022 81.1642 13.0251C81.155 13.028 81.1453 13.0289 81.1357 13.0275H80.7618C80.7522 13.0289 80.7423 13.028 80.7331 13.0251C80.7239 13.022 80.7156 13.0168 80.7087 13.01C80.7019 13.0032 80.6967 12.9947 80.6937 12.9855C80.6907 12.9763 80.6899 12.9666 80.6912 12.9569V10.8405C80.698 10.7455 80.6858 10.6502 80.6556 10.5598C80.6253 10.4695 80.5775 10.386 80.5148 10.3143C80.4468 10.2515 80.3667 10.2033 80.2793 10.1725C80.192 10.1417 80.0993 10.129 80.0069 10.1351C79.8573 10.1333 79.7102 10.175 79.5836 10.255C79.4508 10.3415 79.3417 10.4599 79.2661 10.5993C79.2422 10.6479 79.2302 10.7016 79.2309 10.7559V12.9569C79.2327 12.9673 79.2319 12.9779 79.2285 12.9877C79.2251 12.9977 79.2193 13.0066 79.2115 13.0135C79.2038 13.0206 79.1944 13.0256 79.1842 13.028C79.1741 13.0305 79.1634 13.0303 79.1533 13.0275Z" fill="black"/>
<path d="M84.773 12.8921C84.5222 12.7527 84.3173 12.5434 84.1833 12.2896C84.0451 12.0107 83.9731 11.7035 83.9731 11.3923C83.9731 11.081 84.0451 10.7738 84.1833 10.4949C84.3107 10.2455 84.5065 10.0375 84.7476 9.89526C84.9956 9.75647 85.2749 9.68359 85.559 9.68359C85.8431 9.68359 86.1223 9.75647 86.3703 9.89526C86.6083 10.0335 86.8035 10.2346 86.9346 10.4766C87.0738 10.7331 87.1443 11.0214 87.1392 11.3133C87.1421 11.3673 87.1421 11.4214 87.1392 11.4755C87.1362 11.4918 87.1274 11.5065 87.1144 11.5169C87.1015 11.5272 87.0852 11.5325 87.0687 11.532H84.5783C84.5219 11.532 84.5008 11.5616 84.5148 11.6236C84.5393 11.906 84.6663 12.1694 84.8719 12.3644C85.0804 12.5543 85.3547 12.6555 85.6365 12.6466C85.8106 12.6466 85.9828 12.6103 86.1419 12.5398C86.3011 12.4693 86.4437 12.3663 86.5608 12.2374C86.6129 12.1852 86.6524 12.1753 86.6807 12.2078L86.9135 12.4561C86.9459 12.4843 86.9459 12.5139 86.9135 12.5478C86.7489 12.7224 86.5513 12.8624 86.3322 12.9598C86.0846 13.0642 85.817 13.1122 85.5485 13.1005C85.2801 13.0887 85.0177 13.0176 84.7801 12.8921H84.773ZM86.596 11.0381C86.5596 10.7881 86.4356 10.5591 86.2461 10.3919C86.0581 10.2281 85.8153 10.1414 85.5661 10.1492C85.3134 10.1435 85.0677 10.2326 84.8775 10.399C84.6876 10.5656 84.5639 10.7949 84.529 11.0452L84.5219 11.0791C84.5219 11.1072 84.5459 11.1228 84.5925 11.1228H86.5325C86.5889 11.1228 86.6101 11.0945 86.596 11.0381Z" fill="black"/>
<path d="M87.9534 8.87519C87.9166 8.83995 87.8875 8.79766 87.8676 8.75086C87.8477 8.70406 87.8376 8.65373 87.8376 8.60288C87.8375 8.55285 87.8476 8.50333 87.8676 8.45744C87.8875 8.41155 87.9167 8.37028 87.9534 8.33621C87.9887 8.29986 88.031 8.27102 88.0779 8.25139C88.1247 8.23175 88.1749 8.22173 88.2256 8.22193C88.2746 8.22194 88.3232 8.23211 88.3681 8.25178C88.413 8.27144 88.4534 8.30019 88.4867 8.33621C88.5245 8.37049 88.5546 8.4123 88.5753 8.45896C88.596 8.50562 88.6066 8.55609 88.6066 8.60711C88.6069 8.65773 88.5971 8.70791 88.5777 8.75467C88.5583 8.80143 88.5298 8.84385 88.4937 8.87942C88.4608 8.91609 88.4205 8.94545 88.3756 8.96562C88.3306 8.98579 88.2819 8.99632 88.2327 8.99652C88.1802 8.99694 88.1283 8.98637 88.0801 8.96547C88.032 8.94457 87.9888 8.91381 87.9534 8.87519ZM87.9534 12.957V9.82474C87.9519 9.81514 87.9527 9.80535 87.9558 9.79614C87.9589 9.78693 87.9639 9.77856 87.9708 9.7717C87.9777 9.76485 87.9861 9.75968 87.9953 9.75665C88.0045 9.75361 88.0143 9.75276 88.0238 9.75419H88.3978C88.4073 9.75276 88.4172 9.75361 88.4264 9.75665C88.4356 9.75968 88.4439 9.76485 88.4508 9.7717C88.4577 9.77856 88.4628 9.78693 88.4658 9.79614C88.4689 9.80535 88.4698 9.81514 88.4683 9.82474V12.957C88.4698 12.9666 88.4689 12.9764 88.4658 12.9856C88.4628 12.9948 88.4577 13.0032 88.4508 13.01C88.4439 13.0169 88.4356 13.0221 88.4264 13.0251C88.4172 13.0281 88.4073 13.029 88.3978 13.0276H88.0281C88.0185 13.029 88.0087 13.0281 87.9995 13.0251C87.9903 13.0221 87.9819 13.0169 87.975 13.01C87.9682 13.0032 87.9631 12.9948 87.96 12.9856C87.9569 12.9764 87.9561 12.9666 87.9576 12.957H87.9534Z" fill="black"/>
<path d="M89.7184 12.892C89.5276 12.7521 89.3875 12.554 89.319 12.3277V12.2981C89.319 12.2698 89.3346 12.2514 89.3684 12.2429L89.7071 12.123L89.7353 12.116C89.7635 12.116 89.7846 12.1344 89.7988 12.1725C89.8361 12.3147 89.9219 12.4394 90.0415 12.5251C90.1533 12.6067 90.2882 12.6507 90.4266 12.6508C90.5896 12.663 90.7512 12.6126 90.8782 12.5097C90.929 12.4627 90.9691 12.4054 90.9959 12.3417C91.0226 12.2778 91.0354 12.2091 91.0333 12.14C91.0369 12.0735 91.0251 12.0072 90.9989 11.9461C90.9728 11.8849 90.9329 11.8305 90.8824 11.7873C90.7591 11.6922 90.6132 11.631 90.4591 11.6095L90.1769 11.5545C89.9545 11.5177 89.7521 11.4039 89.6055 11.2328C89.4832 11.0821 89.4101 10.8974 89.3963 10.7039C89.3824 10.5103 89.4283 10.3172 89.5279 10.1506C89.6195 10.0032 89.7505 9.88442 89.906 9.80771C90.0757 9.72416 90.2628 9.68208 90.452 9.68496C90.6877 9.67769 90.9192 9.74808 91.111 9.88531C91.2985 10.0282 91.4319 10.2308 91.4891 10.4596L91.4962 10.4878C91.4962 10.5174 91.4764 10.5372 91.4397 10.5527L91.1081 10.6373L91.0799 10.6444C91.0517 10.6444 91.0333 10.6261 91.0235 10.588C90.9934 10.4587 90.9226 10.3425 90.8217 10.2564C90.717 10.1731 90.5857 10.1305 90.452 10.1365C90.3075 10.1292 90.1655 10.1765 90.0542 10.2691C90.0054 10.3108 89.9663 10.3627 89.94 10.4213C89.9136 10.4799 89.9006 10.5435 89.9018 10.6077C89.8976 10.6675 89.9061 10.7274 89.9268 10.7836C89.9475 10.8398 89.9798 10.8909 90.0217 10.9336C90.125 11.0189 90.2492 11.0749 90.3815 11.0959L90.6637 11.151C90.9 11.1943 91.1174 11.3084 91.2873 11.4783C91.4527 11.6684 91.5391 11.9147 91.5289 12.1664C91.5186 12.4183 91.4126 12.6566 91.2323 12.8328C91.0049 13.0235 90.7132 13.1204 90.4168 13.1037C90.1671 13.1113 89.9218 13.037 89.7184 12.892Z" fill="black"/>
<path d="M92.5642 8.47729L92.9452 8.27129C92.9568 8.2696 92.9688 8.2696 92.9804 8.27129C93.0129 8.27129 93.0298 8.28964 93.0298 8.32773V9.72455C93.0291 9.72935 93.0295 9.73425 93.0311 9.73886C93.0326 9.74346 93.0351 9.74764 93.0386 9.75108C93.042 9.75451 93.0462 9.75708 93.0508 9.7586C93.0554 9.76013 93.0603 9.76054 93.0651 9.75983H93.4531C93.4627 9.7584 93.4725 9.75924 93.4817 9.76227C93.4909 9.76532 93.4992 9.77047 93.5061 9.77733C93.513 9.78419 93.5182 9.79256 93.5211 9.80178C93.5242 9.81098 93.5251 9.82078 93.5237 9.83037V10.1323C93.5251 10.1419 93.5242 10.1517 93.5211 10.1609C93.5182 10.1701 93.513 10.1785 93.5061 10.1854C93.4992 10.1922 93.4909 10.1974 93.4817 10.2004C93.4725 10.2034 93.4627 10.2043 93.4531 10.2029H93.0651C93.0411 10.2029 93.0298 10.2156 93.0298 10.2395V12.9626C93.0312 12.9722 93.0305 12.9821 93.0274 12.9913C93.0243 13.0005 93.0191 13.0088 93.0124 13.0157C93.0055 13.0226 92.9971 13.0277 92.9879 13.0307C92.9787 13.0338 92.9689 13.0347 92.9592 13.0332H92.5854C92.5757 13.0347 92.566 13.0338 92.5568 13.0307C92.5476 13.0277 92.5392 13.0226 92.5324 13.0157C92.5255 13.0088 92.5203 13.0005 92.5172 12.9913C92.5143 12.9821 92.5134 12.9722 92.5148 12.9626V10.2339C92.5148 10.2099 92.5036 10.1972 92.4796 10.1972H92.0915C92.082 10.1986 92.0721 10.1978 92.0629 10.1948C92.0537 10.1917 92.0454 10.1866 92.0385 10.1797C92.0316 10.1728 92.0264 10.1645 92.0235 10.1553C92.0204 10.1461 92.0196 10.1363 92.021 10.1267V9.82473C92.0196 9.81513 92.0204 9.80534 92.0235 9.79613C92.0264 9.78692 92.0316 9.77855 92.0385 9.77169C92.0454 9.76483 92.0537 9.75967 92.0629 9.75663C92.0721 9.7536 92.082 9.75275 92.0915 9.75418H92.4796C92.4843 9.7549 92.4893 9.75447 92.4938 9.75296C92.4985 9.75144 92.5026 9.74886 92.5061 9.74543C92.5095 9.742 92.512 9.73782 92.5136 9.7332C92.5151 9.7286 92.5155 9.7237 92.5148 9.71891V8.56195C92.513 8.54442 92.5169 8.52679 92.5257 8.51157C92.5346 8.49637 92.5481 8.48436 92.5642 8.47729Z" fill="black"/>
<path d="M94.7963 12.8921C94.5461 12.7523 94.3418 12.543 94.2079 12.2896C94.0702 12.0105 93.9984 11.7035 93.9984 11.3922C93.9984 11.081 94.0702 10.774 94.2079 10.4949C94.3381 10.2451 94.5362 10.0372 94.7794 9.89526C95.0273 9.75286 95.309 9.67975 95.5949 9.68362C95.8781 9.68009 96.1569 9.75323 96.402 9.89526C96.6401 10.0332 96.8354 10.2344 96.9663 10.4766C97.1055 10.7332 97.176 11.0214 97.1709 11.3133C97.1714 11.3674 97.1691 11.4216 97.1639 11.4755C97.1608 11.4918 97.1521 11.5065 97.1391 11.5169C97.1261 11.5272 97.1099 11.5325 97.0933 11.532H94.6031C94.5466 11.532 94.5254 11.5615 94.5396 11.6236C94.5636 11.9057 94.6901 12.1692 94.8951 12.3644C95.1043 12.5541 95.3789 12.6553 95.6613 12.6466C95.8353 12.6466 96.0074 12.6103 96.1667 12.5398C96.3258 12.4693 96.4685 12.3663 96.5854 12.2374C96.6362 12.1852 96.6771 12.1753 96.7053 12.2078L96.9381 12.4631C96.9706 12.4914 96.9706 12.521 96.9381 12.5548C96.7735 12.7293 96.576 12.8694 96.3568 12.9668C96.1373 13.0617 95.9004 13.1098 95.6613 13.108C95.3591 13.1124 95.061 13.038 94.7963 12.8921ZM96.6206 11.0381C96.5837 10.7883 96.4598 10.5594 96.2708 10.3919C96.0829 10.2281 95.8399 10.1414 95.5907 10.1492C95.338 10.1435 95.0924 10.2326 94.9021 10.399C94.7123 10.5656 94.5886 10.795 94.5537 11.0452V11.0791C94.5537 11.1072 94.5762 11.1228 94.6242 11.1228H96.5642C96.6206 11.1228 96.6395 11.0945 96.6206 11.0381Z" fill="black"/>
<path d="M99.506 9.6907C99.5483 9.6907 99.5695 9.71327 99.5695 9.76125V10.1351C99.5695 10.1761 99.5526 10.1972 99.5201 10.1972C99.4855 10.1972 99.4511 10.1939 99.4171 10.1873C99.386 10.1805 99.3544 10.1767 99.3226 10.1761C99.1675 10.1727 99.0143 10.21 98.8781 10.2842C98.742 10.3585 98.6276 10.4671 98.5465 10.5993C98.5113 10.6507 98.4938 10.7121 98.4971 10.7742V12.957C98.4986 12.9666 98.4978 12.9764 98.4947 12.9856C98.4917 12.9948 98.4865 13.0032 98.4797 13.01C98.4728 13.0169 98.4644 13.0221 98.4552 13.0251C98.446 13.0281 98.4362 13.029 98.4267 13.0276H98.0598C98.0502 13.029 98.0404 13.0281 98.0312 13.0251C98.022 13.0221 98.0136 13.0169 98.0068 13.01C97.9999 13.0032 97.9947 12.9948 97.9917 12.9856C97.9887 12.9764 97.9878 12.9666 97.9893 12.957V9.82475C97.9878 9.81515 97.9887 9.80535 97.9917 9.79614C97.9947 9.78693 97.9999 9.77856 98.0068 9.7717C98.0136 9.76484 98.022 9.75969 98.0312 9.75665C98.0404 9.7536 98.0502 9.75277 98.0598 9.75419H98.3984C98.408 9.75277 98.4178 9.7536 98.427 9.75665C98.4363 9.75969 98.4446 9.76484 98.4514 9.7717C98.4583 9.77856 98.4635 9.78693 98.4665 9.79614C98.4695 9.80535 98.4704 9.81515 98.469 9.82475V10.0773C98.469 10.0971 98.469 10.1083 98.4831 10.114C98.4972 10.1196 98.5042 10.114 98.5184 10.0999C98.6235 9.96515 98.7585 9.85677 98.9128 9.7833C99.0671 9.70982 99.2364 9.6733 99.4072 9.6766C99.4405 9.67808 99.4736 9.68281 99.506 9.6907Z" fill="black"/>
<path d="M12.1552 18.8828H12.5572C12.608 18.8828 12.6278 18.9096 12.6138 18.9604L11.5696 22.0998C11.5633 22.1181 11.5509 22.1337 11.5345 22.144C11.5181 22.1543 11.4986 22.1586 11.4794 22.1562H10.9347C10.9153 22.1586 10.8957 22.1544 10.8789 22.1441C10.8623 22.1338 10.8496 22.1182 10.8431 22.0998L9.80457 18.9604V18.9323C9.80457 18.8998 9.82573 18.8828 9.86806 18.8828H10.2631C10.2815 18.8814 10.2999 18.886 10.3153 18.8963C10.3307 18.9065 10.3421 18.9217 10.3478 18.9392L11.1944 21.5439C11.1955 21.5494 11.1986 21.5543 11.203 21.5579C11.2073 21.5615 11.2127 21.5635 11.2183 21.5636C11.231 21.5636 11.2381 21.5566 11.2437 21.5439L12.0818 18.9392C12.0872 18.9238 12.097 18.9101 12.11 18.9002C12.1232 18.8901 12.1388 18.8841 12.1552 18.8828Z" fill="black"/>
<path d="M13.8582 21.9983C13.6093 21.8473 13.4048 21.6331 13.2656 21.3774C13.1247 21.1137 13.0511 20.8193 13.0511 20.5203C13.0511 20.2213 13.1247 19.9269 13.2656 19.6631C13.4044 19.4073 13.609 19.193 13.8582 19.0424C14.1145 18.8905 14.4069 18.8104 14.7047 18.8104C15.0026 18.8104 15.295 18.8905 15.5513 19.0424C15.8008 19.1925 16.0055 19.4069 16.1439 19.6631C16.2855 19.9266 16.3597 20.2211 16.3597 20.5203C16.3597 20.8194 16.2855 21.1139 16.1439 21.3774C16.0051 21.6334 15.8005 21.8477 15.5513 21.9983C15.2947 22.1493 15.0024 22.2288 14.7047 22.2288C14.407 22.2288 14.1147 22.1493 13.8582 21.9983ZM15.2831 21.5891C15.4554 21.4787 15.5944 21.3237 15.6853 21.1404C15.7809 20.9475 15.8307 20.735 15.8307 20.5196C15.8307 20.3042 15.7809 20.0918 15.6853 19.8988C15.5942 19.716 15.4552 19.5615 15.2831 19.4515C15.1085 19.3427 14.907 19.285 14.7011 19.285C14.4954 19.285 14.2938 19.3427 14.1191 19.4515C13.9481 19.5608 13.8093 19.7137 13.717 19.8946C13.6224 20.0878 13.5731 20.3002 13.5731 20.5154C13.5731 20.7305 13.6224 20.9429 13.717 21.1361C13.8082 21.3192 13.9472 21.4742 14.1191 21.5848C14.2942 21.6928 14.4956 21.7499 14.7011 21.7499C14.9067 21.7499 15.1082 21.6928 15.2831 21.5848V21.5891Z" fill="black"/>
<path d="M17.6366 22.1519H17.2627C17.2531 22.1534 17.2434 22.1526 17.2342 22.1495C17.225 22.1464 17.2166 22.1413 17.2097 22.1345C17.2029 22.1276 17.1977 22.1192 17.1947 22.11C17.1916 22.1008 17.1908 22.091 17.1922 22.0814V18.9492C17.1908 18.9395 17.1916 18.9297 17.1947 18.9205C17.1977 18.9113 17.2029 18.9029 17.2097 18.8961C17.2166 18.8893 17.225 18.8841 17.2342 18.881C17.2434 18.878 17.2531 18.8772 17.2627 18.8786H17.6014C17.611 18.8772 17.6207 18.878 17.6299 18.881C17.6392 18.8841 17.6475 18.8893 17.6544 18.8961C17.6613 18.9029 17.6665 18.9113 17.6695 18.9205C17.6725 18.9297 17.6733 18.9395 17.672 18.9492V19.189C17.672 19.2088 17.672 19.2201 17.6889 19.2243C17.7058 19.2285 17.7143 19.2243 17.7284 19.2031C17.8318 19.0803 17.959 18.9795 18.1022 18.9068C18.2528 18.8385 18.4167 18.8047 18.582 18.808C18.7309 18.7992 18.88 18.8217 19.0197 18.8739C19.1595 18.9262 19.2867 19.0071 19.3932 19.1114C19.5885 19.3217 19.6925 19.6007 19.6825 19.8874V22.0814C19.6839 22.091 19.6831 22.1008 19.68 22.11C19.677 22.1192 19.6718 22.1276 19.665 22.1345C19.6581 22.1413 19.6497 22.1464 19.6405 22.1495C19.6313 22.1526 19.6216 22.1534 19.612 22.1519H19.2381C19.2285 22.1534 19.2186 22.1526 19.2094 22.1495C19.2002 22.1464 19.1918 22.1413 19.185 22.1345C19.1782 22.1276 19.173 22.1192 19.1699 22.11C19.1669 22.1008 19.1661 22.091 19.1675 22.0814V19.9763C19.1741 19.8816 19.1619 19.7863 19.1316 19.6963C19.1014 19.6062 19.0536 19.523 18.9911 19.4514C18.9232 19.3884 18.8431 19.34 18.7558 19.3089C18.6685 19.2779 18.5757 19.2649 18.4832 19.2709C18.3334 19.2691 18.1865 19.3108 18.0599 19.3908C17.927 19.4777 17.8179 19.5966 17.7424 19.7365C17.7189 19.7823 17.7068 19.8331 17.7072 19.8846V22.0857C17.7079 22.0949 17.7066 22.1042 17.7032 22.1129C17.6999 22.1216 17.6946 22.1294 17.6878 22.1357C17.6811 22.1421 17.6729 22.1468 17.6641 22.1497C17.6552 22.1525 17.6458 22.1533 17.6366 22.1519Z" fill="black"/>
<path d="M24.927 17.3873C25.1318 17.4908 25.3012 17.6529 25.4138 17.8529C25.5261 18.0582 25.5834 18.2891 25.5802 18.5231C25.5821 18.7399 25.5261 18.9532 25.418 19.1411C25.3138 19.3222 25.1627 19.4719 24.9806 19.5742C24.934 19.6024 24.934 19.6292 24.9806 19.6519C25.1919 19.7567 25.3701 19.9178 25.4956 20.1175C25.6229 20.3228 25.6889 20.5601 25.6861 20.8017C25.692 20.9827 25.6599 21.1628 25.5919 21.3305C25.5238 21.4982 25.4213 21.6497 25.291 21.7752C25.0271 22.0292 24.6561 22.1562 24.1749 22.1562H22.7513C22.7417 22.1577 22.7319 22.1568 22.7227 22.1538C22.7135 22.1507 22.7051 22.1456 22.6982 22.1387C22.6915 22.1319 22.6863 22.1235 22.6832 22.1143C22.6801 22.1051 22.6793 22.0952 22.6808 22.0857V17.2885C22.6793 17.2789 22.6801 17.2691 22.6832 17.2599C22.6863 17.2507 22.6915 17.2423 22.6982 17.2355C22.7051 17.2286 22.7135 17.2235 22.7227 17.2204C22.7319 17.2174 22.7417 17.2165 22.7513 17.218H24.1622C24.4271 17.2109 24.6898 17.2691 24.927 17.3873ZM23.2028 17.7541V19.3556C23.2021 19.3603 23.2025 19.3652 23.204 19.3698C23.2055 19.3744 23.2082 19.3786 23.2116 19.382C23.2149 19.3855 23.2192 19.388 23.2237 19.3895C23.2284 19.3911 23.2333 19.3915 23.2381 19.3908H24.0988C24.3504 19.4089 24.5996 19.3308 24.7958 19.1721C24.8781 19.0934 24.9424 18.9978 24.984 18.8919C25.0256 18.7858 25.0437 18.6721 25.0371 18.5583C25.0433 18.4443 25.025 18.3302 24.9834 18.2238C24.9418 18.1175 24.8778 18.0213 24.7958 17.9418C24.6006 17.781 24.351 17.7012 24.0988 17.7188H23.2381C23.2333 17.7181 23.2284 17.7185 23.2237 17.7201C23.2192 17.7216 23.2149 17.7241 23.2116 17.7276C23.2082 17.731 23.2055 17.7352 23.204 17.7398C23.2025 17.7445 23.2021 17.7493 23.2028 17.7541ZM23.2028 19.927V21.6201C23.2021 21.6249 23.2025 21.6297 23.204 21.6344C23.2055 21.6389 23.2082 21.6432 23.2116 21.6466C23.2149 21.6501 23.2192 21.6526 23.2237 21.6541C23.2284 21.6557 23.2333 21.6561 23.2381 21.6553H24.127C24.3997 21.6751 24.67 21.5921 24.8847 21.4225C25.0503 21.2471 25.1427 21.0148 25.1427 20.7736C25.1427 20.5322 25.0503 20.3 24.8847 20.1244C24.6697 19.956 24.3994 19.874 24.127 19.8945H23.2381C23.2336 19.8939 23.2289 19.8943 23.2246 19.8957C23.2201 19.897 23.2161 19.8993 23.2128 19.9024C23.2094 19.9055 23.2068 19.9093 23.205 19.9136C23.2033 19.9178 23.2026 19.9223 23.2028 19.927Z" fill="black"/>
<path d="M27.2197 22.0222C26.9688 21.8828 26.7639 21.6735 26.6299 21.4197C26.4926 21.1403 26.4211 20.833 26.4211 20.5217C26.4211 20.2102 26.4926 19.903 26.6299 19.6236C26.76 19.3737 26.9581 19.1659 27.2014 19.0239C27.4492 18.8852 27.7286 18.8123 28.0127 18.8123C28.2967 18.8123 28.5761 18.8852 28.8239 19.0239C29.0623 19.1623 29.2577 19.364 29.3883 19.6066C29.5277 19.8627 29.5987 20.1505 29.5943 20.4419C29.5952 20.4962 29.5924 20.5504 29.5858 20.6042C29.5837 20.621 29.5752 20.6364 29.5621 20.6472C29.549 20.658 29.5323 20.6633 29.5153 20.662H27.0264C26.9699 20.662 26.9488 20.6916 26.9615 20.7524C26.9856 21.0347 27.1127 21.2983 27.3185 21.4931C27.5281 21.6804 27.8022 21.779 28.0832 21.7682C28.2573 21.7687 28.4296 21.7326 28.5889 21.662C28.748 21.5915 28.8907 21.4883 29.0074 21.359C29.0596 21.3069 29.1005 21.2984 29.1273 21.3308L29.3615 21.5847C29.3691 21.5898 29.3752 21.5966 29.3796 21.6046C29.3839 21.6126 29.3861 21.6216 29.3861 21.6307C29.3861 21.6397 29.3839 21.6487 29.3796 21.6567C29.3752 21.6646 29.3691 21.6715 29.3615 21.6765C29.1968 21.8518 28.9986 21.9924 28.7788 22.0899C28.5593 22.1851 28.3223 22.2331 28.0832 22.231C27.7821 22.2374 27.4845 22.1655 27.2197 22.0222ZM29.044 20.1668C29.0065 19.9174 28.8827 19.6893 28.6942 19.522C28.502 19.362 28.2599 19.2744 28.0098 19.2744C27.7598 19.2744 27.5177 19.362 27.3255 19.522C27.1336 19.6907 27.0098 19.9234 26.977 20.1767V20.2119C26.977 20.2402 26.9996 20.2543 27.0476 20.2543H28.9805C29.037 20.2524 29.0582 20.2233 29.044 20.1668Z" fill="black"/>
<path d="M31.9294 18.8194C31.9703 18.8194 31.9914 18.8434 31.9914 18.89V19.2639C31.9914 19.3062 31.976 19.3273 31.9421 19.3273C31.9079 19.3277 31.8738 19.3239 31.8405 19.316C31.8093 19.3104 31.7777 19.3071 31.7459 19.3062C31.5914 19.3024 31.4386 19.3387 31.3023 19.4117C31.166 19.4846 31.051 19.5917 30.9686 19.7224C30.9345 19.7748 30.9173 19.8363 30.9192 19.8988V22.0858C30.9206 22.0953 30.9198 22.1051 30.9167 22.1143C30.9137 22.1235 30.9086 22.1319 30.9017 22.1388C30.8948 22.1457 30.8865 22.1507 30.8773 22.1538C30.8681 22.1569 30.8582 22.1577 30.8486 22.1562H30.4761C30.4666 22.1577 30.4567 22.1569 30.4475 22.1538C30.4383 22.1507 30.43 22.1457 30.4231 22.1388C30.4162 22.1319 30.4111 22.1235 30.408 22.1143C30.405 22.1051 30.4041 22.0953 30.4056 22.0858V18.9535C30.4041 18.9439 30.405 18.934 30.408 18.9248C30.4111 18.9156 30.4162 18.9072 30.4231 18.9004C30.43 18.8936 30.4383 18.8884 30.4475 18.8853C30.4567 18.8823 30.4666 18.8815 30.4761 18.8829H30.8147C30.8243 18.8815 30.8342 18.8823 30.8434 18.8853C30.8526 18.8884 30.861 18.8936 30.8678 18.9004C30.8747 18.9072 30.8798 18.9156 30.8829 18.9248C30.8859 18.934 30.8868 18.9439 30.8853 18.9535V19.2075C30.8853 19.2271 30.8853 19.2385 30.8994 19.2427C30.9136 19.2469 30.9192 19.2427 30.9347 19.2286C31.0403 19.0953 31.1755 18.9883 31.3294 18.916C31.4835 18.8439 31.6521 18.8083 31.8221 18.8123C31.858 18.8118 31.8939 18.8141 31.9294 18.8194Z" fill="black"/>
<path d="M33.5237 21.7964V22.1139C33.5252 22.1235 33.5243 22.1333 33.5213 22.1425C33.5183 22.1518 33.5131 22.1601 33.5062 22.167C33.4994 22.1738 33.491 22.1789 33.4818 22.182C33.4726 22.1851 33.4628 22.1859 33.4532 22.1845H33.3248C33.1401 22.1963 32.9574 22.1401 32.8112 22.0265C32.7464 21.9632 32.6962 21.8864 32.6644 21.8015C32.6328 21.7166 32.6202 21.6257 32.6278 21.5355V17.1192C32.6264 17.1096 32.6272 17.0998 32.6303 17.0906C32.6333 17.0814 32.6384 17.073 32.6453 17.0661C32.6522 17.0593 32.6605 17.0542 32.6697 17.0511C32.6789 17.048 32.6888 17.0472 32.6983 17.0487H33.0723C33.0818 17.0472 33.0916 17.048 33.1008 17.0511C33.1101 17.0542 33.1184 17.0593 33.1253 17.0661C33.1322 17.073 33.1374 17.0814 33.1403 17.0906C33.1434 17.0998 33.1442 17.1096 33.1428 17.1192V21.472C33.1428 21.6413 33.2133 21.7259 33.3544 21.7259H33.4532C33.4628 21.7245 33.4726 21.7253 33.4818 21.7284C33.491 21.7314 33.4994 21.7365 33.5062 21.7434C33.5131 21.7503 33.5183 21.7586 33.5213 21.7678C33.5243 21.777 33.5252 21.7869 33.5237 21.7964Z" fill="black"/>
<path d="M34.3238 18.0038C34.2866 17.9692 34.257 17.9273 34.2369 17.8806C34.2167 17.834 34.2065 17.7837 34.2067 17.7329C34.2064 17.6825 34.2167 17.6327 34.2368 17.5865C34.257 17.5403 34.2867 17.4989 34.3238 17.4648C34.3594 17.4289 34.4017 17.4003 34.4485 17.3809C34.4952 17.3616 34.5454 17.3517 34.5961 17.3519C34.645 17.3521 34.6933 17.3622 34.7382 17.3817C34.7831 17.401 34.8235 17.4294 34.8571 17.4648C34.8929 17.4996 34.9213 17.5414 34.9404 17.5874C34.9597 17.6335 34.9692 17.683 34.9686 17.7329C34.9692 17.7833 34.9597 17.8332 34.9405 17.8798C34.9214 17.9263 34.893 17.9685 34.8571 18.0038C34.8243 18.0406 34.7841 18.0701 34.7391 18.0902C34.6941 18.1105 34.6454 18.1209 34.5961 18.1209C34.5451 18.1213 34.4945 18.1112 34.4476 18.091C34.4007 18.0709 34.3585 18.0411 34.3238 18.0038ZM34.3238 22.0857V18.9534C34.3223 18.9438 34.3232 18.934 34.3262 18.9247C34.3292 18.9155 34.3344 18.9072 34.3413 18.9004C34.3482 18.8935 34.3565 18.8883 34.3657 18.8853C34.3749 18.8823 34.3848 18.8815 34.3943 18.8828H34.7696C34.7792 18.8815 34.789 18.8823 34.7982 18.8853C34.8074 18.8883 34.8158 18.8935 34.8227 18.9004C34.8295 18.9072 34.8347 18.9155 34.8377 18.9247C34.8407 18.934 34.8416 18.9438 34.8401 18.9534V22.0857C34.8416 22.0952 34.8407 22.1051 34.8377 22.1143C34.8347 22.1235 34.8295 22.1318 34.8227 22.1387C34.8158 22.1456 34.8074 22.1507 34.7982 22.1537C34.789 22.1568 34.7792 22.1576 34.7696 22.1562H34.3943C34.385 22.1571 34.3755 22.156 34.3666 22.1527C34.3578 22.1495 34.3497 22.1442 34.3433 22.1374C34.3367 22.1307 34.3319 22.1224 34.329 22.1135C34.326 22.1045 34.3253 22.095 34.3266 22.0857H34.3238Z" fill="black"/>
<path d="M36.3597 22.152H35.9858C35.9762 22.1535 35.9665 22.1526 35.9573 22.1495C35.9481 22.1465 35.9397 22.1414 35.9328 22.1345C35.9259 22.1276 35.9208 22.1193 35.9178 22.1101C35.9147 22.1009 35.9139 22.091 35.9153 22.0815V18.9492C35.9139 18.9396 35.9147 18.9299 35.9178 18.9205C35.9208 18.9113 35.9259 18.903 35.9328 18.8962C35.9397 18.8893 35.9481 18.8841 35.9573 18.8811C35.9665 18.8781 35.9762 18.8773 35.9858 18.8786H36.3245C36.3341 18.8773 36.3438 18.8781 36.353 18.8811C36.3622 18.8841 36.3707 18.8893 36.3775 18.8962C36.3844 18.903 36.3895 18.9113 36.3926 18.9205C36.3956 18.9299 36.3964 18.9396 36.395 18.9492V19.189C36.395 19.2088 36.395 19.2201 36.412 19.2244C36.4289 19.2286 36.4374 19.2244 36.4501 19.2032C36.5544 19.0806 36.6819 18.9799 36.8253 18.9069C36.9754 18.8385 37.1389 18.8048 37.3036 18.8081C37.4526 18.7992 37.6017 18.8215 37.7415 18.8738C37.8812 18.9259 38.0085 19.007 38.1149 19.1114C38.2119 19.2154 38.2873 19.3375 38.3369 19.4706C38.3866 19.6038 38.4094 19.7454 38.4041 19.8874V22.0815C38.4056 22.091 38.4048 22.1009 38.4017 22.1101C38.3987 22.1193 38.3936 22.1276 38.3867 22.1345C38.3798 22.1414 38.3714 22.1465 38.3622 22.1495C38.353 22.1526 38.3432 22.1535 38.3337 22.152H37.9612C37.9515 22.1535 37.9418 22.1526 37.9325 22.1495C37.9233 22.1465 37.9149 22.1414 37.9082 22.1345C37.9013 22.1276 37.8961 22.1193 37.893 22.1101C37.8901 22.1009 37.8892 22.091 37.8906 22.0815V19.9763C37.8973 19.8815 37.885 19.7862 37.8545 19.696C37.8239 19.6059 37.7758 19.5228 37.7128 19.4514C37.6452 19.3884 37.5654 19.3398 37.4782 19.3088C37.3911 19.2777 37.2986 19.2648 37.2063 19.2709C37.0566 19.2696 36.9097 19.3112 36.783 19.3908C36.6509 19.4783 36.5423 19.597 36.467 19.7365C36.4434 19.7823 36.4313 19.8331 36.4317 19.8847V22.0857C36.4325 22.0951 36.4311 22.1046 36.4276 22.1133C36.4242 22.1221 36.4189 22.1301 36.4119 22.1364C36.405 22.1428 36.3966 22.1475 36.3876 22.1503C36.3786 22.1529 36.369 22.1536 36.3597 22.152Z" fill="black"/>
<path d="M10.5284 31.1101C10.2426 30.9111 10.0303 30.6235 9.9245 30.2917V30.2635C9.92486 30.249 9.92985 30.2351 9.93874 30.2236C9.94763 30.2122 9.95995 30.204 9.97389 30.2L10.3337 30.0589C10.3448 30.054 10.3568 30.0516 10.3689 30.0519C10.3755 30.0518 10.3819 30.0529 10.388 30.0554C10.394 30.0578 10.3996 30.0614 10.4042 30.066C10.4132 30.0764 10.4204 30.0884 10.4254 30.1012C10.4892 30.339 10.6321 30.548 10.8303 30.6938C11.0334 30.8372 11.2774 30.9114 11.5259 30.9054C11.8064 30.9236 12.0829 30.8326 12.2977 30.6515C12.4673 30.4796 12.5647 30.2495 12.5698 30.0081C12.5751 29.7667 12.4878 29.5325 12.3259 29.3535C12.1406 29.1822 11.909 29.0692 11.6599 29.0289L11.3001 28.9583C10.9586 28.9084 10.6429 28.7479 10.4014 28.5012C10.1783 28.2564 10.0606 27.9335 10.0741 27.6025C10.0723 27.3597 10.1382 27.1213 10.2645 26.9139C10.3918 26.7044 10.5731 26.5328 10.7894 26.4173C10.988 26.3047 11.2088 26.237 11.4363 26.2186C11.6638 26.2003 11.8926 26.2318 12.1067 26.311C12.3207 26.3904 12.5149 26.5155 12.6756 26.6776C12.8363 26.8397 12.9597 27.035 13.037 27.2498C13.0402 27.2589 13.0402 27.2688 13.037 27.2779C13.0364 27.2923 13.0313 27.3063 13.0225 27.3176C13.0137 27.329 13.0015 27.3373 12.9876 27.3414L12.6207 27.4967C12.6092 27.4991 12.5971 27.4991 12.5855 27.4967C12.5789 27.4969 12.5725 27.4958 12.5664 27.4934C12.5603 27.4909 12.5548 27.4872 12.5503 27.4826C12.5403 27.4727 12.533 27.4607 12.5291 27.4472C12.4526 27.2385 12.3162 27.0568 12.1368 26.9252C11.9661 26.8004 11.7599 26.7336 11.5485 26.7347C11.4247 26.7279 11.3007 26.7455 11.1838 26.7867C11.0669 26.8279 10.9592 26.8917 10.867 26.9746C10.7846 27.0536 10.7198 27.1491 10.6767 27.2549C10.6338 27.3607 10.6134 27.4742 10.6173 27.5884C10.6097 27.7904 10.6805 27.9876 10.8148 28.1387C10.9721 28.2979 11.1783 28.3998 11.4003 28.4279L11.7601 28.4985C12.1214 28.5632 12.4566 28.7296 12.7266 28.9781C12.8556 29.1041 12.9562 29.256 13.0219 29.4238C13.0876 29.5918 13.1168 29.7717 13.1075 29.9517C13.1108 30.2117 13.0435 30.4677 12.9128 30.6924C12.7808 30.9161 12.5874 31.0974 12.3556 31.2144C12.0931 31.3461 11.8024 31.4114 11.509 31.4049C11.1595 31.4107 10.8167 31.3077 10.5284 31.1101Z" fill="black"/>
<path d="M14.5778 31.1525C14.3275 31.012 14.1232 30.8023 13.9894 30.5485C13.8515 30.2695 13.7798 29.9624 13.7798 29.6512C13.7798 29.34 13.8515 29.0329 13.9894 28.7538C14.1184 28.5056 14.3138 28.298 14.5538 28.1541C14.8019 28.0154 15.0815 27.9425 15.3657 27.9425C15.65 27.9425 15.9296 28.0154 16.1778 28.1541C16.4151 28.2932 16.6102 28.4941 16.7421 28.7355C16.8813 28.992 16.9517 29.2803 16.9467 29.5721C16.9472 29.6263 16.9449 29.6805 16.9397 29.7345C16.9366 29.7508 16.9278 29.7654 16.9149 29.7757C16.9019 29.7861 16.8857 29.7915 16.8691 29.7909H14.3915C14.335 29.7909 14.3139 29.8205 14.328 29.8826C14.351 30.1612 14.4738 30.4222 14.6736 30.6176C14.8829 30.8074 15.1576 30.9085 15.4398 30.8999C15.6139 30.8999 15.786 30.8636 15.9452 30.7931C16.1043 30.7226 16.247 30.6195 16.364 30.4907C16.4148 30.4385 16.4557 30.43 16.4839 30.4625L16.7167 30.7165C16.7492 30.7446 16.7492 30.7742 16.7167 30.8081C16.5522 30.9826 16.3546 31.1227 16.1354 31.2202C15.9161 31.3157 15.679 31.3639 15.4398 31.3612C15.1393 31.3674 14.8422 31.2954 14.5778 31.1525ZM16.4021 29.297C16.3653 29.0471 16.2414 28.8182 16.0522 28.6509C15.8588 28.4926 15.6162 28.4067 15.3663 28.4083C15.1165 28.4099 14.8749 28.4986 14.6836 28.6593C14.4935 28.8253 14.3697 29.0541 14.335 29.3041V29.3393C14.335 29.3676 14.359 29.3817 14.4056 29.3817H16.3386C16.395 29.3817 16.4162 29.3535 16.4021 29.297Z" fill="black"/>
<path d="M18.208 31.2863H17.8342C17.8245 31.2878 17.8148 31.287 17.8056 31.2839C17.7964 31.2808 17.788 31.2758 17.7811 31.2689C17.7743 31.262 17.7691 31.2536 17.7661 31.2444C17.763 31.2352 17.7622 31.2254 17.7636 31.2159V28.0779C17.7622 28.0684 17.763 28.0585 17.7661 28.0493C17.7691 28.0401 17.7743 28.0317 17.7811 28.0249C17.788 28.018 17.7964 28.0129 17.8056 28.0098C17.8148 28.0068 17.8245 28.0059 17.8342 28.0074H18.1728C18.1824 28.0059 18.1922 28.0068 18.2014 28.0098C18.2106 28.0129 18.2189 28.018 18.2258 28.0249C18.2327 28.0317 18.2379 28.0401 18.2409 28.0493C18.2439 28.0585 18.2447 28.0684 18.2434 28.0779V28.3107C18.2424 28.3176 18.2435 28.3247 18.2464 28.3309C18.2495 28.3372 18.2543 28.3424 18.2603 28.346C18.273 28.346 18.2857 28.346 18.2998 28.3249C18.4042 28.2067 18.5314 28.1107 18.6736 28.0426C18.824 27.9736 18.988 27.9399 19.1534 27.9439C19.3023 27.935 19.4514 27.9575 19.5911 28.0097C19.7309 28.062 19.8581 28.1429 19.9646 28.2472C20.0616 28.3512 20.1369 28.4732 20.1865 28.6065C20.2362 28.7396 20.2591 28.8813 20.2539 29.0233V31.2172C20.2553 31.2269 20.2545 31.2366 20.2515 31.2458C20.2484 31.255 20.2433 31.2634 20.2364 31.2703C20.2295 31.2771 20.2211 31.2823 20.2119 31.2853C20.2027 31.2884 20.193 31.2892 20.1834 31.2878H19.8095C19.7999 31.2892 19.79 31.2884 19.7808 31.2853C19.7716 31.2823 19.7633 31.2771 19.7564 31.2703C19.7496 31.2634 19.7444 31.255 19.7414 31.2458C19.7383 31.2366 19.7375 31.2269 19.7389 31.2172V29.1008C19.7523 28.909 19.6888 28.7197 19.5625 28.5746C19.4945 28.5118 19.4144 28.4636 19.327 28.4328C19.2397 28.402 19.147 28.3892 19.0546 28.3953C18.905 28.3936 18.7579 28.4352 18.6313 28.5153C18.4981 28.602 18.3889 28.7208 18.3138 28.8609C18.2914 28.9047 18.2793 28.9529 18.2786 29.0021V31.2032C18.2826 31.2135 18.2838 31.2249 18.282 31.2359C18.2801 31.2469 18.2753 31.2572 18.2681 31.2657C18.2608 31.2743 18.2515 31.2806 18.2409 31.2843C18.2304 31.2879 18.219 31.2887 18.208 31.2863Z" fill="black"/>
<path d="M21.8483 31.1411C21.6037 30.9973 21.4036 30.7888 21.2699 30.5387C21.1309 30.2629 21.0585 29.9585 21.0585 29.6498C21.0585 29.341 21.1309 29.0366 21.2699 28.7609C21.4033 28.5104 21.6035 28.3019 21.8483 28.1584C22.0964 28.0135 22.3793 27.9389 22.6667 27.9425C22.8657 27.9304 23.0649 27.9635 23.2493 28.0393C23.4338 28.115 23.5987 28.2315 23.7319 28.3799C23.7354 28.3839 23.7398 28.3866 23.7449 28.3879C23.75 28.3892 23.7553 28.3888 23.7601 28.3869C23.77 28.3869 23.7742 28.3729 23.7742 28.3588V28.0766C23.7728 28.0669 23.7737 28.0572 23.7766 28.048C23.7797 28.0388 23.7849 28.0304 23.7918 28.0235C23.7985 28.0167 23.807 28.0115 23.8162 28.0084C23.8254 28.0054 23.8351 28.0046 23.8448 28.006H24.1905C24.2 28.0046 24.2099 28.0054 24.2191 28.0084C24.2283 28.0115 24.2366 28.0167 24.2435 28.0235C24.2504 28.0304 24.2555 28.0388 24.2585 28.048C24.2616 28.0572 24.2624 28.0669 24.261 28.0766V31.2088C24.2624 31.2185 24.2616 31.2282 24.2585 31.2374C24.2555 31.2466 24.2504 31.255 24.2435 31.2619C24.2366 31.2687 24.2283 31.2739 24.2191 31.2769C24.2099 31.2799 24.2 31.2808 24.1905 31.2794H23.8448C23.8351 31.2808 23.8254 31.2799 23.8162 31.2769C23.807 31.2739 23.7985 31.2687 23.7918 31.2619C23.7849 31.255 23.7797 31.2466 23.7766 31.2374C23.7737 31.2282 23.7728 31.2185 23.7742 31.2088V30.9266C23.7742 30.9125 23.7742 30.9027 23.7601 30.8985C23.7561 30.8952 23.7511 30.8935 23.746 30.8935C23.7409 30.8935 23.7359 30.8952 23.7319 30.8985C23.5936 31.0402 23.4277 31.1521 23.2446 31.2274C23.0613 31.3026 22.8647 31.3395 22.6667 31.3358C22.3813 31.3459 22.0985 31.2786 21.8483 31.1411ZM23.3368 30.7503C23.5002 30.6659 23.6335 30.5327 23.7178 30.3694C23.7369 30.3298 23.7466 30.2863 23.746 30.2424V29.0572C23.7466 29.0132 23.7369 28.9697 23.7178 28.9302C23.6266 28.768 23.4903 28.6357 23.3255 28.5493C23.1471 28.4532 22.9469 28.4046 22.7442 28.4081C22.5868 28.4011 22.4296 28.4282 22.2836 28.4874C22.1376 28.5465 22.0059 28.6365 21.8977 28.751C21.6887 29.0039 21.5744 29.3216 21.5744 29.6498C21.5744 29.9778 21.6887 30.2956 21.8977 30.5485C22.0059 30.6631 22.1376 30.753 22.2836 30.8121C22.4296 30.8714 22.5868 30.8984 22.7442 30.8914C22.9504 30.8942 23.1541 30.8458 23.3368 30.7503Z" fill="black"/>
<path d="M25.5519 26.7361L25.9329 26.5316C25.9445 26.529 25.9566 26.529 25.9682 26.5316C26.0006 26.5316 26.0176 26.5499 26.0176 26.588V27.9848C26.0168 27.9897 26.0172 27.9945 26.0188 27.9991C26.0203 28.0037 26.0229 28.0079 26.0263 28.0114C26.0297 28.0147 26.034 28.0174 26.0385 28.0189C26.0432 28.0204 26.048 28.0208 26.0529 28.0201H26.4408C26.4505 28.0187 26.4602 28.0195 26.4695 28.0226C26.4787 28.0255 26.4871 28.0307 26.4938 28.0376C26.5007 28.0445 26.5059 28.0528 26.509 28.062C26.5119 28.0713 26.5128 28.0811 26.5114 28.0906V28.394C26.5128 28.4036 26.5119 28.4134 26.509 28.4226C26.5059 28.4318 26.5007 28.4401 26.4938 28.447C26.4871 28.4539 26.4787 28.4591 26.4695 28.462C26.4602 28.4651 26.4505 28.466 26.4408 28.4646H26.0529C26.048 28.4638 26.0432 28.4643 26.0385 28.4657C26.034 28.4673 26.0297 28.4699 26.0263 28.4733C26.0229 28.4768 26.0203 28.4809 26.0188 28.4855C26.0172 28.4901 26.0168 28.4951 26.0176 28.4998V31.2229C26.019 31.2325 26.0182 31.2423 26.0151 31.2515C26.012 31.2608 26.007 31.2691 26.0001 31.2759C25.9932 31.2828 25.9849 31.288 25.9756 31.291C25.9664 31.294 25.9566 31.2948 25.9471 31.2935H25.5731C25.5636 31.2948 25.5537 31.294 25.5445 31.291C25.5353 31.288 25.527 31.2828 25.5201 31.2759C25.5132 31.2691 25.508 31.2608 25.5051 31.2515C25.502 31.2423 25.5011 31.2325 25.5026 31.2229V28.4998C25.5033 28.4951 25.5028 28.4901 25.5014 28.4855C25.4999 28.4809 25.4972 28.4768 25.4938 28.4733C25.4904 28.4699 25.4862 28.4673 25.4816 28.4657C25.477 28.4643 25.4722 28.4638 25.4673 28.4646H25.0793C25.0697 28.466 25.0599 28.4651 25.0507 28.462C25.0415 28.4591 25.0331 28.4539 25.0262 28.447C25.0195 28.4401 25.0143 28.4318 25.0112 28.4226C25.0081 28.4134 25.0073 28.4036 25.0088 28.394V28.0779C25.0073 28.0684 25.0081 28.0586 25.0112 28.0493C25.0143 28.0401 25.0195 28.0318 25.0262 28.0249C25.0331 28.018 25.0415 28.0129 25.0507 28.0099C25.0599 28.0068 25.0697 28.006 25.0793 28.0074H25.4673C25.4722 28.0081 25.477 28.0077 25.4816 28.0062C25.4862 28.0047 25.4904 28.002 25.4938 27.9987C25.4972 27.9952 25.4999 27.991 25.5014 27.9864C25.5028 27.9818 25.5033 27.977 25.5026 27.9721V26.8152C25.5018 26.7986 25.5061 26.782 25.5149 26.768C25.5238 26.7538 25.5367 26.7428 25.5519 26.7361Z" fill="black"/>
<path d="M27.3961 31.1524C27.2063 31.0117 27.0668 30.8139 26.9982 30.5879V30.5598C26.9981 30.5459 27.003 30.5325 27.0121 30.5221C27.0212 30.5117 27.0338 30.5051 27.0476 30.5033L27.3862 30.3834L27.4144 30.3763C27.4426 30.3763 27.4638 30.3947 27.4779 30.4328C27.5147 30.5752 27.6007 30.7001 27.7206 30.7855C27.8325 30.8673 27.9672 30.9117 28.1058 30.9125C28.2688 30.9252 28.4304 30.8747 28.5572 30.7714C28.6081 30.7244 28.6483 30.6672 28.6751 30.6034C28.7019 30.5397 28.7146 30.4709 28.7125 30.4017C28.7158 30.3351 28.704 30.2687 28.6775 30.2075C28.6511 30.1464 28.6109 30.0921 28.5601 30.049C28.4368 29.9542 28.2909 29.8933 28.1368 29.8726L27.8546 29.8162C27.6326 29.7795 27.4304 29.6661 27.2831 29.4959C27.1416 29.3271 27.0662 29.1124 27.0715 28.8921C27.0718 28.7219 27.1208 28.5555 27.2127 28.4123C27.3037 28.2651 27.4342 28.1462 27.5894 28.0694C27.7595 27.9857 27.9472 27.9436 28.1368 27.9467C28.3725 27.9395 28.604 28.0098 28.7957 28.1471C28.9837 28.2903 29.117 28.4933 29.1738 28.7228L29.1809 28.7509C29.1809 28.7792 29.1625 28.8003 29.1244 28.8144L28.7929 28.899L28.7646 28.9061C28.7365 28.9061 28.7167 28.8878 28.7082 28.8497C28.6779 28.7205 28.6072 28.6044 28.5064 28.5181C28.4018 28.4348 28.2704 28.3923 28.1368 28.3982C27.9915 28.391 27.849 28.4388 27.7375 28.5323C27.6883 28.5735 27.6491 28.6255 27.6229 28.6841C27.5968 28.7428 27.5843 28.8067 27.5865 28.8709C27.5825 28.9304 27.5912 28.9901 27.6118 29.0459C27.6325 29.1018 27.6647 29.1528 27.7064 29.1953C27.8096 29.2808 27.9338 29.3369 28.0662 29.3577L28.3484 29.4141C28.5898 29.4543 28.8128 29.5687 28.9862 29.7414C29.0686 29.8297 29.1328 29.9337 29.1747 30.047C29.2166 30.1604 29.2354 30.281 29.2302 30.4017C29.234 30.5324 29.2091 30.6622 29.1571 30.7822C29.1052 30.9021 29.0276 31.0092 28.9297 31.0959C28.7031 31.2873 28.4118 31.3848 28.1156 31.3683C27.8584 31.379 27.6048 31.3031 27.3961 31.1524Z" fill="black"/>
<path d="M31.8448 31.2229L31.0053 29.812C30.9954 29.7879 30.9827 29.7752 30.9657 29.7725C30.9564 29.7723 30.9473 29.7745 30.9391 29.7789C30.9309 29.7834 30.924 29.79 30.9192 29.7979L30.6243 30.1506C30.5964 30.187 30.5816 30.2318 30.582 30.2776V31.2159C30.5819 31.2251 30.58 31.2342 30.5764 31.2427C30.5727 31.2511 30.5674 31.2588 30.5609 31.2652C30.5532 31.2723 30.5445 31.2779 30.5347 31.2815C30.525 31.2851 30.5147 31.2868 30.5043 31.2864H30.1376C30.1279 31.2878 30.1181 31.287 30.1089 31.2839C30.0997 31.2809 30.0913 31.2758 30.0845 31.2689C30.0776 31.262 30.0725 31.2537 30.0694 31.2445C30.0664 31.2352 30.0655 31.2254 30.067 31.2159V26.2437C30.0655 26.2341 30.0664 26.2243 30.0694 26.2151C30.0725 26.2059 30.0776 26.1976 30.0845 26.1907C30.0913 26.1838 30.0997 26.1786 30.1089 26.1756C30.1181 26.1726 30.1279 26.1718 30.1376 26.1731H30.5043C30.5147 26.1727 30.525 26.1744 30.5347 26.178C30.5445 26.1817 30.5532 26.1872 30.5609 26.1943C30.5674 26.2007 30.5727 26.2084 30.5764 26.2168C30.58 26.2254 30.5819 26.2345 30.582 26.2437V29.3689C30.582 29.3971 30.582 29.4127 30.6032 29.4155C30.6244 29.4183 30.6328 29.4056 30.6525 29.3831L31.753 28.0497C31.7629 28.0365 31.7756 28.0257 31.7903 28.0184C31.805 28.011 31.8213 28.0073 31.8377 28.0074H32.3245C32.3356 28.0063 32.3468 28.0084 32.3567 28.0133C32.3668 28.0183 32.3751 28.026 32.3809 28.0356C32.3849 28.0465 32.3856 28.0581 32.3831 28.0694C32.3805 28.0806 32.3749 28.0909 32.3668 28.0991L31.3792 29.2842C31.3635 29.3015 31.3524 29.3223 31.3467 29.345C31.3452 29.3662 31.3518 29.3874 31.3651 29.4042L32.4303 31.1961C32.4382 31.2089 32.4431 31.2234 32.4443 31.2384C32.4443 31.2667 32.4218 31.2807 32.3809 31.2807H31.9506C31.9293 31.2821 31.9081 31.2774 31.8893 31.2671C31.8706 31.2569 31.8551 31.2416 31.8448 31.2229Z" fill="black"/>
<path d="M33.6083 31.1411C33.3636 30.9976 33.1633 30.7891 33.0299 30.5386C32.891 30.2629 32.8186 29.9584 32.8186 29.6497C32.8186 29.341 32.891 29.0365 33.0299 28.7609C33.1629 28.5101 33.3633 28.3014 33.6083 28.1583C33.8559 28.0113 34.1388 27.9347 34.4268 27.9368C34.6258 27.9249 34.825 27.958 35.0094 28.0338C35.1938 28.1094 35.3588 28.2258 35.4919 28.3742C35.4952 28.3783 35.4998 28.3813 35.5048 28.3825C35.51 28.3838 35.5153 28.3834 35.5202 28.3813C35.525 28.3784 35.5289 28.3742 35.5313 28.3692C35.5338 28.3642 35.5349 28.3586 35.5343 28.353V28.0709C35.5329 28.0613 35.5337 28.0514 35.5368 28.0422C35.5398 28.033 35.545 28.0247 35.5518 28.0178C35.5587 28.011 35.5671 28.0058 35.5763 28.0028C35.5855 27.9997 35.5952 27.9988 35.6048 28.0003H35.9506C35.9601 27.9988 35.9699 27.9997 35.9791 28.0028C35.9883 28.0058 35.9967 28.011 36.0036 28.0178C36.0105 28.0247 36.0156 28.033 36.0186 28.0422C36.0217 28.0514 36.0225 28.0613 36.021 28.0709V31.2032C36.0225 31.2127 36.0217 31.2225 36.0186 31.2318C36.0156 31.241 36.0105 31.2493 36.0036 31.2562C35.9967 31.2631 35.9883 31.2682 35.9791 31.2712C35.9699 31.2743 35.9601 31.2751 35.9506 31.2737H35.6048C35.5952 31.2751 35.5855 31.2743 35.5763 31.2712C35.5671 31.2682 35.5587 31.2631 35.5518 31.2562C35.545 31.2493 35.5398 31.241 35.5368 31.2318C35.5337 31.2225 35.5329 31.2127 35.5343 31.2032V30.921C35.5349 30.9154 35.5338 30.9098 35.5313 30.9048C35.5289 30.8998 35.525 30.8957 35.5202 30.8927C35.5162 30.8895 35.5112 30.8877 35.5061 30.8877C35.5009 30.8877 35.496 30.8895 35.4919 30.8927C35.3537 31.0345 35.1878 31.1465 35.0046 31.2217C34.8215 31.2969 34.6247 31.3338 34.4268 31.3302C34.1419 31.342 33.8591 31.2767 33.6083 31.1411ZM35.0969 30.7503C35.2604 30.6658 35.3935 30.5327 35.4779 30.3693C35.497 30.3297 35.5068 30.2863 35.5061 30.2423V29.0572C35.5068 29.0131 35.497 28.9696 35.4779 28.9302C35.3862 28.7683 35.2501 28.636 35.0856 28.5492C34.9071 28.4532 34.707 28.4047 34.5043 28.4081C34.347 28.4014 34.1899 28.4285 34.0439 28.4876C33.8979 28.5468 33.7661 28.6366 33.6578 28.7509C33.4506 29.0047 33.3373 29.3221 33.3373 29.6497C33.3373 29.9773 33.4506 30.2947 33.6578 30.5485C33.7661 30.6628 33.8979 30.7526 34.0439 30.8118C34.1899 30.8709 34.347 30.898 34.5043 30.8913C34.7106 30.8943 34.9142 30.8458 35.0969 30.7503Z" fill="black"/>
<path d="M37.5449 31.2863H37.171C37.1614 31.2878 37.1516 31.287 37.1424 31.2839C37.1332 31.2808 37.1249 31.2758 37.118 31.2689C37.1111 31.262 37.1059 31.2536 37.103 31.2444C37.0999 31.2352 37.0991 31.2254 37.1004 31.2159V28.0779C37.0991 28.0683 37.0999 28.0585 37.103 28.0493C37.1059 28.0401 37.1111 28.0317 37.118 28.0249C37.1249 28.018 37.1332 28.0129 37.1424 28.0098C37.1516 28.0068 37.1614 28.0059 37.171 28.0074H37.5096C37.5193 28.0059 37.529 28.0068 37.5382 28.0098C37.5474 28.0129 37.5558 28.018 37.5627 28.0249C37.5695 28.0317 37.5747 28.0401 37.5778 28.0493C37.5807 28.0585 37.5816 28.0683 37.5802 28.0779V28.3107C37.5793 28.3176 37.5803 28.3246 37.5833 28.3309C37.5864 28.3371 37.5911 28.3424 37.5972 28.346C37.6084 28.346 37.6225 28.346 37.6366 28.3249C37.7411 28.2067 37.8683 28.1107 38.0105 28.0426C38.1607 27.9734 38.3249 27.9397 38.4903 27.9439C38.636 27.9321 38.7824 27.9517 38.9199 28.0015C39.0574 28.0513 39.1825 28.13 39.2869 28.2324C39.3912 28.3347 39.4724 28.4583 39.5248 28.5947C39.5773 28.7312 39.5997 28.8773 39.5908 29.0233V31.2172C39.5922 31.2269 39.5913 31.2366 39.5884 31.2458C39.5853 31.255 39.5801 31.2634 39.5732 31.2703C39.5664 31.2771 39.558 31.2823 39.5488 31.2853C39.5396 31.2883 39.5299 31.2892 39.5202 31.2878H39.1464C39.1367 31.2892 39.1269 31.2883 39.1177 31.2853C39.1085 31.2823 39.1001 31.2771 39.0932 31.2703C39.0865 31.2634 39.0813 31.255 39.0782 31.2458C39.0751 31.2366 39.0744 31.2269 39.0758 31.2172V29.1008C39.0891 28.909 39.0256 28.7197 38.8994 28.5746C38.8315 28.5115 38.7514 28.4631 38.664 28.4323C38.5766 28.4015 38.4839 28.3889 38.3914 28.3953C38.2418 28.3936 38.0947 28.4352 37.9682 28.5153C37.8349 28.602 37.7257 28.7208 37.6507 28.8609C37.6283 28.9046 37.6162 28.9529 37.6155 29.0021V31.2032C37.6195 31.2135 37.6206 31.2249 37.6188 31.2359C37.6169 31.2469 37.6122 31.2572 37.605 31.2657C37.5977 31.2743 37.5884 31.2806 37.5778 31.2843C37.5672 31.2879 37.5559 31.2887 37.5449 31.2863Z" fill="black"/>
<path d="M41.1569 30.8419H42.857C42.9036 30.8419 42.9276 30.8673 42.9276 30.9196V31.2159C42.9291 31.2254 42.9283 31.2353 42.9252 31.2445C42.9221 31.2537 42.9169 31.262 42.9102 31.2689C42.9033 31.2758 42.8949 31.2809 42.8857 31.2839C42.8765 31.287 42.8667 31.2878 42.857 31.2864H40.4232C40.3668 31.2864 40.3385 31.2624 40.3385 31.2159C40.3376 31.1906 40.345 31.1658 40.3597 31.1453L42.0458 28.5012C42.0585 28.473 42.0528 28.4589 42.0247 28.4589H40.4162C40.4066 28.4603 40.3967 28.4595 40.3875 28.4564C40.3783 28.4533 40.3699 28.4483 40.3631 28.4414C40.3563 28.4345 40.3511 28.4262 40.348 28.4169C40.345 28.4077 40.3442 28.3979 40.3456 28.3884V28.0779C40.3442 28.0684 40.345 28.0585 40.348 28.0493C40.3511 28.0401 40.3563 28.0318 40.3631 28.0249C40.3699 28.018 40.3783 28.0129 40.3875 28.0099C40.3967 28.0068 40.4066 28.0059 40.4162 28.0074H42.7583C42.8105 28.0074 42.8359 28.03 42.8359 28.0779C42.8355 28.1031 42.8275 28.1276 42.8133 28.1485L41.1287 30.7996C41.1146 30.8278 41.1231 30.8419 41.1569 30.8419Z" fill="black"/>
<path d="M44.5432 30.9266V31.244C44.5446 31.2537 44.5437 31.2634 44.5406 31.2726C44.5377 31.2819 44.5325 31.2903 44.5256 31.297C44.5187 31.3039 44.5104 31.3091 44.5012 31.3122C44.492 31.3151 44.4822 31.316 44.4726 31.3146H44.3456C44.1602 31.326 43.9771 31.2693 43.8306 31.1551C43.7657 31.0922 43.7156 31.0157 43.6839 30.931C43.6522 30.8464 43.6397 30.7557 43.6472 30.6656V26.2437C43.6458 26.2341 43.6466 26.2243 43.6496 26.2151C43.6527 26.2059 43.6579 26.1976 43.6647 26.1907C43.6715 26.1838 43.6799 26.1786 43.6891 26.1756C43.6983 26.1726 43.7082 26.1718 43.7178 26.1731H44.0916C44.1013 26.1718 44.111 26.1726 44.1202 26.1756C44.1294 26.1786 44.1378 26.1838 44.1447 26.1907C44.1515 26.1976 44.1567 26.2059 44.1598 26.2151C44.1628 26.2243 44.1636 26.2341 44.1622 26.2437V30.5964C44.1622 30.7657 44.2327 30.8504 44.3739 30.8504H44.4726C44.4828 30.8487 44.4931 30.8495 44.503 30.8528C44.5127 30.8562 44.5215 30.8619 44.5285 30.8694C44.5355 30.877 44.5404 30.8861 44.543 30.8962C44.5456 30.9061 44.5456 30.9166 44.5432 30.9266Z" fill="black"/>
<path d="M45.8554 31.1523C45.6051 31.0119 45.4008 30.8022 45.267 30.5485C45.1291 30.2694 45.0574 29.9623 45.0574 29.6511C45.0574 29.3399 45.1291 29.0328 45.267 28.7537C45.397 28.5039 45.5952 28.296 45.8384 28.1541C46.0863 28.0115 46.368 27.9384 46.6539 27.9424C46.9371 27.9391 47.2159 28.0123 47.461 28.1541C47.6985 28.2929 47.8937 28.4938 48.0253 28.7354C48.1633 28.9924 48.2332 29.2804 48.2285 29.572C48.2312 29.6261 48.2312 29.6803 48.2285 29.7344C48.2255 29.7507 48.2166 29.7653 48.2037 29.7756C48.1908 29.786 48.1745 29.7914 48.158 29.7908H45.6578C45.5999 29.7908 45.5787 29.8204 45.5943 29.8825C45.6179 30.1646 45.7445 30.4282 45.9499 30.6233C46.1591 30.8129 46.4337 30.9141 46.716 30.9054C46.8901 30.9055 47.0622 30.8691 47.2214 30.7986C47.3805 30.7281 47.5232 30.6252 47.6401 30.4963C47.6909 30.444 47.7319 30.4355 47.7601 30.468L47.9929 30.722C48.0253 30.7502 48.0253 30.7799 47.9929 30.8137C47.8281 30.9886 47.63 31.1287 47.4102 31.2257C47.1913 31.3211 46.9547 31.3692 46.716 31.3668C46.4154 31.3708 46.1189 31.2969 45.8554 31.1523ZM47.6782 29.2969C47.6419 29.0472 47.5185 28.8183 47.3298 28.6508C47.1364 28.4925 46.8938 28.4067 46.6439 28.4082C46.394 28.4097 46.1525 28.4985 45.9612 28.6592C45.7706 28.8247 45.6467 29.0538 45.6126 29.304L45.6041 29.3392C45.6041 29.3675 45.6282 29.3816 45.6747 29.3816H47.6162C47.6684 29.3816 47.6895 29.3477 47.674 29.2969H47.6782Z" fill="black"/>
<path d="M49.0327 27.134C48.9958 27.0992 48.9663 27.0573 48.9462 27.0108C48.926 26.9641 48.9157 26.9139 48.9157 26.8631C48.9153 26.8128 48.9256 26.7629 48.9458 26.7168C48.966 26.6705 48.9956 26.6292 49.0327 26.5951C49.0683 26.5591 49.1107 26.5305 49.1575 26.5112C49.2042 26.4917 49.2544 26.4819 49.3051 26.4822C49.354 26.4824 49.4022 26.4925 49.4471 26.5119C49.492 26.5313 49.5325 26.5596 49.566 26.5951C49.6019 26.6298 49.6303 26.6715 49.6494 26.7176C49.6686 26.7638 49.6782 26.8133 49.6776 26.8631C49.6779 26.9135 49.6682 26.9633 49.6491 27.0098C49.6299 27.0564 49.6017 27.0986 49.566 27.134C49.533 27.1706 49.4928 27.1999 49.4478 27.2201C49.403 27.2402 49.3543 27.2508 49.3051 27.2512C49.2541 27.2513 49.2036 27.241 49.1567 27.2209C49.1098 27.2007 49.0677 27.1712 49.0327 27.134ZM49.0327 31.2159V28.078C49.0327 28.03 49.0553 28.0075 49.1019 28.0075H49.4771C49.4868 28.006 49.4966 28.0068 49.5058 28.0099C49.515 28.0129 49.5234 28.0181 49.5303 28.0249C49.537 28.0318 49.5422 28.0402 49.5453 28.0494C49.5483 28.0586 49.5491 28.0684 49.5477 28.078V31.2102C49.5491 31.2199 49.5483 31.2296 49.5453 31.2388C49.5422 31.2481 49.537 31.2565 49.5303 31.2632C49.5234 31.2701 49.515 31.2753 49.5058 31.2784C49.4966 31.2813 49.4868 31.2822 49.4771 31.2808H49.1004C49.092 31.281 49.0835 31.2794 49.0756 31.2763C49.0677 31.273 49.0605 31.2682 49.0546 31.2622C49.0487 31.256 49.044 31.2489 49.0409 31.2408C49.038 31.2329 49.0366 31.2244 49.0369 31.2159H49.0327Z" fill="black"/>
</g>
</g>
<defs>
<clipPath id="clip0_226_10411">
<rect width="240" height="40" fill="white"/>
</clipPath>
</defs>
</svg>
