<svg width="77" height="40" viewBox="0 0 77 40" fill="none" xmlns="http://www.w3.org/2000/svg">
<g clip-path="url(#clip0_226_10081)">
<path d="M0.0482663 39.7103L0.0603387 39.4165L0.301787 39.3642L0.543236 39.3119L1.38428 36.829C1.84706 35.4648 2.29776 34.1409 2.38629 33.8914L2.54324 33.4407L3.29173 33.4487L4.04022 33.4608L5.03016 36.3662C5.57744 37.9678 6.03217 39.2878 6.04827 39.2998C6.06034 39.3119 6.16497 39.3441 6.28569 39.3723L6.49897 39.4165L6.51104 39.7103L6.52312 40H5.171H3.81889L3.83096 39.7103L3.84303 39.4165L4.11668 39.3723C4.26557 39.3481 4.39837 39.3159 4.41446 39.3039C4.43861 39.2757 4.39032 39.0745 4.2213 38.503L4.14082 38.2294H3.04625H1.94766L1.81084 38.7445C1.73438 39.0262 1.67 39.2757 1.67 39.2958C1.67 39.3199 1.81487 39.3562 1.99193 39.3763L2.31386 39.4165L2.32593 39.7103L2.338 40H1.1871H0.0361938L0.0482663 39.7103ZM3.94364 37.5694C3.94364 37.5614 3.76255 36.9497 3.54525 36.2053C3.32392 35.4648 3.12271 34.7445 3.09454 34.6077C3.0704 34.4749 3.03418 34.3743 3.01809 34.3944C3.00199 34.4105 2.96577 34.5352 2.94163 34.668C2.89736 34.8652 2.25752 37.1711 2.15692 37.497L2.12875 37.5855H3.03418C3.53318 37.5855 3.94364 37.5775 3.94364 37.5694Z" fill="#F4F4F6"/>
<path d="M6.68007 39.7224C6.68007 39.4085 6.67202 39.4166 7.03822 39.3723L7.28369 39.3441V36.4749C7.28369 34.8934 7.27967 33.6017 7.27162 33.6017C7.2354 33.6017 6.77263 33.5131 6.71227 33.497C6.6519 33.481 6.63983 33.4286 6.63983 33.2234V32.9739L7.49697 32.8693L8.35009 32.7687L8.50301 32.8612L8.6519 32.9578V36.153V39.3482L8.92555 39.3803L9.19516 39.4166L9.20724 39.7103L9.21931 40.0001H7.94768H6.68007V39.7224Z" fill="#F4F4F6"/>
<path d="M9.74648 39.7103L9.75856 39.4166L10.0322 39.3803L10.3018 39.3481V36.4789V33.6057L10.0724 33.5614C9.61771 33.4769 9.65795 33.5091 9.65795 33.2274V32.9739L10.5352 32.8693L11.4085 32.7646L11.5413 32.8653L11.67 32.9618V36.153V39.3481L11.9437 39.3803L12.2133 39.4166L12.2254 39.7103L12.2374 40.0001H10.9859H9.73441L9.74648 39.7103Z" fill="#F4F4F6"/>
<path d="M12.845 39.7103L12.8571 39.4165L13.1308 39.3803L13.4004 39.3481L13.3923 37.6741L13.3803 36.0041L13.0865 35.9196L12.7927 35.8351L12.8048 35.5131L12.8169 35.1912L13.6619 35.0866L14.507 34.9819L14.6358 35.0664L14.7686 35.1509V37.2475V39.3481L15.0422 39.3803L15.3118 39.4165L15.3239 39.7103L15.336 40H14.0845H12.833L12.845 39.7103Z" fill="#F4F4F6"/>
<path d="M16.9819 39.9437C16.5151 39.8431 16.1489 39.5615 15.9638 39.1631C15.8954 39.0101 15.8793 38.8975 15.8752 38.5514C15.8752 38.1892 15.8873 38.1007 15.9678 37.9437C16.2696 37.3321 17.0624 36.9699 18.2414 36.9136L18.7123 36.8894V36.7767C18.7123 36.5594 18.6278 36.2657 18.5392 36.1892C18.3944 36.0564 18.2012 36.0162 17.7264 36.0162C17.2958 36.0162 16.7887 36.1047 16.4185 36.2496C16.3259 36.2858 16.3099 36.2697 16.1891 36.0604C16.1167 35.9357 16.0563 35.815 16.0563 35.7908C16.0563 35.7184 16.7123 35.3965 17.0946 35.2757C17.6097 35.1148 18.0966 35.0665 18.5956 35.1228C19.4044 35.2194 19.7746 35.5132 19.9155 36.1691C19.9437 36.3059 19.9598 36.9176 19.9598 37.8472V39.316H20.2012H20.4426V39.5735C20.4426 39.7707 20.4266 39.8351 20.3783 39.8552C20.2253 39.9116 19.328 40.0041 19.1469 39.98C18.8732 39.9397 18.7847 39.8592 18.7606 39.6057C18.7525 39.489 18.7324 39.3965 18.7243 39.3965C18.7123 39.3965 18.6278 39.4608 18.5392 39.5413C18.3058 39.7385 17.9356 39.9116 17.6459 39.9598C17.3481 40.0081 17.2636 40.0081 16.9819 39.9437ZM18.4789 39.0464L18.6921 38.9337L18.7042 38.2013L18.7123 37.4649H18.4789C17.67 37.4649 17.2032 37.9357 17.3441 38.6077C17.3964 38.8612 17.5332 39.0544 17.7264 39.1429C17.9034 39.2234 18.2294 39.1832 18.4789 39.0464Z" fill="#F4F4F6"/>
<path d="M21.0463 39.7224V39.4407L21.2394 39.4165C21.3441 39.4004 21.4527 39.3843 21.4809 39.3763C21.5211 39.3602 21.5292 39.0141 21.5211 37.7385L21.5091 36.1207L21.2555 36.0483L21.002 35.9719L21.0141 35.6218L21.0262 35.2717L21.7988 35.1791L22.5674 35.0825L22.6922 35.1751C22.8089 35.2596 22.8169 35.2837 22.8169 35.5252V35.7827L22.9376 35.6821C23.1308 35.5171 23.4608 35.3441 23.8028 35.2274C24.0765 35.1308 24.1891 35.1147 24.5674 35.1147C24.9618 35.1107 25.0342 35.1228 25.2314 35.2153C25.6258 35.4004 25.7988 35.6499 25.8994 36.165C25.9396 36.3904 25.9557 36.821 25.9557 37.9075V39.3521L26.1087 39.3763C26.5151 39.4447 26.4789 39.4125 26.4789 39.7224V40H25.2918H24.1046V39.7224V39.4447L24.3179 39.4085L24.5272 39.3763V37.8471C24.5272 36.4588 24.5191 36.3059 24.4547 36.1892C24.3582 36.0081 24.2294 35.9356 23.9678 35.9075C23.7062 35.8793 23.4165 35.9638 23.1308 36.1449L22.9376 36.2656V37.8069C22.9376 39.5453 22.9014 39.3682 23.2716 39.4205L23.4608 39.4447V39.7224V40H22.2535H21.0463V39.7224Z" fill="#F4F4F6"/>
<path d="M28.8934 39.9638C28.008 39.8351 27.4567 39.3924 27.175 38.5836C27.0382 38.1892 26.998 37.3401 27.0986 36.9417C27.2193 36.4709 27.4165 36.1168 27.7384 35.7948C28.2294 35.3039 28.7404 35.1147 29.5573 35.1147C30.0241 35.1147 30.2455 35.151 30.8048 35.3119L31.006 35.3723L30.9819 35.9437C30.9658 36.2616 30.9537 36.5876 30.9497 36.6721L30.9457 36.821H30.5272H30.1127L29.9879 36.3502C29.8471 35.823 29.7988 35.7546 29.5211 35.7143C29.1348 35.654 28.8088 35.8673 28.6559 36.2697C28.5392 36.5876 28.4748 37.1349 28.507 37.5856C28.5593 38.3582 28.7767 38.821 29.1952 39.0463C29.328 39.1188 29.4205 39.1349 29.7183 39.1349C30.0845 39.1308 30.3501 39.0705 30.668 38.9095L30.8129 38.8371L30.9296 39.0785L31.0422 39.32L30.9255 39.4206C30.7646 39.5534 30.1247 39.8592 29.8994 39.9115C29.6338 39.9759 29.1469 40.0001 28.8934 39.9638Z" fill="#F4F4F6"/>
<path d="M33.4406 39.9598C32.7565 39.8633 32.2052 39.5172 31.8994 38.99C31.5855 38.4468 31.4809 37.4367 31.67 36.7405C31.8269 36.161 32.2696 35.6178 32.7967 35.3562C33.678 34.9256 34.9175 35.0504 35.4366 35.6258C35.7545 35.9759 35.8994 36.5393 35.831 37.1832L35.7947 37.5252L34.3903 37.5373L32.9899 37.5454L33.0181 37.7747C33.0905 38.3663 33.34 38.8049 33.7022 38.99C34.0804 39.1872 34.7404 39.147 35.3159 38.8934L35.5332 38.7969L35.6539 39.0343C35.7223 39.1671 35.7746 39.2838 35.7746 39.2918C35.7746 39.328 35.4124 39.5614 35.175 39.6781C34.68 39.9236 34 40.0363 33.4406 39.9598ZM34.4869 36.6681C34.4869 36.2697 34.4064 35.988 34.2454 35.8351C34.1368 35.7345 34.0845 35.7144 33.8511 35.7023C33.3078 35.6781 33.0704 35.9518 33.01 36.6922L32.9859 36.982H33.7384H34.4869V36.6681Z" fill="#F4F4F6"/>
<path d="M13.5694 34.2012C13.4567 34.1448 13.3641 34.0563 13.2957 33.9356C13.1509 33.6901 13.167 33.3279 13.336 33.0825C13.6539 32.6277 14.4265 32.6479 14.676 33.1187C14.837 33.4205 14.7686 33.8471 14.5231 34.0724C14.2817 34.2937 13.8712 34.3501 13.5694 34.2012Z" fill="#F4F4F6"/>
<path d="M71.8108 30.7525L71.6901 30.7244L71.678 30.2133L71.666 29.6982L71.7626 29.7344C71.8149 29.7545 71.9758 29.7827 72.1207 29.7988C72.6801 29.8592 73.0583 29.6338 73.3561 29.0543C73.4487 28.8813 73.5211 28.7203 73.5211 28.6962C73.5211 28.672 73.4044 28.6519 73.2515 28.6439L72.9859 28.6318L72.2937 26.8209C71.9155 25.827 71.5533 24.8813 71.4929 24.7203C71.3843 24.4346 71.3803 24.4266 71.1951 24.3783L71.006 24.322L70.9939 24.0523L70.9819 23.7827H72.2535H73.5251L73.5131 24.0523L73.501 24.326L73.2072 24.3823C72.9819 24.4226 72.9175 24.4507 72.9336 24.495C72.9658 24.5755 73.7867 27.2676 73.8471 27.4849C73.8752 27.5855 73.9114 27.6821 73.9275 27.6982C73.9436 27.7183 74.004 27.5332 74.0603 27.2837C74.1167 27.0382 74.3179 26.3018 74.507 25.6459C74.6962 24.99 74.841 24.4427 74.829 24.4346C74.8209 24.4226 74.7082 24.3944 74.5795 24.3702L74.3461 24.322L74.334 24.0523L74.3219 23.7827H75.2917H76.2575V24.0644C76.2575 24.2616 76.2414 24.3461 76.2092 24.3461C76.1811 24.3461 76.0885 24.3662 76.008 24.3863L75.8591 24.4306L75.67 25.002C75.3561 25.9477 74.5513 28.2374 74.3541 28.7364C73.9034 29.8954 73.505 30.4427 72.9376 30.6841C72.7646 30.7606 72.0322 30.8048 71.8108 30.7525Z" fill="#F4F4F6"/>
<path d="M0.120723 28.3702C0.120723 28.0483 0.0965785 28.0725 0.51509 28.0081L0.804828 27.9598V25.4165V22.8692L0.474848 22.8129L0.140844 22.7525L0.128772 22.4427L0.116699 22.1328H1.78672C3.56137 22.1328 3.89135 22.157 4.38632 22.3179C4.99799 22.5191 5.27163 22.8531 5.30382 23.4326C5.32797 23.8471 5.26358 24.1248 5.07042 24.4226C4.89738 24.6922 4.54728 24.9537 4.2495 25.0382C4.0161 25.1026 3.97988 25.1509 4.16901 25.1509C4.37424 25.1509 4.75654 25.2515 4.98994 25.3642C5.56942 25.6419 5.87525 26.2857 5.76257 26.9819C5.62575 27.8109 5.13883 28.2898 4.18109 28.5352C3.86318 28.6197 3.73441 28.6238 1.9839 28.6399L0.120723 28.66V28.3702ZM3.64587 27.9477C3.83501 27.8511 3.90744 27.7827 4.00805 27.6137C4.33803 27.0624 4.26157 26.0765 3.8672 25.7948C3.64185 25.6378 3.40845 25.5936 2.78873 25.5936H2.21328V26.8169V28.0443L2.30583 28.0604C2.35412 28.0725 2.62374 28.0765 2.90141 28.0765C3.37626 28.0684 3.42052 28.0604 3.64587 27.9477ZM3.40443 24.833C3.7505 24.6761 3.92354 24.2616 3.89537 23.6459C3.87123 23.0584 3.67404 22.7968 3.18712 22.6922C2.96982 22.6479 2.334 22.668 2.2495 22.7203C2.22938 22.7324 2.21328 23.2274 2.21328 23.827V24.9095H2.72837C3.13883 24.9095 3.27163 24.8934 3.40443 24.833Z" fill="#F4F4F6"/>
<path d="M8.00805 28.5916C6.94568 28.3542 6.35815 27.5051 6.35815 26.2254C6.36218 24.982 7.01409 24.0967 8.11268 23.8391C8.50302 23.7506 9.26359 23.7788 9.59759 23.8995C10.0885 24.0766 10.4386 24.4468 10.5634 24.9297C10.6237 25.1751 10.6439 25.7224 10.5996 26.0524L10.5714 26.2375H9.17506H7.77868L7.81489 26.5031C7.92355 27.2918 8.33401 27.7506 8.97385 27.7989C9.30785 27.823 9.74246 27.7305 10.0885 27.5695L10.334 27.4528L10.4427 27.7144L10.5553 27.9759L10.4386 28.0685C10.2535 28.2214 9.90745 28.3945 9.55735 28.5152C9.15494 28.648 8.43059 28.6882 8.00805 28.5916ZM9.28371 25.2959C9.25554 24.8613 9.17506 24.6279 9.01007 24.491C8.76862 24.2858 8.30584 24.322 8.06439 24.5635C7.9155 24.7124 7.82294 24.982 7.7827 25.3924L7.75453 25.6741H8.53119H9.30785L9.28371 25.2959Z" fill="#F4F4F6"/>
<path d="M11.3078 28.3944C11.3078 28.1046 11.2756 28.1328 11.7022 28.0684L11.8712 28.0403V26.4225V24.8048L11.6217 24.7244L11.3682 24.6439L11.3561 24.3179L11.344 23.992L11.4567 23.9678C11.5171 23.9557 11.843 23.9075 12.181 23.8632L12.7927 23.7787L12.9175 23.8672L13.0382 23.9598V24.4427L13.0422 24.9296L13.1468 24.7284C13.2917 24.4507 13.6941 24.0644 13.9839 23.9236C14.2253 23.8028 14.6157 23.7465 14.8289 23.7988L14.9295 23.823V24.5674V25.3079L14.7927 25.2274C14.4949 25.0543 13.8631 25.0624 13.4607 25.2475L13.2394 25.3481V26.6922V28.0403L13.513 28.0644C13.6619 28.0805 13.8873 28.1006 14.0161 28.1127L14.2454 28.1368V28.3944V28.6519H12.7766H11.3078V28.3944Z" fill="#F4F4F6"/>
<path d="M15.4125 28.3743V28.0966L15.6257 28.0684C15.7384 28.0564 15.8672 28.0322 15.9074 28.0242C15.9718 28.0041 15.9758 27.831 15.9758 25.1348V22.2696L15.6539 22.2173L15.332 22.165V21.9115V21.662L15.4849 21.6379C15.5654 21.6258 15.9638 21.5735 16.3662 21.5292L17.0945 21.4407L17.2193 21.5332L17.344 21.6258V24.8129V28L17.4366 28.0202C17.4849 28.0322 17.6096 28.0564 17.7183 28.0684L17.9074 28.0966V28.3743V28.6519H16.6599H15.4125V28.3743Z" fill="#F4F4F6"/>
<path d="M18.511 28.3742V28.0966L18.7243 28.0684C18.837 28.0563 18.9658 28.0322 19.006 28.0241C19.0704 28.004 19.0744 27.8873 19.0744 26.3421V24.6801L18.8048 24.6036L18.5312 24.5231L18.5191 24.1932C18.511 24.0121 18.5231 23.8632 18.5392 23.8632C18.5553 23.8632 18.9376 23.8149 19.3843 23.7586L20.1931 23.6499L20.3179 23.7384L20.4426 23.827V25.9155C20.4426 27.8672 20.4467 28.004 20.5151 28.0241C20.5513 28.0322 20.6801 28.0563 20.7968 28.0684L21.006 28.0966V28.3742V28.6519H19.7585H18.511V28.3742Z" fill="#F4F4F6"/>
<path d="M21.7304 28.3903C21.7304 28.1006 21.7223 28.1086 22.0241 28.0684L22.2133 28.0443V26.4225V24.7968L21.9517 24.7243L21.6901 24.6479V24.2978C21.6901 24.0402 21.7022 23.9437 21.7424 23.9437C21.7666 23.9396 22.1167 23.8994 22.5151 23.8471L23.2394 23.7545L23.3762 23.8591C23.509 23.9597 23.509 23.9638 23.4849 24.1931C23.4728 24.3219 23.4728 24.4265 23.4809 24.4265C23.4929 24.4265 23.6096 24.3501 23.7424 24.2616C24.2495 23.9155 24.7887 23.7626 25.3883 23.7907C25.8591 23.8109 26.1529 23.9517 26.3461 24.2414C26.6036 24.6237 26.6398 24.9094 26.6398 26.6278V28.0402L26.9014 28.0684L27.163 28.0966V28.3742V28.6519H25.9758H24.7847L24.7968 28.3823L24.8088 28.1086L25.0221 28.0764L25.2354 28.0402L25.2233 26.5272C25.2113 25.1549 25.2032 24.998 25.1388 24.8773C24.9376 24.507 24.334 24.4789 23.7948 24.8209L23.6217 24.9296V26.4829V28.0402L23.8551 28.0724L24.0845 28.1086L24.0966 28.3823L24.1086 28.6519H22.9175H21.7304V28.3903Z" fill="#F4F4F6"/>
<path d="M32.507 28.6117C31.9316 28.5071 31.5493 28.334 31.2233 28.0201C30.9537 27.7626 30.7766 27.4487 30.6559 27.0141C30.5714 26.7163 30.5674 26.5996 30.5513 24.7807L30.5392 22.8572L30.3903 22.8209C30.3098 22.8008 30.1811 22.7727 30.1127 22.7566L29.9799 22.7284V22.4306V22.1328H31.3682H32.7565V22.4306V22.7284L32.6076 22.7525C32.5231 22.7686 32.3581 22.7968 32.2455 22.8209L32.0322 22.8612V24.6801C32.0362 26.7002 32.0563 26.9497 32.2736 27.3883C32.503 27.8551 32.8611 28.0604 33.4406 28.0564C34.1006 28.0523 34.4909 27.7183 34.6962 26.9779C34.7766 26.6761 34.7847 26.5553 34.8008 24.7606L34.8169 22.8652L34.7002 22.8411C34.6398 22.829 34.4668 22.7968 34.3179 22.7727L34.0442 22.7284V22.4306V22.1328H35.171H36.2978V22.4266V22.7244L36.0684 22.7727C35.9396 22.8008 35.8028 22.833 35.7666 22.8411C35.7022 22.8612 35.6982 23.0181 35.6861 24.8008C35.674 26.491 35.662 26.7727 35.6016 26.9819C35.4366 27.5453 35.1066 28.0201 34.6881 28.2898C34.3139 28.5312 33.9396 28.6197 33.2797 28.6358C32.9577 28.6399 32.6116 28.6318 32.507 28.6117Z" fill="#F4F4F6"/>
<path d="M36.8612 28.3903C36.8612 28.1006 36.8531 28.1086 37.1549 28.0684L37.3441 28.0443V26.4185V24.7968L37.0825 24.7284L36.8209 24.6559V24.3018C36.8209 24.0443 36.833 23.9437 36.8732 23.9437C36.8974 23.9396 37.2475 23.8994 37.6459 23.8471L38.3702 23.7545L38.4789 23.839C38.5755 23.9155 38.5875 23.9517 38.5875 24.1771C38.5915 24.3139 38.5996 24.4265 38.6117 24.4265C38.6237 24.4265 38.7163 24.3662 38.8209 24.2897C39.332 23.9276 39.8592 23.7666 40.4588 23.7907C40.8048 23.8028 40.9014 23.8229 41.0946 23.9155C41.4608 24.0966 41.6459 24.4064 41.7264 25.006C41.7505 25.1791 41.7706 25.9235 41.7706 26.6801V28.0402L42.0322 28.0684L42.2938 28.0966V28.3742V28.6519H41.1066H39.9155L39.9276 28.3823L39.9396 28.1086L40.1529 28.0764L40.3662 28.0402L40.3541 26.5473C40.342 25.167 40.338 25.0382 40.2656 24.8933C40.1569 24.672 39.996 24.5875 39.6901 24.5875C39.4165 24.5875 39.1187 24.6801 38.8893 24.837L38.7525 24.9296V26.4829V28.0402L38.9859 28.0724L39.2153 28.1086L39.2274 28.3823L39.2394 28.6519H38.0483H36.8612V28.3903Z" fill="#F4F4F6"/>
<path d="M42.8169 28.3742V28.1006L43.0302 28.0724C43.1429 28.0563 43.2797 28.0322 43.332 28.0201L43.4205 28V26.3421V24.6841L43.1187 24.5956L42.8169 24.507V24.1851C42.8169 24.0081 42.829 23.8632 42.8491 23.8632C42.8652 23.8632 43.2515 23.8189 43.7062 23.7586L44.5352 23.6499L44.664 23.7465L44.7887 23.839V25.9195C44.7887 27.8672 44.7928 28.004 44.8612 28.0241C44.8974 28.0322 45.0262 28.0563 45.1429 28.0684L45.3521 28.0966V28.3742V28.6519H44.0845H42.8169V28.3742Z" fill="#F4F4F6"/>
<path d="M47.5935 28.5232C47.5654 28.4507 47.171 27.497 46.7203 26.4065L45.8994 24.4226L45.7263 24.3743L45.5533 24.33V24.0564V23.7827H46.7806H48.012L48 24.0523L47.9879 24.322L47.7303 24.3743C47.5855 24.4024 47.4648 24.4306 47.4607 24.4387C47.4527 24.4467 47.6338 25.0302 47.8631 25.7384C48.0925 26.4427 48.3098 27.1469 48.3501 27.2958C48.3903 27.4447 48.4346 27.5533 48.4507 27.5372C48.4627 27.5211 48.5191 27.328 48.5674 27.1107C48.6197 26.8934 48.8209 26.2053 49.014 25.5815C49.2112 24.9578 49.3641 24.4427 49.3601 24.4387C49.3561 24.4306 49.2354 24.4024 49.0905 24.3743L48.833 24.322L48.8209 24.0523L48.8088 23.7827H49.8189H50.8249V24.0443C50.8249 24.2213 50.8088 24.3139 50.7766 24.322C50.7485 24.334 50.6438 24.3622 50.5432 24.3944L50.3662 24.4467L49.5734 26.5393L48.7847 28.6318L48.2173 28.6439L47.6458 28.656L47.5935 28.5232Z" fill="#F4F4F6"/>
<path d="M52.6077 28.5916C51.8229 28.4185 51.2797 27.8793 51.0624 27.0543C50.9457 26.6157 50.9457 25.8954 51.0624 25.4568C51.34 24.3984 52.1891 23.7827 53.3561 23.7827C54.668 23.7867 55.3159 24.4547 55.2314 25.7264C55.2193 25.9437 55.1992 26.1449 55.1831 26.1771C55.167 26.2294 54.9537 26.2374 53.7787 26.2374C52.5594 26.2374 52.3944 26.2455 52.3944 26.2978C52.3944 26.334 52.4225 26.499 52.4588 26.668C52.6237 27.4688 53.0946 27.8511 53.8431 27.7948C54.1449 27.7706 54.66 27.6217 54.837 27.505C54.9336 27.4407 54.9336 27.4447 55.0503 27.6942C55.1831 27.992 55.1791 28.0081 54.8129 28.2254C54.169 28.6077 53.3239 28.7485 52.6077 28.5916ZM53.8753 25.2636C53.8471 24.5875 53.674 24.3662 53.171 24.3702C52.6881 24.3743 52.4628 24.664 52.4064 25.3642L52.3823 25.6741H53.1388H53.8913L53.8753 25.2636Z" fill="#F4F4F6"/>
<path d="M55.8953 28.3944V28.1368L56.0684 28.1087C56.1609 28.0966 56.2977 28.0724 56.3702 28.0604L56.4989 28.0403L56.4909 26.4266L56.4788 24.8129L56.2293 24.7324L55.9758 24.6519V24.3179C55.9758 23.9276 55.8792 23.9839 56.7766 23.8632L57.3923 23.7787L57.5331 23.8712L57.674 23.9638L57.6499 24.4386C57.6378 24.6962 57.6338 24.9095 57.6418 24.9095C57.6499 24.9095 57.7102 24.8129 57.7786 24.7002C57.9315 24.4266 58.3138 24.0644 58.5915 23.9236C58.8209 23.8069 59.2152 23.7465 59.4124 23.7988L59.5171 23.823V24.5513C59.5171 24.9497 59.505 25.2716 59.4889 25.2636C59.2313 25.1308 59.1066 25.1026 58.8249 25.1026C58.511 25.1026 58.1207 25.1912 57.9597 25.2958L57.8672 25.3521V26.6962V28.0403L58.1408 28.0644C58.2897 28.0805 58.515 28.1006 58.6438 28.1127L58.8732 28.1368V28.3944V28.6519H57.3843H55.8953V28.3944Z" fill="#F4F4F6"/>
<path d="M61.4688 28.6238C61.3078 28.6037 60.4507 28.3864 60.3138 28.3341L60.2012 28.2898V27.7466V27.1993L60.6116 27.2114L61.0181 27.2234L61.1267 27.5454C61.2273 27.8633 61.2354 27.8673 61.4487 27.98C61.6297 28.0725 61.7142 28.0886 61.9798 28.0886C62.4829 28.0886 62.7364 27.9236 62.7364 27.5977C62.7364 27.2838 62.5794 27.1268 61.9919 26.8572C60.7766 26.2979 60.5392 26.1369 60.338 25.7305C60.1931 25.4367 60.165 25.0423 60.2615 24.7446C60.4024 24.3301 60.8652 23.984 61.4768 23.8391C61.8994 23.7385 62.7042 23.7788 63.3118 23.9236L63.7827 24.0403V24.5957V25.151H63.4044H63.0301L62.9134 24.8411C62.8249 24.6037 62.7646 24.5071 62.6639 24.4427C62.4225 24.2777 61.9517 24.2737 61.6901 24.4307C61.5412 24.5232 61.4326 24.7566 61.4648 24.9216C61.5211 25.2033 61.7062 25.3321 62.5915 25.7103C63.4165 26.0645 63.7786 26.3381 63.9678 26.7405C64.0845 26.986 64.0965 27.4126 64 27.6983C63.8591 28.1128 63.3762 28.4669 62.7887 28.5916C62.5352 28.648 61.7706 28.6641 61.4688 28.6238Z" fill="#F4F4F6"/>
<path d="M64.7485 28.3742V28.0966L64.9417 28.0684C65.0463 28.0563 65.171 28.0322 65.2233 28.0201L65.3119 28V26.338V24.6801L65.0101 24.5916L64.7083 24.503V24.1851C64.7083 24.0081 64.7203 23.8632 64.7404 23.8632C64.7565 23.8632 65.1429 23.8189 65.5976 23.7586L66.4266 23.6499L66.5553 23.7465L66.6801 23.839V25.9195C66.6801 27.8672 66.6841 28.004 66.7525 28.0241C66.7887 28.0322 66.9175 28.0563 67.0342 28.0684L67.2435 28.0966V28.3742V28.6519H65.996H64.7485V28.3742Z" fill="#F4F4F6"/>
<path d="M68.8611 28.5795C68.6157 28.491 68.4788 28.3743 68.3581 28.149C68.2736 27.992 68.2696 27.9397 68.2575 26.2294L68.2454 24.4669H67.9879H67.7263V24.2294V23.992L67.9396 23.9035C68.0523 23.8552 68.1931 23.7747 68.2454 23.7264C68.3742 23.6097 68.5352 23.2757 68.6881 22.8089L68.8209 22.4146H69.1951H69.5694L69.5935 22.5393C69.6056 22.6077 69.6177 22.9176 69.6177 23.2234V23.7828H70.2615H70.9054V24.1248V24.4669H70.2817H69.6579V26.0081C69.6579 27.7103 69.6619 27.7224 69.8994 27.7747C70.0281 27.8029 70.4668 27.7667 70.7645 27.7063C70.8853 27.6822 70.8893 27.6862 70.9577 27.8995C70.9939 28.0162 71.0261 28.1369 71.0261 28.161C71.0261 28.2294 70.5996 28.4347 70.2535 28.5353C69.8229 28.656 69.1428 28.6801 68.8611 28.5795Z" fill="#F4F4F6"/>
<path d="M19.4164 22.9417C19.0905 22.8612 18.9054 22.6358 18.8812 22.2938C18.849 21.8552 19.0945 21.5292 19.5211 21.4407C20.0402 21.336 20.4426 21.654 20.4426 22.161C20.4386 22.5473 20.2052 22.8491 19.839 22.9336C19.6338 22.9819 19.5895 22.9819 19.4164 22.9417Z" fill="#F4F4F6"/>
<path d="M43.7464 22.9376C43.5774 22.8974 43.4245 22.7847 43.3118 22.6157C43.1468 22.3743 43.2072 21.8994 43.4325 21.658C43.6901 21.3803 44.1891 21.3441 44.5191 21.5775C44.9215 21.8672 44.849 22.6238 44.3943 22.8491C44.2132 22.9457 43.9315 22.9819 43.7464 22.9376Z" fill="#F4F4F6"/>
<path d="M65.6378 22.9376C65.3239 22.8612 65.1107 22.5916 65.1107 22.2656C65.1107 21.7425 65.4084 21.4366 65.9195 21.4326C66.1449 21.4326 66.2133 21.4487 66.3541 21.5413C66.6962 21.7666 66.7847 22.2535 66.5473 22.6117C66.3742 22.8733 65.9718 23.0181 65.6378 22.9376Z" fill="#F4F4F6"/>
<path d="M16.1972 9.6982L19.4165 6.47888H25.835H32.2535L29.0342 9.6982L25.8149 12.9175H19.3964H12.9778L16.1972 9.6982Z" fill="#F4F4F6"/>
<path d="M3.34006 3.23948L0.140869 0.0402832H6.55938H12.9779L16.1771 3.23948L19.3763 6.43867H12.9578H6.53926L3.34006 3.23948Z" fill="#F4F4F6"/>
<path d="M35.5453 3.23141L38.7525 0.0201416L41.9597 3.23141L45.171 6.43865H38.7525H32.334L35.5453 3.23141Z" fill="#F4F4F6"/>
<path d="M45.1912 9.69013V6.45874L48.4105 9.67806C50.1811 11.4487 51.6298 12.9014 51.6298 12.9054C51.6298 12.9135 50.1811 12.9175 48.4105 12.9175H45.1912V9.69013Z" fill="#F4F4F6"/>
</g>
<defs>
<clipPath id="clip0_226_10081">
<rect width="76.2978" height="40" fill="white"/>
</clipPath>
</defs>
</svg>
