<svg width="109" height="40" viewBox="0 0 109 40" fill="none" xmlns="http://www.w3.org/2000/svg">
<g clip-path="url(#clip0_226_10076)">
<path fill-rule="evenodd" clip-rule="evenodd" d="M105.093 8.02454L102.902 11.0449L103.82 11.5567L106.633 8.72674L105.093 8.02454ZM53.1686 12.4196L52.8725 13.0669L46.7641 26.9332H48.4562L50.1313 22.9992H56.0535L57.6906 26.9332H59.4038L53.452 13.0669L53.1686 12.4196ZM21.3834 12.7834C16.8757 12.7834 14.0568 16.1502 14.0568 20.055C14.0568 23.9602 16.8974 27.2124 21.3834 27.2124C22.8398 27.2124 24.2943 26.7232 25.4781 25.8672V24.0102C24.381 25.1072 22.8867 25.8165 21.3326 25.8165C17.9636 25.8165 15.7404 23.0349 15.7404 20C15.7404 16.9651 17.9233 14.1836 21.2987 14.1836C22.8895 14.1836 24.381 14.8566 25.4781 15.9899V14.1328C24.2585 13.2222 22.9131 12.7834 21.3834 12.7834ZM31.5653 13.0669V26.9332H33.1135V20.1269H37.8174V18.6929H33.1135V13.0669H31.5653ZM39.9283 13.0669V26.9332H41.4723V13.0669H39.9283ZM64.4757 13.0669V26.9332H66.0197V20.8461H68.1052L71.2524 26.9332H73.046L69.6745 20.6346C71.1099 20.2124 72.513 19.1077 72.513 16.8994C72.513 14.1073 70.421 13.0669 68.139 13.0669H64.4757ZM79.4419 13.0669V26.9332H80.9859V13.0669H79.4419ZM86.8193 13.0669V14.5009H90.1695V26.9332H91.7135V14.5009H95.0976V13.0669H86.8193ZM100.686 13.0669V26.9332H108.19V25.4992H102.23V20.055H107.344V18.621H102.23V14.5009H107.961V13.0669H100.686ZM66.0197 14.5009H67.936C69.5338 14.5009 70.9648 15.1379 70.9647 16.8994C70.9647 18.6617 69.7384 19.484 67.9529 19.484H66.0197V14.5009ZM53.1305 16.0068L55.4486 21.561H50.7574L53.1305 16.0068Z" fill="#F4F4F6"/>
<path fill-rule="evenodd" clip-rule="evenodd" d="M0 19.9999C0 8.95383 8.89836 1.85308e-09 20.1703 1.85308e-09C25.1062 -6.6462e-05 29.6242 1.78775 33.112 4.75084V7.83004C29.893 4.4146 25.3269 2.28311 20.2632 2.28311C10.3848 2.28311 2.66446 10.1872 2.66446 19.9379C2.66446 29.6885 10.3885 37.5932 20.2632 37.5932C25.327 37.5932 29.893 35.4614 33.112 32.0459V35.2487C29.6242 38.2122 25.1061 40 20.1703 40C8.90758 40 0 31.0458 0 19.9999Z" fill="#F4F4F6"/>
<path fill-rule="evenodd" clip-rule="evenodd" d="M62.4833 31.1253C62.3099 31.1253 62.166 31.2692 62.166 31.4425C62.166 31.6111 62.31 31.7555 62.4833 31.7555C62.6519 31.7555 62.7963 31.6111 62.7963 31.4425C62.7963 31.2692 62.6519 31.1253 62.4833 31.1253ZM63.397 31.1253C63.3753 31.1253 63.3541 31.1252 63.3335 31.1295C63.1897 31.1596 63.0797 31.2908 63.0797 31.4425C63.0797 31.6111 63.2236 31.7555 63.397 31.7555C63.5655 31.7555 63.71 31.6111 63.71 31.4425C63.71 31.2692 63.5657 31.1253 63.397 31.1253ZM55.3259 31.9163C55.2126 31.9163 55.1065 31.9266 55.0044 31.9501C54.9704 31.958 54.9353 31.9694 54.9029 31.9797C54.8704 31.9901 54.8405 32.0008 54.8098 32.0136C54.7791 32.0263 54.7497 32.0407 54.721 32.0559C54.4335 32.2072 54.2472 32.4758 54.2472 32.83C54.2472 33.0861 54.3079 33.2612 54.4376 33.3968C54.4561 33.4162 54.4756 33.434 54.4968 33.4518C54.5392 33.4874 54.5873 33.5228 54.6406 33.5533C54.6939 33.5839 54.7539 33.6108 54.8183 33.6379C54.9469 33.6923 55.0976 33.7429 55.2709 33.7945C55.3394 33.815 55.4036 33.834 55.4613 33.8537C55.8651 33.9912 56.0112 34.1146 56.0112 34.3359C56.0112 34.5748 55.886 34.7246 55.6305 34.7843C55.5879 34.7943 55.5408 34.8005 55.4909 34.8055C55.4409 34.8104 55.3875 34.8139 55.3301 34.8139C55.0212 34.8139 54.7002 34.6637 54.4799 34.4248L54.1288 34.7674C54.3706 35.0502 54.7158 35.2438 55.1186 35.2877C55.1762 35.294 55.2366 35.2962 55.2963 35.2962C56.1345 35.2962 56.5061 34.8922 56.5061 34.3021C56.5061 34.1191 56.4699 33.9738 56.3961 33.8537C56.3814 33.8297 56.3628 33.8081 56.3454 33.786C56.1706 33.5654 55.8611 33.4394 55.457 33.3165C55.3153 33.2743 55.1997 33.2359 55.1059 33.198C55.059 33.1791 55.0197 33.1576 54.9832 33.1388C54.801 33.0445 54.7421 32.948 54.7421 32.8046C54.7421 32.7771 54.7454 32.7504 54.7506 32.7242C54.7558 32.6981 54.761 32.6724 54.7717 32.6481C54.8359 32.5025 54.9999 32.3985 55.2878 32.3985C55.5706 32.3985 55.7858 32.4745 55.9731 32.6354C55.9999 32.6584 56.0277 32.6852 56.0535 32.7116L56.4003 32.3604C56.11 32.0794 55.7709 31.9163 55.3259 31.9163ZM68.9511 31.9163C68.347 31.9163 67.8725 32.2633 67.8725 32.83C67.8725 33.4154 68.203 33.5884 68.8962 33.7945C69.4442 33.9584 69.6365 34.083 69.6364 34.3359C69.6364 34.5748 69.5112 34.7246 69.2557 34.7843C69.2131 34.7943 69.166 34.8005 69.1161 34.8055C69.0662 34.8104 69.0127 34.8139 68.9554 34.8139C68.646 34.8139 68.325 34.6637 68.1051 34.4248L67.754 34.7674C67.9958 35.0502 68.3411 35.2438 68.7439 35.2877C68.8014 35.294 68.8618 35.2962 68.9215 35.2962C69.7598 35.2962 70.1314 34.8922 70.1314 34.3021C70.1314 34.1191 70.0952 33.9738 70.0214 33.8537C70.0066 33.8297 69.9881 33.8081 69.9706 33.786C69.7958 33.5654 69.4861 33.4394 69.0823 33.3165C68.9406 33.2743 68.8249 33.2359 68.7312 33.198C68.6843 33.1791 68.645 33.1576 68.6085 33.1388C68.4262 33.0445 68.3674 32.948 68.3674 32.8046C68.3674 32.7771 68.3706 32.7504 68.3758 32.7242C68.3811 32.6981 68.3863 32.6724 68.397 32.6481C68.4611 32.5025 68.6248 32.3985 68.9131 32.3985C69.1958 32.3985 69.411 32.4745 69.5984 32.6354C69.6251 32.6584 69.653 32.6852 69.6787 32.7116L70.0256 32.3604C69.7352 32.0794 69.3959 31.9163 68.9511 31.9163ZM36.4257 31.967V33.8664C36.4257 34.7704 36.8463 35.2962 37.6566 35.2962C38.4716 35.2962 38.9172 34.7971 38.9172 33.8791V31.967H38.4223V33.8875C38.4223 34.4871 38.1806 34.8055 37.6651 34.8055C37.1732 34.8055 36.9164 34.4719 36.9164 33.8537V31.967H36.4257ZM39.8225 31.967V35.2454H40.3005V33.5449C40.3005 33.3622 40.2962 32.9094 40.2962 32.7877C40.3478 32.872 40.462 33.0677 40.5416 33.1896L41.8487 35.2454H42.314V31.967H41.836V33.6591C41.836 33.8418 41.8445 34.3072 41.8445 34.429C41.7977 34.3447 41.6538 34.1037 41.5695 33.9679L40.3258 31.967H39.8225ZM43.27 31.967V35.2454H43.7649V31.967H43.27ZM44.5137 31.967L45.6516 35.2454H46.1719L47.2929 31.967H46.7683L46.0957 34.0525C46.0653 34.1485 46.0245 34.27 45.99 34.3825C45.9555 34.4949 45.9279 34.5946 45.9138 34.6532C45.8858 34.5361 45.7928 34.2487 45.732 34.0567L45.0467 31.967H44.5137ZM48.0204 31.967V35.2454H50.2032V34.7674H48.5111V33.731H49.4545V33.253H48.5111V32.4451H50.1313V31.967H48.0204ZM50.9815 31.967V35.2454H51.4638V33.9467H52.2041L52.8555 35.2454H53.4223L52.7497 33.9044C53.1949 33.792 53.4731 33.4688 53.4731 32.9442C53.4731 32.2697 52.9915 31.967 52.4198 31.967H50.9815ZM57.3479 31.967V35.2454H57.8386V31.967H57.3479ZM58.5873 31.967V32.4493H59.5433V35.2454H60.034V32.4493H60.99V31.967H58.5873ZM62.6905 31.967L61.5103 35.2454H62.0222L62.2929 34.4671H63.6043L63.8792 35.2454H64.4038L63.2109 31.967H62.6905ZM64.9241 31.967V32.4493H65.8801V35.2454H66.3708V32.4493H67.3268V31.967H64.9241ZM70.9478 31.967V35.2454H71.4131V33.511C71.4131 33.3143 71.4049 33.0294 71.4004 32.9357C71.4376 33.0294 71.5325 33.2645 71.6119 33.4518L72.3987 35.2962L73.194 33.4518C73.2738 33.2645 73.3678 33.0294 73.4055 32.9357C73.4008 33.0294 73.397 33.3143 73.397 33.511V35.2454H73.8793V31.967H73.3547L72.6356 33.7141C72.5958 33.8101 72.5522 33.9149 72.5129 34.0144C72.4736 34.114 72.4391 34.2088 72.4156 34.2767C72.3737 34.1409 72.2668 33.9014 72.1872 33.7141L71.4554 31.967H70.9478ZM74.8099 31.967V35.2454H76.9926V34.7674H75.3048V33.731H76.2439V33.253H75.3048V32.4451H76.9249V31.967H74.8099ZM77.771 31.967V35.2454H78.6678C79.5251 35.2454 80.2625 34.761 80.2625 33.6041C80.2625 32.4472 79.5483 31.967 78.6678 31.967H77.771ZM81.0536 31.967V35.2454H81.5485V31.967H81.0536ZM82.4495 31.967V32.4197H83.6678C83.8598 32.4197 84.1965 32.4159 84.3277 32.4112C84.2434 32.4955 84.0628 32.7078 83.9597 32.8342L82.3564 34.7674V35.2454H84.848V34.7928H83.5578C83.3657 34.7928 83.029 34.7965 82.8979 34.8012C82.9822 34.7169 83.1628 34.5047 83.2659 34.3782L84.848 32.4451V31.967H82.4495ZM85.7152 31.967V35.2454H86.2059V31.967H85.7152ZM87.1619 31.967V35.2454H87.6399V33.5449C87.6399 33.3622 87.6357 32.9094 87.6357 32.7877C87.6874 32.872 87.8016 33.0677 87.881 33.1896L89.1881 35.2454H89.6534V31.967H89.1754V33.6591C89.1754 33.8418 89.1839 34.3072 89.1839 34.429C89.1371 34.3447 88.993 34.1037 88.9089 33.9679L87.6653 31.967H87.1619ZM91.9292 31.967V35.2454H93.2321C93.2769 35.2454 93.3209 35.2438 93.3632 35.2412C93.9985 35.2012 94.3573 34.8622 94.3573 34.2386C94.3573 33.7843 94.0608 33.5432 93.8032 33.473C94.042 33.3559 94.222 33.1498 94.222 32.8173C94.222 32.2646 93.8501 31.9671 93.2786 31.9671L91.9292 31.967ZM95.1737 31.967V35.2454H97.3565V34.7674H95.6644V33.731H96.6077V33.253H95.6644V32.4451H97.2846V31.967H95.1737ZM98.1306 31.967V35.2454H98.6128V33.9467H99.3531L100.005 35.2454H100.571L99.903 33.9044C100.348 33.792 100.622 33.4688 100.622 32.9442C100.622 32.2697 100.14 31.967 99.5688 31.967H98.1306ZM101.464 31.967V35.2454H103.587V34.7632H101.955V31.967H101.464ZM104.353 31.967V35.2454H104.844V31.967H104.353ZM105.8 31.967V35.2454H106.278V33.5449C106.278 33.3622 106.274 32.9094 106.274 32.7877C106.325 32.872 106.435 33.0677 106.515 33.1896L107.822 35.2454H108.291V31.967H107.813V33.6591C107.813 33.8418 107.818 34.3072 107.818 34.429C107.771 34.3447 107.631 34.1037 107.547 33.9679L106.299 31.967H105.8ZM92.3945 32.4154H93.2744C93.6022 32.4154 93.7313 32.6033 93.7313 32.8469C93.7313 33.0624 93.5976 33.2657 93.2744 33.2657H92.3945V32.4154ZM51.4638 32.4324H52.4198C52.7524 32.4324 52.9739 32.6192 52.9739 32.9611C52.9739 33.3172 52.7479 33.4857 52.4198 33.4857H51.4638V32.4324ZM98.6128 32.4324H99.5688C99.9014 32.4324 100.127 32.6192 100.127 32.9611C100.127 33.3172 99.8969 33.4857 99.5688 33.4857H98.6128V32.4324ZM78.2659 32.445H78.6678C79.4452 32.445 79.7634 32.9156 79.7634 33.6041C79.7634 34.2926 79.4452 34.7674 78.6678 34.7674H78.2659V32.445ZM62.9444 32.5212C62.9819 32.6617 63.1103 33.04 63.1897 33.2742L63.452 34.0271H62.441L62.7032 33.2784C62.7875 33.0348 62.9069 32.6617 62.9444 32.5212ZM92.3945 33.7099H93.2829C93.6531 33.7099 93.8667 33.9141 93.8666 34.2513C93.8666 34.5745 93.7058 34.797 93.2702 34.797H92.3945V33.7099Z" fill="#F4F4F6"/>
</g>
<defs>
<clipPath id="clip0_226_10076">
<rect width="108.291" height="40" fill="white"/>
</clipPath>
</defs>
</svg>
