<svg width="60" height="40" viewBox="0 0 60 40" fill="none" xmlns="http://www.w3.org/2000/svg">
<g clip-path="url(#clip0_226_10119)">
<path d="M60 0H0V40H60V0Z" fill="#42404F"/>
<path d="M30 4.44446L29.3133 6.55792L30.37 6.90127L30 4.44446Z" fill="#F4F4F6"/>
<path d="M30 4.44446L30.6867 6.55792L29.63 6.90127L30 4.44446Z" fill="#F4F4F6"/>
<path d="M32.1135 5.97998H29.8912V7.09109L32.1135 5.97998Z" fill="#F4F4F6"/>
<path d="M32.1135 5.97998L30.3156 7.28617L29.6626 6.38726L32.1135 5.97998Z" fill="#F4F4F6"/>
<path d="M31.3062 8.46448L30.6195 6.35102L29.5628 6.69437L31.3062 8.46448Z" fill="#F4F4F6"/>
<path d="M31.3062 8.46448L29.5084 7.15829L30.1615 6.25938L31.3062 8.46448Z" fill="#F4F4F6"/>
<path d="M27.8865 5.97998H30.1088V7.09109L27.8865 5.97998Z" fill="#F4F4F6"/>
<path d="M27.8865 5.97998L29.6844 7.28617L30.3374 6.38726L27.8865 5.97998Z" fill="#F4F4F6"/>
<path d="M28.6938 8.46448L29.3805 6.35102L30.4372 6.69437L28.6938 8.46448Z" fill="#F4F4F6"/>
<path d="M28.6938 8.46448L30.4916 7.15829L29.8385 6.25938L28.6938 8.46448Z" fill="#F4F4F6"/>
<path d="M30 31.1111L29.3133 33.2245L30.37 33.5679L30 31.1111Z" fill="#F4F4F6"/>
<path d="M30 31.1111L30.6867 33.2245L29.63 33.5679L30 31.1111Z" fill="#F4F4F6"/>
<path d="M32.1135 32.6466H29.8912V33.7577L32.1135 32.6466Z" fill="#F4F4F6"/>
<path d="M32.1135 32.6466L30.3156 33.9528L29.6626 33.0539L32.1135 32.6466Z" fill="#F4F4F6"/>
<path d="M31.3062 35.1311L30.6195 33.0176L29.5628 33.361L31.3062 35.1311Z" fill="#F4F4F6"/>
<path d="M31.3062 35.1311L29.5084 33.8249L30.1615 32.926L31.3062 35.1311Z" fill="#F4F4F6"/>
<path d="M27.8865 32.6466H30.1088V33.7577L27.8865 32.6466Z" fill="#F4F4F6"/>
<path d="M27.8865 32.6466L29.6844 33.9528L30.3374 33.0539L27.8865 32.6466Z" fill="#F4F4F6"/>
<path d="M28.6938 35.1311L29.3805 33.0176L30.4372 33.361L28.6938 35.1311Z" fill="#F4F4F6"/>
<path d="M28.6938 35.1311L30.4916 33.8249L29.8385 32.926L28.6938 35.1311Z" fill="#F4F4F6"/>
<path d="M16.6667 17.7778L15.98 19.8913L17.0367 20.2346L16.6667 17.7778Z" fill="#F4F4F6"/>
<path d="M16.6667 17.7778L17.3534 19.8913L16.2967 20.2346L16.6667 17.7778Z" fill="#F4F4F6"/>
<path d="M18.7802 19.3134H16.5579V20.4245L18.7802 19.3134Z" fill="#F4F4F6"/>
<path d="M18.7802 19.3134L16.9823 20.6195L16.3292 19.7206L18.7802 19.3134Z" fill="#F4F4F6"/>
<path d="M17.9729 21.7979L17.2862 19.6844L16.2295 20.0277L17.9729 21.7979Z" fill="#F4F4F6"/>
<path d="M17.9729 21.7979L16.1751 20.4917L16.8282 19.5928L17.9729 21.7979Z" fill="#F4F4F6"/>
<path d="M14.5532 19.3134H16.7754V20.4245L14.5532 19.3134Z" fill="#F4F4F6"/>
<path d="M14.5532 19.3134L16.351 20.6195L17.0041 19.7206L14.5532 19.3134Z" fill="#F4F4F6"/>
<path d="M15.3605 21.7979L16.0472 19.6844L17.1039 20.0277L15.3605 21.7979Z" fill="#F4F4F6"/>
<path d="M15.3605 21.7979L17.1583 20.4917L16.5052 19.5928L15.3605 21.7979Z" fill="#F4F4F6"/>
<path d="M22.0272 10.2509L23.825 8.94467L23.1719 8.04576L22.0272 10.2509Z" fill="#F4F4F6"/>
<path d="M22.0272 10.2509L22.7139 8.1374L23.7706 8.48075L22.0272 10.2509Z" fill="#F4F4F6"/>
<path d="M21.2198 7.76636L23.0177 9.07255L23.6708 8.17364L21.2198 7.76636Z" fill="#F4F4F6"/>
<path d="M21.2198 7.76636H23.4421V8.87747L21.2198 7.76636Z" fill="#F4F4F6"/>
<path d="M23.3333 6.23083L22.6466 8.34429L23.7033 8.68765L23.3333 6.23083Z" fill="#F4F4F6"/>
<path d="M23.3333 6.23083L24.02 8.34429L22.9633 8.68765L23.3333 6.23083Z" fill="#F4F4F6"/>
<path d="M24.6395 10.251L22.8417 8.94479L23.4948 8.04588L24.6395 10.251Z" fill="#F4F4F6"/>
<path d="M24.6395 10.251L23.9528 8.13752L22.8961 8.48087L24.6395 10.251Z" fill="#F4F4F6"/>
<path d="M25.4468 7.76636L23.649 9.07255L22.9959 8.17364L25.4468 7.76636Z" fill="#F4F4F6"/>
<path d="M25.4468 7.76636H23.2246V8.87747L25.4468 7.76636Z" fill="#F4F4F6"/>
<path d="M19.7592 15.1312L19.0725 13.0178L18.0158 13.3611L19.7592 15.1312Z" fill="#F4F4F6"/>
<path d="M19.7592 15.1312L17.9614 13.825L18.6145 12.9261L19.7592 15.1312Z" fill="#F4F4F6"/>
<path d="M17.1468 15.1313L18.9446 13.8252L18.2915 12.9263L17.1468 15.1313Z" fill="#F4F4F6"/>
<path d="M17.1468 15.1313L17.8335 13.0179L18.8902 13.3612L17.1468 15.1313Z" fill="#F4F4F6"/>
<path d="M16.3395 12.6467L18.1374 13.9529L18.7904 13.054L16.3395 12.6467Z" fill="#F4F4F6"/>
<path d="M16.3395 12.6467H18.5618V13.7578L16.3395 12.6467Z" fill="#F4F4F6"/>
<path d="M20.5665 12.6466L18.7687 13.9528L18.1156 13.0539L20.5665 12.6466Z" fill="#F4F4F6"/>
<path d="M20.5665 12.6466H18.3442V13.7577L20.5665 12.6466Z" fill="#F4F4F6"/>
<path d="M18.453 11.1111L19.1397 13.2245L18.083 13.5679L18.453 11.1111Z" fill="#F4F4F6"/>
<path d="M18.453 11.1111L17.7663 13.2245L18.823 13.5679L18.453 11.1111Z" fill="#F4F4F6"/>
<path d="M20.5665 25.98H18.3442V27.0911L20.5665 25.98Z" fill="#F4F4F6"/>
<path d="M20.5665 25.98L18.7687 27.2862L18.1156 26.3873L20.5665 25.98Z" fill="#F4F4F6"/>
<path d="M19.7592 28.4645L19.0725 26.351L18.0157 26.6944L19.7592 28.4645Z" fill="#F4F4F6"/>
<path d="M19.7592 28.4645L17.9613 27.1583L18.6144 26.2594L19.7592 28.4645Z" fill="#F4F4F6"/>
<path d="M17.1468 28.4645L18.9446 27.1583L18.2915 26.2594L17.1468 28.4645Z" fill="#F4F4F6"/>
<path d="M17.1468 28.4645L17.8335 26.351L18.8902 26.6944L17.1468 28.4645Z" fill="#F4F4F6"/>
<path d="M18.453 24.4445L19.1397 26.5579L18.083 26.9013L18.453 24.4445Z" fill="#F4F4F6"/>
<path d="M18.453 24.4445L17.7663 26.5579L18.823 26.9013L18.453 24.4445Z" fill="#F4F4F6"/>
<path d="M16.3395 25.98H18.5618V27.0911L16.3395 25.98Z" fill="#F4F4F6"/>
<path d="M16.3395 25.98L18.1374 27.2862L18.7904 26.3873L16.3395 25.98Z" fill="#F4F4F6"/>
<path d="M25.4468 30.8604H23.2246V31.9715L25.4468 30.8604Z" fill="#F4F4F6"/>
<path d="M25.4468 30.8604L23.649 32.1665L22.9959 31.2676L25.4468 30.8604Z" fill="#F4F4F6"/>
<path d="M24.6395 33.3448L23.9528 31.2314L22.8961 31.5747L24.6395 33.3448Z" fill="#F4F4F6"/>
<path d="M24.6395 33.3448L22.8417 32.0387L23.4948 31.1398L24.6395 33.3448Z" fill="#F4F4F6"/>
<path d="M22.0272 33.3448L23.825 32.0387L23.1719 31.1398L22.0272 33.3448Z" fill="#F4F4F6"/>
<path d="M22.0272 33.3448L22.7139 31.2314L23.7706 31.5747L22.0272 33.3448Z" fill="#F4F4F6"/>
<path d="M23.3334 29.3248L24.0201 31.4383L22.9634 31.7816L23.3334 29.3248Z" fill="#F4F4F6"/>
<path d="M23.3334 29.3248L22.6467 31.4383L23.7035 31.7816L23.3334 29.3248Z" fill="#F4F4F6"/>
<path d="M21.2199 30.8604H23.4421V31.9715L21.2199 30.8604Z" fill="#F4F4F6"/>
<path d="M21.2199 30.8604L23.0177 32.1665L23.6708 31.2676L21.2199 30.8604Z" fill="#F4F4F6"/>
<path d="M43.3334 17.7778L44.0201 19.8913L42.9633 20.2346L43.3334 17.7778Z" fill="#F4F4F6"/>
<path d="M43.3334 17.7778L42.6467 19.8913L43.7034 20.2346L43.3334 17.7778Z" fill="#F4F4F6"/>
<path d="M41.2199 19.3134H43.4421V20.4245L41.2199 19.3134Z" fill="#F4F4F6"/>
<path d="M41.2199 19.3134L43.0177 20.6195L43.6708 19.7206L41.2199 19.3134Z" fill="#F4F4F6"/>
<path d="M42.0272 21.7979L42.7139 19.6844L43.7706 20.0277L42.0272 21.7979Z" fill="#F4F4F6"/>
<path d="M42.0272 21.7979L43.825 20.4917L43.1719 19.5928L42.0272 21.7979Z" fill="#F4F4F6"/>
<path d="M45.4468 19.3134H43.2246V20.4245L45.4468 19.3134Z" fill="#F4F4F6"/>
<path d="M45.4468 19.3134L43.649 20.6195L42.9959 19.7206L45.4468 19.3134Z" fill="#F4F4F6"/>
<path d="M44.6396 21.7979L43.9529 19.6844L42.8962 20.0277L44.6396 21.7979Z" fill="#F4F4F6"/>
<path d="M44.6396 21.7979L42.8418 20.4917L43.4949 19.5928L44.6396 21.7979Z" fill="#F4F4F6"/>
<path d="M37.9729 10.2509L36.1751 8.94467L36.8282 8.04576L37.9729 10.2509Z" fill="#F4F4F6"/>
<path d="M37.9729 10.2509L37.2862 8.1374L36.2295 8.48075L37.9729 10.2509Z" fill="#F4F4F6"/>
<path d="M38.7802 7.76636L36.9824 9.07255L36.3293 8.17364L38.7802 7.76636Z" fill="#F4F4F6"/>
<path d="M38.7802 7.76636H36.558V8.87747L38.7802 7.76636Z" fill="#F4F4F6"/>
<path d="M36.6667 6.23083L37.3535 8.34429L36.2967 8.68765L36.6667 6.23083Z" fill="#F4F4F6"/>
<path d="M36.6667 6.23083L35.98 8.34429L37.0368 8.68765L36.6667 6.23083Z" fill="#F4F4F6"/>
<path d="M35.3605 10.251L37.1584 8.94479L36.5053 8.04588L35.3605 10.251Z" fill="#F4F4F6"/>
<path d="M35.3605 10.251L36.0472 8.13752L37.104 8.48087L35.3605 10.251Z" fill="#F4F4F6"/>
<path d="M34.5533 7.76636L36.3511 9.07255L37.0042 8.17364L34.5533 7.76636Z" fill="#F4F4F6"/>
<path d="M34.5533 7.76636H36.7755V8.87747L34.5533 7.76636Z" fill="#F4F4F6"/>
<path d="M40.2408 15.1312L40.9275 13.0178L41.9843 13.3611L40.2408 15.1312Z" fill="#F4F4F6"/>
<path d="M40.2408 15.1312L42.0387 13.825L41.3856 12.9261L40.2408 15.1312Z" fill="#F4F4F6"/>
<path d="M42.8533 15.1313L41.0555 13.8252L41.7086 12.9263L42.8533 15.1313Z" fill="#F4F4F6"/>
<path d="M42.8533 15.1313L42.1666 13.0179L41.1098 13.3612L42.8533 15.1313Z" fill="#F4F4F6"/>
<path d="M43.6605 12.6467L41.8627 13.9529L41.2096 13.054L43.6605 12.6467Z" fill="#F4F4F6"/>
<path d="M43.6605 12.6467H41.4383V13.7578L43.6605 12.6467Z" fill="#F4F4F6"/>
<path d="M39.4336 12.6467L41.2314 13.9529L41.8845 13.054L39.4336 12.6467Z" fill="#F4F4F6"/>
<path d="M39.4336 12.6467H41.6558V13.7578L39.4336 12.6467Z" fill="#F4F4F6"/>
<path d="M41.5471 11.1112L40.8604 13.2247L41.9171 13.568L41.5471 11.1112Z" fill="#F4F4F6"/>
<path d="M41.5471 11.1112L42.2338 13.2247L41.177 13.568L41.5471 11.1112Z" fill="#F4F4F6"/>
<path d="M39.4336 25.98H41.6558V27.0911L39.4336 25.98Z" fill="#F4F4F6"/>
<path d="M39.4336 25.98L41.2314 27.2862L41.8845 26.3873L39.4336 25.98Z" fill="#F4F4F6"/>
<path d="M40.2409 28.4645L40.9276 26.351L41.9843 26.6944L40.2409 28.4645Z" fill="#F4F4F6"/>
<path d="M40.2409 28.4645L42.0387 27.1583L41.3856 26.2594L40.2409 28.4645Z" fill="#F4F4F6"/>
<path d="M42.8533 28.4645L41.0555 27.1583L41.7086 26.2594L42.8533 28.4645Z" fill="#F4F4F6"/>
<path d="M42.8533 28.4645L42.1666 26.351L41.1098 26.6944L42.8533 28.4645Z" fill="#F4F4F6"/>
<path d="M41.5471 24.4445L40.8604 26.5579L41.9171 26.9013L41.5471 24.4445Z" fill="#F4F4F6"/>
<path d="M41.5471 24.4445L42.2338 26.5579L41.177 26.9013L41.5471 24.4445Z" fill="#F4F4F6"/>
<path d="M43.6605 25.98H41.4383V27.0911L43.6605 25.98Z" fill="#F4F4F6"/>
<path d="M43.6605 25.98L41.8627 27.2862L41.2096 26.3873L43.6605 25.98Z" fill="#F4F4F6"/>
<path d="M34.5532 30.8604H36.7754V31.9715L34.5532 30.8604Z" fill="#F4F4F6"/>
<path d="M34.5532 30.8604L36.351 32.1665L37.0041 31.2676L34.5532 30.8604Z" fill="#F4F4F6"/>
<path d="M35.3605 33.3448L36.0472 31.2314L37.104 31.5747L35.3605 33.3448Z" fill="#F4F4F6"/>
<path d="M35.3605 33.3448L37.1584 32.0387L36.5053 31.1398L35.3605 33.3448Z" fill="#F4F4F6"/>
<path d="M37.9729 33.3448L36.1751 32.0387L36.8282 31.1398L37.9729 33.3448Z" fill="#F4F4F6"/>
<path d="M37.9729 33.3448L37.2862 31.2314L36.2295 31.5747L37.9729 33.3448Z" fill="#F4F4F6"/>
<path d="M36.6666 29.3248L35.9799 31.4383L37.0367 31.7816L36.6666 29.3248Z" fill="#F4F4F6"/>
<path d="M36.6666 29.3248L37.3533 31.4383L36.2966 31.7816L36.6666 29.3248Z" fill="#F4F4F6"/>
<path d="M38.7802 30.8604H36.5579V31.9715L38.7802 30.8604Z" fill="#F4F4F6"/>
<path d="M38.7802 30.8604L36.9823 32.1665L36.3292 31.2676L38.7802 30.8604Z" fill="#F4F4F6"/>
</g>
<defs>
<clipPath id="clip0_226_10119">
<rect width="60" height="40" fill="white"/>
</clipPath>
</defs>
</svg>
