<svg width="86" height="40" viewBox="0 0 86 40" fill="none" xmlns="http://www.w3.org/2000/svg">
<path d="M65.3594 40C76.4051 40 85.3594 31.0457 85.3594 20C85.3594 8.95431 76.4051 0 65.3594 0C54.3137 0 45.3594 8.95431 45.3594 20C45.3594 31.0457 54.3137 40 65.3594 40Z" fill="white"/>
<path d="M5.88568 13.4558H5.37708V12.2563H7.22921V13.4558H6.72649V13.7057H8.2611V13.4558H7.7525V10.8246H8.2611V10.5718H6.72649V10.8246H7.22921V11.9829H5.37708V10.8246H5.88568V10.5718H4.354V10.8246H4.8626V13.4558H4.354V13.7057H5.88568V13.4558Z" fill="#F4F4F6"/>
<path d="M12.5328 12.5591V10.8422H13.0414V10.5718H11.6773V10.8422H12.1859V12.5386C12.1859 13.0883 11.8184 13.4823 11.3098 13.4823C10.8012 13.4823 10.4807 13.103 10.4807 12.5474V10.8452H10.9952V10.5747H9.45471V10.8452H9.96919V12.6914C9.96919 13.3294 10.4984 13.7968 11.2245 13.7968C11.9977 13.7968 12.5269 13.2941 12.5269 12.5621H12.5328V12.5591Z" fill="#F4F4F6"/>
<path d="M15.0052 11.3244L16.1399 13.7527L17.3659 11.1892V13.4558H16.8573V13.7057H18.3919V13.4558H17.8833V10.8452H18.3919V10.5718H17.3335L16.2399 12.8649L15.1698 10.5718H14.1526V10.8452H14.6612V13.4558H14.1526V13.7057H15.5138V13.4558H15.0052V11.3244Z" fill="#F4F4F6"/>
<path d="M22.3372 12.8855C22.3372 12.3769 21.9639 12.0711 21.3141 12.0505C21.808 12.0505 22.1697 11.7595 22.1697 11.3508C22.1697 10.8746 21.8022 10.5718 21.226 10.5718H19.5708V10.8217H20.0794V13.4529H19.5708V13.7027H21.32C21.9639 13.7027 22.3372 13.4029 22.3372 12.8825V12.8855ZM20.5939 10.8452H21.076C21.4082 10.8452 21.5846 11.0363 21.5846 11.3744C21.5846 11.7125 21.3671 11.9447 21.029 11.9447H20.5939V10.8452ZM20.5939 13.4382V12.2181H21.0819C21.5288 12.2181 21.7522 12.4357 21.7522 12.8561C21.7522 13.2441 21.5229 13.4411 21.0731 13.4411H20.5909L20.5939 13.4382Z" fill="#F4F4F6"/>
<path d="M25.036 13.7939C25.8915 13.7939 26.6382 13.0207 26.6382 12.1329C26.6382 11.245 25.8915 10.4924 25.036 10.4924C24.1805 10.4924 23.422 11.2509 23.422 12.1329C23.422 13.0148 24.1687 13.7939 25.036 13.7939ZM25.0301 10.7747C25.6004 10.7747 26.062 11.3773 26.062 12.1388C26.062 12.9002 25.6063 13.5087 25.0301 13.5087C24.4539 13.5087 24.007 12.8973 24.007 12.1329C24.007 11.3685 24.4627 10.7747 25.0301 10.7747Z" fill="#F4F4F6"/>
<path d="M30.2425 13.0207H29.9985V13.4352H28.8607V10.8452H29.3693V10.5718H27.8347V10.8452H28.3433V13.4558H27.8347V13.7057H30.2425V13.0207Z" fill="#F4F4F6"/>
<path d="M34.4201 12.1387C34.4201 11.2626 33.6998 10.5718 32.7796 10.5718H31.1715V10.8217H31.6801V13.4529H31.1715V13.7027H32.7796C33.7145 13.7027 34.4201 13.0325 34.4201 12.1358V12.1387ZM32.1946 13.4382V10.8452H32.7296C33.3529 10.8452 33.835 11.4155 33.835 12.1476C33.835 12.8796 33.3529 13.4352 32.7238 13.4352H32.1946V13.4382Z" fill="#F4F4F6"/>
<path d="M35.4167 10.8452H36.4075V13.4558H35.8313V13.7057H37.4982V13.4558H36.922V10.8452H37.9127V11.2244H38.1626V10.4365H37.9127V10.5718H35.4167V10.4365H35.1727V11.2244H35.4167V10.8452Z" fill="#F4F4F6"/>
<path d="M39.8735 12.1063H38.7094V12.5179H39.8735V12.1063Z" fill="#F4F4F6"/>
<path d="M2.22255 17.7039H2.73115V19.4002C2.73115 19.95 2.36366 20.3439 1.85506 20.3439C1.34647 20.3439 1.02602 19.9647 1.02602 19.4091V17.7069H1.5405V17.4364H0V17.7069H0.514479V19.5531C0.514479 20.1911 1.04366 20.6585 1.76981 20.6585C2.543 20.6585 3.07217 20.1558 3.07217 19.4238V17.7069H3.58077V17.4364H2.21667V17.7069H2.22255V17.7039Z" fill="#F4F4F6"/>
<path d="M8.19641 17.4333H6.83231V17.7038H7.34973V19.6441L5.44175 17.4333H4.5686V17.7038H5.04192L5.17716 17.8802V20.3174H4.66856V20.5673H6.03266V20.3174H5.51818V18.3153L7.48496 20.6231H7.68781V17.7038H8.19641V17.4333Z" fill="#F4F4F6"/>
<path d="M9.29297 17.7038H9.80157V20.3174H9.29297V20.5673H10.8276V20.3174H10.319V17.7038H10.8276V17.4333H9.29297V17.7038Z" fill="#F4F4F6"/>
<path d="M13.153 17.4333H11.8359V17.7038H12.1681L13.3911 20.6496H13.5528L14.767 17.7038H15.0522V17.4333H14.0673V17.7038H14.4554L13.5999 19.8L12.7238 17.7038H13.153V17.4333Z" fill="#F4F4F6"/>
<path d="M18.2125 19.9382H17.9597V20.2969H16.8073V19.1092H17.6745V19.4502H17.9274V18.5065L17.6745 18.5124V18.8387H16.8073V17.7039H17.9215V18.0567H18.1655V17.2982H17.9127V17.4335H15.7842V17.6863H16.2928V20.3175H15.7842V20.5674H18.2125V19.9382Z" fill="#F4F4F6"/>
<path d="M22.5724 20.5674V20.3175H22.3813C22.2314 20.3175 22.102 20.2352 21.9874 20.0676L21.3553 19.1445C21.8022 19.0622 22.0814 18.7299 22.0814 18.2772C22.0814 17.7274 21.7287 17.4364 21.0701 17.4364H19.4679V17.7069H19.9765V20.3175H19.4679V20.5674H20.9996V20.3175H20.491V19.1915H20.8232L21.5493 20.2851C21.7198 20.5439 21.7728 20.5703 22.0726 20.5703H22.5724V20.5674ZM20.4969 18.9152V17.701H20.9731C21.3259 17.701 21.517 17.9127 21.517 18.2919C21.517 18.6711 21.3053 18.9152 20.9819 18.9152H20.4969Z" fill="#F4F4F6"/>
<path d="M24.8831 18.777C24.742 18.6947 24.5773 18.6006 24.4009 18.4977C24.1687 18.3624 24.0952 18.2684 24.0952 18.092C24.0952 17.8127 24.3069 17.6363 24.6244 17.6363C24.8066 17.6363 24.9301 17.6716 25.1947 17.8127V18.1508H25.4446V17.3364H25.1947V17.5069C24.9977 17.3982 24.8008 17.3511 24.5773 17.3511C24.0335 17.3511 23.6072 17.7392 23.6072 18.2272C23.6072 18.627 23.81 18.8652 24.4068 19.1621C24.9683 19.4473 25.1536 19.6237 25.1536 19.8824C25.1536 20.1411 24.9095 20.338 24.5685 20.338C24.3363 20.338 24.1481 20.2763 23.8776 20.1146V19.7618H23.6278V20.6085H23.8776V20.4321C24.1422 20.5821 24.3862 20.6556 24.645 20.6556C25.2065 20.6556 25.6298 20.2675 25.6298 19.7589C25.6298 19.3179 25.4652 19.1004 24.8831 18.774V18.777Z" fill="#F4F4F6"/>
<path d="M28.3345 20.3174H27.8259V17.7038H28.3345V17.4333H26.8029V17.7038H27.3115V20.3174H26.8029V20.5673H28.3345V20.3174Z" fill="#F4F4F6"/>
<path d="M31.9507 17.4335H29.4518V17.2982H29.2078V18.0861H29.4518V17.7039H30.4425V20.3175H29.8663V20.5674H31.5361V20.3175H30.9599V17.7039H31.9507V18.0861H32.2006V17.2982H31.9507V17.4335Z" fill="#F4F4F6"/>
<path d="M33.6704 16.234C33.4793 16.234 33.3235 16.3898 33.3235 16.5809C33.3235 16.772 33.4793 16.919 33.6704 16.919C33.8615 16.919 34.0085 16.7632 34.0085 16.5809C34.0085 16.3986 33.8527 16.234 33.6704 16.234Z" fill="#F4F4F6"/>
<path d="M34.7552 20.5674H35.8959V20.3175H35.6107L34.3612 17.3335H34.1849L32.8825 20.3175H32.6238V20.5674H33.5734V20.3175H33.1853L33.5116 19.5766H34.7464L35.0521 20.3175H34.7523V20.5674H34.7552ZM33.6292 19.312L34.1437 18.1184L34.6376 19.312H33.6263H33.6292Z" fill="#F4F4F6"/>
<path d="M34.8728 16.919C35.0551 16.919 35.2138 16.7632 35.2138 16.5809C35.2138 16.3986 35.058 16.234 34.8728 16.234C34.6876 16.234 34.5259 16.3898 34.5259 16.5809C34.5259 16.772 34.6817 16.919 34.8728 16.919Z" fill="#F4F4F6"/>
<path d="M39.3209 18.0861V17.2982H39.0681V17.4335H36.5721V17.2982H36.3281V18.0861H36.5721V17.7039H37.5629V20.3175H36.9867V20.5674H38.6565V20.3175H38.0774V17.7039H39.0681V18.0861H39.3209Z" fill="#F4F4F6"/>
<path d="M10.4601 27.1615H8.65794L10.61 24.448V24.2981H8.20226V24.1628H7.95825V24.9213H8.20226V24.5685H9.89857L7.95825 27.2909V27.432H10.7041V26.7H10.4601V27.1615Z" fill="#F4F4F6"/>
<path d="M13.9262 24.5686H14.4348V26.2649C14.4348 26.8146 14.0673 27.2086 13.5587 27.2086C13.0501 27.2086 12.7296 26.8293 12.7296 26.2737V24.5715H13.2441V24.301H11.7036V24.5715H12.2181V26.4177C12.2181 27.0557 12.7473 27.5231 13.4734 27.5231C14.2466 27.5231 14.7758 27.0204 14.7758 26.2884V24.5715H15.2844V24.301H13.9203V24.5715H13.9262V24.5686Z" fill="#F4F4F6"/>
<path d="M19.7296 25.7769C20.2235 25.7769 20.5851 25.4858 20.5851 25.0772C20.5851 24.6009 20.2176 24.2981 19.6414 24.2981H17.9862V24.548H18.4948V27.1792H17.9862V27.4291H19.7354C20.3793 27.4291 20.7526 27.1292 20.7526 26.6088C20.7526 26.0885 20.3793 25.7945 19.7296 25.7739V25.7769ZM19.0093 24.5715H19.4914C19.8236 24.5715 20 24.7626 20 25.1007C20 25.4388 19.7825 25.671 19.4444 25.671H19.0093V24.5715ZM19.4914 27.1645H19.0093V25.9444H19.4973C19.9442 25.9444 20.1676 26.162 20.1676 26.5824C20.1676 26.9704 19.9383 27.1674 19.4885 27.1674L19.4914 27.1645Z" fill="#F4F4F6"/>
<path d="M24.1246 27.1615H22.9722V25.9738H23.8395V26.3119H24.0893V25.3682L23.8395 25.377V25.7033H22.9722V24.5685H24.0835V24.9213H24.3275V24.1628H24.0776V24.2981H21.9462V24.548H22.4548V27.1821H21.9462V27.432H24.3745V26.7999H24.1246V27.1615Z" fill="#F4F4F6"/>
<path d="M28.1523 26.9293L27.5202 26.0062C27.9671 25.9238 28.2464 25.5916 28.2464 25.1389C28.2464 24.5891 27.8936 24.2981 27.235 24.2981H25.6328V24.5686H26.1414V27.1792H25.6328V27.4291H27.1674V27.1792H26.6588V26.0532H26.991L27.7172 27.1468C27.8877 27.4055 27.9406 27.432 28.2405 27.432H28.7344V27.1821H28.5433C28.3934 27.1821 28.264 27.0998 28.1493 26.9322L28.1523 26.9293ZM26.6588 25.7798V24.5656H27.1351C27.4879 24.5656 27.679 24.7773 27.679 25.1565C27.679 25.5358 27.4702 25.7798 27.1439 25.7798H26.6588Z" fill="#F4F4F6"/>
<path d="M31.8331 27.1615H30.6953V24.5686H31.2039V24.2981H29.6693V24.5686H30.1779V27.1821H29.6693V27.432H32.0771V26.747H31.8331V27.1615Z" fill="#F4F4F6"/>
<path d="M33.006 24.5686H33.5146V27.1821H33.006V27.432H34.5406V27.1821H34.032V24.5686H34.5406V24.2981H33.006V24.5686Z" fill="#F4F4F6"/>
<path d="M37.9568 24.5686H38.4743V26.5089L36.5663 24.2981H35.6902V24.5686H36.1664L36.3017 24.745V27.1821H35.7931V27.432H37.1572V27.1821H36.6427V25.1801L38.6095 27.4849H38.8123V24.5686H39.3209V24.2981H37.9568V24.5686Z" fill="#F4F4F6"/>
<path d="M52.2358 30.3838C52.3858 30.2692 52.4122 30.0458 52.2976 29.8958C52.177 29.7429 51.9595 29.7194 51.8095 29.8341C51.6567 29.9517 51.6302 30.1692 51.7478 30.3221C51.8625 30.472 52.083 30.5044 52.2358 30.3838Z" fill="#09090B"/>
<path d="M54.6671 33.6323L54.5318 33.5206L54.3202 33.7734L53.3265 32.9385L55.6578 32.3476L55.7254 32.2653L54.3995 31.151L54.4613 31.0746L54.326 30.9629L53.9762 31.3804L54.1085 31.495L54.2731 31.301L55.208 32.083L52.8796 32.6857L52.8149 32.765L54.329 34.038L54.6671 33.6323Z" fill="#09090B"/>
<path d="M58.8387 34.1615L57.9803 33.6852L57.8862 33.8557L58.2067 34.0321L57.6157 35.0993C57.4247 35.4462 57.0572 35.5638 56.7367 35.3874C56.4251 35.2139 56.3487 34.8582 56.5427 34.5084L57.1365 33.4353L57.4629 33.6146L57.5569 33.4441L56.5868 32.9061L56.4927 33.0766L56.8161 33.256L56.1723 34.4172C55.9488 34.82 56.1193 35.2962 56.575 35.552C57.063 35.8225 57.5687 35.6902 57.8245 35.2286L58.4242 34.1497L58.7447 34.3261L58.8387 34.1556V34.1615Z" fill="#09090B"/>
<path d="M61.173 37.2542C61.6228 37.366 61.9344 37.2219 62.0255 36.8574C62.1137 36.5016 61.905 36.2223 61.4552 36.0959C61.8021 36.1812 62.102 36.0401 62.1725 35.7578C62.2548 35.4256 62.052 35.1493 61.6492 35.0493L60.4938 34.7612L60.4497 34.9376L60.8055 35.0258L60.3468 36.8632L59.9911 36.775L59.947 36.9514L61.17 37.2572L61.173 37.2542ZM60.926 36.0812L61.267 36.1665C61.5787 36.2459 61.6992 36.434 61.6257 36.728C61.5581 36.9985 61.364 37.0955 61.0495 37.0161L60.7143 36.9309L60.926 36.0783V36.0812ZM61.1641 35.1287L61.4993 35.214C61.7315 35.2728 61.8227 35.4345 61.7609 35.6726C61.6992 35.9137 61.511 36.0313 61.2729 35.9725L60.9701 35.896L61.1612 35.1287H61.1641Z" fill="#09090B"/>
<path d="M65.4035 37.2543L65.2241 37.2484L65.2124 37.5071L64.3833 37.4777L64.4127 36.6251L65.0389 36.6457L65.0301 36.8897L65.2094 36.8956L65.2359 36.2165H65.0536L65.0448 36.4517L64.4215 36.4282L64.4509 35.6138L65.2506 35.6432L65.2418 35.8961L65.4181 35.9019L65.4358 35.3551L65.2535 35.3492L65.2506 35.4463L63.7189 35.3933L63.713 35.5727L64.0805 35.5874L64.0129 37.4807L63.6483 37.466L63.6395 37.6482L65.3888 37.707L65.4035 37.2543Z" fill="#09090B"/>
<path d="M69.3312 37.0809L69.1959 37.1015C69.0901 37.1191 68.9901 37.075 68.8872 36.9662L68.3345 36.3812C68.6432 36.2724 68.8049 36.0049 68.752 35.6815C68.6903 35.2905 68.408 35.1229 67.9406 35.1964L66.8029 35.3758L66.8323 35.5698L67.1939 35.5139L67.4878 37.369L67.1262 37.4249L67.1556 37.6042L68.2463 37.4307L68.2169 37.2514L67.8553 37.3073L67.7289 36.5076L67.9641 36.4694L68.6021 37.1632C68.752 37.3278 68.7932 37.3396 69.0048 37.3073L69.3576 37.2514L69.3282 37.0721V37.0809H69.3312ZM67.5643 35.4581L67.9024 35.4052C68.1523 35.3669 68.311 35.4934 68.3551 35.7638C68.3963 36.0284 68.2757 36.2313 68.0435 36.2666L67.7025 36.3195L67.5643 35.4551V35.4581Z" fill="#09090B"/>
<path d="M72.3064 35.6844L72.1418 35.7461L72.2476 36.0254L71.4832 36.3194L70.8129 34.579L71.1569 34.4467L71.0863 34.2644L70.0544 34.6583L70.125 34.8406L70.466 34.7113L71.1422 36.4664L70.7982 36.5957L70.8629 36.7662L72.4828 36.1459L72.3064 35.6844Z" fill="#09090B"/>
<path d="M74.567 34.7818L74.2554 34.9699L73.2852 33.3589L73.5998 33.1707L73.4999 33.0032L72.5532 33.5706L72.6532 33.7381L72.9677 33.55L73.9379 35.161L73.6233 35.3492L73.7145 35.505L74.6611 34.9347L74.567 34.7818Z" fill="#09090B"/>
<path d="M76.431 30.8865L76.6985 30.6366L76.5662 30.4926L75.8459 31.1628L75.9812 31.304L76.2516 31.0511L77.2042 32.0742L75.1139 31.8449L74.6553 32.2741L74.7876 32.4182L75.0375 32.1859L75.1962 32.2094L76.3898 33.4912L76.1223 33.7411L76.2457 33.8734L76.9631 33.2061L76.8396 33.0738L76.5691 33.3266L75.5872 32.2741L77.7539 32.5211L77.8627 32.4211L76.431 30.8865Z" fill="#09090B"/>
<path d="M78.8387 29.3195C78.6829 29.2107 78.4624 29.249 78.3536 29.4048C78.2419 29.5635 78.2831 29.7811 78.4389 29.8899C78.5977 30.0016 78.8123 29.9634 78.924 29.8046C79.0328 29.6517 78.9975 29.4312 78.8387 29.3195Z" fill="#09090B"/>
<path d="M50.2543 25.089L50.4042 25.4212L48.6726 26.1944L48.5227 25.8592L48.358 25.9327L48.8078 26.9411L48.9725 26.8676L48.8255 26.5354L49.5869 26.1973L50.1308 27.4144L49.3664 27.7555L49.2194 27.4203L49.0518 27.4938L49.5016 28.5022L49.6663 28.4287L49.5193 28.0936L51.2479 27.3233L51.3979 27.6585L51.5625 27.585L51.1127 26.5766L50.9481 26.6501L51.098 26.9852L50.3072 27.3351L49.7662 26.118L50.5541 25.7652L50.7011 26.0974L50.8687 26.0239L50.4189 25.0155L50.2543 25.089Z" fill="#09090B"/>
<path d="M47.4408 21.4612L47.5937 22.4313L47.7877 22.4019L47.7319 22.0403L48.9372 21.8492C49.3282 21.7875 49.6487 22.0051 49.7075 22.3637C49.7633 22.7165 49.5311 22.9958 49.1342 23.0575L47.9229 23.2486L47.8641 22.8811L47.6701 22.9105L47.8436 24.0042L48.0376 23.9748L47.9788 23.6073L49.29 23.3986C49.7427 23.328 50.0161 22.8988 49.9338 22.3814C49.8456 21.8316 49.4311 21.5112 48.9078 21.5935L47.6878 21.7875L47.6319 21.4259L47.4379 21.4553V21.4612H47.4408Z" fill="#09090B"/>
<path d="M49.8104 16.7162L49.7634 17.0778L47.8995 16.8485L47.9436 16.484L47.7496 16.4604L47.6555 17.2189L49.1989 18.1979L47.4673 18.7624L47.3792 19.4915L47.5702 19.515L47.6173 19.1504L49.4812 19.3797L49.4371 19.7443L49.6164 19.7649L49.7369 18.7918L49.5576 18.7683L49.5135 19.1328L47.9906 18.9476L49.8251 18.3508L48.1024 17.2483L49.7193 17.4453L49.6752 17.8099L49.8545 17.8334L49.9898 16.7368L49.8104 16.7162Z" fill="#09090B"/>
<path d="M50.8482 14.1409C51.0158 13.7087 50.91 13.3794 50.5601 13.2442C50.2191 13.1119 49.9163 13.2854 49.7369 13.7175C49.8634 13.3853 49.7605 13.0678 49.487 12.962C49.1695 12.8385 48.8697 13.0061 48.7197 13.3941L48.2935 14.5054L48.461 14.5701L48.5933 14.2291L50.3631 14.9082L50.2308 15.2492L50.3984 15.3139L50.8512 14.1379H50.8482V14.1409ZM49.6576 14.2467L49.784 13.9174C49.8986 13.6176 50.1044 13.5206 50.3866 13.6293C50.6454 13.7293 50.7189 13.9351 50.6042 14.235L50.4807 14.5583L49.6605 14.2438H49.6576V14.2467ZM48.7374 13.8969L48.8609 13.5735C48.9461 13.3501 49.1196 13.2795 49.3489 13.3677C49.5811 13.4559 49.6752 13.6617 49.587 13.888L49.4753 14.1791L48.7374 13.8939V13.8969Z" fill="#09090B"/>
<path d="M52.421 11.3716C52.7738 10.8689 52.6268 10.1075 52.1006 9.74293C51.5861 9.38132 50.8247 9.5048 50.4719 10.0075C50.1132 10.5191 50.2543 11.2717 50.7717 11.6362C51.3009 12.0066 52.0594 11.8832 52.4181 11.3716H52.421ZM50.6394 10.1281C50.8746 9.79291 51.4215 9.76939 51.8683 10.084C52.3211 10.4015 52.4886 10.9189 52.2505 11.257C52.0153 11.5921 51.4685 11.6098 51.0157 11.2922C50.5718 10.9806 50.4043 10.4632 50.6394 10.1281Z" fill="#09090B"/>
<path d="M54.8523 7.79963L54.7259 7.9231L54.9317 8.13771L54.3437 8.70511L53.0472 7.36452L53.3118 7.1117L53.1766 6.97058L52.3828 7.73789L52.518 7.87606L52.7797 7.62323L54.085 8.97558L53.8234 9.22841L53.9498 9.35776L55.1963 8.15535L54.8523 7.79963Z" fill="#09090B"/>
<path d="M56.0106 7.50263L56.9925 6.8882C57.5629 6.53247 57.7393 5.85336 57.3982 5.30654C57.0631 4.77148 56.3605 4.62449 55.7989 4.97727L54.817 5.59171L54.914 5.74458L55.2257 5.55055L56.2311 7.15573L55.9195 7.34976L56.0165 7.50263H56.0106ZM56.531 6.94699L55.5432 5.36534L55.8695 5.16249C56.2517 4.92436 56.7632 5.08899 57.0396 5.53585C57.3189 5.98271 57.2365 6.50601 56.8514 6.74708L56.528 6.94993H56.531V6.94699Z" fill="#09090B"/>
<path d="M60.4939 5.09202L60.1 5.22431L59.4885 3.44862L60.1617 3.21637L60.2499 3.47508L60.4234 3.41628L60.2381 2.88123L60.0676 2.94002L60.1 3.03116L58.4007 3.6162L58.3684 3.52506L58.2008 3.58092L58.386 4.11598L58.5536 4.06012L58.4625 3.80141L59.1386 3.56916L59.7501 5.34778L59.3562 5.48008L59.415 5.65059L60.5527 5.26253L60.4939 5.09202Z" fill="#09090B"/>
<path d="M62.7488 3.41919L61.8315 3.58676L61.8962 3.95131L62.8135 3.78667L62.7488 3.41919Z" fill="#09090B"/>
<path d="M66.6324 2.33439L65.6504 2.31675V2.51372L66.0121 2.5196L65.9915 3.73965C65.9856 4.13654 65.7151 4.41289 65.3506 4.40701C64.9949 4.40113 64.7597 4.12184 64.7655 3.72202L64.7861 2.49608L65.1565 2.50196V2.30793L64.0511 2.28735V2.48139L64.4186 2.48727L64.3951 3.81609C64.3863 4.27471 64.7626 4.61868 65.283 4.6275C65.8386 4.63632 66.2267 4.28353 66.2355 3.75435L66.2561 2.5196L66.6206 2.52548V2.33145H66.6324V2.33439Z" fill="#09090B"/>
<path d="M70.6247 3.3369L70.9775 3.43097L71.0275 3.24282L70.0809 2.98999L70.0279 3.17814L70.3866 3.27222L70.025 4.62163L69.1136 2.73128L68.5051 2.56665L68.4551 2.7548L68.7844 2.843L68.8461 2.99293L68.3934 4.68336L68.0376 4.58929L67.9906 4.76568L68.9402 5.01851L68.9872 4.84506L68.6286 4.74804L69.0019 3.35748L69.9397 5.3272L70.0809 5.36542L70.6247 3.3369Z" fill="#09090B"/>
<path d="M72.7943 6.36203L72.4709 6.19151L73.3529 4.53048L73.6763 4.70099L73.7674 4.53048L72.7943 4.01306L72.7032 4.18358L73.0266 4.35703L72.1446 6.01512L71.8212 5.84461L71.736 6.00336L72.7091 6.52078L72.7943 6.36203Z" fill="#09090B"/>
<path d="M76.4369 6.55902L76.6015 6.6825L76.7191 6.52668L76.1517 6.1004L76.0341 6.25621L76.2575 6.42379L74.8581 7.25871L75.2638 5.67412L75.5078 5.85933L75.6254 5.70351L74.8699 5.13318L74.7523 5.28899L74.9434 5.43305L74.3701 7.65559L74.4642 7.72615L76.4369 6.55902Z" fill="#09090B"/>
<path d="M77.6893 10.1279L77.5688 9.99271L77.3777 10.1662L76.822 9.54879L77.4571 8.97845L77.8745 9.44295L77.6922 9.60465L77.8128 9.73988L78.3184 9.28714L78.195 9.15484L78.0186 9.31066L77.6011 8.84616L78.2067 8.30228L78.7418 8.89614L78.5536 9.06665L78.6712 9.196L79.0769 8.83146L78.9564 8.69622L78.8858 8.76384L77.8598 7.62317L77.7246 7.7437L77.9686 8.01711L76.5633 9.2842L76.3164 9.01079L76.1812 9.13133L77.3512 10.4308L77.6893 10.1279Z" fill="#09090B"/>
<path d="M79.8412 14.7965C79.7971 15.0111 79.8 15.1934 79.8588 15.3727C79.9852 15.7579 80.3439 15.9607 80.6908 15.846C80.9936 15.749 81.1053 15.5873 81.1965 15.117C81.22 15.0023 81.2494 14.87 81.2788 14.726C81.3199 14.5378 81.3699 14.4643 81.4905 14.4261C81.6815 14.3643 81.8491 14.4702 81.9197 14.6877C81.9608 14.8142 81.9638 14.9053 81.9256 15.117L81.6933 15.1934L81.7492 15.3639L82.3048 15.1816L82.2489 15.0111L82.1343 15.0493C82.1637 14.8906 82.1549 14.7465 82.1049 14.5907C81.9844 14.2203 81.6257 14.0116 81.2905 14.1203C81.0171 14.2085 80.8995 14.4026 80.829 14.8759C80.7584 15.3257 80.6791 15.4903 80.5027 15.5462C80.3204 15.605 80.1381 15.4815 80.0617 15.2493C80.0088 15.0905 80.0088 14.9494 80.0617 14.726L80.3027 14.6466L80.2469 14.4761L79.6677 14.6642L79.7236 14.8347L79.8441 14.7965H79.8412Z" fill="#09090B"/>
<path d="M80.7526 18.4243L80.6997 18.0598L82.5606 17.7982L82.6136 18.1627L82.8076 18.1333L82.6518 17.0426L82.4607 17.0691L82.5107 17.4307L80.6497 17.6923L80.5968 17.3307L80.4204 17.3572L80.5733 18.4479L80.7526 18.4243Z" fill="#09090B"/>
<path d="M80.7909 21.2701L80.8056 20.8556L82.6842 20.9203L82.6607 21.6317L82.3873 21.6229L82.3814 21.8052L82.9458 21.8228L82.9547 21.6435L82.8547 21.6406L82.9194 19.8443L83.0164 19.8472L83.0223 19.6738L82.4578 19.6532L82.449 19.8296L82.7224 19.8384L82.6989 20.5499L80.8203 20.4852L80.835 20.0707L80.6527 20.0648L80.6116 21.2643L80.7909 21.2701Z" fill="#09090B"/>
<path d="M80.0823 24.9215L80.1323 24.7187L82.4342 24.3659L82.4636 24.2424L80.6056 22.8136L80.6497 22.6343L80.4733 22.5902L80.3086 23.2546L80.485 23.2987L80.5497 23.0341L81.0113 23.384L80.7967 24.2454L80.2263 24.3306L80.2792 24.1219L80.1029 24.0778L79.9059 24.8745L80.0793 24.9215H80.0823ZM82.8046 25.1214C82.9457 25.1567 83.0898 25.0685 83.1221 24.9333C83.1574 24.7922 83.0721 24.6481 82.931 24.6128C82.7958 24.5805 82.6517 24.6658 82.6164 24.8069C82.5812 24.9421 82.6694 25.0862 82.8046 25.1185V25.1214ZM83.0133 24.2865C83.1544 24.3218 83.2985 24.2336 83.3308 24.0984C83.3661 23.9602 83.2779 23.8132 83.1398 23.7809C83.0045 23.7456 82.8605 23.8338 82.8252 23.9749C82.7928 24.1101 82.8781 24.2542 83.0133 24.2865ZM81.1788 23.5133L81.9226 24.0807L81.0025 24.2189L81.1788 23.5133Z" fill="#09090B"/>
<path d="M79.0681 27.2852L79.2415 26.9089L80.9467 27.7056L80.6438 28.3494L80.3969 28.2347L80.3205 28.3994L80.832 28.6375L80.9084 28.4758L80.8202 28.4347L81.5817 26.803L81.6699 26.8471L81.7434 26.6854L81.2289 26.4473L81.1554 26.6061L81.4023 26.7207L81.1025 27.3675L79.3973 26.5737L79.5737 26.1974L79.4091 26.121L78.9034 27.2087L79.0681 27.2852Z" fill="#09090B"/>
<path d="M79.4326 13.4677L79.365 13.3501C79.312 13.256 79.3179 13.1472 79.3826 13.0149L79.7383 12.2946C79.9471 12.5475 80.2528 12.6033 80.538 12.4446C80.8819 12.2505 80.9407 11.9272 80.7085 11.5156L80.144 10.5101L79.9735 10.6042L80.1528 10.9247L78.5153 11.8448L78.336 11.5244L78.1772 11.6126L78.7182 12.5739L78.874 12.4857L78.6947 12.1653L79.4002 11.7684L79.5178 11.9771L79.0886 12.8179C78.9857 13.0149 78.9887 13.059 79.0945 13.2472L79.2709 13.5588L79.4296 13.4706H79.4326V13.4677ZM80.3381 11.2422L80.5056 11.5391C80.6291 11.7596 80.5644 11.9536 80.3263 12.0888C80.0911 12.2211 79.8618 12.177 79.7471 11.9713L79.5766 11.6684L80.3381 11.2392V11.2422Z" fill="#09090B"/>
<path d="M69.0725 12.7974C69.0548 12.7886 68.6197 12.6033 68.558 12.5886C68.5286 12.5828 68.3081 12.4299 68.1494 12.3182C67.9612 12.1859 67.8759 12.13 67.8554 12.1241C67.8201 12.1153 67.6261 12.0213 67.529 11.9742L67.044 11.6626L66.5589 11.3069C66.5589 11.3069 66.4648 11.2334 66.359 11.2069C66.356 11.2069 66.065 11.1011 65.6946 11.1364C65.4711 11.1657 64.8861 11.2392 64.8626 11.2392C64.8361 11.2392 64.2687 11.3539 64.2305 11.3774C64.2246 11.3804 63.766 11.6685 63.619 11.7567H63.6131L63.5543 12.0918L63.5925 12.0536C63.5925 12.0536 63.9924 11.6596 64.3657 11.545C64.3746 11.545 65.1742 11.3539 65.7298 11.3833C65.7357 11.3833 66.3002 11.3951 66.7118 11.7008L67.0792 12.0066L67.6143 12.2858C67.6143 12.2858 68.0171 12.6092 68.902 12.9679C68.9078 12.9679 69.3812 13.1502 69.6487 13.4148L69.6722 13.4383L69.6781 13.4059C69.7251 13.1472 69.1019 12.8121 69.0754 12.7974H69.0725Z" fill="#09090B"/>
<path d="M71.295 15.358L71.2068 14.8377L71.148 14.526L71.0451 14.1703C70.9217 13.7205 70.7365 13.4177 70.4983 13.1061C70.4954 13.0972 70.4101 12.9062 70.075 12.6181C70.0485 12.5945 70.0162 12.5651 69.9809 12.5328C69.8633 12.4211 69.684 12.2535 69.4488 12.1183C69.3929 12.083 68.8843 11.7772 68.852 11.7655C68.8402 11.7625 68.8079 11.7508 68.7667 11.7361C68.6638 11.6979 68.508 11.642 68.4639 11.6332C68.3493 11.6038 68.2199 11.5862 68.1405 11.5773L68.1993 11.5597L68.0406 11.5685V11.5744C68.0406 11.5744 68.0229 11.5891 68.0229 11.6038C68.0229 11.6302 68.0553 11.6685 68.2787 11.7273C68.3316 11.742 68.8079 11.9184 68.8079 11.9184C68.8138 11.9213 69.3812 12.2653 69.4753 12.327C69.4811 12.3299 69.9339 12.671 70.2308 13.1208C70.2337 13.1266 70.6189 13.6176 70.8335 14.4996L71.1069 15.2639L71.4009 15.7902L71.298 15.361L71.295 15.358Z" fill="#09090B"/>
<path d="M72.1358 17.607C72.1093 17.3983 72.0741 17.1396 72.0476 16.9867C72.0123 16.7633 71.88 16.3546 71.7654 16.1635C71.6566 15.9783 71.4038 15.799 71.395 15.7902L71.345 15.7549L71.5419 16.2164C71.5419 16.2164 71.786 16.7162 71.93 17.9039L71.833 18.9505L71.7213 19.3327C71.6831 19.6943 71.6831 19.6973 71.7036 19.7002H71.7183C71.7183 19.7002 71.9653 19.468 72.0241 19.2063C72.027 19.1887 72.1093 18.7771 72.1211 18.6801C72.1211 18.6742 72.1975 18.0597 72.1711 17.8687C72.1623 17.8099 72.1505 17.7158 72.1358 17.6099V17.607Z" fill="#09090B"/>
<path d="M73.8968 23.2987C73.6969 23.137 73.7498 22.9606 73.7527 22.9488L73.8174 22.1962C73.8233 21.8229 73.6616 21.5083 73.6616 21.5083C73.6087 21.329 73.3294 21.1996 73.3147 21.1937C73.15 21.1584 72.9237 21.1555 72.8384 21.1555H72.8031C72.3622 21.182 72.2416 21.2466 72.1828 21.279C72.1564 21.2937 72.1505 21.2937 72.1358 21.2907C72.1358 21.2849 72.1446 21.2555 72.1534 21.2319C72.1799 21.1673 72.2211 21.0585 72.1975 20.9203C72.1035 20.6704 72.1093 20.4117 72.1093 20.3735L72.4386 19.909C72.8972 19.0946 72.8267 18.0951 72.8237 18.0863C72.7061 16.3723 72.3769 15.4374 72.3739 15.4286C71.9035 13.9058 71.1803 12.5299 71.1715 12.5152C70.2425 11.0188 68.2287 10.7278 68.211 10.7248C67.2291 10.5249 65.524 10.5955 65.5064 10.5955C64.6303 10.6631 64.1217 10.8836 64.1187 10.8865C64.1099 10.8894 63.3308 11.1952 63.0045 11.7126C62.9986 11.7244 62.9516 11.839 62.9281 11.9272C62.8663 11.9772 62.6047 12.1448 62.2343 11.9008C61.905 11.7538 61.8492 11.1099 61.8492 11.0982C61.8492 11.0982 61.7668 10.863 61.5228 10.8571C60.7202 10.7366 60.2704 11.0335 60.2646 11.0394C60.2469 11.0541 59.8412 11.3686 59.706 11.692C59.6295 11.7009 59.1944 11.7743 58.7329 12.474L58.336 12.9503L57.8039 13.4148V13.4207C57.7921 13.4383 57.5804 13.847 57.7127 14.6495C57.7304 14.7201 57.8833 14.8348 58.1831 15.0023C58.189 15.0053 58.1919 15.0082 58.1978 15.0112C58.2478 15.0905 58.2419 15.9284 58.1243 16.1283C58.1155 16.143 57.9685 16.5105 57.942 16.581L57.7539 16.8897C57.7363 16.9044 57.6422 17.0073 57.6481 17.2984V17.5395C57.6481 17.5395 57.6187 17.8864 57.4952 18.048L57.113 18.5625L56.769 19.0682C56.769 19.0682 56.5427 19.4857 56.478 19.5738C56.4633 19.5915 56.4457 19.615 56.4192 19.6444C56.3251 19.7532 56.1811 19.9208 56.1575 20.1148C56.1575 20.1265 56.1487 20.3882 56.3251 20.5646C56.4251 20.6645 56.5632 20.7145 56.7338 20.7145H56.7573L56.9366 20.7086C56.9366 20.7086 56.9366 20.7175 56.9425 20.7204C56.9425 20.7498 56.9484 20.8204 56.9513 20.8674L56.9689 21.0203L56.9513 21.3319C56.9513 21.3319 56.8837 21.5906 56.9572 21.7111C56.9572 21.7111 57.0336 21.7876 57.0278 21.8581L56.9866 22.0081L56.9543 22.108C56.9484 22.1374 56.8984 22.3873 57.0101 22.4373L57.1512 22.5108C57.1512 22.5108 57.3276 22.6695 57.2482 22.8254L57.113 23.0635C57.113 23.0635 56.9807 23.2164 56.9543 23.4045C56.9543 23.4104 56.8631 23.8484 57.113 24.2247C57.2865 24.4864 57.5804 24.6569 57.9832 24.7304L58.7652 24.8274L59.6325 24.9862C59.6325 24.9862 59.8735 25.0508 59.8677 25.3595L59.8589 25.4889C59.8589 25.4889 59.8736 25.7182 59.9794 25.9122L60.1705 26.3267L60.3763 26.7031L60.5821 27.2028C60.5821 27.2028 60.7585 27.6526 60.7526 28.1906L60.7144 29.2137V29.2314L60.9966 29.2372H61.0142L61.0289 27.8143C61.0289 27.8143 60.9613 27.2587 60.7349 26.8442L60.5615 26.4826L60.3028 26.0357C60.3028 26.0357 60.1176 25.6829 60.0823 25.1949L60.0911 24.9156C60.1705 24.8891 60.6438 24.7304 61.0995 24.5187C61.1524 24.4952 61.8903 24.0101 62.1784 23.7955C62.7635 23.3016 62.9222 23.1693 62.9575 23.1282C63.0163 23.0811 63.4367 22.7254 63.5837 22.4931H63.7101C63.7101 22.4931 63.7189 22.4873 63.7219 22.4873C63.7513 22.4873 63.7748 22.4961 63.7983 22.5167C63.9129 22.6166 63.9306 22.9253 63.9306 22.9312L64.498 25.4301L63.7807 26.5002L63.0133 28.2935L62.4018 30.4749L62.396 30.4955H62.8017V30.4779C62.8252 28.708 64.1834 26.2768 64.1981 26.2562L65.4799 24.4805L66.9263 22.9047L68.1875 21.5877C68.2287 21.5583 69.2194 20.8909 69.3341 20.7939C69.3635 20.7763 69.3929 20.7733 69.4193 20.7851C69.4928 20.8174 69.5281 20.9526 69.5311 20.9585C69.6516 21.1908 69.6986 21.4201 69.7016 21.423C69.8221 21.8023 69.7839 21.9287 69.7515 21.9669C69.731 21.9904 69.7045 21.9904 69.7075 21.9904C69.2724 22.0492 69.0724 22.3726 69.0724 22.3756C68.8255 22.7666 68.8902 23.2134 68.9225 23.3604C68.9166 23.3692 68.9137 23.3781 68.9107 23.3869C68.8872 23.3869 68.8608 23.3839 68.8372 23.3839C68.311 23.3839 68.1493 23.7926 68.1493 23.7955C67.7848 24.4864 68.0699 25.1714 68.0729 25.1743C68.0729 25.1802 68.164 25.6271 68.1434 25.9504C68.1434 26.0034 68.1229 26.4561 68.3198 26.5649C68.4668 26.6737 68.5932 26.706 68.6285 26.7148C68.6491 26.753 68.749 26.9235 68.896 26.9412C68.9107 26.9412 68.9254 26.9441 68.9401 26.9441C69.1077 26.9441 69.2694 26.8206 69.4193 26.5766C69.4252 26.5649 69.4311 26.5561 69.434 26.5561C69.4517 26.5384 69.7898 26.2297 69.7927 26.2297C69.7927 26.2297 69.9809 26.1092 70.2366 26.168C70.269 26.1739 70.5512 26.1533 70.6071 26.1504C70.8746 26.1357 71.0157 25.9357 71.0716 25.8328C71.0921 26.0357 71.1921 26.6413 71.6625 26.8001C71.6184 26.8794 71.6213 27 71.6213 27.0206C71.5096 27.5027 71.8624 27.7438 71.8653 27.7467C72.6179 28.2053 73.3882 27.7702 73.3941 27.7673C73.8497 27.5086 73.8791 26.8647 73.8791 26.8589C73.9321 26.3444 73.8733 26.0386 73.8733 26.0357V26.0298C73.4646 25.383 73.8791 24.9274 73.8821 24.9215C74.0261 24.7921 74.1261 24.5334 74.1731 24.1571C74.229 23.5368 73.9203 23.3134 73.9056 23.3046L73.8968 23.2987ZM73.4764 26.0034C73.6528 26.2915 73.5646 26.9177 73.5646 26.9235C73.4646 27.441 73.0207 27.6056 72.8325 27.6497C72.4621 27.7438 72.077 27.6497 71.8977 27.4292C71.7977 27.3028 71.7683 27.144 71.8065 26.9647C71.8124 26.9529 71.8183 26.9441 71.8212 26.9265C71.8712 26.7766 71.9653 26.4914 72.6032 26.4443C72.712 26.4443 72.9325 26.6296 72.9354 26.7501C72.9354 26.806 72.8855 26.8353 72.7855 26.8412H72.762C72.7179 26.8412 72.6797 26.8353 72.6767 26.8353C72.6062 26.8353 72.5621 26.8559 72.5415 26.8883C72.5209 26.9206 72.5356 26.9588 72.5356 26.9588C72.5356 26.9647 72.5944 27.097 72.8178 27.097H72.8943C72.9472 27.097 73.0001 27.0911 73.0177 27.0852C73.2412 27.0206 73.2206 26.6884 73.2177 26.6766C73.2059 26.4561 72.9854 26.3267 72.9766 26.3209L72.7267 26.1798L72.5679 26.1651L72.2945 26.2003C71.9741 26.268 71.8212 26.5002 71.7624 26.6237C71.4008 26.3326 71.3655 26.0916 71.3655 26.0857L71.2215 25.6741C71.2479 25.6271 71.2832 25.5594 71.3332 25.4683L71.4626 25.5124C71.4626 25.5124 71.7918 25.5888 72.1211 25.5888C72.1652 25.5888 72.2093 25.5888 72.2504 25.583C72.2828 25.583 72.6209 25.5506 72.6326 25.5506L72.8561 25.5624C72.8561 25.5624 73.2235 25.6359 73.3529 25.7888L73.4293 25.9122C73.4499 25.971 73.4676 26.0092 73.4676 26.0151L73.4764 26.0034ZM68.3639 25.3683V25.3625C68.3639 25.3625 68.358 25.2949 68.4168 25.2331C68.4786 25.1626 68.5903 25.1243 68.7432 25.1185C68.752 25.1185 68.9401 25.1214 69.0078 25.289V25.2949C69.0078 25.2949 69.1254 25.4036 69.143 25.5418C69.0813 25.5477 68.8608 25.58 68.6756 25.7094C68.5433 25.8035 68.4551 25.9328 68.4021 26.021C68.3551 25.8211 68.3433 25.6124 68.3375 25.4624L68.3639 25.3742V25.3683ZM68.802 25.8534C68.949 25.7652 69.1283 25.7417 69.2694 25.8005L69.5134 26.0092C69.5075 26.1004 69.4723 26.2591 69.2812 26.3708L69.2753 26.3767C69.1312 26.5649 68.9931 26.6619 68.8784 26.6619H68.8666C68.7608 26.656 68.7079 26.5678 68.705 26.5678L68.6991 26.5619C68.6403 26.5237 68.5932 26.4679 68.5521 26.4061C68.5462 26.2797 68.5609 26.0034 68.799 25.8564H68.802V25.8534ZM69.6604 25.8505L69.4723 25.7388C69.4723 25.7388 69.4282 25.7094 69.4135 25.6653L69.2312 25.2537C69.2224 25.239 68.9931 24.9538 68.8255 24.9391H68.7873C68.6932 24.9391 68.6432 24.945 68.6197 24.9509H68.6021C68.5815 24.9509 68.4257 25.0067 68.3522 25.0303H68.2199C68.0935 24.7216 68.2022 24.407 68.264 24.2688C68.3022 24.2277 68.3492 24.1895 68.4139 24.1718C68.508 24.1454 68.6168 24.1777 68.7285 24.263L69.046 24.5922L69.2518 24.848C69.2841 24.9009 69.5752 25.3536 69.6751 25.4036C69.6751 25.4036 69.6957 25.4124 69.7045 25.4124C69.7163 25.4124 69.7251 25.4066 69.731 25.4007C69.7751 25.3507 69.681 25.139 69.5987 25.0126C69.5722 24.9715 69.5428 24.9215 69.5075 24.8597C69.3929 24.6657 69.2371 24.4011 69.0724 24.2394C69.0519 24.2189 69.0313 24.1983 69.0107 24.1806C68.8402 24.0101 68.6961 23.8778 68.4639 23.8308C68.6373 23.6309 68.8931 23.5809 69.0225 23.5691L69.1783 23.6485L69.2988 23.7485L69.4458 23.9278L69.5516 24.0836L69.6751 24.3982L69.7457 24.6393L69.8486 24.8568L70.072 25.1802L70.0779 25.1861C70.1514 25.2331 70.2249 25.2566 70.3013 25.2566C70.3336 25.2566 70.363 25.2508 70.3954 25.2449C70.5512 25.2037 70.6688 25.0626 70.7246 24.9479C70.9716 24.454 70.2131 23.3575 70.1514 23.2722C70.1014 22.7901 70.4424 22.3109 70.5365 22.1845C70.7011 22.1815 70.8452 22.1698 70.9745 22.1551V22.2256L70.9304 22.5608C70.9157 22.6137 70.8687 22.7548 70.8217 22.793C70.8158 22.8018 70.6541 23.0341 70.6159 23.2781C70.6159 23.2987 70.6159 23.4839 70.657 23.5456C70.8217 23.7544 71.0863 24.0983 71.1039 24.1483V24.1542C71.1892 24.8039 71.1274 24.9362 70.9598 25.2831C70.9187 25.3683 70.8716 25.4712 70.8187 25.5918L70.6482 25.7594C70.4895 25.9563 70.1043 25.9593 70.1014 25.9593L69.731 25.9299C69.7104 25.9093 69.6839 25.8828 69.6575 25.8534H69.6604V25.8505ZM69.1195 23.1105C69.1224 22.89 69.2606 22.5872 69.2723 22.5608C69.4928 22.305 69.7045 22.2668 69.7045 22.2668C69.8103 22.2609 69.8868 22.2256 69.9426 22.1668C70.0485 22.1727 70.1426 22.1756 70.2396 22.1756C70.1514 22.2932 69.5987 23.0547 69.9985 23.5838C70.2984 23.9807 70.5924 24.5187 70.5483 24.7333C70.5394 24.7716 70.5247 24.7951 70.4953 24.8098H70.4895C70.3895 24.9244 70.3042 24.9715 70.2337 24.9538C70.1278 24.9274 70.0896 24.7657 70.0867 24.7598L69.9279 24.457L69.828 24.1189C69.8074 24.0307 69.6281 23.7955 69.6193 23.7838L69.5222 23.6691L69.434 23.5927L69.3076 23.4427L69.2047 23.3634L69.1342 23.3163C69.1342 23.3163 69.1195 23.3104 69.1107 23.3075V23.1076H69.1195V23.1105ZM57.2541 21.8787C57.2894 21.8376 57.3511 21.7964 57.4246 21.8258C57.4482 21.8434 57.5746 21.9375 57.6216 21.9375C57.6216 21.9375 57.7157 21.9375 57.8744 21.9257C57.9274 21.9257 57.9509 21.9022 57.9626 21.8817C57.9861 21.8405 57.9715 21.7846 57.9509 21.7523C57.9362 21.7288 57.9185 21.717 57.9009 21.717C57.848 21.717 57.6804 21.7288 57.6804 21.7288H57.6745L57.6686 21.7347C57.6686 21.7347 57.6569 21.7405 57.6392 21.7405C57.6157 21.7376 57.5657 21.7141 57.4952 21.6053C57.4805 21.5788 57.4305 21.5406 57.3923 21.5318C57.3717 21.5259 57.3394 21.523 57.2835 21.5171L57.2306 21.5112C57.2041 21.5112 57.1836 21.4965 57.1718 21.4818C57.1483 21.4495 57.16 21.4025 57.16 21.4025L57.1894 21.2437C57.1894 21.2261 57.2806 20.8615 57.1894 20.6704C57.1983 20.6763 57.21 20.6822 57.2247 20.6881L57.4658 20.7263L57.7745 20.8527C57.7745 20.8527 57.9362 20.9115 58.2419 20.7175L58.2507 20.7116V20.7028C58.2302 20.4441 57.9891 20.0942 57.9803 20.0795L57.9656 20.0589L57.8921 20.1648V20.1736C57.8921 20.1736 57.9597 20.3353 57.9803 20.3882C58.0302 20.5264 58.0449 20.591 58.0332 20.6175C58.0244 20.6351 58.0038 20.641 57.9656 20.6528H57.9538C57.8597 20.6851 57.6833 20.7145 57.5775 20.5646L57.5716 20.5587C57.5716 20.5587 57.3805 20.447 57.1159 20.4088C57.1159 20.4088 56.7984 20.4411 56.7132 20.444C56.5603 20.4499 56.4604 20.4264 56.4074 20.3735C56.3516 20.3147 56.3575 20.2324 56.3633 20.1501C56.3633 20.1177 56.3633 20.0883 56.3633 20.0619C56.3898 20.0119 56.6426 19.5738 56.8337 19.3769L56.9543 19.2211L57.2982 18.6331L57.5775 18.2774C57.5775 18.2774 57.898 17.9481 57.8891 17.6864L57.9097 17.3513V17.3454C57.9097 17.3454 57.8774 17.1661 57.9832 16.9691L58.1331 16.681L58.289 16.2606L58.3919 15.8461L58.4418 15.2757V15.1964C58.5006 15.0994 58.6417 14.8642 58.6682 14.6936C58.7005 14.4879 58.9063 14.2997 59.0857 14.2115C59.1856 14.1645 59.2768 14.1262 59.3444 14.0998C59.4032 14.0763 59.4443 14.0586 59.459 14.0469C59.459 14.0469 59.5119 13.9763 59.4914 13.9175C59.4767 13.8793 59.4384 13.8558 59.3767 13.844H59.3708C59.3238 13.844 59.1209 13.9469 59.0445 13.9881C58.9004 14.0645 58.7593 14.1586 58.6564 14.2468C58.5976 14.2968 58.5447 14.382 58.4918 14.4643C58.4565 14.5231 58.4213 14.5761 58.386 14.6202L58.3772 14.629C58.3242 14.6907 58.2948 14.723 58.2243 14.7495C58.0302 14.6642 57.898 14.5525 57.8891 14.4614C57.8891 14.4585 57.8891 14.138 57.8803 14.0322C57.8744 13.9234 57.8862 13.6853 58.0155 13.4795C58.0596 13.5118 58.1184 13.5353 58.2066 13.5412H58.2684C58.5447 13.5412 58.924 13.4207 59.1356 13.2002C59.2973 13.0326 59.5531 13.0091 59.7119 13.012C59.6942 13.0326 59.6766 13.0561 59.6678 13.0708C59.6237 13.1414 59.5061 13.5089 59.556 13.5912C59.5678 13.6118 59.5825 13.6441 59.5972 13.6823C59.6413 13.7882 59.6972 13.9205 59.7824 13.9205C59.7942 13.9205 59.8059 13.9146 59.8148 13.9058C59.8383 13.8764 59.8265 13.8087 59.8059 13.7088C59.7795 13.5706 59.7442 13.3766 59.8148 13.256C60.0264 12.8974 60.4409 12.574 60.7408 12.4358C61.1259 12.2624 61.4111 12.2212 61.5846 12.3123C61.7286 12.3888 61.8844 12.5622 62.0079 12.7033C62.0667 12.771 62.1226 12.8327 62.1696 12.8768C62.2549 12.9562 62.4048 12.9885 62.5224 13.0032C62.493 13.0826 62.4606 13.1767 62.4254 13.2884C62.3254 13.2796 62.1637 13.2766 61.9961 13.3031C61.8433 13.1561 61.3494 12.721 61.0289 12.865C60.685 13.0179 60.4233 13.2296 60.3322 13.3207C60.2734 13.3795 60.1734 13.5353 60.1881 13.6C60.1881 13.6147 60.1999 13.6265 60.2146 13.6324H60.2293C60.3057 13.6324 60.4733 13.4765 60.5233 13.4266C60.5233 13.4236 60.9201 13.0914 61.1612 13.0914C61.3582 13.0914 61.6287 13.2825 61.7316 13.3707C61.6963 13.3854 61.661 13.4001 61.6287 13.4207C61.3905 13.5706 61.2876 13.6853 61.2141 13.7676C61.1936 13.7911 61.1759 13.8117 61.1583 13.8293L61.1436 13.844C60.9672 14.0263 60.8378 14.1204 60.7585 14.1204C60.6703 14.1204 60.5027 14.0381 60.3674 13.9734C60.2998 13.941 60.2381 13.9116 60.2028 13.8999C60.1146 13.8705 60.0088 13.8881 59.8853 13.9499C59.8206 13.9822 59.7354 14.0439 59.706 14.1174C59.7001 14.1292 59.706 14.138 59.706 14.1468C59.7295 14.1762 59.8118 14.1762 59.9941 14.1586C60.0382 14.1556 60.0764 14.1527 60.097 14.1527C60.1499 14.1527 60.3234 14.2409 60.4645 14.3115C60.538 14.3497 60.6085 14.385 60.6556 14.4055C60.6761 14.4144 60.6997 14.4202 60.7232 14.4202C60.9084 14.4202 61.1847 14.1968 61.2171 14.1674C61.2524 14.138 61.2906 14.088 61.3406 14.0204C61.4523 13.8734 61.6051 13.6735 61.8492 13.5442C62.0491 13.4413 62.2284 13.456 62.343 13.4883C62.3107 13.5706 62.2725 13.6676 62.2402 13.747C62.2313 13.7823 62.2225 13.8146 62.2137 13.8499C62.1667 13.8793 62.1079 13.9205 62.0344 13.994C61.7169 14.2997 61.317 14.5055 61.1054 14.6025C61.0965 14.6084 61.0907 14.6084 61.0877 14.6113C60.9113 14.723 60.4027 14.6172 60.2175 14.5555C60.1999 14.5496 60.1881 14.5555 60.1822 14.5614C60.1764 14.5672 60.1705 14.5761 60.1764 14.5966C60.1969 14.6642 60.3469 14.8171 60.5997 14.8612C60.5997 14.8612 60.6908 14.8759 60.8231 14.8759C61.0319 14.8759 61.3523 14.8377 61.6051 14.6407L62.099 14.2674C62.0932 14.285 62.0873 14.3056 62.0873 14.3115C62.0579 14.3644 61.8521 14.8553 61.8286 14.9141C61.7433 15.361 61.6022 15.5874 61.6022 15.5874L60.4115 17.4072C60.2734 17.66 60.2616 17.9128 60.294 18.0128C60.3322 18.1304 60.3674 18.2009 60.4968 18.2009C60.5556 18.2009 60.635 18.2068 60.7085 18.2127C60.7702 18.2186 60.832 18.2244 60.8702 18.2244H60.8878C61.0701 18.2244 61.0848 18.3685 61.0848 18.3714C61.0848 18.392 61.0907 18.9124 61.0965 18.9565C61.1024 19.0094 61.1112 19.274 61.1112 19.2769C61.1112 19.2769 61.0995 19.4592 61.3259 19.5503C61.3435 19.5827 61.3317 19.6326 61.2847 19.7061C61.2671 19.7414 61.2083 20.056 61.22 20.0913C61.22 20.0971 61.22 20.103 61.2259 20.1089C61.2318 20.1383 61.2435 20.1795 61.3141 20.2118C61.5434 20.3118 61.5463 20.4705 61.5463 20.4764V20.4823C61.5787 20.5528 61.4376 20.838 61.3435 21.0026C61.1936 21.2378 61.2612 21.9169 61.2671 21.9493C61.3494 22.2785 61.9756 22.405 62.005 22.4108C62.6194 22.4373 63.0604 22.502 63.0692 22.502L63.2427 22.4961C63.225 22.5137 63.2103 22.5255 63.1927 22.5431L62.0755 23.4839C62.0755 23.4839 60.7937 24.6745 59.7618 24.6745H59.703C59.6825 24.6745 59.5325 24.6628 59.3855 24.651C59.218 24.6363 59.1121 24.6304 59.1033 24.6304C59.1033 24.6304 59.0798 24.6246 59.0533 24.6216C58.9328 24.5981 58.6123 24.5305 58.3301 24.5217C57.6451 24.5217 57.2218 24.2512 57.1718 23.7779C57.1159 23.4427 57.1806 23.2781 57.1865 23.2575C57.2159 23.2252 57.5099 22.8959 57.5069 22.7519C57.5069 22.7401 57.4393 22.4461 57.3394 22.3609L57.3335 22.355H57.3247C57.2424 22.3785 57.1865 22.355 57.1542 22.3021C57.0924 22.2021 57.1248 21.9934 57.2188 21.8846L57.2482 21.8787H57.2541ZM72.5738 18.5596C72.515 19.565 72.0858 19.9443 71.9565 20.0354C71.9506 20.0383 71.9476 20.0442 71.9447 20.0472V20.053C71.9212 20.0736 71.8947 20.0942 71.8683 20.1177C71.7771 20.203 71.6772 20.2971 71.5096 20.3764C71.4802 20.3911 71.4508 20.4058 71.4214 20.4205C71.3949 20.4323 71.3685 20.447 71.3361 20.4617C71.2538 20.4264 71.145 20.3706 71.0598 20.2853C71.1274 20.1589 71.2479 19.8884 71.1686 19.715C71.098 19.5621 71.0363 19.471 70.9892 19.4063C70.9687 19.3769 70.9481 19.3475 70.9334 19.324C70.9187 19.2975 70.9069 19.2005 70.8981 19.0976C70.8775 18.9006 70.8511 18.6566 70.7687 18.5419C70.6012 18.3009 70.2778 18.0598 70.119 17.9834C70.0367 17.9452 69.9015 17.954 69.7927 17.9628C69.7221 17.9687 69.6428 17.9746 69.6251 17.9569C69.6251 17.7011 69.3664 16.9779 69.1224 16.7398C69.0519 16.6692 68.752 16.6193 68.6285 16.6575C68.5139 16.6928 68.2022 16.7163 68.1317 16.6104C68.1229 16.5987 68.117 16.5869 68.1082 16.5752C68.0964 16.5575 68.0876 16.5399 68.0758 16.5193C68.067 16.5017 68.0552 16.4811 68.0435 16.4635C68.0435 16.4576 68.0347 16.4488 68.0347 16.4458C68.0347 16.4164 67.7436 15.555 67.6525 15.2904C67.5231 15.0406 67.3467 14.9906 67.1762 14.9406C66.9998 14.8906 66.7441 14.7877 66.6176 14.6966C66.5677 14.6613 66.5441 14.5261 66.5206 14.385C66.4883 14.185 66.4471 13.9557 66.3207 13.8323C66.1002 13.6177 65.2153 13.5383 65.18 13.5353C65.1595 13.5353 65.0977 13.5265 65.0389 13.5295C65.0448 13.4971 65.0477 13.4736 65.0477 13.4736L65.0801 13.1972C65.1595 13.2119 65.2712 13.2237 65.3917 13.2031C65.5799 13.1708 65.9238 13.112 66.1737 13.1296C66.356 13.1443 66.4706 13.2707 66.6206 13.4295C66.6617 13.4736 66.7029 13.5177 66.7499 13.5647C66.844 13.6588 66.9293 13.8234 67.0204 13.9969C67.1439 14.235 67.285 14.5055 67.4849 14.6848C67.7613 14.9347 68.1581 15.1023 68.3963 15.2022C68.4551 15.2287 68.505 15.2463 68.5344 15.264C68.6168 15.3051 68.6285 15.3639 68.6579 15.4904C68.6756 15.5697 68.6991 15.6756 68.7461 15.8167C68.8843 16.2136 69.0989 16.3988 69.29 16.5252C69.4017 16.5987 69.6604 16.6898 69.9132 16.778C70.1572 16.8633 70.413 16.9515 70.4924 17.0162C70.5777 17.0838 70.6012 17.2161 70.6276 17.3572C70.6482 17.4748 70.6688 17.5953 70.7276 17.6894C70.8099 17.8187 71.0157 17.9834 71.2009 18.1304C71.3067 18.2127 71.4038 18.2921 71.4655 18.3538C71.5537 18.442 71.5978 18.5802 71.6331 18.6801C71.6566 18.7566 71.6713 18.7977 71.6977 18.8065H71.7036C71.7036 18.8065 71.7183 18.8065 71.7271 18.7948C71.7801 18.7419 71.7507 18.5625 71.6889 18.3156C71.6683 18.2274 71.5272 18.098 71.3655 17.9481C71.3391 17.9246 71.3126 17.8981 71.2832 17.8717C71.3597 17.7864 71.4626 17.6453 71.4743 17.463C71.492 17.1778 71.3832 16.7604 71.2333 16.5487C71.0833 16.34 70.904 16.1107 70.6217 16.0166C70.5571 15.996 70.5071 15.9813 70.4689 15.9696C70.3366 15.9313 70.3131 15.9225 70.2043 15.8079C70.0661 15.6638 69.9191 14.9935 69.8721 14.4849C69.8397 14.1439 69.6869 13.9998 69.4693 13.8911C69.3458 13.8293 69.1048 13.7705 68.849 13.7058C68.6403 13.6529 68.4227 13.6 68.2581 13.5412C68.0141 13.456 67.5466 13.1326 67.2056 12.9003C67.0322 12.7798 66.8793 12.6769 66.794 12.6269C66.5265 12.474 65.424 12.2771 65.1859 12.3682C65.0624 12.4152 65.0007 12.4946 64.9713 12.5622C64.9301 12.4887 64.8919 12.4652 64.8802 12.4593C64.8067 12.4005 64.5774 12.3241 64.5656 12.3212C64.548 12.3153 64.5274 12.3123 64.5097 12.3065C64.5744 12.2565 64.6685 12.1889 64.7626 12.133C64.936 12.0331 65.2888 11.989 65.5593 11.989C65.8533 11.989 65.9767 11.9419 65.9797 11.939L66.015 11.9243L65.9826 11.9066C65.9826 11.9066 65.8797 11.8567 65.6828 11.8302C65.5563 11.8155 65.2888 11.839 65.0771 11.8596C64.9566 11.8714 64.8537 11.8802 64.8008 11.8802C64.6597 11.8802 64.251 12.1947 64.1893 12.2418C64.0658 12.2271 63.9541 12.2212 63.8953 12.2212H63.8747C63.7689 12.2124 63.5131 12.2565 63.5014 12.2594C63.3955 12.2771 63.2779 12.3241 63.2544 12.3359C63.2015 12.2418 63.1692 12.1301 63.1809 12.0007C63.1927 11.8684 63.2368 11.7567 63.2985 11.7097H63.3015C63.4102 11.5656 63.7072 11.3598 63.7101 11.3569C63.7953 11.2922 64.6362 10.91 65.5505 10.8806C66.3619 10.8542 67.1468 10.8836 67.8788 10.9718C68.4433 11.0394 69.9603 11.7008 69.975 11.7067C70.4307 11.939 70.7952 12.4652 70.8011 12.474C71.0892 12.7798 71.7036 14.2086 71.7095 14.2203C72.0888 15.5139 72.1622 15.7285 72.1858 15.7638C72.2122 15.8049 72.518 16.8309 72.5738 18.5508V18.5596ZM71.9888 21.1055C71.9888 21.1055 71.9888 21.1232 71.9859 21.1349L71.9153 21.3172C71.9035 21.3407 71.8947 21.3642 71.883 21.3878V21.4054L71.8447 21.5053C71.7977 21.6994 70.8599 21.9052 70.5071 21.9698L70.3042 21.961H70.1308L70.0338 21.9551C70.0338 21.8964 70.025 21.8523 70.022 21.8464L69.9838 21.6759C69.9985 21.6612 70.0308 21.6553 70.0426 21.6553C70.5806 21.6465 71.0451 21.4583 71.048 21.4554C71.0627 21.4495 71.3508 21.329 71.4626 21.2849C71.5596 21.2466 71.6654 21.1261 71.6713 21.0614C71.6742 21.0379 71.6654 21.0261 71.6566 21.0203C71.636 21.0056 71.6007 21.0085 71.5508 21.032C71.3214 21.1349 70.5365 21.3995 70.5306 21.3995L70.3513 21.426H70.0779C69.9956 21.426 69.9368 21.2702 69.9015 21.1467C69.9191 21.1232 69.9897 21.0467 70.2454 21.0467C70.2807 21.0467 70.3189 21.0467 70.363 21.0526H70.3689C70.3689 21.0526 71.1891 20.8968 71.6713 20.5528C71.7124 20.5411 71.8006 20.5264 71.8683 20.544C71.8741 20.6116 71.8859 20.6587 71.8859 20.6616C72.0211 20.9526 71.9917 21.0938 71.9917 21.0967V21.1085H71.9888V21.1055ZM73.4176 25.1067C73.3852 25.239 73.3735 25.3595 73.3705 25.4654C73.2765 25.3742 73.1471 25.2978 72.9707 25.289C72.9531 25.289 72.7914 25.2743 72.7061 25.2655L72.4562 25.2743C72.4327 25.1273 72.3357 24.6481 72.0917 24.407C71.9065 24.2218 71.783 24.1307 71.6742 24.0513C71.6154 24.0072 71.5625 23.969 71.5037 23.919C71.3361 23.772 71.0422 23.5427 71.0422 23.5427C70.901 23.3663 70.9099 23.2487 71.0833 22.9312C71.1597 22.8577 71.2038 22.2874 71.2156 22.1198C71.3303 22.0992 71.4302 22.0757 71.5125 22.0522C71.5125 22.1521 71.5243 22.3697 71.5625 22.6196C71.586 22.7871 71.5302 22.9812 71.489 23.1223C71.4626 23.2222 71.442 23.2928 71.4508 23.331C71.4802 23.428 71.83 23.7485 71.9741 23.819C72.0035 23.8337 72.0417 23.8514 72.0887 23.8749C72.2769 23.966 72.5915 24.1218 72.7179 24.21C72.809 24.2718 72.956 24.4305 73.0883 24.5687C73.1853 24.6716 73.2676 24.7598 73.3147 24.7951C73.3705 24.8392 73.4323 24.9303 73.4793 25.0067C73.4529 25.0508 73.4293 25.0891 73.4176 25.1067ZM71.3597 24.2865L71.3655 24.2247L71.3979 24.2365L71.7477 24.507L72.0447 24.8098C72.0447 24.8098 72.1887 24.9538 72.1946 25.092L72.2005 25.289H72.1299L71.7301 25.2684H71.7242L71.7183 25.2743C71.7183 25.2743 71.686 25.3007 71.6213 25.2831H71.6096C71.5713 25.2831 71.4038 25.2655 71.3332 25.0861L71.3626 24.7657L71.3891 24.6099L71.3626 24.2894H71.3597V24.2865ZM71.2127 17.4689C71.1921 17.563 71.148 17.6482 71.1156 17.7041C71.048 17.6306 70.9922 17.56 70.9687 17.5012C70.9451 17.4424 70.9304 17.3866 70.9157 17.3248C70.8658 17.1367 70.8128 16.9427 70.56 16.7516C70.3866 16.6193 70.1249 16.5458 69.8721 16.4723C69.6457 16.4076 69.4105 16.34 69.2488 16.2312C69.1401 16.1606 69.0666 15.899 68.996 15.6432C68.949 15.4757 68.899 15.3022 68.8402 15.1787C68.7167 14.9259 68.4492 14.8671 68.2346 14.8201C68.1817 14.8083 68.1317 14.7965 68.0876 14.7848C67.87 14.7201 67.4143 14.3673 67.1204 13.6882C66.8322 13.0238 66.5089 12.9532 66.3354 12.915H66.3207C66.2002 12.8856 65.7827 12.9209 65.5034 12.9444C65.3829 12.9532 65.2888 12.9621 65.2565 12.9621C65.2183 12.9621 65.1683 12.9327 65.1242 12.9003C65.1624 12.7563 65.2477 12.5564 65.4211 12.5564C65.7151 12.5564 66.206 12.5564 66.7323 12.865C66.8616 12.9415 67.0086 13.0326 67.1674 13.1326C67.6554 13.4383 68.264 13.8176 68.6991 13.9322L68.7402 13.944C69.2753 14.0822 69.4958 14.138 69.5663 14.3967C69.5899 14.482 69.6046 14.6084 69.6251 14.7554C69.6634 15.067 69.7133 15.4551 69.8662 15.6844C69.972 15.8461 70.1749 15.9784 70.3895 16.1224C70.6159 16.2724 70.8511 16.4311 70.9628 16.6193C71.1862 16.9926 71.2509 17.3131 71.2156 17.4689H71.2127ZM69.728 20.6293C69.6986 20.5558 69.6487 20.4382 69.584 20.3441C69.5311 20.2471 69.3899 20.1118 69.1342 19.9178C69.1136 19.9031 68.9901 19.8561 68.8402 19.8061C68.8461 19.7826 68.8431 19.7591 68.8255 19.7326L68.8078 19.7091C68.7755 19.665 68.7608 19.6003 68.7637 19.5121V19.4445C68.7667 19.2946 68.7637 19.2622 68.7637 19.2269V19.1564C68.7637 19.1123 68.749 19.0652 68.7314 19.0123C68.7784 19.0006 68.8343 18.9888 68.8931 18.9741C69.0519 18.9388 69.2488 18.7918 69.387 18.6007C69.4311 18.539 69.4899 18.3597 69.5369 18.2039C69.6398 18.1745 69.7692 18.1392 69.8633 18.1686C70.022 18.2156 70.3542 18.3979 70.4248 18.5096C70.4659 18.5772 70.5012 18.7125 70.5336 18.8418C70.5424 18.88 70.5541 18.9183 70.5629 18.9535L69.9691 19.0006L69.5987 19.0858L69.1783 19.2622L69.2841 19.3828L69.29 19.3886H69.2988C69.34 19.3828 69.6957 19.3416 69.728 19.3298C70.3131 19.1652 70.6835 19.2799 70.6864 19.2828H70.6923C70.6923 19.2828 70.7158 19.2975 70.7276 19.3034C70.7423 19.3269 70.754 19.3475 70.7687 19.371C70.8422 19.4886 70.9187 19.6091 70.9275 19.6532C70.9363 19.7208 70.8716 19.9237 70.7599 20.0971C70.6923 20.1295 70.5659 20.1824 70.4454 20.1853L70.2043 20.1618L70.0426 20.1265C70.0132 20.1118 69.9397 20.0824 69.9221 20.0824C69.9074 20.0824 69.8339 20.0442 69.7721 20.0119C69.6281 19.8972 69.6104 19.8943 69.6046 19.8943C69.5899 19.8943 69.487 19.859 69.3929 19.8237L69.19 19.809L69.3106 19.9531L69.4399 20.0236L69.5458 20.0501L69.728 20.2059L69.8956 20.3176L69.9985 20.3647L70.1396 20.4117L70.3983 20.4382L70.7099 20.4235C70.8217 20.4499 70.9422 20.494 70.9451 20.5205L70.9775 20.6087C70.9598 20.6146 70.9481 20.6204 70.9275 20.6263C70.9246 20.6263 70.6041 20.8233 70.025 20.8233H69.9015L69.728 20.6351V20.6293ZM68.2728 19.6121C68.0993 19.5121 67.9906 19.418 67.9347 19.3651C67.9229 19.3563 67.9141 19.3475 67.9082 19.3416C67.6231 19.1035 67.4702 19.0623 67.4614 19.0594C67.4467 19.0594 67.429 19.0564 67.4143 19.0564H67.4026C67.3232 18.9653 67.2086 18.8154 67.2262 18.7389C67.2527 18.6213 67.3026 18.5449 67.3761 18.5096C67.4261 18.4861 67.6319 18.4802 67.7789 18.4802C67.7818 18.4802 67.7848 18.4832 67.7906 18.4861C67.8935 18.5508 68.1493 18.7007 68.1523 18.7007C68.2963 18.7771 68.3933 18.9006 68.4374 19.0652C68.4903 19.2563 68.4051 19.5738 68.3816 19.6444C68.3286 19.6268 68.2875 19.6121 68.2728 19.6091V19.6121ZM67.6554 16.2488C67.5055 16.2694 67.2967 16.2929 67.2203 16.2312C67.1556 16.1753 67.0851 16.0783 67.0204 15.9813C66.9645 15.9019 66.9146 15.8255 66.8646 15.7755C66.7793 15.6903 66.6617 15.6226 66.5412 15.5668C66.4971 15.4874 66.3677 15.2522 66.2884 15.1817C66.0826 14.9935 65.9415 14.8877 65.815 14.7936C65.7592 14.7524 65.7063 14.7113 65.6534 14.6701C65.327 14.4085 64.9654 14.2674 64.8361 14.2203C64.9096 14.0234 64.9566 13.8617 64.9889 13.7352C65.083 13.7529 65.1859 13.7617 65.2976 13.7676C65.6034 13.7852 65.9532 13.8058 66.2296 14.0234C66.256 14.0439 66.2795 14.2027 66.3001 14.3409C66.3325 14.5555 66.3648 14.7789 66.4383 14.8259C66.5265 14.8818 66.6441 14.9259 66.7676 14.9759C67.0057 15.07 67.2791 15.1787 67.4437 15.3845C67.6554 15.6491 67.6613 16.096 67.6554 16.2518V16.2488ZM69.337 17.9275C69.3047 18.0686 69.2429 18.3038 69.1812 18.4126C69.0901 18.5772 68.9813 18.6478 68.8578 18.7183C68.7873 18.7595 68.6932 18.7566 68.6256 18.7477C68.5844 18.6742 68.508 18.6301 68.4168 18.589C68.361 18.5625 68.3022 18.5361 68.2581 18.4979C68.1934 18.4479 68.0935 18.3773 68.0082 18.3215C68.1199 18.2362 68.214 18.0539 68.2404 17.9305C68.2845 17.7364 68.2904 17.6012 68.2845 17.4189V17.3866C68.2787 17.2308 68.2728 17.1102 68.2463 17.0426C68.3492 16.9544 68.5227 16.8221 68.8078 16.878C69.046 16.925 69.2518 17.4336 69.3282 17.6982C69.34 17.7423 69.337 17.8364 69.3341 17.9275H69.337ZM65.4975 14.8024C65.7092 14.9641 65.9415 15.1993 66.0297 15.2875L66.0561 15.3169C66.0885 15.3463 66.1061 15.3875 66.1237 15.4286C65.9562 15.3875 65.7827 15.3551 65.6798 15.3551C65.5534 15.3551 65.3417 15.4169 65.2036 15.5286C65.1859 15.5433 65.1742 15.555 65.1595 15.5697C65.0507 15.2904 64.792 15.0082 64.7802 14.9965C64.6068 14.823 64.6215 14.726 64.6215 14.726C64.6567 14.6525 64.6861 14.5849 64.7155 14.5173C64.9037 14.5437 65.2447 14.6113 65.5005 14.8054H65.4975V14.8024ZM65.1712 16.2665C65.2035 16.1283 65.2036 15.9607 65.1947 15.8255C65.2712 15.7373 65.3799 15.6315 65.4858 15.605C65.6916 15.5521 65.9385 15.5962 66.1061 15.6403C66.2766 15.6873 66.5647 15.7638 66.7146 15.949C66.7558 15.999 66.794 16.0578 66.8293 16.1136C66.9028 16.2283 66.9763 16.3459 67.091 16.4076C67.1674 16.4488 67.3732 16.4929 67.5084 16.5223C67.5466 16.5311 67.5819 16.537 67.6054 16.5428C67.7318 16.5722 67.8112 16.6251 67.87 16.6869V16.6986C67.9053 16.8015 68.0229 17.169 68.0229 17.5159C68.0229 17.5718 67.9906 17.7923 67.8965 17.9716C67.8847 17.9922 67.8788 18.0128 67.87 18.0304C67.8524 18.0774 67.8377 18.1068 67.8024 18.1068C67.7906 18.1068 67.7759 18.1039 67.7583 18.098C67.7113 18.0804 67.6789 18.0657 67.6495 18.0539C67.6025 18.0334 67.5643 18.0157 67.4937 17.9951C67.3791 17.9628 67.2262 17.9628 67.2203 17.9628C67.2203 17.9628 66.941 18.0187 66.8411 17.8834C66.794 17.8187 66.7705 17.7423 66.7499 17.6717C66.7235 17.5835 66.6999 17.5071 66.6323 17.4865C66.6029 17.4777 66.5824 17.466 66.5588 17.4542C66.5677 17.4424 66.5765 17.4307 66.5824 17.4189C66.6794 17.2778 66.7058 17.219 66.7235 17.1014C66.7411 16.9838 66.7205 16.7633 66.6882 16.6634C66.6294 16.4723 66.5147 16.2871 66.4795 16.2341C66.4207 16.143 66.0414 15.9901 65.9503 15.9901H65.9444C65.9209 15.9901 65.915 16.0078 65.9121 16.0137C65.9003 16.0754 66.1414 16.2194 66.1708 16.2371C66.309 16.3165 66.4412 16.5605 66.4824 16.6957C66.5177 16.8162 66.4118 17.1396 66.3942 17.1955C66.3442 17.2131 66.0649 17.3043 65.9238 17.2513C65.8356 17.219 65.7621 17.1778 65.6828 17.1367C65.621 17.1014 65.5534 17.0661 65.477 17.0338C65.3564 16.9809 65.1448 16.7516 65.036 16.631C65.0742 16.4488 65.1683 16.2665 65.1712 16.2635V16.2665ZM65.3623 17.172C65.4652 17.2043 65.5152 17.2749 65.5622 17.3337C65.574 17.3484 65.5828 17.3572 65.5916 17.3689C65.6122 17.5806 65.6504 17.9246 65.6857 18.0627C65.7063 18.1451 65.7357 18.2156 65.7621 18.2774C65.8003 18.3685 65.8327 18.4479 65.8209 18.5302C65.8062 18.6213 65.8121 18.7713 65.818 18.8771C65.477 18.8889 65.4211 18.8506 65.4182 18.8477C65.3623 18.7771 65.2506 17.9775 65.1859 17.4542L65.0889 17.0485C65.1683 17.0896 65.2682 17.1367 65.3652 17.1661V17.172H65.3623ZM65.9709 18.4185L65.9532 18.3479C65.9062 18.1745 65.8474 17.9599 65.8503 17.8305C65.8503 17.7217 65.8386 17.5571 65.8298 17.466C65.8856 17.4924 65.9503 17.5277 66.0091 17.563C66.0738 17.6012 66.1355 17.6365 66.1884 17.66C66.2149 17.6717 66.2384 17.6747 66.2648 17.6747C66.2766 17.6747 66.2854 17.6688 66.2972 17.6659C66.2796 17.7158 66.2649 17.7658 66.2531 17.7923C66.2149 17.8746 66.2119 18.0363 66.2119 18.1509C66.2119 18.2656 66.2413 18.4802 66.2766 18.5655C66.2972 18.6125 66.3266 18.7389 66.3501 18.8389C66.2325 18.8506 66.1296 18.8595 66.0385 18.8683C66.0297 18.7566 66.0091 18.5508 65.9738 18.4185H65.9709ZM66.8058 19.2005V19.1946C66.7411 19.1035 66.7147 18.9888 66.7117 18.9682C66.7176 18.9359 66.7088 18.9094 66.6882 18.8859C66.6882 18.8859 66.6823 18.883 66.6794 18.88L66.6617 18.8653C66.6617 18.8653 66.4795 18.7183 66.4795 18.5331C66.4795 18.4508 66.4559 18.345 66.4383 18.2421C66.4089 18.098 66.3824 17.951 66.4148 17.9069C66.4471 17.8628 66.5147 17.8187 66.5706 17.7864C66.6265 17.8393 66.6764 17.8922 66.7029 17.9334C66.7176 17.951 66.7293 17.9716 66.7411 17.9893C66.8205 18.1039 66.8969 18.2156 67.0733 18.2274H67.1057C67.2497 18.2391 67.3261 18.248 67.4702 18.2979C67.3761 18.3038 67.2732 18.3185 67.2262 18.3656C67.1498 18.4449 67.0439 18.5684 67.0233 18.7125C67.0086 18.8065 67.0322 18.9183 67.0586 19.0476L67.0645 19.0711C67.0704 19.1064 67.091 19.1446 67.1086 19.177C67.041 19.224 66.9792 19.2799 66.9293 19.3298C66.8293 19.2799 66.8087 19.2093 66.8087 19.2064V19.2005H66.8058ZM73.497 23.1223C73.497 23.1223 73.4793 23.1311 73.4676 23.1311H73.444C72.7385 23.2693 72.5062 23.1811 72.4357 23.0841C72.3857 23.0135 72.4151 22.9224 72.4298 22.8871C72.4474 22.8871 72.4798 22.8606 72.6326 22.3579C72.6885 22.2021 72.5386 22.0051 72.518 21.9816C72.4945 21.9228 72.2504 21.6494 72.174 21.5641C72.1828 21.5524 72.1917 21.5377 72.1975 21.5318H72.2064C72.2828 21.52 72.5239 21.4671 72.5327 21.4642C73.0354 21.4025 73.4646 21.4054 73.591 22.0904C73.5793 22.1404 73.4529 22.6548 73.4911 23.1282L73.497 23.1223ZM62.9193 12.2947L62.6753 12.671C62.6753 12.671 62.6488 12.718 62.6165 12.7827C62.5812 12.7886 62.5312 12.7915 62.4665 12.7651C62.3842 12.7327 62.1549 12.5034 61.9697 12.3153C61.9462 12.2918 61.9285 12.2741 61.9079 12.2535C61.9403 12.2359 61.9844 12.2153 62.0461 12.2006C62.0667 12.1947 62.0843 12.1947 62.102 12.1918C62.2343 12.2771 62.4195 12.3329 62.687 12.2771C62.6958 12.2771 62.8516 12.2624 62.9516 12.2477C62.934 12.2712 62.9163 12.2918 62.9163 12.2918L62.9193 12.2947ZM61.8962 11.989C61.8286 12.0066 61.7698 12.0478 61.7286 12.083C61.7169 12.0713 61.6963 12.0536 61.6875 12.0478C61.4376 11.8772 61.1289 11.9419 60.9672 11.9948C60.9143 12.0125 60.8261 12.0625 60.7261 12.1271C60.6879 12.1271 60.6438 12.1124 60.6056 12.0742L60.5674 12.036C60.4468 11.9155 60.3263 11.7949 60.294 11.7773C60.1881 11.7097 60.0588 11.6685 59.9764 11.6421L60.0176 11.595L60.1029 11.4745C60.1029 11.4745 60.2381 11.2746 60.3763 11.1776L60.4027 11.1629C60.4939 11.1188 60.5997 11.0658 60.6997 11.0658H60.7055L61.2406 11.107C61.2406 11.107 61.5963 11.107 61.6639 11.3892L61.8462 11.8831C61.8462 11.8831 61.8638 11.9302 61.9021 11.986H61.8962V11.989ZM59.8265 11.8625C59.9382 11.8743 60.0735 11.9125 60.2058 12.0095C60.2881 12.0713 60.4233 12.2094 60.4968 12.2859C60.3057 12.4241 60.1176 12.574 60.0529 12.6387C60.0117 12.6798 59.9588 12.7327 59.9088 12.7886C59.3826 12.7004 59.0798 12.9503 58.9975 13.0326C58.7182 13.3148 58.4095 13.3178 58.2302 13.2472C58.3272 13.1679 58.4595 13.062 58.5359 13.0003C58.6741 12.8915 58.8123 12.7004 58.9416 12.5123C59.0798 12.3153 59.5737 11.9713 59.5737 11.9713L59.8265 11.8625ZM62.49 22.2256H62.4165C61.9844 22.2256 61.6963 22.1168 61.5552 21.9052C61.3376 21.5759 61.5552 21.0996 61.5552 21.0938L61.6904 20.7645C61.711 20.7057 61.7404 20.7116 61.7962 20.7204C61.8139 20.7233 61.8345 20.7263 61.855 20.7292H61.8727C61.9315 20.7292 61.9667 20.7145 61.9785 20.6851C62.0079 20.6204 61.9168 20.5205 61.905 20.5117C61.8492 20.4529 61.7904 20.3529 61.7933 20.25C61.7933 20.1824 61.8256 20.1177 61.8844 20.0648L61.8903 20.0589V20.053C61.8903 20.053 61.8903 20.0266 61.8786 20.0178C61.8521 19.9942 61.7904 20.0031 61.7815 20.0031H61.7757C61.5963 20.1236 61.5169 20.0295 61.514 20.0266C61.4817 19.9766 61.4699 19.9266 61.4787 19.8825C61.4934 19.809 61.561 19.7679 61.561 19.7679C61.561 19.7679 61.6581 19.6679 61.9991 19.7591C62.0843 19.7826 62.2872 19.7591 62.296 19.7591C62.4577 19.7297 62.4548 19.6003 62.4548 19.5974V19.5885L62.4489 19.5827C62.3636 19.5209 62.3254 19.4886 62.3019 19.468C62.2725 19.4416 62.2607 19.4327 62.2078 19.4092C62.1814 19.4004 62.1637 19.421 62.1431 19.4474C62.099 19.5062 62.0226 19.6003 61.808 19.4504C61.6492 19.3004 61.614 19.3034 61.5846 19.3063C61.5463 19.3063 61.5169 19.3063 61.4934 19.3093C61.3993 19.3151 61.3876 19.3181 61.3494 19.177L61.3347 18.4596L61.3406 18.2656L61.6404 18.3038C61.7933 18.3567 61.8903 18.3538 61.9315 18.3509C61.9491 18.3567 62.0461 18.3303 62.1079 18.2685C62.1637 18.2127 62.2166 18.1127 62.149 17.9481L62.1343 17.9099L62.1196 17.9481C62.0432 18.1362 61.6698 18.0951 61.6257 18.0892C61.3141 17.8658 60.8937 17.9687 60.879 17.9746C60.7202 17.9981 60.6173 17.9746 60.5703 17.9099C60.4939 17.8011 60.5968 17.6071 60.5968 17.6071L61.1201 16.778C61.1201 16.778 61.6933 15.9754 61.9961 15.461V15.4551C62.0608 14.9347 62.152 14.7113 62.1637 14.6878C62.3783 14.4496 62.4459 14.238 62.4577 14.1997C62.7605 13.2002 62.8134 12.9915 62.8134 12.9885C62.8516 12.8298 63.0516 12.5005 63.2809 12.4564C63.3014 12.4564 63.3279 12.4505 63.3632 12.4446C63.5102 12.4241 63.7601 12.3917 63.8394 12.4064C63.86 12.4094 63.8865 12.4123 63.9159 12.4152C64.0629 12.4329 64.3069 12.4593 64.6626 12.6122C65.0036 12.7151 64.7773 13.5765 64.7773 13.5824L64.2716 14.6789C64.2216 14.776 64.4098 14.9435 64.4274 14.9582C64.4568 14.9994 64.7097 15.314 64.7244 15.3287C64.7244 15.3287 64.9654 15.5492 64.9301 15.9578C64.9595 16.2194 64.8978 16.3223 64.8361 16.4341C64.8096 16.4811 64.7802 16.5311 64.7567 16.5928V16.5987C64.742 16.828 64.8537 17.2602 64.8596 17.2807C64.8596 17.2837 64.8625 17.2925 64.8655 17.2954C64.7538 17.3807 64.5597 17.5101 64.2422 17.6335C64.1746 17.66 64.0952 17.6894 64.0158 17.7188C63.5954 17.8746 63.4631 17.9305 63.4631 17.9746C63.4631 17.9804 63.4631 17.9922 63.4778 18.001C63.5072 18.0245 63.5807 18.0304 63.6572 18.0304C63.7395 18.0304 63.8277 18.0216 63.8747 18.0128C63.9864 17.9893 64.301 17.8864 64.4098 17.8423C64.4892 17.8129 64.7861 17.6835 64.9419 17.6159C64.9654 17.7247 64.9889 17.8423 65.0095 17.9452C64.9537 17.9775 64.889 18.0128 64.8302 18.0392C64.7302 18.0833 64.5862 18.1598 64.4774 18.2127C64.4274 18.2391 64.3863 18.2597 64.3598 18.2715C64.3069 18.2979 64.104 18.4214 64.0982 18.4596C64.0982 18.4685 64.0982 18.4773 64.107 18.4861C64.1334 18.5155 64.2158 18.5508 64.2657 18.5508H64.2746C64.3098 18.5478 64.4451 18.492 64.6332 18.4126C64.692 18.3891 64.7449 18.3656 64.7861 18.3479C64.8772 18.3126 64.986 18.2597 65.0595 18.2244C65.0595 18.2303 65.0624 18.2421 65.0624 18.2421C65.1095 18.9153 65.1418 19.0447 65.1624 19.0682C65.2182 19.1329 65.6034 19.124 66.3413 19.0799C66.6647 19.2328 66.7147 19.4768 66.7382 19.5827L66.6676 19.7796C66.5588 20.053 66.1237 21.2496 66.1208 21.2584C66.1061 21.2849 66.0943 21.3172 66.0796 21.3495C66.012 21.5083 65.9297 21.7023 65.5799 21.7699C65.2183 21.9081 65.0007 21.9669 64.5744 22.0433C63.8659 22.205 63.3573 22.205 63.3514 22.205L62.4783 22.2227H62.4871L62.49 22.2256ZM64.1276 22.4873C64.1187 22.4667 64.1158 22.4608 64.1158 22.4402C64.1158 22.402 64.2893 22.3609 64.4509 22.3462C65.9885 22.0816 66.209 21.6729 66.2913 21.5171C66.3001 21.5024 66.306 21.4877 66.3148 21.4759C66.5794 21.0114 67.041 19.662 67.0674 19.5885C67.088 19.568 67.2321 19.4004 67.3497 19.3681C67.5084 19.321 67.6584 19.4856 67.6584 19.4856H67.6642C67.7377 19.5327 68.0464 19.7738 68.0494 19.7767C68.167 19.862 68.4286 19.9237 68.4404 19.9266C68.5168 19.9443 68.752 20.0325 68.8931 20.0854C68.9519 20.1089 68.9931 20.1236 69.0078 20.1295C69.0489 20.1412 69.24 20.2677 69.2518 20.3029C69.2576 20.3176 69.2694 20.3323 69.287 20.347C69.2988 20.3853 69.3106 20.4323 69.3076 20.4764L69.2106 20.5558L67.9259 21.4936C66.9057 22.2844 65.5593 23.9984 65.5446 24.016L64.789 24.9626L64.692 25.1067L64.5921 24.5834L64.2746 23.1223C64.1893 22.646 64.1452 22.5343 64.1246 22.4873H64.1276ZM73.6528 24.6951C73.5793 24.6334 73.4705 24.5393 73.347 24.407C73.0854 24.1307 72.8208 23.9307 72.518 23.7808C72.4856 23.7661 72.4562 23.7485 72.4239 23.7338C72.1417 23.5956 71.8536 23.4545 71.7683 23.2399C71.7242 23.1311 71.7595 23.0605 71.8006 22.9694C71.8506 22.8636 71.9065 22.743 71.8536 22.5343C71.7918 22.2932 71.7389 22.0933 71.7095 21.9757C71.8418 21.9169 71.9006 21.8699 71.9035 21.864C71.9418 21.8405 71.9829 21.7993 72.0241 21.7582C72.0623 21.8199 72.1093 21.8934 72.127 21.9287V21.9346C72.127 21.9346 72.3563 22.1433 72.3945 22.2932C72.371 22.3638 72.1505 22.9165 72.1475 22.9224C72.0946 23.137 72.1005 23.281 72.1711 23.3545C72.2181 23.4045 72.3004 23.4221 72.4004 23.3986L73.6969 23.4751C73.9203 23.8337 73.9262 24.1336 73.9144 24.26V24.2718C73.9144 24.2865 73.9144 24.3394 73.7263 24.5746C73.7233 24.5805 73.691 24.6304 73.6528 24.6951Z" fill="#09090B"/>
<path d="M58.5771 18.1303C58.5889 18.0392 58.583 17.9216 58.5771 17.8452V17.7805C58.5771 17.754 58.5918 17.7217 58.6124 17.7129C58.633 17.7011 58.6682 17.6982 58.7212 17.7011H58.7564C58.8005 17.707 58.8505 17.7099 58.9005 17.7158C58.9593 17.7246 59.0828 17.7452 59.118 17.754C59.1327 17.7599 59.1563 17.7717 59.1768 17.7834C59.2033 17.7981 59.2327 17.8158 59.265 17.8275C59.2797 17.8334 59.3003 17.8393 59.3238 17.8481C59.3944 17.8716 59.5002 17.9098 59.5355 17.9334C59.5796 17.9657 59.6943 18.098 59.7148 18.1245C59.7354 18.1568 59.7825 18.2156 59.803 18.2362C59.8266 18.2597 59.8765 18.292 59.9295 18.3067C59.9824 18.3214 60.0529 18.3067 60.0559 18.3067L60.0823 18.3008L60.0647 18.2803C60.05 18.2626 59.9442 18.098 59.8618 17.9686C59.7766 17.8363 59.7237 17.754 59.7148 17.7423C59.6943 17.7187 59.656 17.6982 59.5943 17.6805C59.5708 17.6746 59.5326 17.6629 59.4944 17.6511C59.465 17.6423 59.4355 17.6306 59.412 17.6247C59.3856 17.6159 59.3415 17.5953 59.2915 17.5718C59.2503 17.5541 59.2092 17.5335 59.1739 17.5188C59.1563 17.513 59.1357 17.5012 59.1092 17.4924C59.0269 17.4571 58.9181 17.4071 58.8299 17.3983C58.7212 17.3865 58.3419 17.413 58.3008 17.4306C58.2625 17.4483 58.239 17.4865 58.242 17.5218C58.242 17.5424 58.2567 17.5806 58.2802 17.6453C58.289 17.6658 58.2949 17.6864 58.3008 17.704C58.3008 17.704 58.3243 17.7746 58.3331 17.8305C58.339 17.8893 58.3419 18.0627 58.3331 18.1568C58.3243 18.242 58.3096 18.2803 58.289 18.3273L58.2831 18.342C58.2714 18.3714 58.2302 18.4273 58.1979 18.4714C58.1479 18.539 58.1449 18.5478 58.1479 18.5596L58.1538 18.5684H58.1773C58.2361 18.5684 58.4125 18.5507 58.4448 18.5213C58.4772 18.489 58.5536 18.2509 58.5683 18.1245L58.5742 18.1303H58.5771Z" fill="#09090B"/>
<path d="M59.5561 18.3597C59.5561 18.3597 59.5385 18.342 59.5267 18.3303C59.4885 18.292 59.4562 18.2656 59.4415 18.2568C59.4327 18.2509 59.4121 18.2332 59.3944 18.2185C59.3768 18.2038 59.3621 18.1891 59.3504 18.1833C59.3357 18.1715 59.3092 18.1539 59.2916 18.1421L59.271 18.1274C59.271 18.1274 59.1798 18.0657 59.1593 18.0598H59.1534C59.1357 18.051 59.0828 18.0304 59.0711 18.0245C59.0711 18.0245 59.0593 18.0157 59.0505 18.0069C59.0358 17.9951 59.0211 17.9804 59.0064 17.9716C58.9858 17.9598 58.8447 17.9304 58.8153 17.9275C58.78 17.9275 58.7153 17.9745 58.7006 17.9922C58.6918 18.0069 58.6948 18.0304 58.7006 18.048C58.7006 18.0598 58.7153 18.098 58.7389 18.1098C58.7506 18.1156 58.78 18.1274 58.8094 18.1392C58.7977 18.1803 58.78 18.2391 58.7771 18.2832C58.7712 18.345 58.7683 18.4155 58.7771 18.4567C58.7859 18.4978 58.8329 18.5713 58.8623 18.6037C58.8917 18.636 58.9535 18.6536 58.9564 18.6536H58.9652C58.9652 18.6536 58.9917 18.6536 59.0064 18.6389C59.024 18.6213 59.027 18.5948 59.0211 18.5566C59.0064 18.4802 59.0064 18.4537 59.0034 18.4067V18.3802C59.0034 18.342 59.0299 18.2891 59.0534 18.245C59.0681 18.2509 59.0887 18.2597 59.0975 18.2656C59.1387 18.292 59.2445 18.3744 59.2739 18.4038C59.2827 18.4126 59.2974 18.4214 59.3092 18.4302C59.3504 18.4537 59.3739 18.4714 59.3621 18.5155C59.3445 18.589 59.2974 18.6213 59.2533 18.6419C59.2092 18.6625 59.1446 18.6889 59.1034 18.7007C59.0593 18.7154 58.9505 18.7301 58.9182 18.733C58.8741 18.7389 58.7977 18.7448 58.7977 18.7448H58.7918C58.7918 18.7448 58.7389 18.7683 58.7359 18.7977C58.7359 18.83 58.7712 18.8477 58.7741 18.8477H58.9211C58.9211 18.8477 58.9711 18.8447 59.0093 18.8447H59.1563C59.1975 18.8389 59.2739 18.8153 59.3121 18.7977C59.3592 18.7801 59.5561 18.6683 59.5767 18.6536C59.5973 18.636 59.6208 18.6037 59.6296 18.5831C59.6414 18.5596 59.6355 18.5125 59.6238 18.4831C59.612 18.4508 59.565 18.3773 59.5385 18.3538L59.5561 18.3597Z" fill="#09090B"/>
<path d="M62.543 15.3256H62.5547C62.6312 15.3256 62.9134 15.3932 63.0398 15.4314C63.1604 15.4667 63.2103 15.4873 63.2456 15.5108C63.2779 15.5343 63.4191 15.6608 63.5073 15.7489C63.5425 15.7842 63.5749 15.8019 63.6043 15.8166C63.6425 15.8371 63.669 15.8518 63.6748 15.9018C63.6748 15.9136 63.6837 15.9312 63.7219 15.943C63.7366 15.9459 63.7513 15.9489 63.766 15.9489C63.813 15.9489 63.8659 15.9342 63.8894 15.9048C63.9071 15.8842 63.91 15.8607 63.8953 15.8342C63.8747 15.7901 63.8689 15.7813 63.8542 15.7754C63.8483 15.7725 63.8336 15.7636 63.7865 15.699C63.7366 15.6314 63.6807 15.5843 63.616 15.5285C63.5925 15.5108 63.569 15.4902 63.5455 15.4667C63.4279 15.3638 63.3779 15.3256 63.3191 15.2933C63.3132 15.2903 63.3044 15.2844 63.2926 15.2786C63.1986 15.2227 62.9516 15.0757 62.6312 15.0669C62.5547 15.0669 62.3636 15.1874 62.3401 15.1992L62.3284 15.2051L62.3695 15.3197H62.3783C62.3783 15.3197 62.4783 15.3344 62.543 15.3256Z" fill="#09090B"/>
<path d="M63.7366 16.3664H63.7925C63.8337 16.3635 63.8425 16.3488 63.8513 16.3311C63.8572 16.3194 63.866 16.3047 63.9013 16.287C63.9189 16.2782 63.9189 16.2635 63.916 16.2576C63.8954 16.2135 63.5573 16.1959 63.4956 16.2253C63.4662 16.2371 63.4074 16.2518 63.3486 16.2635C63.2663 16.2812 63.181 16.2988 63.1428 16.3253C63.1251 16.337 63.0957 16.3488 63.0634 16.3605C62.9899 16.387 62.9047 16.4193 62.9135 16.4869C62.9135 16.5016 62.9223 16.5134 62.9341 16.5222C62.9458 16.5281 62.9605 16.534 62.9811 16.534C63.037 16.534 63.1222 16.5046 63.2192 16.4722C63.2427 16.4634 63.2663 16.4546 63.2839 16.4517C63.3398 16.434 63.3574 16.4311 63.3956 16.4252C63.425 16.4193 63.4691 16.4135 63.5485 16.3958C63.672 16.3694 63.7072 16.3723 63.7425 16.3752L63.7366 16.3664Z" fill="#09090B"/>
<path d="M62.9928 15.7842C63.0868 15.8107 63.2544 15.9312 63.2985 15.9812C63.2956 15.9812 63.2926 15.9842 63.2897 15.9871C63.2574 16.0077 63.1868 16.043 63.1221 16.0753C62.9751 16.1488 62.934 16.1723 62.9281 16.1899V16.2046C62.9281 16.2046 62.934 16.2135 62.9428 16.2164H62.9545C63.028 16.2164 63.3073 16.1341 63.3632 16.1018C63.4249 16.0635 63.4631 15.9871 63.4661 15.9842V15.9783L63.4514 15.8871H63.4484C63.4337 15.8577 63.4132 15.8225 63.3838 15.7842C63.3309 15.7137 63.0486 15.5608 62.9575 15.5461C62.9516 15.5461 62.4724 15.4667 62.4195 15.5197C62.3725 15.5638 62.4048 15.6843 62.4077 15.699V15.7107H62.4401C62.4636 15.7107 62.5224 15.7107 62.5929 15.7166C62.5929 15.7666 62.5929 15.8283 62.5988 15.8695C62.5988 15.8813 62.5988 15.893 62.6047 15.9048C62.6106 15.9548 62.6165 15.993 62.6547 16.0547C62.6606 16.0635 62.6664 16.0724 62.6723 16.0812C62.6929 16.1135 62.7076 16.14 62.7517 16.14C62.7605 16.14 62.7693 16.14 62.7811 16.137C62.837 16.1253 62.834 16.0635 62.8311 15.9989C62.8311 15.9636 62.8311 15.9283 62.8311 15.896C62.8458 15.8313 62.8722 15.7901 62.8987 15.7578C62.931 15.7637 62.9634 15.7695 62.9957 15.7784L62.9898 15.7842H62.9928Z" fill="#09090B"/>
</svg>
