<svg width="101" height="48" viewBox="0 0 101 48" fill="none" xmlns="http://www.w3.org/2000/svg">
<path d="M25.2792 5.93366V9.20843C25.2792 12.4832 22.6179 15.1421 19.3454 15.1421H12.9562C12.8423 15.1421 12.7749 15.0747 12.7749 14.9608V3.4096C12.7749 1.5456 14.2972 0 16.1845 0H19.3454C22.6203 0 25.2792 2.6612 25.2792 5.93366ZM23.1641 5.91041C23.1641 3.7954 21.4582 2.09177 19.3454 2.09177H15.5267C15.1618 2.09177 14.8899 2.3637 14.8899 2.7286V12.869C14.8899 12.9829 14.9573 13.0503 15.0712 13.0503H19.3454C21.4605 13.0503 23.1641 11.3444 23.1641 9.23168V5.91274V5.91041Z" fill="#09090B"/>
<path d="M38.4636 13.0511C38.5543 13.0511 38.6449 13.1418 38.6449 13.2324V14.9593C38.6449 15.0499 38.5543 15.1406 38.4636 15.1406H31.3027C29.3922 15.1406 27.8698 13.6182 27.8698 11.7077V0.316897C27.8698 0.226253 27.9605 0.135603 28.0511 0.135603H38.4636C38.5543 0.135603 38.6449 0.226253 38.6449 0.316897V2.04377C38.6449 2.13441 38.5543 2.22505 38.4636 2.22505H30.1638C30.0732 2.22505 29.9825 2.3157 29.9825 2.40634V6.40859C29.9825 6.49923 30.0732 6.58988 30.1638 6.58988H37.1667C37.2573 6.58988 37.348 6.68052 37.348 6.77116V8.45387C37.348 8.54451 37.2573 8.63517 37.1667 8.63517H30.6194C30.2777 8.63517 29.9825 8.93034 29.9825 9.27199V12.4096C29.9825 12.7513 30.2777 13.0465 30.6194 13.0465H38.4636V13.0511Z" fill="#09090B"/>
<path d="M41.3308 15.1411C41.2402 15.1411 41.1728 15.0737 41.1728 14.9831V0.296516C41.1728 0.205872 41.2402 0.138473 41.3308 0.138473H43.1042C43.1948 0.138473 43.2646 0.205872 43.2646 0.296516V14.9831C43.2646 15.0737 43.1971 15.1411 43.1042 15.1411H41.3308Z" fill="#09090B"/>
<path d="M58.9473 0.316897V14.4131C58.9473 14.8686 58.6754 15.1406 58.2199 15.1406H56.9229C56.5371 15.1406 56.2396 15.0034 56.0351 14.6641L48.7812 3.38714C48.6905 3.25001 48.5534 3.29651 48.5534 3.45455V14.9593C48.5534 15.0732 48.486 15.1406 48.3721 15.1406H46.622C46.5081 15.1406 46.4407 15.0732 46.4407 14.9593V0.316897C46.4407 0.203011 46.5081 0.135603 46.622 0.135603H48.737C48.9183 0.135603 49.0555 0.182082 49.1693 0.363369L56.6045 11.8914C56.6952 12.0285 56.8323 11.982 56.8323 11.8239V0.319209C56.8323 0.205324 56.8997 0.137929 57.0136 0.137929H58.7637C58.8776 0.137929 58.945 0.205324 58.945 0.319209L58.9473 0.316897Z" fill="#09090B"/>
<path d="M72.6597 13.0511C72.7503 13.0511 72.8409 13.1418 72.8409 13.2324V14.9593C72.8409 15.0499 72.7503 15.1406 72.6597 15.1406H65.4987C63.5882 15.1406 62.0659 13.6182 62.0659 11.7077V0.316897C62.0659 0.226253 62.1565 0.135603 62.2471 0.135603H72.6597C72.7503 0.135603 72.8409 0.226253 72.8409 0.316897V2.04377C72.8409 2.13441 72.7503 2.22505 72.6597 2.22505H64.3599C64.2692 2.22505 64.1786 2.3157 64.1786 2.40634V6.40859C64.1786 6.49923 64.2692 6.58988 64.3599 6.58988H71.3627C71.4534 6.58988 71.544 6.68052 71.544 6.77116V8.45387C71.544 8.54451 71.4534 8.63517 71.3627 8.63517H64.8154C64.4737 8.63517 64.1786 8.93034 64.1786 9.27199V12.4096C64.1786 12.7513 64.4737 13.0465 64.8154 13.0465H72.6597V13.0511Z" fill="#09090B"/>
<path d="M83.0095 27.5734C82.7841 27.5734 82.5888 27.3782 82.5888 27.1527V25.0795C82.5888 24.8541 82.7841 24.6589 83.0095 24.6589H87.3349C87.3953 24.6589 87.4557 24.5984 87.4557 24.538V23.427C87.4557 23.3666 87.3953 23.3062 87.3349 23.3062H82.7074C82.6469 23.3062 82.5865 23.2458 82.5865 23.1853V20.5427C82.5865 20.4823 82.6469 20.4219 82.7074 20.4219H88.1902C88.2506 20.4219 88.3111 20.3614 88.3111 20.301V19.1598C88.3111 19.0994 88.2506 19.039 88.1902 19.039H81.3105C81.2501 19.039 81.1897 19.0994 81.1897 19.1598V26.6856C81.1897 27.9476 82.196 28.954 83.4581 28.954H88.1902C88.2506 28.954 88.3111 28.8935 88.3111 28.8331V27.6919C88.3111 27.6315 88.2506 27.5711 88.1902 27.5711H83.0072L83.0095 27.5734ZM74.461 27.4525V19.1598C74.461 19.0994 74.4006 19.039 74.3402 19.039H73.1827C73.1223 19.039 73.0619 19.0994 73.0619 19.1598V28.8331C73.0619 28.8935 73.1223 28.954 73.1827 28.954H80.0624C80.1228 28.954 80.1833 28.8935 80.1833 28.8331V27.6919C80.1833 27.6315 80.1228 27.5711 80.0624 27.5711H74.5796C74.5191 27.5711 74.4587 27.5106 74.4587 27.4502M64.8922 25.7117L66.4402 20.6194C66.5145 20.3498 66.7098 20.215 66.9817 20.215H67.493C67.7626 20.215 67.9579 20.3498 68.0346 20.6194L69.5825 25.7117C69.6127 25.7861 69.5686 25.8465 69.4919 25.8465H64.9852C64.9108 25.8465 64.8643 25.7861 64.8945 25.7117M69.4152 20.4823C69.0851 19.3713 68.8155 18.86 67.2374 18.86C65.6592 18.86 65.3896 19.3713 65.0596 20.4823L62.8213 27.8732C62.7911 27.9778 62.7772 28.0382 62.7772 28.1289V28.7448C62.7772 28.8796 62.8516 28.9563 62.9887 28.9563H63.7255C63.8463 28.9563 63.937 28.8959 63.9649 28.775L64.3553 27.513C64.4158 27.3177 64.5808 27.1969 64.776 27.1969H69.7034C69.8986 27.1969 70.0636 27.3177 70.124 27.513L70.5145 28.775C70.5447 28.8959 70.6354 28.9563 70.7539 28.9563H71.4907C71.6255 28.9563 71.6999 28.8819 71.6999 28.7448V28.1289C71.6999 28.0382 71.6859 27.9778 71.6557 27.8732L69.4175 20.4823H69.4152ZM61.2874 19.0413H60.1299C60.0555 19.0413 60.009 19.0855 60.009 19.1622V26.7623C60.009 26.8668 59.9184 26.8971 59.858 26.8064L54.9469 19.19C54.8725 19.0692 54.7819 19.039 54.661 19.039H53.2642C53.1898 19.039 53.1433 19.0831 53.1433 19.1598V28.8331C53.1433 28.9075 53.1875 28.954 53.2642 28.954H54.4216C54.496 28.954 54.5425 28.9098 54.5425 28.8331V21.233C54.5425 21.1284 54.6331 21.0982 54.6935 21.1888L59.4861 28.6402C59.6209 28.8656 59.8161 28.9563 60.0718 28.9563H60.9271C61.2269 28.9563 61.4082 28.775 61.4082 28.4752V19.1622C61.4082 19.0878 61.3641 19.0413 61.2874 19.0413ZM49.9777 25.4398C49.9777 26.732 48.8807 27.7826 47.6349 27.7826H46.8679C45.5454 27.7826 44.5088 26.732 44.5088 25.4398V22.5555C44.5088 21.2632 45.5454 20.2127 46.8679 20.2127H47.6349C48.8807 20.2127 49.9777 21.2632 49.9777 22.5555V25.4398ZM51.3746 25.4398V22.5555C51.3746 20.5427 49.6616 18.86 47.6186 18.86H46.8679C44.7807 18.86 43.112 20.5427 43.112 22.5555V25.4398C43.112 27.4525 44.7784 29.1352 46.8679 29.1352H47.6186C49.6616 29.1352 51.3746 27.4525 51.3746 25.4398ZM41.2363 28.954C41.2967 28.954 41.3409 28.9098 41.3409 28.8494V19.1459C41.3409 19.0855 41.2967 19.0413 41.2363 19.0413H40.0649C40.0045 19.0413 39.9603 19.0855 39.9603 19.1459V28.8494C39.9603 28.9098 40.0045 28.954 40.0649 28.954H41.2363ZM38.7564 19.0413H29.9848C29.9104 19.0413 29.8639 19.0855 29.8639 19.1622V20.3033C29.8639 20.3777 29.9081 20.4242 29.9848 20.4242H33.2433C33.4827 20.4242 33.664 20.6055 33.664 20.8449V28.8354C33.664 28.9098 33.7082 28.9563 33.7849 28.9563H34.9423C35.0167 28.9563 35.0632 28.9121 35.0632 28.8354V20.8449C35.0632 20.6055 35.2445 20.4242 35.4839 20.4242H37.7663C37.8871 20.4242 37.9917 20.38 38.0661 20.3033L38.7424 19.613C38.8168 19.5224 38.8772 19.4318 38.8772 19.3132V19.1622C38.8772 19.0878 38.8331 19.0413 38.7564 19.0413ZM27.9116 25.4398C27.9116 26.732 26.8145 27.7826 25.5687 27.7826H24.8018C23.4793 27.7826 22.4427 26.732 22.4427 25.4398V22.5555C22.4427 21.2632 23.4793 20.2127 24.8018 20.2127H25.5687C26.8145 20.2127 27.9116 21.2632 27.9116 22.5555V25.4398ZM29.3084 25.4398V22.5555C29.3084 20.5427 27.5955 18.86 25.5525 18.86H24.8018C22.7146 18.86 21.0458 20.5427 21.0458 22.5555V25.4398C21.0458 27.4525 22.7123 29.1352 24.8018 29.1352H25.5525C27.5955 29.1352 29.3084 27.4525 29.3084 25.4398ZM17.0063 19.1924L14.0615 25.5002C14.0476 25.5444 13.9872 25.5444 13.9709 25.5002L11.0261 19.1924C10.9819 19.0878 10.9052 19.0413 10.7867 19.0413H10.2312C10.1266 19.0413 10.0499 19.0715 9.97556 19.1459L8.86458 20.2568C8.7902 20.3312 8.75999 20.4079 8.75999 20.5125V28.8331C8.75999 28.9075 8.80414 28.954 8.88084 28.954H10.022C10.0964 28.954 10.1429 28.9098 10.1429 28.8331V20.466C10.1429 20.4056 10.2033 20.4056 10.2173 20.4521L13.1156 26.6716C13.1597 26.7762 13.2364 26.8227 13.355 26.8227H14.6774C14.7983 26.8227 14.8727 26.7785 14.9168 26.6716L17.8151 20.4521C17.8291 20.4079 17.8895 20.4079 17.8895 20.466V28.8331C17.8895 28.9075 17.9337 28.954 18.0104 28.954H19.1516C19.2259 28.954 19.2724 28.9098 19.2724 28.8331V19.1598C19.2724 19.0855 19.2283 19.039 19.1516 19.039H17.2434C17.1225 19.039 17.0482 19.0831 17.004 19.19M1.81987 27.5734C1.59442 27.5734 1.39919 27.3782 1.39919 27.1527V25.0795C1.39919 24.8541 1.59442 24.6589 1.81987 24.6589H6.14524C6.20567 24.6589 6.2661 24.5984 6.2661 24.538V23.427C6.2661 23.3666 6.20567 23.3062 6.14524 23.3062H1.51772C1.45729 23.3062 1.39686 23.2458 1.39686 23.1853V20.5427C1.39686 20.4823 1.45729 20.4219 1.51772 20.4219H7.00055C7.06098 20.4219 7.12141 20.3614 7.12141 20.301V19.1598C7.12141 19.0994 7.06098 19.039 7.00055 19.039H0.120864C0.0604343 19.039 0 19.0994 0 19.1598V26.6856C0 27.9476 1.00639 28.954 2.26844 28.954H7.00055C7.06098 28.954 7.12141 28.8935 7.12141 28.8331V27.6919C7.12141 27.6315 7.06098 27.5711 7.00055 27.5711H1.81754L1.81987 27.5734Z" fill="#09090B"/>
<path d="M100.094 32.8601H86.9368C86.823 32.8601 86.7556 32.9275 86.7556 33.0414V34.7543C86.7556 34.8659 86.823 34.9356 86.9368 34.9356H91.827C92.1873 34.9356 92.4569 35.2052 92.4569 35.5655V47.5513C92.4569 47.6652 92.5243 47.7326 92.6382 47.7326H94.372C94.4859 47.7326 94.5533 47.6652 94.5533 47.5513V35.5655C94.5533 35.2052 94.8229 34.9356 95.1832 34.9356H98.6091C98.7904 34.9356 98.9461 34.8682 99.06 34.7543L100.073 33.7177C100.187 33.5829 100.276 33.4481 100.276 33.2668V33.0414C100.276 32.9298 100.208 32.8601 100.094 32.8601ZM83.9618 41.871C83.9618 43.9674 82.2721 45.6571 80.1757 45.6571H75.9386C75.8271 45.6571 75.7573 45.5897 75.7573 45.4758V35.426C75.7573 35.0658 76.027 34.7961 76.3872 34.7961H80.1734C82.2698 34.7961 83.9595 36.4858 83.9595 38.5823V41.871H83.9618ZM80.1757 32.7253H77.045C75.174 32.7253 73.6655 34.2569 73.6655 36.1047V47.5513C73.6655 47.6652 73.733 47.7326 73.8468 47.7326H80.178C83.4226 47.7326 86.0583 45.097 86.0583 41.8524V38.6078C86.0583 35.3633 83.4226 32.7276 80.178 32.7276M61.4541 42.8634L63.776 35.2261C63.8876 34.8194 64.1804 34.6172 64.5871 34.6172H65.3541C65.7609 34.6172 66.0537 34.8194 66.1653 35.2261L68.4849 42.8634C68.529 42.975 68.4616 43.0656 68.3501 43.0656H61.5912C61.4797 43.0656 61.4099 42.975 61.4564 42.8634M68.2362 35.0216C67.7411 33.3552 67.3344 32.5882 64.9683 32.5882C62.6023 32.5882 62.1978 33.3552 61.7005 35.0216L58.3443 46.108C58.3001 46.266 58.2769 46.3567 58.2769 46.4915V47.4142C58.2769 47.6164 58.3884 47.7303 58.593 47.7303H59.697C59.8783 47.7303 60.0131 47.6396 60.0572 47.4607L60.6429 45.5688C60.7336 45.2759 60.98 45.0946 61.2728 45.0946H68.6638C68.9567 45.0946 69.2054 45.2759 69.2937 45.5688L69.8794 47.4607C69.9236 47.6419 70.0607 47.7303 70.2396 47.7303H71.3436C71.5459 47.7303 71.6597 47.6187 71.6597 47.4142V46.4915C71.6597 46.3567 71.6365 46.266 71.5923 46.108L68.2362 35.0216ZM59.267 32.8601H46.1096C45.9957 32.8601 45.9283 32.9275 45.9283 33.0414V34.7543C45.9283 34.8659 45.9957 34.9356 46.1096 34.9356H50.9998C51.36 34.9356 51.6296 35.2052 51.6296 35.5655V47.5513C51.6296 47.6652 51.697 47.7326 51.8109 47.7326H53.5448C53.6587 47.7326 53.7261 47.6652 53.7261 47.5513V35.5655C53.7261 35.2052 53.9957 34.9356 54.3559 34.9356H57.7818C57.9631 34.9356 58.1188 34.8682 58.2327 34.7543L59.2461 33.7177C59.36 33.5829 59.4483 33.4481 59.4483 33.2668V33.0414C59.4483 32.9298 59.3809 32.8601 59.267 32.8601ZM41.0405 39.0564H38.1119C36.9847 39.0564 35.9713 38.1337 35.9713 36.9832C35.9713 35.8327 37.0079 34.6172 38.27 34.6172H40.6128C41.8075 34.6172 42.9115 35.6979 42.9115 36.8693C42.9115 36.96 42.9789 37.0274 43.0695 37.0274H44.8708C44.9847 37.0274 45.0521 36.9367 45.0521 36.8461C45.0521 34.4801 43.0021 32.5882 40.6128 32.5882H38.27C35.8133 32.5882 33.8307 34.5939 33.8307 37.0041C33.8307 39.4143 35.79 41.2179 38.1352 41.2179H41.0428C42.191 41.2179 43.1601 42.1406 43.1601 43.2911V43.5607C43.1601 44.7995 42.1236 45.9708 40.8615 45.9708H38.0213C36.8267 45.9708 35.7226 44.8901 35.7226 43.7187C35.7226 43.6281 35.6552 43.5607 35.5646 43.5607H33.761C33.6471 43.5607 33.5797 43.6513 33.5797 43.742C33.5797 46.108 35.6297 47.9999 38.019 47.9999H40.8592C43.3159 47.9999 45.2984 46.0173 45.2984 43.5607V43.2911C45.2984 40.925 43.4065 39.0541 41.0405 39.0541" fill="#09090B"/>
</svg>
