<svg width="161" height="40" viewBox="0 0 161 40" fill="none" xmlns="http://www.w3.org/2000/svg">
<g clip-path="url(#clip0_226_10406)">
<path d="M57.7683 7.2973C57.7683 9.63349 56.9557 10.6384 54.9455 10.6384C52.9696 10.6384 52.1143 9.59054 52.1143 7.2973C52.1143 5.00406 52.944 3.97339 54.9455 3.97339C56.9557 3.97339 57.7683 5.00406 57.7683 7.2973ZM56.2628 7.2973C56.2628 5.66541 55.9292 5.27032 54.9455 5.27032C53.9704 5.27032 53.6283 5.66541 53.6283 7.2973C53.6283 8.92919 53.979 9.34146 54.9541 9.34146C55.9207 9.34146 56.2628 8.92061 56.2628 7.2973ZM64.3195 6.28381C64.3195 7.64086 63.601 8.42245 61.8132 8.42245H60.9579V10.5181H59.5123V4.07646H61.8132C63.5924 4.07646 64.3195 4.78075 64.3195 6.28381ZM62.8311 6.27522C62.8311 5.50222 62.5574 5.28749 61.8132 5.28749H60.9579V7.26295H61.8132C62.5232 7.26295 62.8311 7.08258 62.8311 6.27522ZM67.3979 9.25557H70.3489L70.3147 10.5181H65.9523V4.07646H70.1864L70.212 5.3562H67.3979V6.63595H69.7672V7.78687H67.3979V9.25557ZM77.1824 10.5181H76.173L73.6839 7.00528L73.299 6.42982L73.2819 6.43841L73.2904 7.13411V10.5181H72.0074V4.07646H73.2391L75.5229 7.40037L75.9079 7.97583L75.925 7.96724L75.9079 7.28012V4.07646H77.1824V10.5181ZM89.4807 7.27153C89.4807 9.59913 88.5141 10.5181 86.6152 10.5181H84.1945V4.07646H86.5981C88.6339 4.07646 89.4807 5.047 89.4807 7.27153ZM87.9667 7.26295C87.9667 5.73412 87.5989 5.37338 86.581 5.37338H85.6401V9.22981H86.5895C87.5732 9.22981 87.9667 8.91202 87.9667 7.26295ZM95.014 10.5181L94.6548 9.26416H92.3281L91.9689 10.5181H90.4463L92.6617 4.07646H94.381L96.6221 10.5181H95.014ZM93.5 5.16725L93.3204 5.84577L92.6788 8.05313H94.3126L93.6967 5.84577L93.5257 5.16725H93.5ZM101.865 5.38197H100.137V10.5181H98.6826V5.38197H96.9633L96.9975 4.07646H101.83L101.865 5.38197ZM106.773 10.5181L106.414 9.26416H104.088L103.728 10.5181H102.206L104.421 4.07646H106.14L108.382 10.5181H106.773ZM105.259 5.16725L105.08 5.84577L104.438 8.05313H106.072L105.456 5.84577L105.285 5.16725H105.259ZM52.4479 22.4472V16.0055H53.9191V22.4472H52.4479ZM61.1631 22.4472H60.1538L57.6647 18.9343L57.2798 18.3589L57.2626 18.3675L57.2712 19.0632V22.4472H55.9881V16.0055H57.2199L59.5037 19.3294L59.8886 19.9049L59.9057 19.8963L59.8886 19.2092V16.0055H61.1631V22.4472ZM67.3979 17.311H64.5837V18.7024H66.9274L66.9103 19.9392H64.5837V22.4472H63.1467V16.0055H67.3722L67.3979 17.311ZM74.2998 19.2264C74.2998 21.5625 73.4872 22.5674 71.477 22.5674C69.5011 22.5674 68.6457 21.5196 68.6457 19.2264C68.6457 16.9331 69.4755 15.9024 71.477 15.9024C73.4872 15.9024 74.2998 16.9331 74.2998 19.2264ZM72.7943 19.2264C72.7943 17.5945 72.4607 17.1994 71.477 17.1994C70.5019 17.1994 70.1597 17.5945 70.1597 19.2264C70.1597 20.8583 70.5105 21.2705 71.4856 21.2705C72.4521 21.2705 72.7943 20.8497 72.7943 19.2264ZM80.7825 18.0067C80.7825 18.9086 80.3976 19.5441 79.7048 19.7589L81.2017 22.4472H79.5166L78.396 20.0423H77.4893V22.4472H76.0438V16.0055H78.396C79.987 16.0055 80.7825 16.6325 80.7825 18.0067ZM79.2771 18.0669C79.2771 17.4141 79.0376 17.208 78.4046 17.208H77.4893V18.9601H78.3789C79.0205 18.9601 79.2771 18.7626 79.2771 18.0669ZM82.6206 16.0055H84.2116L85.7 19.7675L85.9395 20.4116H85.9651L86.2046 19.7675L87.7015 16.0055H89.2925V22.4472H87.9752V19.1662L87.9924 18.4705L87.9667 18.4619L87.7272 19.1147L86.4099 22.4472H85.4519L84.1432 19.1233L83.9037 18.4705L83.8866 18.4791L83.8951 19.1748V22.4472H82.6206V16.0055ZM95.2792 22.4472L94.9199 21.1932H92.5933L92.2341 22.4472H90.7115L92.9269 16.0055H94.6462L96.8873 22.4472H95.2792ZM93.7652 17.0963L93.5855 17.7748L92.944 19.9822H94.5778L93.9619 17.7748L93.7908 17.0963H93.7652ZM102.13 17.311H100.402V22.4472H98.9478V17.311H97.2285L97.2627 16.0055H102.096L102.13 17.311ZM103.694 22.4472V16.0055H105.165V22.4472H103.694ZM112.649 19.2264C112.649 21.5625 111.836 22.5674 109.826 22.5674C107.85 22.5674 106.995 21.5196 106.995 19.2264C106.995 16.9331 107.825 15.9024 109.826 15.9024C111.836 15.9024 112.649 16.9331 112.649 19.2264ZM111.143 19.2264C111.143 17.5945 110.81 17.1994 109.826 17.1994C108.851 17.1994 108.509 17.5945 108.509 19.2264C108.509 20.8583 108.86 21.2705 109.835 21.2705C110.801 21.2705 111.143 20.8497 111.143 19.2264ZM119.568 22.4472H118.559L116.069 18.9343L115.685 18.3589L115.667 18.3675L115.676 19.0632V22.4472H114.393V16.0055H115.625L117.909 19.3294L118.293 19.9049L118.311 19.8963L118.293 19.2092V16.0055H119.568V22.4472ZM125.632 20.5147C125.632 21.7859 124.751 22.5674 123.254 22.5674C122.509 22.5674 121.825 22.3871 121.269 22.0865L121.457 20.8411C122.022 21.1417 122.604 21.3135 123.237 21.3135C123.938 21.3135 124.246 21.0558 124.246 20.6092C124.246 19.5957 121.295 20.0251 121.295 17.8693C121.295 16.7785 121.996 15.8939 123.621 15.8939C124.246 15.8939 124.922 16.0227 125.418 16.2288L125.238 17.4484C124.708 17.2767 124.177 17.1736 123.69 17.1736C122.894 17.1736 122.681 17.4485 122.681 17.792C122.681 18.7969 125.632 18.3331 125.632 20.5147ZM131.336 20.5147C131.336 21.7859 130.455 22.5674 128.958 22.5674C128.214 22.5674 127.53 22.3871 126.974 22.0865L127.162 20.8411C127.726 21.1417 128.308 21.3135 128.941 21.3135C129.642 21.3135 129.95 21.0558 129.95 20.6092C129.95 19.5957 126.999 20.0251 126.999 17.8693C126.999 16.7785 127.701 15.8939 129.326 15.8939C129.95 15.8939 130.626 16.0227 131.122 16.2288L130.942 17.4484C130.412 17.2767 129.882 17.1736 129.394 17.1736C128.599 17.1736 128.385 17.4485 128.385 17.792C128.385 18.7969 131.336 18.3331 131.336 20.5147ZM137.417 17.311H135.689V22.4472H134.235V17.311H132.515L132.55 16.0055H137.382L137.417 17.311ZM140.333 21.1846H143.284L143.249 22.4472H138.887V16.0055H143.121L143.147 17.2853H140.333V18.565H142.702V19.7159H140.333V21.1846ZM146.396 21.1417H149.039L149.005 22.4472H144.942V16.0055H146.396V21.1417ZM152.015 21.1417H154.658L154.624 22.4472H150.561V16.0055H152.015V21.1417ZM157.625 21.1846H160.576L160.542 22.4472H156.18V16.0055H160.414L160.439 17.2853H157.625V18.565H159.995V19.7159H157.625V21.1846ZM56.9813 32.5726C56.9813 33.7149 56.451 34.3763 55.0482 34.3763H52.6959V27.9346H54.9199C56.1088 27.9346 56.7076 28.4413 56.7076 29.5149C56.7076 30.3566 56.3056 30.8033 55.7667 30.9579V30.975C56.5194 31.1296 56.9813 31.6192 56.9813 32.5726ZM56.4253 32.5296C56.4253 31.6536 55.9634 31.2499 55.0225 31.2499H53.2348V33.8781H55.0567C55.9121 33.8781 56.4253 33.526 56.4253 32.5296ZM56.1687 29.6094C56.1687 28.7763 55.7667 28.4413 54.9028 28.4413H53.2433V30.7861H54.9712C55.7753 30.7861 56.1687 30.391 56.1687 29.6094ZM59.863 33.8437H63.2674L63.2417 34.3763H59.307V27.9346H63.0877L63.1134 28.4671H59.863V30.7603H62.6772V31.2413H59.863V33.8437ZM69.3823 29.6781C69.3823 30.726 68.9033 31.2757 68.0137 31.3787L69.8014 34.3763H69.1171L67.4748 31.4818H65.9865V34.3763H65.4219V27.9346H67.5005C68.7921 27.9346 69.3823 28.5014 69.3823 29.6781ZM68.8007 29.7039C68.8007 28.802 68.3986 28.4413 67.5005 28.4413H65.9865V31.018H67.4492C68.3815 31.018 68.8007 30.6401 68.8007 29.7039ZM72.3238 33.8266H75.5058L75.4802 34.3763H71.7593V27.9346H72.3238V33.8266ZM77.5663 34.3763V27.9346H78.1309V34.3763H77.5663ZM85.546 34.3763H85.1269L81.808 29.3947L81.4317 28.8106L81.4145 28.8192L81.4231 29.5149V34.3763H80.9099V27.9346H81.4659L84.6735 32.7959L85.0499 33.3799L85.067 33.3714L85.0499 32.6842L85.0413 27.9346H85.546V34.3763Z" fill="#F4F4F6"/>
<path d="M33.4422 22.7156C33.4422 13.7168 26.1172 6.42176 17.0814 6.42176C8.04565 6.42176 0.720703 13.7168 0.720703 22.7156C0.720703 31.7144 8.04565 39.0094 17.0814 39.0094C26.1172 39.0094 33.4422 31.7144 33.4422 22.7156Z" stroke="#F4F4F6" stroke-width="1.307"/>
<path d="M39.4436 4.74321C39.4436 2.48266 37.6036 0.650122 35.3338 0.650122C33.064 0.650122 31.224 2.48266 31.224 4.74321C31.224 7.00377 33.064 8.8363 35.3338 8.8363C37.6036 8.8363 39.4436 7.00377 39.4436 4.74321Z" stroke="#F4F4F6" stroke-width="1.307"/>
</g>
<defs>
<clipPath id="clip0_226_10406">
<rect width="160.727" height="40" fill="white"/>
</clipPath>
</defs>
</svg>
