<svg width="292" height="13" viewBox="0 0 292 13" fill="none" xmlns="http://www.w3.org/2000/svg">
<path d="M283.692 12.3218V2.64001H290.87V4.27787H285.646V6.42425H290.507V8.0555H285.646V10.6906H291.055V12.3218H283.692Z" fill="#F4F4F6"/>
<path d="M279.868 12.3218V2.64001H281.823V12.3218H279.868Z" fill="#F4F4F6"/>
<path d="M270.16 12.3218V2.64001H274.274C275.309 2.64001 276.059 2.72807 276.526 2.90418C276.997 3.0759 277.374 3.38409 277.655 3.82878C277.937 4.27347 278.078 4.78199 278.078 5.35436C278.078 6.08083 277.865 6.68182 277.437 7.15732C277.01 7.62843 276.372 7.92562 275.522 8.0489C275.945 8.29545 276.293 8.56623 276.566 8.86122C276.843 9.15621 277.215 9.68015 277.682 10.433L278.864 12.3218H276.526L275.113 10.2151C274.611 9.46221 274.267 8.9889 274.083 8.79518C273.898 8.59705 273.702 8.46276 273.495 8.39232C273.288 8.31747 272.96 8.28005 272.511 8.28005H272.114V12.3218H270.16ZM272.114 6.73465H273.561C274.499 6.73465 275.084 6.69502 275.318 6.61577C275.551 6.53652 275.734 6.40003 275.866 6.20631C275.998 6.01259 276.064 5.77043 276.064 5.47984C276.064 5.15403 275.976 4.89206 275.8 4.69394C275.628 4.49141 275.384 4.36372 275.067 4.31089C274.908 4.28888 274.433 4.27787 273.64 4.27787H272.114V6.73465Z" fill="#F4F4F6"/>
<path d="M264.064 12.3218V4.27787H261.191V2.64001H268.885V4.27787H266.019V12.3218H264.064Z" fill="#F4F4F6"/>
<path d="M261.845 12.3218H259.718L258.873 10.1226H255.003L254.204 12.3218H252.13L255.901 2.64001H257.968L261.845 12.3218ZM258.246 8.49138L256.911 4.89867L255.604 8.49138H258.246Z" fill="#F4F4F6"/>
<path d="M249.29 12.3218V2.64001H251.245V12.3218H249.29Z" fill="#F4F4F6"/>
<path d="M239.582 12.3218V2.64001H241.537V6.45067H245.367V2.64001H247.322V12.3218H245.367V8.08852H241.537V12.3218H239.582Z" fill="#F4F4F6"/>
<path d="M235.996 8.76271L237.891 9.3637C237.601 10.4204 237.116 11.2063 236.438 11.7214C235.765 12.2321 234.908 12.4875 233.869 12.4875C232.584 12.4875 231.527 12.0494 230.699 11.1733C229.872 10.2927 229.458 9.09072 229.458 7.56734C229.458 5.9559 229.874 4.7055 230.706 3.81613C231.538 2.92235 232.632 2.47546 233.988 2.47546C235.173 2.47546 236.135 2.82549 236.874 3.52554C237.315 3.93941 237.645 4.53379 237.865 5.30869L235.93 5.77099C235.815 5.26906 235.575 4.87281 235.21 4.58222C234.849 4.29163 234.409 4.14634 233.889 4.14634C233.171 4.14634 232.588 4.40391 232.139 4.91904C231.694 5.43417 231.472 6.26851 231.472 7.42205C231.472 8.64604 231.692 9.5178 232.132 10.0373C232.573 10.5569 233.145 10.8166 233.85 10.8166C234.369 10.8166 234.816 10.6515 235.19 10.3213C235.564 9.9911 235.833 9.47157 235.996 8.76271Z" fill="#F4F4F6"/>
<path d="M223.322 12.3218V8.24702L219.776 2.64001H222.068L224.346 6.47048L226.578 2.64001H228.83L225.271 8.26023V12.3218H223.322Z" fill="#F4F4F6"/>
<path d="M211.263 9.17217L213.165 8.98726C213.279 9.62567 213.51 10.0946 213.858 10.394C214.21 10.6934 214.684 10.8431 215.278 10.8431C215.908 10.8431 216.381 10.711 216.698 10.4468C217.019 10.1782 217.18 9.86562 217.18 9.50899C217.18 9.28004 217.112 9.08632 216.975 8.92782C216.843 8.76491 216.61 8.62402 216.275 8.50515C216.046 8.42589 215.525 8.285 214.71 8.08247C213.662 7.82271 212.927 7.5035 212.504 7.12486C211.91 6.59211 211.613 5.9427 211.613 5.1766C211.613 4.68349 211.751 4.22339 212.029 3.79631C212.311 3.36484 212.713 3.03683 213.237 2.81228C213.766 2.58774 214.402 2.47546 215.146 2.47546C216.361 2.47546 217.275 2.74184 217.887 3.27458C218.503 3.80732 218.827 4.51838 218.858 5.40775L216.903 5.49361C216.819 4.99609 216.639 4.63946 216.361 4.42372C216.088 4.20358 215.677 4.09351 215.126 4.09351C214.558 4.09351 214.114 4.21018 213.792 4.44353C213.585 4.59323 213.482 4.79356 213.482 5.04452C213.482 5.27346 213.579 5.46939 213.772 5.6323C214.019 5.83923 214.618 6.05497 215.569 6.27951C216.52 6.50406 217.222 6.73741 217.675 6.97956C218.133 7.21732 218.49 7.54533 218.745 7.9636C219.005 8.37746 219.135 8.89039 219.135 9.50239C219.135 10.0571 218.981 10.5767 218.673 11.061C218.365 11.5453 217.929 11.9063 217.365 12.1441C216.802 12.3774 216.099 12.4941 215.258 12.4941C214.034 12.4941 213.094 12.2123 212.438 11.6488C211.782 11.0808 211.39 10.2553 211.263 9.17217Z" fill="#F4F4F6"/>
<path d="M202.737 12.3218V2.64001H205.874C207.063 2.64001 207.838 2.68845 208.199 2.78531C208.753 2.9306 209.218 3.24761 209.592 3.73632C209.966 4.22063 210.154 4.84804 210.154 5.61853C210.154 6.21291 210.046 6.71264 209.83 7.1177C209.614 7.52276 209.339 7.84196 209.004 8.07531C208.674 8.30426 208.337 8.45616 207.994 8.53101C207.527 8.62347 206.851 8.6697 205.966 8.6697H204.692V12.3218H202.737ZM204.692 4.27787V7.02524H205.762C206.532 7.02524 207.047 6.9746 207.307 6.87334C207.567 6.77207 207.769 6.61357 207.915 6.39783C208.064 6.18209 208.139 5.93113 208.139 5.64495C208.139 5.29272 208.036 5.00214 207.829 4.77319C207.622 4.54424 207.36 4.40115 207.043 4.34391C206.81 4.29988 206.341 4.27787 205.636 4.27787H204.692Z" fill="#F4F4F6"/>
<path d="M189.951 12.3218V2.64001H197.13V4.27787H191.906V6.42425H196.767V8.0555H191.906V10.6906H197.315V12.3218H189.951Z" fill="#F4F4F6"/>
<path d="M180.183 12.3218V2.64001H182.138V6.45067H185.969V2.64001H187.924V12.3218H185.969V8.08852H182.138V12.3218H180.183Z" fill="#F4F4F6"/>
<path d="M176.597 8.76271L178.493 9.3637C178.202 10.4204 177.718 11.2063 177.04 11.7214C176.366 12.2321 175.51 12.4875 174.471 12.4875C173.185 12.4875 172.128 12.0494 171.301 11.1733C170.473 10.2927 170.059 9.09072 170.059 7.56734C170.059 5.9559 170.475 4.7055 171.307 3.81613C172.139 2.92235 173.233 2.47546 174.589 2.47546C175.774 2.47546 176.736 2.82549 177.476 3.52554C177.916 3.93941 178.246 4.53379 178.466 5.30869L176.531 5.77099C176.417 5.26906 176.177 4.87281 175.811 4.58222C175.45 4.29163 175.01 4.14634 174.49 4.14634C173.773 4.14634 173.189 4.40391 172.74 4.91904C172.296 5.43417 172.073 6.26851 172.073 7.42205C172.073 8.64604 172.293 9.5178 172.734 10.0373C173.174 10.5569 173.746 10.8166 174.451 10.8166C174.97 10.8166 175.417 10.6515 175.791 10.3213C176.166 9.9911 176.434 9.47157 176.597 8.76271Z" fill="#F4F4F6"/>
<path d="M160.885 9.17217L162.788 8.98726C162.902 9.62567 163.133 10.0946 163.481 10.394C163.833 10.6934 164.306 10.8431 164.901 10.8431C165.53 10.8431 166.004 10.711 166.321 10.4468C166.642 10.1782 166.803 9.86562 166.803 9.50899C166.803 9.28004 166.735 9.08632 166.598 8.92782C166.466 8.76491 166.233 8.62402 165.898 8.50515C165.669 8.42589 165.147 8.285 164.333 8.08247C163.285 7.82271 162.55 7.5035 162.127 7.12486C161.533 6.59211 161.236 5.9427 161.236 5.1766C161.236 4.68349 161.374 4.22339 161.652 3.79631C161.933 3.36484 162.336 3.03683 162.86 2.81228C163.389 2.58774 164.025 2.47546 164.769 2.47546C165.984 2.47546 166.898 2.74184 167.51 3.27458C168.126 3.80732 168.45 4.51838 168.48 5.40775L166.526 5.49361C166.442 4.99609 166.261 4.63946 165.984 4.42372C165.711 4.20358 165.299 4.09351 164.749 4.09351C164.181 4.09351 163.736 4.21018 163.415 4.44353C163.208 4.59323 163.105 4.79356 163.105 5.04452C163.105 5.27346 163.201 5.46939 163.395 5.6323C163.642 5.83923 164.24 6.05497 165.191 6.27951C166.142 6.50406 166.845 6.73741 167.298 6.97956C167.756 7.21732 168.113 7.54533 168.368 7.9636C168.628 8.37746 168.758 8.89039 168.758 9.50239C168.758 10.0571 168.604 10.5767 168.295 11.061C167.987 11.5453 167.551 11.9063 166.988 12.1441C166.424 12.3774 165.722 12.4941 164.881 12.4941C163.657 12.4941 162.717 12.2123 162.061 11.6488C161.405 11.0808 161.013 10.2553 160.885 9.17217Z" fill="#F4F4F6"/>
<path d="M157.557 12.3218V2.64001H159.512V12.3218H157.557Z" fill="#F4F4F6"/>
<path d="M151.528 12.3218V4.27787H148.655V2.64001H156.349V4.27787H153.482V12.3218H151.528Z" fill="#F4F4F6"/>
<path d="M142.869 12.3218V8.24702L139.323 2.64001H141.615L143.893 6.47048L146.125 2.64001H148.377L144.818 8.26023V12.3218H142.869Z" fill="#F4F4F6"/>
<path d="M133.353 12.3224V2.71985H135.307V10.6912H140.168V12.3224H133.353Z" fill="#F4F4F6"/>
<path d="M132.256 12.3218H130.13L129.284 10.1226H125.414L124.615 12.3218H122.541L126.312 2.64001H128.38L132.256 12.3218ZM128.657 8.49138L127.323 4.89867L126.015 8.49138H128.657Z" fill="#F4F4F6"/>
<path d="M113.771 12.3218V2.64001H115.673L119.636 9.10558V2.64001H121.452V12.3218H119.49L115.587 6.00818V12.3218H113.771Z" fill="#F4F4F6"/>
<path d="M112.708 12.3218H110.581L109.736 10.1226H105.866L105.067 12.3218H102.993L106.764 2.64001H108.831L112.708 12.3218ZM109.109 8.49138L107.774 4.89867L106.467 8.49138H109.109Z" fill="#F4F4F6"/>
<path d="M90.9466 12.3218V2.64001H95.061C96.0957 2.64001 96.8464 2.72807 97.3131 2.90418C97.7842 3.0759 98.1606 3.38409 98.4424 3.82878C98.7242 4.27347 98.8651 4.78199 98.8651 5.35436C98.8651 6.08083 98.6516 6.68182 98.2245 7.15732C97.7974 7.62843 97.159 7.92562 96.3092 8.0489C96.7319 8.29545 97.0797 8.56623 97.3527 8.86122C97.6301 9.15621 98.0021 9.68015 98.4688 10.433L99.651 12.3218H97.3131L95.8998 10.2151C95.3979 9.46221 95.0544 8.9889 94.8695 8.79518C94.6846 8.59705 94.4887 8.46276 94.2817 8.39232C94.0748 8.31747 93.7468 8.28005 93.2977 8.28005H92.9015V12.3218H90.9466ZM92.9015 6.73465H94.3478C95.2856 6.73465 95.8712 6.69502 96.1045 6.61577C96.3379 6.53652 96.5206 6.40003 96.6527 6.20631C96.7848 6.01259 96.8508 5.77043 96.8508 5.47984C96.8508 5.15403 96.7627 4.89206 96.5866 4.69394C96.4149 4.49141 96.1706 4.36372 95.8536 4.31089C95.6951 4.28888 95.2195 4.27787 94.427 4.27787H92.9015V6.73465Z" fill="#F4F4F6"/>
<path d="M81.1524 2.64052H83.1073V7.8843C83.1073 8.71643 83.1315 9.25578 83.1799 9.50234C83.2636 9.89859 83.4617 10.2178 83.7743 10.46C84.0913 10.6977 84.5228 10.8166 85.0687 10.8166C85.6235 10.8166 86.0418 10.7043 86.3235 10.4798C86.6053 10.2508 86.7748 9.97124 86.8321 9.64103C86.8893 9.31081 86.9179 8.76266 86.9179 7.99657V2.64052H88.8728V7.72579C88.8728 8.88814 88.8199 9.70927 88.7143 10.1892C88.6086 10.6691 88.4127 11.0741 88.1265 11.4044C87.8447 11.7346 87.4661 11.9987 86.9906 12.1969C86.5151 12.3906 85.8943 12.4875 85.1282 12.4875C84.2036 12.4875 83.5013 12.3818 83.0214 12.1705C82.5459 11.9547 82.1695 11.6773 81.8921 11.3383C81.6147 10.9949 81.432 10.6361 81.3439 10.2618C81.2162 9.70707 81.1524 8.88814 81.1524 7.80505V2.64052ZM82.8167 2.08576V0.494141H84.4083V2.08576H82.8167ZM85.6565 2.08576V0.494141H87.2547V2.08576H85.6565Z" fill="#F4F4F6"/>
<path d="M72.9106 12.3218V2.64001H79.5479V4.27787H74.8655V6.56954H78.9073V8.2074H74.8655V12.3218H72.9106Z" fill="#F4F4F6"/>
<path d="M63.1098 8.76271V7.13146H67.3233V10.9883C66.9139 11.3846 66.3195 11.7346 65.5402 12.0384C64.7653 12.3378 63.9794 12.4875 63.1825 12.4875C62.1698 12.4875 61.2871 12.2762 60.5342 11.8535C59.7813 11.4264 59.2155 10.8188 58.8369 10.0307C58.4582 9.23822 58.2689 8.37746 58.2689 7.44846C58.2689 6.44022 58.4803 5.54424 58.9029 4.76053C59.3256 3.97683 59.9442 3.37584 60.7587 2.95757C61.3795 2.63617 62.1522 2.47546 63.0768 2.47546C64.2788 2.47546 65.2166 2.72863 65.8902 3.23495C66.5683 3.73688 67.0041 4.43252 67.1979 5.3219L65.2562 5.68513C65.1197 5.20962 64.8622 4.83538 64.4835 4.56241C64.1093 4.28503 63.6404 4.14634 63.0768 4.14634C62.2227 4.14634 61.5424 4.41711 61.0361 4.95866C60.5342 5.50021 60.2832 6.30373 60.2832 7.36921C60.2832 8.51835 60.5386 9.38131 61.0493 9.95808C61.56 10.5304 62.2293 10.8166 63.057 10.8166C63.4665 10.8166 63.8759 10.7374 64.2854 10.5789C64.6993 10.416 65.0537 10.22 65.3487 9.9911V8.76271H63.1098Z" fill="#F4F4F6"/>
<path d="M48.8513 12.3218V2.64001H50.7533L54.7158 9.10558V2.64001H56.532V12.3218H54.5705L50.6674 6.00818V12.3218H48.8513Z" fill="#F4F4F6"/>
<path d="M39.044 2.64001H40.9989V7.88379C40.9989 8.71592 41.0231 9.25527 41.0715 9.50183C41.1552 9.89809 41.3533 10.2173 41.6659 10.4594C41.9829 10.6972 42.4144 10.8161 42.9603 10.8161C43.5151 10.8161 43.9334 10.7038 44.2151 10.4793C44.4969 10.2503 44.6664 9.97073 44.7237 9.64052C44.7809 9.31031 44.8095 8.76215 44.8095 7.99606V2.64001H46.7644V7.72529C46.7644 8.88764 46.7115 9.70876 46.6059 10.1887C46.5002 10.6686 46.3043 11.0736 46.0181 11.4039C45.7363 11.7341 45.3577 11.9982 44.8822 12.1964C44.4067 12.3901 43.7859 12.487 43.0198 12.487C42.0952 12.487 41.3929 12.3813 40.913 12.1699C40.4375 11.9542 40.0611 11.6768 39.7837 11.3378C39.5063 10.9944 39.3236 10.6356 39.2355 10.2613C39.1078 9.70656 39.044 8.88764 39.044 7.80454V2.64001Z" fill="#F4F4F6"/>
<path d="M32.968 12.3218V4.27787H30.0952V2.64001H37.7891V4.27787H34.9229V12.3218H32.968Z" fill="#F4F4F6"/>
<path d="M22.5334 12.3218V2.64001H29.1707V4.27787H24.4882V6.56954H28.53V8.2074H24.4882V12.3218H22.5334Z" fill="#F4F4F6"/>
<path d="M18.696 12.3218V2.64001H20.6508V12.3218H18.696Z" fill="#F4F4F6"/>
<path d="M12.6665 12.3218V4.27787H9.79364V2.64001H17.4876V4.27787H14.6213V12.3218H12.6665Z" fill="#F4F4F6"/>
<path d="M0.970459 9.17217L2.87248 8.98726C2.98696 9.62567 3.21811 10.0946 3.56593 10.394C3.91816 10.6934 4.39146 10.8431 4.98584 10.8431C5.61545 10.8431 6.08875 10.711 6.40576 10.4468C6.72716 10.1782 6.88787 9.86562 6.88787 9.50899C6.88787 9.28004 6.81962 9.08632 6.68314 8.92782C6.55105 8.76491 6.3177 8.62402 5.98308 8.50515C5.75414 8.42589 5.2324 8.285 4.41788 8.08247C3.37 7.82271 2.63473 7.5035 2.21206 7.12486C1.61768 6.59211 1.32048 5.9427 1.32048 5.1766C1.32048 4.68349 1.45917 4.22339 1.73655 3.79631C2.01833 3.36484 2.42119 3.03683 2.94513 2.81228C3.47347 2.58774 4.10968 2.47546 4.85376 2.47546C6.06894 2.47546 6.98253 2.74184 7.59452 3.27458C8.21092 3.80732 8.53453 4.51838 8.56535 5.40775L6.61049 5.49361C6.52683 4.99609 6.34632 4.63946 6.06894 4.42372C5.79596 4.20358 5.3843 4.09351 4.83395 4.09351C4.26598 4.09351 3.82129 4.21018 3.49989 4.44353C3.29295 4.59323 3.18949 4.79356 3.18949 5.04452C3.18949 5.27346 3.28635 5.46939 3.48007 5.6323C3.72663 5.83923 4.32542 6.05497 5.27643 6.27951C6.22744 6.50406 6.92969 6.73741 7.38319 6.97956C7.84108 7.21732 8.19771 7.54533 8.45307 7.9636C8.71284 8.37746 8.84272 8.89039 8.84272 9.50239C8.84272 10.0571 8.68863 10.5767 8.38043 11.061C8.07223 11.5453 7.63635 11.9063 7.07279 12.1441C6.50922 12.3774 5.80697 12.4941 4.96603 12.4941C3.74204 12.4941 2.80204 12.2123 2.14602 11.6488C1.48999 11.0808 1.09814 10.2553 0.970459 9.17217Z" fill="#F4F4F6"/>
</svg>
