<svg width="291" height="12" viewBox="0 0 291 12" fill="none" xmlns="http://www.w3.org/2000/svg">
<path d="M282.721 11.8277V2.14587H289.9V3.78373H284.676V5.93011H289.537V7.56136H284.676V10.1965H290.085V11.8277H282.721Z" fill="#00376C"/>
<path d="M278.898 11.8277V2.14587H280.852V11.8277H278.898Z" fill="#00376C"/>
<path d="M269.189 11.8277V2.14587H273.304C274.338 2.14587 275.089 2.23393 275.556 2.41004C276.027 2.58175 276.403 2.88995 276.685 3.33464C276.967 3.77933 277.108 4.28785 277.108 4.86022C277.108 5.58669 276.894 6.18768 276.467 6.66318C276.04 7.13428 275.402 7.43148 274.552 7.55476C274.974 7.80131 275.322 8.07209 275.595 8.36708C275.873 8.66207 276.245 9.18601 276.711 9.93889L277.894 11.8277H275.556L274.142 9.72095C273.64 8.96807 273.297 8.49476 273.112 8.30104C272.927 8.10291 272.731 7.96862 272.524 7.89818C272.317 7.82333 271.989 7.7859 271.54 7.7859H271.144V11.8277H269.189ZM271.144 6.24051H272.59C273.528 6.24051 274.114 6.20088 274.347 6.12163C274.58 6.04238 274.763 5.90589 274.895 5.71217C275.027 5.51844 275.093 5.27629 275.093 4.9857C275.093 4.65989 275.005 4.39792 274.829 4.1998C274.657 3.99727 274.413 3.86958 274.096 3.81675C273.938 3.79474 273.462 3.78373 272.67 3.78373H271.144V6.24051Z" fill="#00376C"/>
<path d="M263.094 11.8277V3.78373H260.221V2.14587H267.915V3.78373H265.048V11.8277H263.094Z" fill="#00376C"/>
<path d="M260.874 11.8277H258.748L257.902 9.62849H254.032L253.233 11.8277H251.16L254.931 2.14587H256.998L260.874 11.8277ZM257.275 7.99724L255.941 4.40453L254.633 7.99724H257.275Z" fill="#00376C"/>
<path d="M248.32 11.8277V2.14587H250.275V11.8277H248.32Z" fill="#00376C"/>
<path d="M238.612 11.8277V2.14587H240.566V5.95653H244.397V2.14587H246.352V11.8277H244.397V7.59438H240.566V11.8277H238.612Z" fill="#00376C"/>
<path d="M235.025 8.26863L236.921 8.86962C236.63 9.9263 236.146 10.7122 235.468 11.2273C234.794 11.7381 233.938 11.9934 232.899 11.9934C231.613 11.9934 230.557 11.5553 229.729 10.6792C228.901 9.79862 228.487 8.59664 228.487 7.07326C228.487 5.46182 228.903 4.21142 229.735 3.32205C230.568 2.42827 231.662 1.98138 233.018 1.98138C234.202 1.98138 235.164 2.33141 235.904 3.03146C236.344 3.44533 236.674 4.03971 236.894 4.81461L234.959 5.27691C234.845 4.77498 234.605 4.37873 234.24 4.08814C233.879 3.79755 233.438 3.65226 232.919 3.65226C232.201 3.65226 231.618 3.90983 231.169 4.42496C230.724 4.94009 230.502 5.77443 230.502 6.92797C230.502 8.15196 230.722 9.02372 231.162 9.54325C231.602 10.0628 232.175 10.3226 232.879 10.3226C233.399 10.3226 233.845 10.1574 234.22 9.82723C234.594 9.49702 234.863 8.97749 235.025 8.26863Z" fill="#00376C"/>
<path d="M222.352 11.8277V7.75288L218.806 2.14587H221.097L223.376 5.97634L225.608 2.14587H227.86L224.3 7.76609V11.8277H222.352Z" fill="#00376C"/>
<path d="M210.292 8.67809L212.194 8.49318C212.309 9.13159 212.54 9.60049 212.888 9.89988C213.24 10.1993 213.713 10.349 214.308 10.349C214.937 10.349 215.411 10.2169 215.728 9.95271C216.049 9.68414 216.21 9.37154 216.21 9.01491C216.21 8.78596 216.141 8.59224 216.005 8.43374C215.873 8.27083 215.64 8.12994 215.305 8.01107C215.076 7.93181 214.554 7.79092 213.74 7.58839C212.692 7.32863 211.957 7.00942 211.534 6.63078C210.94 6.09803 210.642 5.44862 210.642 4.68252C210.642 4.18941 210.781 3.72931 211.058 3.30223C211.34 2.87076 211.743 2.54275 212.267 2.3182C212.795 2.09366 213.432 1.98138 214.176 1.98138C215.391 1.98138 216.304 2.24776 216.916 2.7805C217.533 3.31324 217.856 4.0243 217.887 4.91367L215.932 4.99953C215.849 4.50201 215.668 4.14538 215.391 3.92964C215.118 3.7095 214.706 3.59943 214.156 3.59943C213.588 3.59943 213.143 3.7161 212.822 3.94945C212.615 4.09915 212.511 4.29948 212.511 4.55044C212.511 4.77939 212.608 4.97531 212.802 5.13822C213.048 5.34515 213.647 5.56089 214.598 5.78543C215.549 6.00998 216.252 6.24333 216.705 6.48548C217.163 6.72324 217.52 7.05125 217.775 7.46952C218.035 7.88338 218.165 8.39631 218.165 9.00831C218.165 9.56306 218.01 10.0826 217.702 10.5669C217.394 11.0512 216.958 11.4123 216.395 11.65C215.831 11.8834 215.129 12 214.288 12C213.064 12 212.124 11.7183 211.468 11.1547C210.812 10.5867 210.42 9.76119 210.292 8.67809Z" fill="#00376C"/>
<path d="M201.766 11.8277V2.14587H204.903C206.092 2.14587 206.867 2.19431 207.228 2.29117C207.783 2.43646 208.247 2.75347 208.622 3.24218C208.996 3.72649 209.183 4.3539 209.183 5.12439C209.183 5.71877 209.075 6.2185 208.859 6.62356C208.644 7.02862 208.369 7.34782 208.034 7.58117C207.704 7.81012 207.367 7.96202 207.023 8.03687C206.557 8.12933 205.881 8.17556 204.996 8.17556H203.721V11.8277H201.766ZM203.721 3.78373V6.5311H204.791C205.562 6.5311 206.077 6.48046 206.337 6.3792C206.596 6.27793 206.799 6.11943 206.944 5.90369C207.094 5.68795 207.169 5.43699 207.169 5.15081C207.169 4.79858 207.065 4.50799 206.858 4.27905C206.651 4.0501 206.389 3.90701 206.072 3.84977C205.839 3.80574 205.37 3.78373 204.666 3.78373H203.721Z" fill="#00376C"/>
<path d="M188.981 11.8277V2.14587H196.16V3.78373H190.936V5.93011H195.796V7.56136H190.936V10.1965H196.344V11.8277H188.981Z" fill="#00376C"/>
<path d="M179.213 11.8277V2.14587H181.168V5.95653H184.998V2.14587H186.953V11.8277H184.998V7.59438H181.168V11.8277H179.213Z" fill="#00376C"/>
<path d="M175.627 8.26863L177.522 8.86962C177.232 9.9263 176.747 10.7122 176.069 11.2273C175.396 11.7381 174.539 11.9934 173.5 11.9934C172.215 11.9934 171.158 11.5553 170.33 10.6792C169.502 9.79862 169.089 8.59664 169.089 7.07326C169.089 5.46182 169.505 4.21142 170.337 3.32205C171.169 2.42827 172.263 1.98138 173.619 1.98138C174.803 1.98138 175.765 2.33141 176.505 3.03146C176.945 3.44533 177.276 4.03971 177.496 4.81461L175.561 5.27691C175.446 4.77498 175.206 4.37873 174.841 4.08814C174.48 3.79755 174.039 3.65226 173.52 3.65226C172.802 3.65226 172.219 3.90983 171.77 4.42496C171.325 4.94009 171.103 5.77443 171.103 6.92797C171.103 8.15196 171.323 9.02372 171.763 9.54325C172.204 10.0628 172.776 10.3226 173.48 10.3226C174 10.3226 174.447 10.1574 174.821 9.82723C175.195 9.49702 175.464 8.97749 175.627 8.26863Z" fill="#00376C"/>
<path d="M159.915 8.67809L161.817 8.49318C161.932 9.13159 162.163 9.60049 162.511 9.89988C162.863 10.1993 163.336 10.349 163.93 10.349C164.56 10.349 165.033 10.2169 165.35 9.95271C165.672 9.68414 165.832 9.37154 165.832 9.01491C165.832 8.78596 165.764 8.59224 165.628 8.43374C165.496 8.27083 165.262 8.12994 164.928 8.01107C164.699 7.93181 164.177 7.79092 163.362 7.58839C162.315 7.32863 161.579 7.00942 161.157 6.63078C160.562 6.09803 160.265 5.44862 160.265 4.68252C160.265 4.18941 160.404 3.72931 160.681 3.30223C160.963 2.87076 161.366 2.54275 161.89 2.3182C162.418 2.09366 163.054 1.98138 163.798 1.98138C165.014 1.98138 165.927 2.24776 166.539 2.7805C167.155 3.31324 167.479 4.0243 167.51 4.91367L165.555 4.99953C165.471 4.50201 165.291 4.14538 165.014 3.92964C164.741 3.7095 164.329 3.59943 163.779 3.59943C163.211 3.59943 162.766 3.7161 162.444 3.94945C162.238 4.09915 162.134 4.29948 162.134 4.55044C162.134 4.77939 162.231 4.97531 162.425 5.13822C162.671 5.34515 163.27 5.56089 164.221 5.78543C165.172 6.00998 165.874 6.24333 166.328 6.48548C166.786 6.72324 167.142 7.05125 167.398 7.46952C167.657 7.88338 167.787 8.39631 167.787 9.00831C167.787 9.56306 167.633 10.0826 167.325 10.5669C167.017 11.0512 166.581 11.4123 166.017 11.65C165.454 11.8834 164.752 12 163.911 12C162.687 12 161.747 11.7183 161.091 11.1547C160.435 10.5867 160.043 9.76119 159.915 8.67809Z" fill="#00376C"/>
<path d="M156.587 11.8277V2.14587H158.541V11.8277H156.587Z" fill="#00376C"/>
<path d="M150.557 11.8277V3.78373H147.684V2.14587H155.378V3.78373H152.512V11.8277H150.557Z" fill="#00376C"/>
<path d="M141.899 11.8277V7.75288L138.352 2.14587H140.644L142.923 5.97634L145.155 2.14587H147.407L143.847 7.76609V11.8277H141.899Z" fill="#00376C"/>
<path d="M132.382 11.8282V2.22565H134.337V10.197H139.198V11.8282H132.382Z" fill="#00376C"/>
<path d="M131.286 11.8277H129.159L128.314 9.62849H124.444L123.645 11.8277H121.571L125.342 2.14587H127.409L131.286 11.8277ZM127.687 7.99724L126.352 4.40453L125.045 7.99724H127.687Z" fill="#00376C"/>
<path d="M112.801 11.8277V2.14587H114.703L118.665 8.61144V2.14587H120.481V11.8277H118.52L114.617 5.51404V11.8277H112.801Z" fill="#00376C"/>
<path d="M111.737 11.8277H109.611L108.765 9.62849H104.895L104.096 11.8277H102.023L105.794 2.14587H107.861L111.737 11.8277ZM108.138 7.99724L106.804 4.40453L105.496 7.99724H108.138Z" fill="#00376C"/>
<path d="M89.9761 11.8277V2.14587H94.0906C95.1252 2.14587 95.8759 2.23393 96.3426 2.41004C96.8137 2.58175 97.1902 2.88995 97.472 3.33464C97.7537 3.77933 97.8946 4.28785 97.8946 4.86022C97.8946 5.58669 97.6811 6.18768 97.254 6.66318C96.8269 7.13428 96.1885 7.43148 95.3388 7.55476C95.7615 7.80131 96.1093 8.07209 96.3823 8.36708C96.6596 8.66207 97.0317 9.18601 97.4984 9.93889L98.6805 11.8277H96.3426L94.9293 9.72095C94.4274 8.96807 94.084 8.49476 93.8991 8.30104C93.7141 8.10291 93.5182 7.96862 93.3113 7.89818C93.1043 7.82333 92.7763 7.7859 92.3272 7.7859H91.931V11.8277H89.9761ZM91.931 6.24051H93.3773C94.3151 6.24051 94.9007 6.20088 95.1341 6.12163C95.3674 6.04238 95.5501 5.90589 95.6822 5.71217C95.8143 5.51844 95.8803 5.27629 95.8803 4.9857C95.8803 4.65989 95.7923 4.39792 95.6162 4.1998C95.4445 3.99727 95.2001 3.86958 94.8831 3.81675C94.7246 3.79474 94.2491 3.78373 93.4566 3.78373H91.931V6.24051Z" fill="#00376C"/>
<path d="M80.1819 2.14638H82.1368V7.39016C82.1368 8.22229 82.161 8.76164 82.2095 9.0082C82.2931 9.40445 82.4912 9.72366 82.8038 9.96581C83.1208 10.2036 83.5523 10.3224 84.0983 10.3224C84.653 10.3224 85.0713 10.2102 85.3531 9.98563C85.6349 9.75668 85.8044 9.4771 85.8616 9.14689C85.9188 8.81667 85.9475 8.26852 85.9475 7.50243V2.14638H87.9023V7.23165C87.9023 8.394 87.8495 9.21513 87.7438 9.69504C87.6381 10.1749 87.4422 10.58 87.156 10.9102C86.8743 11.2404 86.4956 11.5046 86.0201 11.7027C85.5446 11.8965 84.9238 11.9933 84.1577 11.9933C83.2331 11.9933 82.5309 11.8877 82.0509 11.6763C81.5754 11.4606 81.199 11.1832 80.9216 10.8442C80.6442 10.5008 80.4615 10.1419 80.3735 9.76769C80.2458 9.21293 80.1819 8.394 80.1819 7.3109V2.14638ZM81.8462 1.59162V0H83.4378V1.59162H81.8462ZM84.686 1.59162V0H86.2843V1.59162H84.686Z" fill="#00376C"/>
<path d="M71.9402 11.8277V2.14587H78.5775V3.78373H73.895V6.0754H77.9368V7.71326H73.895V11.8277H71.9402Z" fill="#00376C"/>
<path d="M62.1394 8.26863V6.63738H66.3529V10.4943C65.9434 10.8905 65.349 11.2405 64.5697 11.5443C63.7948 11.8437 63.0089 11.9934 62.212 11.9934C61.1994 11.9934 60.3166 11.7821 59.5637 11.3594C58.8108 10.9323 58.2451 10.3248 57.8664 9.53665C57.4878 8.74414 57.2985 7.88338 57.2985 6.95439C57.2985 5.94614 57.5098 5.05016 57.9325 4.26646C58.3551 3.48275 58.9737 2.88176 59.7883 2.46349C60.4091 2.14209 61.1818 1.98138 62.1064 1.98138C63.3083 1.98138 64.2461 2.23455 64.9198 2.74087C65.5978 3.2428 66.0337 3.93844 66.2274 4.82782L64.2858 5.19105C64.1493 4.71554 63.8917 4.3413 63.5131 4.06833C63.1388 3.79095 62.6699 3.65226 62.1064 3.65226C61.2522 3.65226 60.572 3.92303 60.0656 4.46458C59.5637 5.00613 59.3128 5.80965 59.3128 6.87513C59.3128 8.02427 59.5681 8.88723 60.0789 9.464C60.5896 10.0364 61.2588 10.3226 62.0865 10.3226C62.496 10.3226 62.9055 10.2433 63.3149 10.0848C63.7288 9.9219 64.0832 9.72597 64.3782 9.49702V8.26863H62.1394Z" fill="#00376C"/>
<path d="M47.8808 11.8277V2.14587H49.7828L53.7454 8.61144V2.14587H55.5615V11.8277H53.6001L49.697 5.51404V11.8277H47.8808Z" fill="#00376C"/>
<path d="M38.0735 2.14587H40.0284V7.38965C40.0284 8.22178 40.0526 8.76113 40.1011 9.00769C40.1847 9.40394 40.3828 9.72315 40.6954 9.96531C41.0124 10.2031 41.4439 10.3219 41.9899 10.3219C42.5446 10.3219 42.9629 10.2097 43.2447 9.98512C43.5265 9.75617 43.696 9.47659 43.7532 9.14638C43.8104 8.81617 43.8391 8.26801 43.8391 7.50192V2.14587H45.7939V7.23115C45.7939 8.39349 45.7411 9.21462 45.6354 9.69453C45.5297 10.1744 45.3338 10.5795 45.0476 10.9097C44.7659 11.2399 44.3872 11.5041 43.9117 11.7022C43.4362 11.8959 42.8154 11.9928 42.0493 11.9928C41.1247 11.9928 40.4225 11.8871 39.9426 11.6758C39.467 11.4601 39.0906 11.1827 38.8132 10.8437C38.5358 10.5003 38.3531 10.1414 38.2651 9.76718C38.1374 9.21242 38.0735 8.39349 38.0735 7.3104V2.14587Z" fill="#00376C"/>
<path d="M31.9975 11.8277V3.78373H29.1247V2.14587H36.8186V3.78373H33.9524V11.8277H31.9975Z" fill="#00376C"/>
<path d="M21.5629 11.8277V2.14587H28.2002V3.78373H23.5178V6.0754H27.5596V7.71326H23.5178V11.8277H21.5629Z" fill="#00376C"/>
<path d="M17.7255 11.8277V2.14587H19.6804V11.8277H17.7255Z" fill="#00376C"/>
<path d="M11.696 11.8277V3.78373H8.82318V2.14587H16.5171V3.78373H13.6509V11.8277H11.696Z" fill="#00376C"/>
<path d="M0 8.67809L1.90202 8.49318C2.0165 9.13159 2.24765 9.60049 2.59547 9.89988C2.9477 10.1993 3.421 10.349 4.01538 10.349C4.64499 10.349 5.11829 10.2169 5.4353 9.95271C5.7567 9.68414 5.91741 9.37154 5.91741 9.01491C5.91741 8.78596 5.84916 8.59224 5.71268 8.43374C5.58059 8.27083 5.34724 8.12994 5.01263 8.01107C4.78368 7.93181 4.26194 7.79092 3.44742 7.58839C2.39954 7.32863 1.66427 7.00942 1.2416 6.63078C0.647216 6.09803 0.350025 5.44862 0.350025 4.68252C0.350025 4.18941 0.488714 3.72931 0.766093 3.30223C1.04787 2.87076 1.45073 2.54275 1.97467 2.3182C2.50301 2.09366 3.13922 1.98138 3.8833 1.98138C5.09848 1.98138 6.01207 2.24776 6.62406 2.7805C7.24046 3.31324 7.56407 4.0243 7.59489 4.91367L5.64003 4.99953C5.55638 4.50201 5.37586 4.14538 5.09848 3.92964C4.82551 3.7095 4.41384 3.59943 3.86349 3.59943C3.29552 3.59943 2.85083 3.7161 2.52943 3.94945C2.32249 4.09915 2.21903 4.29948 2.21903 4.55044C2.21903 4.77939 2.31589 4.97531 2.50961 5.13822C2.75617 5.34515 3.35496 5.56089 4.30597 5.78543C5.25698 6.00998 5.95923 6.24333 6.41273 6.48548C6.87062 6.72324 7.22725 7.05125 7.48261 7.46952C7.74238 7.88338 7.87227 8.39631 7.87227 9.00831C7.87227 9.56306 7.71817 10.0826 7.40997 10.5669C7.10177 11.0512 6.66589 11.4123 6.10233 11.65C5.53876 11.8834 4.83651 12 3.99557 12C2.77158 12 1.83158 11.7183 1.17556 11.1547C0.519534 10.5867 0.127682 9.76119 0 8.67809Z" fill="#00376C"/>
</svg>
