<svg width="129" height="40" viewBox="0 0 129 40" fill="none" xmlns="http://www.w3.org/2000/svg">
<g clip-path="url(#clip0_226_10376)">
<path d="M2.15712 27.8295L2.76964 27.4567L13.1558 29.0812L12.7563 29.4807L2.15712 27.8295ZM29.534 15.6591L29.1877 16.0053L40.8788 21.1451L40.7723 20.5859L29.534 15.6591ZM25.0599 13.6884L24.5806 13.9813L26.8176 14.9667L27.1638 14.6205L25.0599 13.6884ZM49.7204 24.3941L44.8735 35.0732L15.4993 30.0932L16.2716 29.2676L43.9148 33.9813L38.7217 5.13979L4.42077 40.4527L0 27.2437L9.77364 6.81755L22.53 12.4367L21.5712 13.0226L10.2264 8.01596L1.49134 26.2849L39.2543 2.98267L44.6871 33.1558L48.4687 24.8735L43.5686 22.7164L43.3822 21.5978L49.7204 24.3941ZM4.82024 38.6951L37.257 5.32621L1.11851 27.6165L4.82024 38.6951Z" fill="#F4F4F6"/>
<path d="M60.4527 1.65113V7.50999H58.9081V1.65113H57.0706L57.0972 0.15979H62.2636L62.2903 1.65113H60.4527Z" fill="#F4F4F6"/>
<path d="M68.8681 6.07191L68.8415 7.50999H64.181V0.15979H68.6817L68.7083 1.6245H65.7256V3.08922H68.2556V4.39414H65.7256V6.07191H68.8681Z" fill="#F4F4F6"/>
<path d="M75.3928 1.75764C75.0466 1.59785 74.5673 1.51796 74.0613 1.51796C72.8096 1.51796 72.4101 2.05058 72.4101 3.80824C72.4101 5.64579 72.8362 6.20504 74.0879 6.20504C74.5939 6.20504 75.0466 6.09852 75.4195 5.9121L75.5792 7.24366C75.1265 7.48334 74.4874 7.64312 73.8748 7.64312C71.7976 7.64312 70.8123 6.41809 70.8123 3.7816C70.8123 1.33154 71.7976 0.0266113 73.9814 0.0266113C74.5406 0.0266113 75.1798 0.159767 75.5792 0.319554L75.3928 1.75764Z" fill="#F4F4F6"/>
<path d="M81.731 7.50999V4.50067H79.3342V7.50999H77.7896V0.15979H79.3342V3.00932H81.731V0.15979H83.2489V7.50999H81.731Z" fill="#F4F4F6"/>
<path d="M90.3329 7.50999L87.6698 3.48868L87.2703 2.82291H87.2437V3.62184V7.48336H85.8855V0.15979H87.1904L89.6139 3.94141L90.0133 4.60719H90.04L90.0133 3.83489V0.15979H91.3715V7.50999H90.3329Z" fill="#F4F4F6"/>
<path d="M96.5912 7.6431C94.4874 7.6431 93.5819 6.4447 93.5819 3.83485C93.5819 1.22499 94.4607 0.0532227 96.5912 0.0532227C98.7217 0.0532227 99.6006 1.22499 99.6006 3.83485C99.6006 6.49796 98.7484 7.6431 96.5912 7.6431ZM96.5912 1.51794C95.5526 1.51794 95.1798 1.97067 95.1798 3.83485C95.1798 5.69903 95.5526 6.17839 96.5912 6.17839C97.6299 6.17839 97.9761 5.69903 97.9761 3.83485C98.0027 1.97067 97.6565 1.51794 96.5912 1.51794Z" fill="#F4F4F6"/>
<path d="M106.152 6.01864L106.125 7.50999H101.784V0.15979H103.329V6.01864H106.152Z" fill="#F4F4F6"/>
<path d="M110.759 7.6431C108.655 7.6431 107.75 6.4447 107.75 3.83485C107.75 1.22499 108.628 0.0532227 110.759 0.0532227C112.889 0.0532227 113.768 1.22499 113.768 3.83485C113.768 6.49796 112.889 7.6431 110.759 7.6431ZM110.759 1.51794C109.72 1.51794 109.348 1.97067 109.348 3.83485C109.348 5.69903 109.72 6.17839 110.759 6.17839C111.798 6.17839 112.144 5.69903 112.144 3.83485C112.144 1.97067 111.798 1.51794 110.759 1.51794Z" fill="#F4F4F6"/>
<path d="M120.985 7.21704C120.479 7.48336 119.68 7.61651 118.935 7.61651C116.591 7.61651 115.686 6.33822 115.686 3.80826C115.686 1.25166 116.671 0 118.988 0C119.627 0 120.346 0.133156 120.879 0.346205L120.746 1.78429C120.266 1.59787 119.654 1.46471 119.095 1.46471C117.736 1.46471 117.337 1.99734 117.337 3.80826C117.337 5.64581 117.736 6.1518 118.935 6.1518C119.201 6.1518 119.441 6.12517 119.654 6.04527V3.54194H121.012L120.985 7.21704Z" fill="#F4F4F6"/>
<path d="M124.341 0.15979L125.486 2.95606L125.779 3.6751H125.806L126.072 2.92943L127.164 0.15979H128.842L126.525 5.16645V7.50999H124.953V5.16645L122.583 0.15979H124.341Z" fill="#F4F4F6"/>
<path d="M59.3609 15.4993V17.0971H61.8642L61.8376 18.5086H59.3609V21.3581H57.8163V14.0079H62.3169L62.3436 15.4993H59.3609Z" fill="#F4F4F6"/>
<path d="M67.004 21.4914C64.9001 21.4914 63.9946 20.293 63.9946 17.6831C63.9946 15.0733 64.8735 13.9015 67.004 13.9015C69.1344 13.9015 70.0133 15.0733 70.0133 17.6831C70.0133 20.3462 69.1344 21.4914 67.004 21.4914ZM67.004 15.3662C65.9653 15.3662 65.5925 15.8189 65.5925 17.6831C65.5925 19.5473 65.9653 20.0267 67.004 20.0267C68.0426 20.0267 68.3888 19.5473 68.3888 17.6831C68.4154 15.8189 68.0426 15.3662 67.004 15.3662Z" fill="#F4F4F6"/>
<path d="M77.5499 18.7217C77.5499 20.5858 76.6178 21.4913 74.8069 21.4913C72.996 21.4913 72.0372 20.5858 72.0372 18.7217V14.0079H73.5818V18.7217C73.5818 19.6005 73.9547 19.9999 74.8069 19.9999C75.6591 19.9999 76.0319 19.6271 76.0319 18.7217V14.0079H77.5499V18.7217Z" fill="#F4F4F6"/>
<path d="M84.474 21.3582L81.8109 17.3368L81.4114 16.6711H81.3848V17.47V21.3315H80.0266V13.9813H81.3315L83.755 17.7629L84.1544 18.4287H84.1811L84.1544 17.6564V14.008H85.5126V21.3582H84.474Z" fill="#F4F4F6"/>
<path d="M90.7057 21.3581H88.1224V14.0079H90.679C92.8362 14.0079 93.7416 15.1264 93.7416 17.6564C93.7682 20.2929 92.7296 21.3581 90.7057 21.3581ZM90.679 15.4726H89.667V19.8668H90.679C91.7176 19.8668 92.1437 19.494 92.1437 17.6298C92.1437 15.8987 91.7443 15.4726 90.679 15.4726Z" fill="#F4F4F6"/>
<path d="M99.5473 19.9201H97.0706L96.6977 21.3581H95.0732L97.4434 14.0079H99.281L101.678 21.3581H99.9734L99.5473 19.9201ZM98.1092 16.0053L97.4168 18.5352H99.1478L98.482 16.0053L98.2956 15.233H98.269L98.1092 16.0053Z" fill="#F4F4F6"/>
<path d="M105.672 15.4993V21.3581H104.128V15.4993H102.29L102.317 14.0079H107.457L107.483 15.4993H105.672Z" fill="#F4F4F6"/>
<path d="M109.454 14.0079H111.025V21.3581H109.454V14.0079Z" fill="#F4F4F6"/>
<path d="M116.272 21.4914C114.168 21.4914 113.262 20.293 113.262 17.6831C113.262 15.0733 114.141 13.9015 116.272 13.9015C118.402 13.9015 119.281 15.0733 119.281 17.6831C119.281 20.3462 118.402 21.4914 116.272 21.4914ZM116.272 15.3662C115.233 15.3662 114.86 15.8189 114.86 17.6831C114.86 19.5473 115.233 20.0267 116.272 20.0267C117.31 20.0267 117.656 19.5473 117.656 17.6831C117.683 15.8189 117.31 15.3662 116.272 15.3662Z" fill="#F4F4F6"/>
<path d="M125.859 21.3582L123.196 17.3368L122.796 16.6711H122.77V17.47V21.3315H121.411V13.9813H122.716L125.14 17.7629L125.539 18.4287H125.566L125.539 17.6564V14.008H126.897V21.3582H125.859Z" fill="#F4F4F6"/>
<path d="M60.4794 34.8069H57.8695V27.4567H60.3728C61.731 27.4567 62.3968 28.0958 62.3968 29.2942C62.3968 30.1997 61.9973 30.7057 61.4115 30.9187V30.9453C62.1838 31.1318 62.6631 31.691 62.6631 32.7296C62.6631 34.0079 62.0506 34.8069 60.4794 34.8069ZM60.3196 28.3355H58.7483V30.5991H60.3995C61.1451 30.5991 61.4913 30.2263 61.4913 29.454C61.4913 28.6551 61.1451 28.3355 60.3196 28.3355ZM60.4527 31.3981H58.775V33.9547H60.506C61.3049 33.9547 61.7577 33.6085 61.7577 32.6497C61.731 31.7709 61.3316 31.3981 60.4527 31.3981Z" fill="#F4F4F6"/>
<path d="M69.8003 33.8748L69.7736 34.7803H65.4061V27.4301H69.6138L69.6405 28.3621H66.3382V30.5459H69.1877V31.3981H66.3648V33.8748H69.8003Z" fill="#F4F4F6"/>
<path d="M75.4195 31.5046L77.2038 34.7803H76.0853L74.5406 31.691H73.1825V34.7803H72.2504V27.4301H74.5673C76.0586 27.4301 76.751 28.0958 76.751 29.5339C76.751 30.6791 76.2717 31.3448 75.4195 31.5046ZM74.5673 28.3089H73.1825V30.8921H74.5406C75.4195 30.8921 75.8189 30.5459 75.8189 29.5605C75.7923 28.6551 75.4195 28.3089 74.5673 28.3089Z" fill="#F4F4F6"/>
<path d="M83.7283 33.8482L83.7017 34.7803H79.6005V27.4301H80.5326V33.8482H83.7283Z" fill="#F4F4F6"/>
<path d="M86.0719 27.4567H87.0306V34.8069H86.0719V27.4567Z" fill="#F4F4F6"/>
<path d="M94.7004 34.8069L91.478 29.7469L91.0785 29.0812H91.0519V29.8801V34.8069H90.2263V27.4567H91.0785L94.5406 33.0226H94.5672L94.5406 32.2503V27.4833H95.3661V34.8335H94.7004V34.8069Z" fill="#F4F4F6"/>
</g>
<defs>
<clipPath id="clip0_226_10376">
<rect width="128.842" height="40" fill="white"/>
</clipPath>
</defs>
</svg>
