<svg width="72" height="40" viewBox="0 0 72 40" fill="none" xmlns="http://www.w3.org/2000/svg">
<g clip-path="url(#clip0_226_9961)">
<path d="M58.0868 35.3256C60.9243 35.3256 62.9631 34.4832 64.5465 33.4226C66.0229 32.4332 67.1673 31.2625 68.0451 29.7524C69.1799 27.8005 69.5293 25.9862 69.6252 24.9339C69.6255 24.9251 71.7099 2.9948 71.7099 2.9948L61.1913 2.99409C61.1913 2.99409 58.0836 35.3256 58.0868 35.3256Z" fill="#F4F4F6"/>
<path d="M48.1349 10.3442L46.7106 25.137C46.4486 28.677 47.7759 30.4958 48.6018 31.4543C50.1106 33.2043 52.8845 34.5802 56.088 35.1542C56.1768 34.2133 58.9365 5.57932 58.9365 5.57417C59.0323 4.10434 58.6041 2.81894 57.6237 1.69865C56.48 0.392307 54.7877 0.00101089 54.0889 0.00101089L28.9386 0.00384903C27.0467 0.00384903 24.2023 1.92378 24.2023 5.09037C24.2023 9.00323 27.6792 10.3445 28.8755 10.3445C29.4862 10.3445 48.1349 10.3442 48.1349 10.3442Z" fill="#F4F4F6"/>
<path d="M33.4895 32.3524L42.8552 32.352L44.7716 12.4491L35.4057 12.4494C35.4057 12.4494 33.732 29.7749 33.4895 32.3524Z" fill="#F4F4F6"/>
<path d="M64.8615 20.6621C64.8043 21.2499 65.4509 21.5661 66.0624 21.5668L67.1826 21.5678C67.249 21.4062 67.2885 21.2228 67.3108 20.995C67.3705 20.3705 67.0335 19.9443 66.0584 19.9433C65.3309 19.9429 64.9083 20.1704 64.8615 20.6621ZM67.9233 21.0539C67.874 21.5682 67.7859 21.9576 67.645 22.3542L62.4277 22.3498L62.5041 21.5636L64.1705 21.565C64.3814 21.5654 64.6704 21.5876 64.8551 21.632L64.8565 21.617C64.4237 21.426 64.1815 20.9922 64.2337 20.4558C64.3168 19.5892 64.9744 19.1125 66.0652 19.1131C67.3172 19.1141 68.0405 19.842 67.9233 21.0539Z" fill="#09090B"/>
<path d="M65.1629 16.8481C65.1206 17.2885 65.4182 17.5974 65.9139 17.6644L66.063 16.1143C65.5549 16.0991 65.2073 16.3851 65.1629 16.8481ZM66.6741 15.358L66.4508 17.6792C67.2714 17.7021 67.6687 17.3498 67.7408 16.6005C67.7749 16.2482 67.7372 15.8806 67.6311 15.5498L68.245 15.4479C68.3536 15.8296 68.397 16.2852 68.3533 16.7406C68.245 17.8644 67.6027 18.4883 66.3293 18.4872C65.2449 18.4862 64.4833 17.8613 64.5845 16.8037C64.6849 15.7606 65.4104 15.3275 66.2331 15.3282C66.3496 15.3282 66.5236 15.3362 66.6741 15.358Z" fill="#09090B"/>
<path d="M65.7623 12.5857C65.5542 13.3125 66.0222 13.6655 67.1063 13.6665L68.5763 13.6676L68.5003 14.4536L64.8842 14.4506L64.9562 13.7011C65.1593 13.7015 65.4779 13.7237 65.7495 13.7753L65.7509 13.7608C65.2786 13.5985 64.8632 13.2309 65.002 12.5478L65.7623 12.5857Z" fill="#09090B"/>
<path d="M68.7486 11.8762L63.4369 11.8716L63.5125 11.0859L68.8242 11.0905L68.7486 11.8762Z" fill="#09090B"/>
<path d="M68.9275 10.0156L65.3113 10.0124L65.3869 9.22665L69.0038 9.22984L68.9275 10.0156ZM64.7087 9.61543C64.6825 9.89491 64.4492 10.122 64.1726 10.1217C63.9034 10.1217 63.7074 9.89381 63.7337 9.61433C63.76 9.34244 64.0007 9.1154 64.2699 9.1154C64.5387 9.11568 64.735 9.34358 64.7087 9.61543Z" fill="#09090B"/>
<path d="M69.3262 5.87521L67.005 5.87312C66.5541 5.87273 66.2725 5.99754 66.2324 6.41614C66.1794 6.96752 66.7149 7.37142 67.4432 7.3721L69.1817 7.37348L69.1064 8.15967L65.4902 8.15647L65.5623 7.40718C65.7587 7.40746 66.0701 7.42245 66.2696 7.4592L66.2703 7.45185C65.8251 7.23866 65.5478 6.79757 65.6074 6.18037C65.6873 5.35051 66.2359 5.09389 66.869 5.0946L69.4011 5.09666L69.3262 5.87521Z" fill="#09090B"/>
<path d="M3.19167 21.1122L2.83743 24.791H2.14945L2.5037 21.1122H1.33582L1.39185 20.5317H4.42183L4.3658 21.1122H3.19167Z" fill="#F4F4F6"/>
<path d="M5.62016 22.0967C5.24151 22.0967 4.94885 22.3806 4.84996 22.8159H6.18194C6.23712 22.3741 6.01786 22.0967 5.62016 22.0967ZM6.78725 23.2829H4.79268C4.70473 23.9958 4.97743 24.3114 5.62144 24.3114C5.92451 24.3114 6.246 24.2483 6.54171 24.1283L6.5796 24.6523C6.23907 24.7781 5.84071 24.8541 5.44916 24.8541C4.48351 24.8541 3.99552 24.3492 4.10205 23.2448C4.19249 22.3047 4.79765 21.5918 5.70645 21.5918C6.60289 21.5918 6.91803 22.185 6.84939 22.898C6.83966 22.999 6.81885 23.1504 6.78725 23.2829Z" fill="#F4F4F6"/>
<path d="M8.59795 24.8412C7.79 24.8412 7.24115 24.4438 7.34863 23.3269C7.44475 22.3299 8.02563 21.6043 9.07355 21.6043C9.33848 21.6043 9.59396 21.6424 9.79398 21.7242L9.62531 22.2984C9.44319 22.2229 9.21505 22.166 8.98173 22.166C8.45162 22.166 8.1247 22.6078 8.06267 23.251C8.00735 23.8256 8.16767 24.2607 8.78629 24.2607C9.0325 24.2607 9.27009 24.2167 9.47526 24.122L9.52198 24.6835C9.2529 24.791 8.91334 24.8412 8.59795 24.8412Z" fill="#F4F4F6"/>
<path d="M12.104 24.791L12.298 22.778C12.3355 22.3869 12.2509 22.1531 11.891 22.1531C11.4176 22.1531 11.0226 22.6518 10.9618 23.2829L10.8164 24.791H10.1411L10.5845 20.1846H11.26L11.1227 21.6105C11.104 21.8064 11.0661 22.0648 11.0052 22.2416L11.017 22.2481C11.2384 21.8505 11.6358 21.5918 12.1469 21.5918C12.8601 21.5918 13.0377 22.0461 12.9848 22.5949L12.7733 24.791H12.104Z" fill="#F4F4F6"/>
<path d="M15.6622 24.791L15.8559 22.778C15.8935 22.3869 15.8089 22.1531 15.449 22.1531C14.9757 22.1531 14.5806 22.6518 14.5199 23.2829L14.3746 24.791H13.6991L14.0012 21.6549H14.645C14.6286 21.8251 14.5897 22.0967 14.541 22.2731H14.5473C14.7693 21.8695 15.1747 21.5918 15.7049 21.5918C16.4182 21.5918 16.5958 22.0461 16.5429 22.5949L16.3314 24.791H15.6622Z" fill="#F4F4F6"/>
<path d="M17.9503 21.0994C17.7104 21.0994 17.5326 20.9166 17.5556 20.677C17.578 20.4433 17.7918 20.254 18.0317 20.254C18.2652 20.254 18.4428 20.4433 18.4204 20.677C18.3978 20.9104 18.1838 21.0994 17.9503 21.0994ZM17.254 24.791L17.5561 21.6549H18.2315L17.9295 24.791H17.254Z" fill="#F4F4F6"/>
<path d="M19.3854 24.8541C19.1455 24.8541 18.89 24.8222 18.6998 24.7656L18.8054 24.1914C18.9936 24.2674 19.242 24.3114 19.4817 24.3114C19.8354 24.3114 20.0969 24.1537 20.1211 23.9012C20.1831 23.2576 18.7692 23.6488 18.8736 22.5637C18.9266 22.0144 19.384 21.5918 20.2489 21.5918C20.4382 21.5918 20.6567 21.6171 20.8361 21.6549L20.7458 22.1973C20.5684 22.1407 20.3632 22.1092 20.1609 22.1092C19.7887 22.1092 19.5974 22.2606 19.5744 22.5003C19.5149 23.1185 20.936 22.778 20.8346 23.8319C20.7773 24.4251 20.2188 24.8541 19.3854 24.8541Z" fill="#F4F4F6"/>
<path d="M22.6667 24.8412C21.8587 24.8412 21.3099 24.4438 21.4174 23.3269C21.5135 22.3299 22.0944 21.6043 23.1423 21.6043C23.4073 21.6043 23.6627 21.6424 23.8627 21.7242L23.694 22.2984C23.5119 22.2229 23.2837 22.166 23.0505 22.166C22.5203 22.166 22.1934 22.6078 22.1314 23.251C22.0761 23.8256 22.2364 24.2607 22.855 24.2607C23.1012 24.2607 23.3388 24.2167 23.544 24.122L23.5907 24.6835C23.3216 24.791 22.9821 24.8412 22.6667 24.8412Z" fill="#F4F4F6"/>
<path d="M26.1728 24.791L26.3667 22.778C26.4042 22.3869 26.3197 22.1531 25.9597 22.1531C25.4863 22.1531 25.0913 22.6518 25.0305 23.2829L24.8852 24.791H24.2098L24.6533 20.1846H25.3287L25.1914 21.6105C25.1727 21.8064 25.1348 22.0648 25.074 22.2416L25.0858 22.2481C25.3071 21.8505 25.7045 21.5918 26.2156 21.5918C26.9288 21.5918 27.1064 22.0461 27.0535 22.5949L26.842 24.791H26.1728Z" fill="#F4F4F6"/>
<path d="M29.1773 22.0967C28.7986 22.0967 28.5059 22.3806 28.4072 22.8159H29.739C29.7944 22.3741 29.5751 22.0967 29.1773 22.0967ZM30.3443 23.2829H28.3497C28.2618 23.9958 28.5346 24.3114 29.1785 24.3114C29.4816 24.3114 29.8032 24.2483 30.0988 24.1283L30.1368 24.6523C29.7963 24.7781 29.3978 24.8541 29.0064 24.8541C28.0406 24.8541 27.5528 24.3492 27.6591 23.2448C27.7497 22.3047 28.3548 21.5918 29.2637 21.5918C30.16 21.5918 30.4753 22.185 30.4066 22.898C30.3969 22.999 30.3761 23.1504 30.3443 23.2829Z" fill="#F4F4F6"/>
<path d="M1.48954 32.4272C0.151328 32.4272 -0.0622759 31.6952 0.0131792 30.9126L0.283513 28.1048H0.971486L0.706005 30.8623C0.651358 31.43 0.799353 31.8593 1.58816 31.8593C2.28265 31.8593 2.62622 31.5694 2.70279 30.7739L2.95981 28.1048H3.6353L3.38313 30.7236C3.27383 31.8593 2.60681 32.4272 1.48954 32.4272Z" fill="#F4F4F6"/>
<path d="M6.13181 32.3643L6.32558 30.3513C6.36314 29.9601 6.27853 29.7264 5.91862 29.7264C5.44533 29.7264 5.05019 30.225 4.9893 30.8561L4.84421 32.3643H4.1687L4.47066 29.2282H5.11468C5.09816 29.3984 5.05918 29.6699 5.01064 29.8464H5.01689C5.23895 29.4427 5.64439 29.165 6.17452 29.165C6.88785 29.165 7.06528 29.6196 7.01241 30.1681L6.80089 32.3643H6.13181Z" fill="#F4F4F6"/>
<path d="M8.42004 28.6726C8.18007 28.6726 8.0021 28.4899 8.02529 28.2503C8.04777 28.0166 8.26149 27.8273 8.5016 27.8273C8.73489 27.8273 8.91257 28.0166 8.89009 28.2503C8.86747 28.4836 8.65332 28.6726 8.42004 28.6726ZM7.72375 32.3643L8.02568 29.2282H8.70133L8.39923 32.3643H7.72375Z" fill="#F4F4F6"/>
<path d="M10.8041 32.3643H10.1161L9.2439 29.2282H9.98875L10.416 30.8878C10.4646 31.1023 10.5193 31.3233 10.5562 31.5313H10.5624C10.6315 31.3358 10.7225 31.1148 10.805 30.9127L11.5669 29.2282H12.2926L10.8041 32.3643Z" fill="#F4F4F6"/>
<path d="M13.8787 29.6698C13.5 29.6698 13.2075 29.9537 13.1087 30.389H14.4406C14.4959 29.9472 14.2765 29.6698 13.8787 29.6698ZM15.0457 30.856H13.0512C12.9634 31.5694 13.2362 31.8845 13.88 31.8845C14.1831 31.8845 14.5048 31.8214 14.8003 31.7014L14.8384 32.2255C14.4978 32.3513 14.0993 32.4272 13.7079 32.4272C12.7421 32.4272 12.2543 31.9224 12.3607 30.8183C12.4513 29.8779 13.0563 29.1649 13.9652 29.1649C14.8615 29.1649 15.1768 29.7582 15.1081 30.4711C15.0984 30.5721 15.0776 30.7236 15.0457 30.856Z" fill="#F4F4F6"/>
<path d="M17.5296 29.8339C16.9163 29.7139 16.5716 30.1491 16.4811 31.0896L16.3583 32.3643H15.683L15.9849 29.2282H16.629C16.6119 29.4046 16.566 29.6824 16.4988 29.922H16.5113C16.6908 29.4993 17.0444 29.1082 17.625 29.1713L17.5296 29.8339Z" fill="#F4F4F6"/>
<path d="M18.4995 32.4272C18.2595 32.4272 18.0039 32.3956 17.8137 32.3388L17.9193 31.7645C18.1076 31.8405 18.356 31.8845 18.5956 31.8845C18.9493 31.8845 19.2107 31.7268 19.2351 31.4743C19.297 30.8308 17.8831 31.2219 17.9876 30.1368C18.0405 29.5876 18.4981 29.1649 19.3629 29.1649C19.5522 29.1649 19.7707 29.1902 19.9502 29.2281L19.8596 29.7707C19.6825 29.7138 19.4769 29.6823 19.2748 29.6823C18.9024 29.6823 18.7113 29.8338 18.6883 30.0734C18.6287 30.6916 20.0499 30.3512 19.9485 31.405C19.8913 31.9982 19.3327 32.4272 18.4995 32.4272Z" fill="#F4F4F6"/>
<path d="M21.2548 28.6726C21.0146 28.6726 20.8368 28.4899 20.8599 28.2503C20.8825 28.0166 21.0962 27.8273 21.3362 27.8273C21.5695 27.8273 21.7473 28.0166 21.7247 28.2503C21.7022 28.4836 21.488 28.6726 21.2548 28.6726ZM20.5585 32.3643L20.8604 29.2282H21.5359L21.2338 32.3643H20.5585Z" fill="#F4F4F6"/>
<path d="M23.2357 32.4211C22.5668 32.4211 22.3897 32.1624 22.4571 31.462L22.6218 29.7521H22.0222L22.0727 29.2282H22.6723L22.7682 28.2312L23.4613 28.0481L23.3477 29.2282H24.1683L24.1178 29.7521H23.2973L23.1527 31.2539C23.1076 31.7207 23.1901 31.8469 23.5057 31.8469C23.6448 31.8469 23.7792 31.8278 23.8949 31.8025L23.8996 32.3451C23.7059 32.3895 23.4441 32.4211 23.2357 32.4211Z" fill="#F4F4F6"/>
<path d="M26.7319 28.6351C26.5173 28.6351 26.3631 28.4645 26.3838 28.2502C26.4039 28.0417 26.5908 27.8715 26.8054 27.8715C27.0135 27.8715 27.1678 28.0417 27.1477 28.2502C27.1271 28.4645 26.94 28.6351 26.7319 28.6351ZM25.4884 28.6351C25.2738 28.6351 25.1263 28.4645 25.1469 28.2502C25.1671 28.0417 25.3474 27.8715 25.5619 27.8715C25.7767 27.8715 25.9306 28.0417 25.9105 28.2502C25.8898 28.4645 25.7031 28.6351 25.4884 28.6351ZM26.3724 30.9254C25.4382 30.9254 25.1553 31.1778 25.1267 31.4743C25.1035 31.7143 25.2499 31.897 25.5152 31.897C25.9694 31.897 26.3213 31.4552 26.3643 31.0076L26.3724 30.9254ZM26.2782 32.3641C26.2976 32.1623 26.324 31.9539 26.3656 31.7837L26.3597 31.7774C26.1727 32.1494 25.7545 32.4272 25.2558 32.4272C24.7193 32.4272 24.4132 32.0676 24.4624 31.5565C24.5304 30.8498 25.2672 30.4711 26.4161 30.4711L26.4288 30.3387C26.4713 29.8969 26.3337 29.6888 25.8729 29.6888C25.5826 29.6888 25.1948 29.7832 24.9049 29.9098L24.8354 29.3858C25.163 29.2595 25.6015 29.1649 26.018 29.1649C26.9335 29.1649 27.1771 29.5813 27.1117 30.2628L26.992 31.5058C26.9659 31.7774 26.9411 32.0988 26.9283 32.3641H26.2782Z" fill="#F4F4F6"/>
<path d="M28.902 32.4211C28.2332 32.4211 28.056 32.1624 28.1234 31.462L28.2881 29.7521H27.6886L27.7389 29.2282H28.3386L28.4344 28.2312L29.1277 28.0481L29.014 29.2282H29.8345L29.784 29.7521H28.9636L28.819 31.2539C28.774 31.7207 28.8565 31.8469 29.1721 31.8469C29.311 31.8469 29.4454 31.8278 29.5613 31.8025L29.566 32.3451C29.3722 32.3895 29.1105 32.4211 28.902 32.4211Z" fill="#F4F4F6"/>
<path d="M15.1755 36.2014C14.9924 36.2014 14.8087 36.2081 14.6566 36.2141L14.5343 37.4828C14.6476 37.4889 14.7547 37.4889 14.8999 37.4889C15.5372 37.4889 15.8592 37.23 15.9004 36.8011C15.9338 36.4538 15.7625 36.2014 15.1755 36.2014ZM14.8633 38.0002C14.8002 38.0002 14.5792 38.0002 14.4841 38.0063L14.3526 39.3693C14.4587 39.3814 14.6906 39.4007 14.8546 39.4007C15.4794 39.4007 15.7998 39.0914 15.8399 38.6753C15.886 38.1952 15.5009 38.0002 14.8633 38.0002ZM14.7632 39.9561C14.473 39.9561 14.0828 39.9432 13.6101 39.9372L14.0203 35.678C14.3554 35.6716 14.8299 35.6587 15.3474 35.6587C16.2564 35.6587 16.6997 36.0372 16.6364 36.6935C16.5945 37.1291 16.3062 37.501 15.8488 37.6654L15.8476 37.6778C16.3319 37.7602 16.6229 38.1451 16.5743 38.65C16.5154 39.2618 16.0191 39.9561 14.7632 39.9561Z" fill="#F4F4F6"/>
<path d="M18.6857 37.2428C18.307 37.2428 18.0144 37.5269 17.9156 37.9619H19.2475C19.3028 37.5201 19.0835 37.2428 18.6857 37.2428ZM19.8528 38.4292H17.8582C17.7702 39.1421 18.0431 39.4574 18.687 39.4574C18.99 39.4574 19.3117 39.3943 19.6073 39.2746L19.6453 39.7983C19.3047 39.9244 18.9062 40 18.5148 40C17.549 40 17.0612 39.4954 17.1676 38.3912C17.2581 37.4509 17.8632 36.7378 18.7721 36.7378C19.6684 36.7378 19.9837 37.3312 19.915 38.0443C19.9053 38.1451 19.8845 38.2967 19.8528 38.4292Z" fill="#F4F4F6"/>
<path d="M22.3361 37.4068C21.7229 37.2868 21.3782 37.7222 21.2876 38.6623L21.1649 39.9371H20.4894L20.7913 36.801H21.4354C21.4183 36.9775 21.3725 37.2552 21.3054 37.4952H21.3177C21.4972 37.0719 21.8508 36.6811 22.4314 36.7446L22.3361 37.4068Z" fill="#F4F4F6"/>
<path d="M22.7083 39.9371L23.1518 35.3306H23.8273L23.3839 39.9371H22.7083Z" fill="#F4F4F6"/>
<path d="M25.0087 36.2454C24.7687 36.2454 24.5908 36.0629 24.6138 35.8232C24.6364 35.5895 24.8502 35.4 25.0901 35.4C25.3236 35.4 25.5012 35.5895 25.4786 35.8232C25.4562 36.0565 25.242 36.2454 25.0087 36.2454ZM24.3123 39.9371L24.6144 36.801H25.2899L24.9879 39.9371H24.3123Z" fill="#F4F4F6"/>
<path d="M27.8758 39.9371L28.0696 37.9241C28.1071 37.5328 28.0225 37.2993 27.6626 37.2993C27.1893 37.2993 26.7942 37.798 26.7336 38.4291L26.5882 39.9371H25.9127L26.2147 36.801H26.8587C26.8421 36.9715 26.8033 37.2428 26.7547 37.4195H26.7609C26.9829 37.0155 27.3884 36.7378 27.9185 36.7378C28.6319 36.7378 28.8094 37.1923 28.7565 37.7409L28.5449 39.9371H27.8758Z" fill="#F4F4F6"/>
</g>
<defs>
<clipPath id="clip0_226_9961">
<rect width="71.7088" height="40" fill="white"/>
</clipPath>
</defs>
</svg>
